# Blender 5.2.1 LTS
# www.blender.org
mtllib workbench.mtl
o Object_4
v 8.281749 4.538034 3.360400
v 8.281749 4.259346 3.360400
v 7.707853 4.538034 1.989333
v 7.707853 4.259347 1.989333
v 6.508170 4.538034 2.491492
v 6.508170 4.259347 2.491492
v 7.082066 4.538034 3.862559
v 7.082066 4.259347 3.862559
v 7.353096 4.166451 3.547702
v 7.353095 3.701972 3.547702
v 7.245490 4.166451 3.290627
v 7.245490 3.701972 3.290627
v 6.988415 4.166451 3.398232
v 6.988415 3.701973 3.398232
v 7.096020 4.166451 3.655307
v 7.096020 3.701972 3.655307
v 7.801504 4.166451 2.453660
v 7.801503 3.701972 2.453660
v 7.693898 4.166451 2.196585
v 7.693898 3.701972 2.196585
v 7.436823 4.166451 2.304191
v 7.436823 3.701972 2.304191
v 7.544429 4.166451 2.561266
v 7.544428 3.701972 2.561266
v 8.124320 4.166451 3.224885
v 8.124320 3.701972 3.224885
v 8.016714 4.166451 2.967810
v 8.016714 3.701972 2.967810
v 7.759640 4.166451 3.075416
v 7.759640 3.701972 3.075416
v 7.867245 4.166451 3.332491
v 7.867245 3.701972 3.332491
v 8.245880 4.259346 3.274708
v 8.245880 4.166451 3.274708
v 7.743721 4.259347 2.075025
v 7.743721 4.166451 2.075025
v 6.544038 4.259347 2.577184
v 6.544038 4.166451 2.577184
v 7.046197 4.259347 3.776867
v 7.046197 4.166451 3.776867
v 6.944587 3.794868 2.812345
v 7.074106 3.794868 3.362364
v 7.931023 4.073555 3.003679
v 7.931023 3.794868 3.003679
v 7.715812 4.073555 2.489529
v 7.715812 3.794868 2.489529
v 7.630120 4.073555 2.525397
v 7.630120 3.794868 2.525397
v 7.845331 4.073555 3.039547
v 7.845331 3.794868 3.039547
v 7.030279 4.166451 2.776477
v 7.030279 3.701972 2.776477
v 6.922673 4.166451 2.519402
v 6.922673 3.701973 2.519402
v 6.665598 4.166451 2.627007
v 6.665598 3.701973 2.627007
v 6.773204 4.166451 2.884082
v 6.773204 3.701973 2.884082
v 8.281749 4.538034 3.360400
v 8.281749 4.538034 3.360400
v 8.281749 4.259346 3.360400
v 8.281749 4.259346 3.360400
v 7.707853 4.538034 1.989333
v 7.707853 4.538034 1.989333
v 7.707853 4.259347 1.989333
v 7.707853 4.259347 1.989333
v 6.508170 4.538034 2.491492
v 6.508170 4.538034 2.491492
v 6.508170 4.259347 2.491492
v 6.508170 4.259347 2.491492
v 7.082066 4.538034 3.862559
v 7.082066 4.538034 3.862559
v 7.082066 4.259347 3.862559
v 7.082066 4.259347 3.862559
v 7.353096 4.166451 3.547702
v 7.353095 3.701972 3.547702
v 7.353095 3.701972 3.547702
v 7.245490 4.166451 3.290627
v 7.245490 3.701972 3.290627
v 7.245490 3.701972 3.290627
v 6.988415 4.166451 3.398232
v 6.988415 3.701973 3.398232
v 6.988415 3.701973 3.398232
v 7.096020 4.166451 3.655307
v 7.096020 3.701972 3.655307
v 7.096020 3.701972 3.655307
v 7.801504 4.166451 2.453660
v 7.801503 3.701972 2.453660
v 7.801503 3.701972 2.453660
v 7.693898 4.166451 2.196585
v 7.693898 3.701972 2.196585
v 7.693898 3.701972 2.196585
v 7.436823 4.166451 2.304191
v 7.436823 3.701972 2.304191
v 7.436823 3.701972 2.304191
v 7.544429 4.166451 2.561266
v 7.544428 3.701972 2.561266
v 7.544428 3.701972 2.561266
v 8.124320 4.166451 3.224885
v 8.124320 3.701972 3.224885
v 8.124320 3.701972 3.224885
v 8.016714 4.166451 2.967810
v 8.016714 3.701972 2.967810
v 8.016714 3.701972 2.967810
v 7.759640 4.166451 3.075416
v 7.759640 3.701972 3.075416
v 7.759640 3.701972 3.075416
v 7.867245 4.166451 3.332491
v 7.867245 3.701972 3.332491
v 7.867245 3.701972 3.332491
v 8.245880 4.259346 3.274708
v 8.245880 4.259346 3.274708
v 8.245880 4.166451 3.274708
v 8.245880 4.166451 3.274708
v 7.743721 4.259347 2.075025
v 7.743721 4.259347 2.075025
v 7.743721 4.166451 2.075025
v 7.743721 4.166451 2.075025
v 6.544038 4.259347 2.577184
v 6.544038 4.259347 2.577184
v 6.544038 4.166451 2.577184
v 6.544038 4.166451 2.577184
v 7.046197 4.259347 3.776867
v 7.046197 4.259347 3.776867
v 7.046197 4.166451 3.776867
v 7.046197 4.166451 3.776867
v 7.159798 4.073555 3.326495
v 7.159798 4.073555 3.326495
v 7.159798 3.794868 3.326495
v 7.159798 3.794868 3.326495
v 6.944587 4.073555 2.812345
v 6.944587 4.073555 2.812345
v 6.944587 3.794868 2.812345
v 6.858895 4.073555 2.848214
v 6.858895 4.073555 2.848214
v 6.858895 3.794868 2.848214
v 6.858895 3.794868 2.848214
v 7.074107 4.073555 3.362364
v 7.074107 4.073555 3.362364
v 7.074106 3.794868 3.362364
v 7.931023 4.073555 3.003679
v 7.715812 4.073555 2.489529
v 7.630120 4.073555 2.525397
v 7.845331 4.073555 3.039547
v 7.630120 3.794868 2.525397
v 7.845331 3.794868 3.039547
v 7.931023 3.794868 3.003679
v 7.715812 3.794868 2.489529
v 7.030279 4.166451 2.776477
v 7.030279 3.701972 2.776477
v 7.030279 3.701972 2.776477
v 6.922673 4.166451 2.519402
v 6.922673 3.701973 2.519402
v 6.922673 3.701973 2.519402
v 6.665598 4.166451 2.627007
v 6.665598 3.701973 2.627007
v 6.665598 3.701973 2.627007
v 6.773204 4.166451 2.884082
v 6.773204 3.701973 2.884082
v 6.773204 3.701973 2.884082
vn 0.9225 -0.0000 -0.3861
vn -0.9225 -0.0000 0.3861
vn -0.0000 -1.0000 -0.0000
vn 0.3861 -0.0000 0.9225
vn -0.3861 -0.0000 -0.9225
vn -0.0000 1.0000 -0.0000
vt 0.000000 0.160000
vt 0.000000 0.190000
vt 0.160000 0.160000
vt 0.160000 0.190000
vt 0.800000 0.000000
vt 0.800000 0.160000
vt 0.940000 0.000000
vt 0.940000 0.160000
vt 0.300000 0.160000
vt 0.300000 0.190000
vt 0.000000 0.000000
vt 0.000000 0.050000
vt 0.030000 0.000000
vt 0.030000 0.050000
vt 0.320000 0.000000
vt 0.320000 0.050000
vt 0.350000 0.000000
vt 0.350000 0.050000
vt 0.000000 0.030000
vt 0.030000 0.030000
vt 0.160000 0.000000
vt 0.160000 0.050000
vt 0.190000 0.000000
vt 0.190000 0.050000
vt 0.160000 0.010000
vt 0.190000 0.010000
vt 0.640000 0.170000
vt 0.640000 0.180000
vt 0.780000 0.170000
vt 0.780000 0.180000
vt 0.000000 0.875000
vt 0.875000 0.000000
vt 0.875000 0.875000
vt 0.480000 0.160000
vt 0.480000 0.300000
vt 0.620000 0.160000
vt 0.620000 0.300000
vt 0.800000 0.150000
vt 0.940000 0.150000
vt 0.770000 0.170000
vt 0.770000 0.180000
vt 0.480000 0.000000
vt 0.480000 0.030000
vt 0.540000 0.000000
vt 0.540000 0.030000
vt 0.070000 0.160000
vt 0.080000 0.160000
vt 0.060000 0.160000
vt 0.100000 0.160000
vt 0.000000 0.040000
vt 0.030000 0.040000
vt 0.320000 0.320000
vt 0.460000 0.320000
vt 0.460000 0.160000
vt 0.320000 0.160000
s 0
usemtl m_12
f 59/1/1 61/2/1 63/3/1
f 61/2/1 65/4/1 63/3/1
f 68/1/2 69/2/2 71/3/2
f 69/2/2 73/4/2 71/3/2
f 8/5/3 70/6/3 62/7/3
f 70/6/3 4/8/3 62/7/3
f 72/3/4 74/4/4 60/9/4
f 74/4/4 2/10/4 60/9/4
f 64/3/5 66/4/5 67/9/5
f 66/4/5 6/10/5 67/9/5
f 75/11/1 76/12/1 78/13/1
f 76/12/1 79/14/1 78/13/1
f 81/15/2 82/16/2 84/17/2
f 82/16/2 85/18/2 84/17/2
f 16/11/3 83/19/3 77/13/3
f 83/19/3 12/20/3 77/13/3
f 15/21/4 86/22/4 9/23/4
f 86/22/4 10/24/4 9/23/4
f 11/21/5 80/22/5 13/23/5
f 80/22/5 14/24/5 13/23/5
f 87/15/1 88/16/1 90/17/1
f 88/16/1 91/18/1 90/17/1
f 93/11/2 94/12/2 96/13/2
f 94/12/2 97/14/2 96/13/2
f 24/11/3 95/19/3 89/13/3
f 95/19/3 20/20/3 89/13/3
f 23/21/4 98/22/4 17/23/4
f 98/22/4 18/24/4 17/23/4
f 19/21/5 92/22/5 21/23/5
f 92/22/5 22/24/5 21/23/5
f 99/11/1 100/12/1 102/13/1
f 100/12/1 103/14/1 102/13/1
f 105/15/2 106/16/2 108/17/2
f 106/16/2 109/18/2 108/17/2
f 32/25/3 107/22/3 101/26/3
f 107/22/3 28/24/3 101/26/3
f 31/21/4 110/22/4 25/23/4
f 110/22/4 26/24/4 25/23/4
f 27/21/5 104/22/5 29/23/5
f 104/22/5 30/24/5 29/23/5
f 111/27/1 113/28/1 115/29/1
f 113/28/1 117/30/1 115/29/1
f 120/27/2 121/28/2 123/29/2
f 121/28/2 125/30/2 123/29/2
f 119/11/6 124/31/6 116/32/6
f 124/31/6 112/33/6 116/32/6
f 40/34/3 122/35/3 114/36/3
f 122/35/3 36/37/3 114/36/3
f 39/38/4 126/6/4 33/39/4
f 126/6/4 34/8/4 33/39/4
f 35/27/5 118/28/5 37/40/5
f 118/28/5 38/41/5 37/40/5
f 127/42/1 129/43/1 131/44/1
f 129/43/1 133/45/1 131/44/1
f 135/42/2 136/43/2 138/44/2
f 136/43/2 140/45/2 138/44/2
f 134/1/6 139/1/6 132/46/6
f 139/1/6 128/46/6 132/46/6
f 42/1/3 137/1/3 130/47/3
f 137/1/3 41/47/3 130/47/3
f 141/42/1 147/43/1 142/44/1
f 147/43/1 148/45/1 142/44/1
f 47/42/2 145/43/2 144/44/2
f 145/43/2 146/45/2 144/44/2
f 143/1/6 49/1/6 45/48/6
f 49/1/6 43/48/6 45/48/6
f 50/1/3 48/1/3 44/49/3
f 48/1/3 46/49/3 44/49/3
f 149/15/1 150/16/1 152/17/1
f 150/16/1 153/18/1 152/17/1
f 155/11/2 156/12/2 158/13/2
f 156/12/2 159/14/2 158/13/2
f 58/11/3 157/50/3 151/13/3
f 157/50/3 54/51/3 151/13/3
f 57/21/4 160/22/4 51/23/4
f 160/22/4 52/24/4 51/23/4
f 53/21/5 154/22/5 55/23/5
f 154/22/5 56/24/5 55/23/5
f 7/52/6 1/53/6 3/54/6
f 7/52/6 3/54/6 5/55/6
o Object_5
v 7.159798 4.073555 3.326495
v 7.159798 3.794868 3.326495
v 6.944587 4.073555 2.812345
v 6.858895 4.073555 2.848214
v 6.858895 3.794868 2.848214
v 7.074107 4.073555 3.362364
v 7.353096 4.166451 3.547702
v 7.245490 4.166451 3.290627
v 6.988415 4.166451 3.398232
v 7.096020 4.166451 3.655307
v 7.801504 4.166451 2.453660
v 7.693898 4.166451 2.196585
v 7.436823 4.166451 2.304191
v 7.544429 4.166451 2.561266
v 8.124320 4.166451 3.224885
v 8.016714 4.166451 2.967810
v 7.759640 4.166451 3.075416
v 7.867245 4.166451 3.332491
v 6.944587 3.794868 2.812345
v 7.074106 3.794868 3.362364
v 7.030279 4.166451 2.776477
v 6.922673 4.166451 2.519402
v 6.665598 4.166451 2.627007
v 6.773204 4.166451 2.884082
vn -0.0000 1.0000 -0.0000
vn 0.3861 -0.0000 0.9225
vn -0.3861 -0.0000 -0.9225
vt 0.000000 0.000000
vt 0.000000 0.187500
vt 0.187500 0.000000
vt 0.187500 0.187500
vt 0.062500 0.000000
vt 0.062500 0.187500
s 0
usemtl none
f 169/56/7 170/57/7 168/58/7
f 170/57/7 167/59/7 168/58/7
f 173/56/7 174/57/7 172/58/7
f 174/57/7 171/59/7 172/58/7
f 177/56/7 178/57/7 176/58/7
f 178/57/7 175/59/7 176/58/7
f 166/56/8 180/57/8 161/60/8
f 180/57/8 162/61/8 161/60/8
f 163/56/9 179/57/9 164/60/9
f 179/57/9 165/61/9 164/60/9
f 183/56/7 184/57/7 182/58/7
f 184/57/7 181/59/7 182/58/7
