# Blender 5.2.1 LTS
# www.blender.org
mtllib work_bench.mtl
o Object_4
v 0.473402 0.446322 0.231928
v 0.473402 0.297548 0.231928
v 0.167034 0.446322 -0.500000
v 0.167034 0.297548 -0.500000
v -0.473403 0.446322 -0.231928
v -0.473403 0.297548 -0.231928
v -0.167035 0.446322 0.500000
v -0.167035 0.297548 0.500000
v -0.022349 0.247957 0.331917
v -0.022349 0.000000 0.331917
v -0.079792 0.247957 0.194680
v -0.079793 0.000000 0.194680
v -0.217029 0.247957 0.252124
v -0.217029 0.000000 0.252124
v -0.159585 0.247957 0.389361
v -0.159585 0.000000 0.389361
v 0.217029 0.247957 -0.252125
v 0.217029 0.000000 -0.252125
v 0.159585 0.247957 -0.389361
v 0.159585 0.000000 -0.389361
v 0.022348 0.247957 -0.331917
v 0.022348 0.000000 -0.331917
v 0.079792 0.247957 -0.194680
v 0.079792 0.000000 -0.194680
v 0.389361 0.247957 0.159585
v 0.389361 0.000000 0.159585
v 0.331917 0.247957 0.022349
v 0.331917 0.000000 0.022349
v 0.194680 0.247957 0.079792
v 0.194680 0.000000 0.079792
v 0.252124 0.247957 0.217029
v 0.252124 0.000000 0.217029
v 0.454254 0.297548 0.186183
v 0.454254 0.247957 0.186183
v 0.186182 0.297548 -0.454254
v 0.186182 0.247957 -0.454254
v -0.454254 0.297548 -0.186183
v -0.454254 0.247957 -0.186183
v -0.186183 0.297548 0.454254
v -0.186183 0.247957 0.454254
v -0.240426 0.049592 -0.060645
v -0.171284 0.049592 0.232976
v 0.286171 0.198365 0.041497
v 0.286171 0.049591 0.041497
v 0.171283 0.198365 -0.232976
v 0.171283 0.049591 -0.232976
v 0.125538 0.198365 -0.213828
v 0.125538 0.049591 -0.213828
v 0.240426 0.198365 0.060645
v 0.240426 0.049591 0.060645
v -0.194681 0.247957 -0.079793
v -0.194681 0.000000 -0.079793
v -0.252125 0.247957 -0.217029
v -0.252125 0.000000 -0.217029
v -0.389361 0.247957 -0.159585
v -0.389361 0.000000 -0.159585
v -0.331917 0.247957 -0.022349
v -0.331917 0.000000 -0.022349
v 0.473402 0.446322 0.231928
v 0.473402 0.446322 0.231928
v 0.473402 0.297548 0.231928
v 0.473402 0.297548 0.231928
v 0.167034 0.446322 -0.500000
v 0.167034 0.446322 -0.500000
v 0.167034 0.297548 -0.500000
v 0.167034 0.297548 -0.500000
v -0.473403 0.446322 -0.231928
v -0.473403 0.446322 -0.231928
v -0.473403 0.297548 -0.231928
v -0.473403 0.297548 -0.231928
v -0.167035 0.446322 0.500000
v -0.167035 0.446322 0.500000
v -0.167035 0.297548 0.500000
v -0.167035 0.297548 0.500000
v -0.022349 0.247957 0.331917
v -0.022349 0.000000 0.331917
v -0.022349 0.000000 0.331917
v -0.079792 0.247957 0.194680
v -0.079793 0.000000 0.194680
v -0.079793 0.000000 0.194680
v -0.217029 0.247957 0.252124
v -0.217029 0.000000 0.252124
v -0.217029 0.000000 0.252124
v -0.159585 0.247957 0.389361
v -0.159585 0.000000 0.389361
v -0.159585 0.000000 0.389361
v 0.217029 0.247957 -0.252125
v 0.217029 0.000000 -0.252125
v 0.217029 0.000000 -0.252125
v 0.159585 0.247957 -0.389361
v 0.159585 0.000000 -0.389361
v 0.159585 0.000000 -0.389361
v 0.022348 0.247957 -0.331917
v 0.022348 0.000000 -0.331917
v 0.022348 0.000000 -0.331917
v 0.079792 0.247957 -0.194680
v 0.079792 0.000000 -0.194680
v 0.079792 0.000000 -0.194680
v 0.389361 0.247957 0.159585
v 0.389361 0.000000 0.159585
v 0.389361 0.000000 0.159585
v 0.331917 0.247957 0.022349
v 0.331917 0.000000 0.022349
v 0.331917 0.000000 0.022349
v 0.194680 0.247957 0.079792
v 0.194680 0.000000 0.079792
v 0.194680 0.000000 0.079792
v 0.252124 0.247957 0.217029
v 0.252124 0.000000 0.217029
v 0.252124 0.000000 0.217029
v 0.454254 0.297548 0.186183
v 0.454254 0.297548 0.186183
v 0.454254 0.247957 0.186183
v 0.454254 0.247957 0.186183
v 0.186182 0.297548 -0.454254
v 0.186182 0.297548 -0.454254
v 0.186182 0.247957 -0.454254
v 0.186182 0.247957 -0.454254
v -0.454254 0.297548 -0.186183
v -0.454254 0.297548 -0.186183
v -0.454254 0.247957 -0.186183
v -0.454254 0.247957 -0.186183
v -0.186183 0.297548 0.454254
v -0.186183 0.297548 0.454254
v -0.186183 0.247957 0.454254
v -0.186183 0.247957 0.454254
v -0.125538 0.198365 0.213828
v -0.125538 0.198365 0.213828
v -0.125538 0.049591 0.213828
v -0.125538 0.049591 0.213828
v -0.240426 0.198365 -0.060645
v -0.240426 0.198365 -0.060645
v -0.240426 0.049592 -0.060645
v -0.286172 0.198365 -0.041497
v -0.286172 0.198365 -0.041497
v -0.286172 0.049592 -0.041497
v -0.286172 0.049592 -0.041497
v -0.171284 0.198365 0.232976
v -0.171284 0.198365 0.232976
v -0.171284 0.049592 0.232976
v 0.286171 0.198365 0.041497
v 0.171283 0.198365 -0.232976
v 0.125538 0.198365 -0.213828
v 0.240426 0.198365 0.060645
v 0.125538 0.049591 -0.213828
v 0.240426 0.049591 0.060645
v 0.286171 0.049591 0.041497
v 0.171283 0.049591 -0.232976
v -0.194681 0.247957 -0.079793
v -0.194681 0.000000 -0.079793
v -0.194681 0.000000 -0.079793
v -0.252125 0.247957 -0.217029
v -0.252125 0.000000 -0.217029
v -0.252125 0.000000 -0.217029
v -0.389361 0.247957 -0.159585
v -0.389361 0.000000 -0.159585
v -0.389361 0.000000 -0.159585
v -0.331917 0.247957 -0.022349
v -0.331917 0.000000 -0.022349
v -0.331917 0.000000 -0.022349
v -0.125538 0.198365 0.213828
v -0.125538 0.049591 0.213828
v -0.240426 0.198365 -0.060645
v -0.286172 0.198365 -0.041497
v -0.286172 0.049592 -0.041497
v -0.171284 0.198365 0.232976
v -0.022349 0.247957 0.331917
v -0.079792 0.247957 0.194680
v -0.217029 0.247957 0.252124
v -0.159585 0.247957 0.389361
v 0.217029 0.247957 -0.252125
v 0.159585 0.247957 -0.389361
v 0.022348 0.247957 -0.331917
v 0.079792 0.247957 -0.194680
v 0.389361 0.247957 0.159585
v 0.331917 0.247957 0.022349
v 0.194680 0.247957 0.079792
v 0.252124 0.247957 0.217029
v -0.240426 0.049592 -0.060645
v -0.171284 0.049592 0.232976
v -0.194681 0.247957 -0.079793
v -0.252125 0.247957 -0.217029
v -0.389361 0.247957 -0.159585
v -0.331917 0.247957 -0.022349
vn 0.9225 -0.0000 -0.3861
vn -0.9225 -0.0000 0.3861
vn -0.0000 -1.0000 -0.0000
vn 0.3861 -0.0000 0.9225
vn -0.3861 -0.0000 -0.9225
vn -0.9224 -0.0000 0.3861
vn 0.9224 -0.0000 -0.3861
vn 0.3861 -0.0000 0.9224
vn -0.0000 1.0000 -0.0000
vt 0.000000 0.160000
vt 0.000000 0.190000
vt 0.160000 0.160000
vt 0.160000 0.190000
vt 0.800000 0.000000
vt 0.800000 0.160000
vt 0.940000 0.000000
vt 0.940000 0.160000
vt 0.300000 0.160000
vt 0.300000 0.190000
vt 0.000000 0.000000
vt 0.000000 0.050000
vt 0.030000 0.000000
vt 0.030000 0.050000
vt 0.320000 0.000000
vt 0.320000 0.050000
vt 0.350000 0.000000
vt 0.350000 0.050000
vt 0.000000 0.030000
vt 0.030000 0.030000
vt 0.160000 0.000000
vt 0.160000 0.050000
vt 0.190000 0.000000
vt 0.190000 0.050000
vt 0.160000 0.010000
vt 0.190000 0.010000
vt 0.640000 0.170000
vt 0.640000 0.180000
vt 0.780000 0.170000
vt 0.780000 0.180000
vt 0.000000 0.875000
vt 0.875000 0.000000
vt 0.875000 0.875000
vt 0.480000 0.160000
vt 0.480000 0.300000
vt 0.620000 0.160000
vt 0.620000 0.300000
vt 0.800000 0.150000
vt 0.940000 0.150000
vt 0.770000 0.170000
vt 0.770000 0.180000
vt 0.480000 0.000000
vt 0.480000 0.030000
vt 0.540000 0.000000
vt 0.540000 0.030000
vt 0.070000 0.160000
vt 0.080000 0.160000
vt 0.060000 0.160000
vt 0.100000 0.160000
vt 0.000000 0.040000
vt 0.030000 0.040000
vt 0.320000 0.320000
vt 0.460000 0.320000
vt 0.460000 0.160000
vt 0.320000 0.160000
vt 0.000000 0.187500
vt 0.187500 0.000000
vt 0.187500 0.187500
vt 0.062500 0.000000
vt 0.062500 0.187500
s 0
usemtl m_12
f 59/1/1 61/2/1 63/3/1
f 61/2/1 65/4/1 63/3/1
f 68/1/2 69/2/2 71/3/2
f 69/2/2 73/4/2 71/3/2
f 8/5/3 70/6/3 62/7/3
f 70/6/3 4/8/3 62/7/3
f 72/3/4 74/4/4 60/9/4
f 74/4/4 2/10/4 60/9/4
f 64/3/5 66/4/5 67/9/5
f 66/4/5 6/10/5 67/9/5
f 75/11/1 76/12/1 78/13/1
f 76/12/1 79/14/1 78/13/1
f 81/15/6 82/16/6 84/17/6
f 82/16/2 85/18/2 84/17/2
f 16/11/3 83/19/3 77/13/3
f 83/19/3 12/20/3 77/13/3
f 15/21/4 86/22/4 9/23/4
f 86/22/4 10/24/4 9/23/4
f 11/21/5 80/22/5 13/23/5
f 80/22/5 14/24/5 13/23/5
f 87/15/7 88/16/7 90/17/7
f 88/16/1 91/18/1 90/17/1
f 93/11/2 94/12/2 96/13/2
f 94/12/2 97/14/2 96/13/2
f 24/11/3 95/19/3 89/13/3
f 95/19/3 20/20/3 89/13/3
f 23/21/4 98/22/4 17/23/4
f 98/22/8 18/24/8 17/23/8
f 19/21/5 92/22/5 21/23/5
f 92/22/5 22/24/5 21/23/5
f 99/11/7 100/12/7 102/13/7
f 100/12/7 103/14/7 102/13/7
f 105/15/2 106/16/2 108/17/2
f 106/16/2 109/18/2 108/17/2
f 32/25/3 107/22/3 101/26/3
f 107/22/3 28/24/3 101/26/3
f 31/21/4 110/22/4 25/23/4
f 110/22/4 26/24/4 25/23/4
f 27/21/5 104/22/5 29/23/5
f 104/22/5 30/24/5 29/23/5
f 111/27/1 113/28/1 115/29/1
f 113/28/1 117/30/1 115/29/1
f 120/27/2 121/28/2 123/29/2
f 121/28/2 125/30/2 123/29/2
f 119/11/9 124/31/9 116/32/9
f 124/31/9 112/33/9 116/32/9
f 40/34/3 122/35/3 114/36/3
f 122/35/3 36/37/3 114/36/3
f 39/38/4 126/6/4 33/39/4
f 126/6/4 34/8/4 33/39/4
f 35/27/5 118/28/5 37/40/5
f 118/28/5 38/41/5 37/40/5
f 127/42/1 129/43/1 131/44/1
f 129/43/1 133/45/1 131/44/1
f 135/42/2 136/43/2 138/44/2
f 136/43/2 140/45/2 138/44/2
f 134/1/9 139/1/9 132/46/9
f 139/1/9 128/46/9 132/46/9
f 42/1/3 137/1/3 130/47/3
f 137/1/3 41/47/3 130/47/3
f 141/42/1 147/43/1 142/44/1
f 147/43/1 148/45/1 142/44/1
f 47/42/2 145/43/2 144/44/2
f 145/43/2 146/45/2 144/44/2
f 143/1/9 49/1/9 45/48/9
f 49/1/9 43/48/9 45/48/9
f 50/1/3 48/1/3 44/49/3
f 48/1/3 46/49/3 44/49/3
f 149/15/1 150/16/1 152/17/1
f 150/16/1 153/18/1 152/17/1
f 155/11/2 156/12/2 158/13/2
f 156/12/6 159/14/6 158/13/6
f 58/11/3 157/50/3 151/13/3
f 157/50/3 54/51/3 151/13/3
f 57/21/8 160/22/8 51/23/8
f 160/22/8 52/24/8 51/23/8
f 53/21/5 154/22/5 55/23/5
f 154/22/5 56/24/5 55/23/5
f 7/52/9 1/53/9 3/54/9
f 7/52/9 3/54/9 5/55/9
usemtl none
f 169/11/9 170/56/9 168/57/9
f 170/56/9 167/58/9 168/57/9
f 173/11/9 174/56/9 172/57/9
f 174/56/9 171/58/9 172/57/9
f 177/11/9 178/56/9 176/57/9
f 178/56/9 175/58/9 176/57/9
f 166/11/8 180/56/8 161/59/8
f 180/56/4 162/60/4 161/59/4
f 163/11/5 179/56/5 164/59/5
f 179/56/5 165/60/5 164/59/5
f 183/11/9 184/56/9 182/57/9
f 184/56/9 181/58/9 182/57/9
