# Blender 5.2.1 LTS
# www.blender.org
mtllib boomstick.mtl
o Object_4
v 0.016987 0.016921 0.063185
v 0.016987 0.016921 0.063185
v 0.016987 0.016921 0.063185
v 0.016987 0.016921 0.063185
v 0.016987 0.016921 -0.049624
v 0.016987 0.016921 -0.049624
v 0.016987 0.016921 -0.049624
v 0.016987 0.016921 -0.049624
v -0.075620 0.016921 0.063185
v -0.075620 0.016921 0.063185
v -0.075620 0.016921 0.063185
v -0.075620 0.016921 -0.049624
v -0.075620 0.016921 -0.049624
v -0.075620 0.016921 -0.049624
v -0.075620 0.016921 -0.049624
v 0.016987 0.016921 0.295443
v 0.016987 0.016921 0.295443
v 0.016987 0.016921 0.295443
v -0.075620 0.016921 0.295443
v -0.075620 0.016921 0.295443
v -0.075620 0.016921 0.295443
v 0.016987 0.016921 0.422842
v 0.016987 0.016921 0.422842
v 0.016987 0.016921 0.422842
v 0.016987 0.016921 -0.244214
v 0.016987 0.016921 -0.244214
v 0.016987 0.016921 -0.244214
v 0.016987 0.016921 -0.244214
v 0.150858 0.016921 -0.244214
v 0.150858 0.016921 -0.244214
v -0.075620 0.016921 -0.244214
v -0.075620 0.016921 -0.244214
v -0.075620 0.016921 -0.244214
v 0.083922 0.016921 -0.244214
v 0.083922 0.016921 -0.244214
v 0.083922 0.016921 -0.244214
v 0.083922 0.016921 -0.244214
v 0.016987 0.016921 -0.329653
v 0.016987 0.016921 -0.329653
v 0.083922 0.016921 -0.329653
v -0.074806 0.016921 -0.244214
v -0.074806 0.016921 -0.244214
v -0.074806 0.016921 -0.329653
v -0.074806 0.016921 -0.329653
v 0.114485 0.016921 -0.244214
v 0.114485 0.016921 -0.244214
v 0.114485 0.016921 -0.244214
v 0.083922 0.016921 -0.327968
v 0.083922 0.016921 -0.327968
v 0.114485 0.016921 -0.327968
v 0.114485 0.016921 -0.327968
v 0.016987 0.016921 -0.378274
v 0.083922 0.016921 -0.378274
v 0.083922 0.016921 -0.378274
v 0.016987 0.016921 -0.419163
v -0.074806 0.016921 -0.419163
v -0.074806 0.016921 -0.419163
v 0.034370 0.016921 -0.378274
v 0.034370 0.016921 -0.378274
v 0.016987 0.016921 -0.417262
v 0.016987 0.016921 -0.417262
v 0.034370 0.016921 -0.417262
v 0.034370 0.016921 -0.417262
v 0.016987 0.016921 -0.459553
v 0.016987 0.016921 -0.459553
v -0.074806 0.016921 -0.459553
v -0.113855 0.016921 -0.329653
v -0.113855 0.016921 -0.329653
v -0.113855 0.016921 -0.329653
v -0.113855 0.016921 -0.419163
v -0.113855 0.016921 -0.419163
v -0.113855 0.016921 -0.419163
v -0.113855 0.016921 -0.419163
v -0.074806 0.016921 -0.500000
v -0.074806 0.016921 -0.500000
v -0.113855 0.016921 -0.500000
v -0.023433 0.016921 -0.459553
v -0.023433 0.016921 -0.459553
v -0.074806 0.016921 -0.499580
v -0.074806 0.016921 -0.499580
v -0.023433 0.016921 -0.499580
v -0.023433 0.016921 -0.499580
v -0.178979 0.016921 -0.419163
v -0.178979 0.016921 -0.500000
v -0.178979 0.016921 -0.500000
v -0.122238 0.016921 -0.329653
v -0.122238 0.016921 -0.329653
v -0.122238 0.016921 -0.329653
v -0.122238 0.016921 -0.419163
v -0.122238 0.016921 -0.419163
v -0.122238 0.016921 -0.419163
v -0.122238 0.016921 -0.367193
v -0.122238 0.016921 -0.367193
v -0.122238 0.016921 -0.367193
v -0.122238 0.016921 -0.367193
v -0.204520 0.016921 -0.419163
v -0.204520 0.016921 -0.419163
v -0.204520 0.016921 -0.367193
v -0.204520 0.016921 -0.367193
v -0.178979 0.016921 -0.448600
v -0.178979 0.016921 -0.448600
v -0.202951 0.016921 -0.419163
v -0.202951 0.016921 -0.419163
v -0.202951 0.016921 -0.448600
v -0.202951 0.016921 -0.448600
v 0.016987 0.016921 0.497290
v 0.016987 0.016921 0.497290
v 0.016987 0.016921 0.497290
v 0.016987 0.016921 0.376737
v 0.016987 0.016921 0.376737
v 0.016987 0.016921 0.376737
v -0.075620 0.016921 0.376737
v -0.075620 0.016921 0.376737
v -0.009342 0.016921 0.376737
v -0.009342 0.016921 0.376737
v -0.009342 0.016921 0.376737
v 0.016987 0.016921 0.415028
v 0.016987 0.016921 0.415028
v -0.009342 0.016921 0.415028
v -0.009342 0.016921 0.415028
v -0.075620 0.016921 -0.116512
v -0.075620 0.016921 -0.116512
v -0.075620 0.016921 -0.116512
v -0.075620 0.016921 -0.205274
v -0.075620 0.016921 -0.205274
v -0.075620 0.016921 -0.205274
v -0.117118 0.016921 -0.244214
v -0.117118 0.016921 -0.244214
v -0.117118 0.016921 -0.244214
v -0.117118 0.016921 -0.205274
v -0.117118 0.016921 -0.205274
v -0.117118 0.016921 -0.205274
v -0.119010 0.016921 -0.049624
v -0.119010 0.016921 -0.049624
v -0.119010 0.016921 -0.049624
v -0.119010 0.016921 -0.116512
v -0.119010 0.016921 -0.116512
v -0.119010 0.016921 -0.116512
v -0.145966 0.016921 -0.116512
v -0.145966 0.016921 -0.116512
v -0.145966 0.016921 -0.116512
v -0.145966 0.016921 -0.205274
v -0.145966 0.016921 -0.205274
v -0.145966 0.016921 -0.205274
v -0.117837 0.016921 -0.116512
v -0.117837 0.016921 -0.116512
v -0.117837 0.016921 -0.116512
v -0.118994 0.016921 -0.205274
v -0.118994 0.016921 -0.205274
v -0.118994 0.016921 -0.205274
v 0.030749 0.016921 -0.049624
v 0.030749 0.016921 -0.049624
v 0.030749 0.016921 -0.049624
v 0.030749 0.016921 -0.049624
v 0.150858 0.016921 -0.155792
v 0.150858 0.016921 -0.155792
v 0.150858 0.016921 -0.155792
v 0.150858 0.016921 -0.155792
v 0.028980 0.016921 -0.104154
v 0.028980 0.016921 -0.104154
v 0.028980 0.016921 -0.104154
v 0.028980 0.016921 -0.104154
v 0.080239 0.016921 -0.106111
v 0.080239 0.016921 -0.106111
v 0.080239 0.016921 -0.106111
v 0.080239 0.016921 -0.106111
v 0.080594 0.016921 -0.157291
v 0.080594 0.016921 -0.157291
v 0.080594 0.016921 -0.157291
v 0.080594 0.016921 -0.157291
v 0.027720 0.016921 0.497290
v 0.027720 0.016921 0.497290
v 0.027720 0.016921 0.497290
v 0.028239 0.016921 0.422842
v 0.028239 0.016921 0.422842
v 0.028239 0.016921 0.422842
v 0.030749 0.016921 0.063185
v 0.030749 0.016921 0.063185
v 0.030749 0.016921 0.063185
v 0.030749 0.016921 0.063185
v 0.080239 0.016921 0.495612
v 0.080239 0.016921 0.495612
v 0.028980 0.016921 0.497569
v 0.028980 0.016921 0.497569
v 0.080594 0.016921 0.498501
v 0.080594 0.016921 0.498501
v 0.150858 0.016921 0.500000
v 0.150858 0.016921 0.500000
v 0.016987 -0.016921 0.063185
v 0.016987 -0.016921 0.063185
v 0.016987 -0.016921 0.063185
v 0.016987 -0.016921 0.063185
v 0.016987 -0.016921 -0.049624
v 0.016987 -0.016921 -0.049624
v 0.016987 -0.016921 -0.049624
v 0.016987 -0.016921 -0.049624
v -0.075620 -0.016921 0.063185
v -0.075620 -0.016921 0.063185
v -0.075620 -0.016921 0.063185
v -0.075620 -0.016921 -0.049624
v -0.075620 -0.016921 -0.049624
v -0.075620 -0.016921 -0.049624
v -0.075620 -0.016921 -0.049624
v 0.016987 -0.016921 0.295443
v 0.016987 -0.016921 0.295443
v 0.016987 -0.016921 0.295443
v -0.075620 -0.016921 0.295443
v -0.075620 -0.016921 0.295443
v -0.075620 -0.016921 0.295443
v 0.016987 -0.016921 0.422842
v 0.016987 -0.016921 0.422842
v 0.016987 -0.016921 0.422842
v 0.016987 -0.016921 -0.244214
v 0.016987 -0.016921 -0.244214
v 0.016987 -0.016921 -0.244214
v 0.016987 -0.016921 -0.244214
v 0.150858 -0.016921 -0.244214
v 0.150858 -0.016921 -0.244214
v -0.075620 -0.016921 -0.244214
v -0.075620 -0.016921 -0.244214
v -0.075620 -0.016921 -0.244214
v 0.083922 -0.016921 -0.244214
v 0.083922 -0.016921 -0.244214
v 0.083922 -0.016921 -0.244214
v 0.083922 -0.016921 -0.244214
v 0.016987 -0.016921 -0.329653
v 0.016987 -0.016921 -0.329653
v 0.083922 -0.016921 -0.329653
v -0.074806 -0.016921 -0.244214
v -0.074806 -0.016921 -0.244214
v -0.074806 -0.016921 -0.329653
v -0.074806 -0.016921 -0.329653
v 0.114485 -0.016921 -0.244214
v 0.114485 -0.016921 -0.244214
v 0.114485 -0.016921 -0.244214
v 0.083922 -0.016921 -0.327968
v 0.083922 -0.016921 -0.327968
v 0.114485 -0.016921 -0.327968
v 0.114485 -0.016921 -0.327968
v 0.016987 -0.016921 -0.378274
v 0.083922 -0.016921 -0.378274
v 0.083922 -0.016921 -0.378274
v 0.016987 -0.016921 -0.419163
v -0.074806 -0.016921 -0.419163
v -0.074806 -0.016921 -0.419163
v 0.034370 -0.016921 -0.378274
v 0.034370 -0.016921 -0.378274
v 0.016987 -0.016921 -0.417262
v 0.016987 -0.016921 -0.417262
v 0.034370 -0.016921 -0.417262
v 0.034370 -0.016921 -0.417262
v 0.016987 -0.016921 -0.459553
v 0.016987 -0.016921 -0.459553
v -0.074806 -0.016921 -0.459553
v -0.113855 -0.016921 -0.329653
v -0.113855 -0.016921 -0.419163
v -0.113855 -0.016921 -0.419163
v -0.074806 -0.016921 -0.500000
v -0.074806 -0.016921 -0.500000
v -0.113855 -0.016921 -0.500000
v -0.023433 -0.016921 -0.459553
v -0.023433 -0.016921 -0.459553
v -0.074806 -0.016921 -0.499580
v -0.074806 -0.016921 -0.499580
v -0.023433 -0.016921 -0.499580
v -0.023433 -0.016921 -0.499580
v -0.178979 -0.016921 -0.419163
v -0.178979 -0.016921 -0.500000
v -0.178979 -0.016921 -0.500000
v -0.122238 -0.016921 -0.329653
v -0.122238 -0.016921 -0.329653
v -0.122238 -0.016921 -0.419163
v -0.122238 -0.016921 -0.367193
v -0.122238 -0.016921 -0.367193
v -0.204520 -0.016921 -0.419163
v -0.204520 -0.016921 -0.419163
v -0.204520 -0.016921 -0.367193
v -0.204520 -0.016921 -0.367193
v -0.178979 -0.016921 -0.448600
v -0.178979 -0.016921 -0.448600
v -0.202951 -0.016921 -0.419163
v -0.202951 -0.016921 -0.419163
v -0.202951 -0.016921 -0.448600
v -0.202951 -0.016921 -0.448600
v 0.016987 -0.016921 0.497290
v 0.016987 -0.016921 0.497290
v 0.016987 -0.016921 0.497290
v 0.016987 -0.016921 0.376737
v 0.016987 -0.016921 0.376737
v 0.016987 -0.016921 0.376737
v -0.075620 -0.016921 0.376737
v -0.075620 -0.016921 0.376737
v -0.009342 -0.016921 0.376737
v -0.009342 -0.016921 0.376737
v -0.009342 -0.016921 0.376737
v 0.016987 -0.016921 0.415028
v 0.016987 -0.016921 0.415028
v -0.009342 -0.016921 0.415028
v -0.009342 -0.016921 0.415028
v -0.075620 -0.016921 -0.116512
v -0.075620 -0.016921 -0.116512
v -0.075620 -0.016921 -0.116512
v -0.075620 -0.016921 -0.205274
v -0.075620 -0.016921 -0.205274
v -0.075620 -0.016921 -0.205274
v -0.117118 -0.016921 -0.244214
v -0.117118 -0.016921 -0.244214
v -0.117118 -0.016921 -0.244214
v -0.117118 -0.016921 -0.205274
v -0.117118 -0.016921 -0.205274
v -0.117118 -0.016921 -0.205274
v -0.119010 -0.016921 -0.049624
v -0.119010 -0.016921 -0.049624
v -0.119010 -0.016921 -0.049624
v -0.119010 -0.016921 -0.116512
v -0.119010 -0.016921 -0.116512
v -0.119010 -0.016921 -0.116512
v -0.145966 -0.016921 -0.116512
v -0.145966 -0.016921 -0.116512
v -0.145966 -0.016921 -0.116512
v -0.145966 -0.016921 -0.205274
v -0.145966 -0.016921 -0.205274
v -0.145966 -0.016921 -0.205274
v -0.117837 -0.016921 -0.116512
v -0.117837 -0.016921 -0.116512
v -0.117837 -0.016921 -0.116512
v -0.118994 -0.016921 -0.205274
v -0.118994 -0.016921 -0.205274
v -0.118994 -0.016921 -0.205274
v 0.030749 -0.016921 -0.049624
v 0.030749 -0.016921 -0.049624
v 0.030749 -0.016921 -0.049624
v 0.030749 -0.016921 -0.049624
v 0.150858 -0.016921 -0.155792
v 0.150858 -0.016921 -0.155792
v 0.150858 -0.016921 -0.155792
v 0.150858 -0.016921 -0.155792
v 0.028980 -0.016921 -0.104154
v 0.028980 -0.016921 -0.104154
v 0.028980 -0.016921 -0.104154
v 0.028980 -0.016921 -0.104154
v 0.080239 -0.016921 -0.106111
v 0.080239 -0.016921 -0.106111
v 0.080239 -0.016921 -0.106111
v 0.080239 -0.016921 -0.106111
v 0.080594 -0.016921 -0.157291
v 0.080594 -0.016921 -0.157291
v 0.080594 -0.016921 -0.157291
v 0.080594 -0.016921 -0.157291
v 0.027720 -0.016921 0.497290
v 0.027720 -0.016921 0.497290
v 0.027720 -0.016921 0.497290
v 0.028239 -0.016921 0.422842
v 0.028239 -0.016921 0.422842
v 0.028239 -0.016921 0.422842
v 0.030749 -0.016921 0.063185
v 0.030749 -0.016921 0.063185
v 0.030749 -0.016921 0.063185
v 0.030749 -0.016921 0.063185
v 0.080239 -0.016921 0.495612
v 0.080239 -0.016921 0.495612
v 0.028980 -0.016921 0.497569
v 0.028980 -0.016921 0.497569
v 0.080594 -0.016921 0.498501
v 0.080594 -0.016921 0.498501
v 0.150858 -0.016921 0.500000
v 0.150858 -0.016921 0.500000
v 0.083922 0.037089 -0.244214
v 0.083922 0.037089 -0.244214
v 0.083922 0.037089 -0.244214
v 0.083922 0.037089 -0.244214
v 0.016987 0.037089 -0.244214
v 0.016987 0.037089 -0.244214
v 0.114485 0.037089 -0.244214
v 0.114485 0.037089 -0.244214
v 0.114485 0.037089 -0.244214
v 0.083922 0.037089 -0.329653
v 0.083922 0.037089 -0.329653
v 0.016987 0.037089 -0.329653
v 0.016987 0.037089 -0.329653
v 0.016987 0.037089 -0.329653
v -0.074806 0.037089 -0.329653
v -0.074806 0.037089 -0.329653
v -0.074806 0.037089 -0.329653
v -0.074806 0.037089 -0.244214
v -0.074806 0.037089 -0.244214
v -0.074806 0.037089 -0.244214
v 0.114485 0.037089 -0.327968
v 0.114485 0.037089 -0.327968
v 0.114485 0.037089 -0.327968
v 0.083922 0.037089 -0.327968
v 0.083922 0.037089 -0.327968
v 0.083922 0.037089 -0.327968
v 0.034370 0.037089 -0.378274
v 0.034370 0.037089 -0.378274
v 0.034370 0.037089 -0.378274
v 0.016987 0.037089 -0.378274
v 0.016987 0.037089 -0.378274
v 0.083922 0.037089 -0.378274
v 0.083922 0.037089 -0.378274
v 0.083922 0.037089 -0.378274
v 0.016987 0.037089 -0.419163
v 0.016987 0.037089 -0.419163
v -0.074806 0.037089 -0.419163
v -0.074806 0.037089 -0.419163
v -0.074806 0.037089 -0.419163
v 0.034370 0.037089 -0.417262
v 0.034370 0.037089 -0.417262
v 0.034370 0.037089 -0.417262
v 0.016987 0.037089 -0.417262
v 0.016987 0.037089 -0.417262
v 0.016987 0.037089 -0.417262
v -0.023433 0.037089 -0.459553
v -0.023433 0.037089 -0.459553
v -0.023433 0.037089 -0.459553
v -0.074806 0.037089 -0.459553
v -0.074806 0.037089 -0.459553
v 0.016987 0.037089 -0.459553
v 0.016987 0.037089 -0.459553
v 0.016987 0.037089 -0.459553
v -0.113855 0.037089 -0.419163
v -0.113855 0.037089 -0.419163
v -0.113855 0.037089 -0.419163
v -0.113855 0.037089 -0.329653
v -0.113855 0.037089 -0.329653
v -0.113855 0.037089 -0.329653
v -0.074806 0.037089 -0.500000
v -0.074806 0.037089 -0.500000
v -0.074806 0.037089 -0.500000
v -0.113855 0.037089 -0.500000
v -0.113855 0.037089 -0.500000
v -0.023433 0.037089 -0.499580
v -0.023433 0.037089 -0.499580
v -0.023433 0.037089 -0.499580
v -0.074806 0.037089 -0.499580
v -0.074806 0.037089 -0.499580
v -0.074806 0.037089 -0.499580
v -0.178979 0.037089 -0.448600
v -0.178979 0.037089 -0.448600
v -0.178979 0.037089 -0.448600
v -0.178979 0.037089 -0.419163
v -0.178979 0.037089 -0.419163
v -0.178979 0.037089 -0.500000
v -0.178979 0.037089 -0.500000
v -0.178979 0.037089 -0.500000
v -0.122238 0.037089 -0.419163
v -0.122238 0.037089 -0.419163
v -0.122238 0.037089 -0.419163
v -0.122238 0.037089 -0.367193
v -0.122238 0.037089 -0.367193
v -0.122238 0.037089 -0.367193
v -0.204520 0.037089 -0.419163
v -0.204520 0.037089 -0.419163
v -0.204520 0.037089 -0.419163
v -0.204520 0.037089 -0.367193
v -0.204520 0.037089 -0.367193
v -0.204520 0.037089 -0.367193
v -0.202951 0.037089 -0.448600
v -0.202951 0.037089 -0.448600
v -0.202951 0.037089 -0.448600
v -0.202951 0.037089 -0.419163
v -0.202951 0.037089 -0.419163
v -0.202951 0.037089 -0.419163
v 0.083922 -0.048125 -0.244214
v 0.083922 -0.048125 -0.244214
v 0.083922 -0.048125 -0.244214
v 0.083922 -0.048125 -0.244214
v 0.016987 -0.048125 -0.244214
v 0.016987 -0.048125 -0.244214
v 0.114485 -0.048125 -0.244214
v 0.114485 -0.048125 -0.244214
v 0.114485 -0.048125 -0.244214
v 0.083922 -0.048125 -0.329653
v 0.083922 -0.048125 -0.329653
v 0.016987 -0.048125 -0.329653
v 0.016987 -0.048125 -0.329653
v 0.016987 -0.048125 -0.329653
v -0.074806 -0.048125 -0.329653
v -0.074806 -0.048125 -0.329653
v -0.074806 -0.048125 -0.329653
v -0.074806 -0.048125 -0.244214
v -0.074806 -0.048125 -0.244214
v -0.074806 -0.048125 -0.244214
v 0.114485 -0.048125 -0.327968
v 0.114485 -0.048125 -0.327968
v 0.114485 -0.048125 -0.327968
v 0.083922 -0.048125 -0.327968
v 0.083922 -0.048125 -0.327968
v 0.083922 -0.048125 -0.327968
v 0.034370 -0.048125 -0.378274
v 0.034370 -0.048125 -0.378274
v 0.034370 -0.048125 -0.378274
v 0.016987 -0.048125 -0.378274
v 0.016987 -0.048125 -0.378274
v 0.083922 -0.048125 -0.378274
v 0.083922 -0.048125 -0.378274
v 0.083922 -0.048125 -0.378274
v 0.016987 -0.048125 -0.419163
v 0.016987 -0.048125 -0.419163
v -0.074806 -0.048125 -0.419163
v -0.074806 -0.048125 -0.419163
v -0.074806 -0.048125 -0.419163
v 0.034370 -0.048125 -0.417262
v 0.034370 -0.048125 -0.417262
v 0.034370 -0.048125 -0.417262
v 0.016987 -0.048125 -0.417262
v 0.016987 -0.048125 -0.417262
v 0.016987 -0.048125 -0.417262
v -0.023433 -0.048125 -0.459553
v -0.023433 -0.048125 -0.459553
v -0.023433 -0.048125 -0.459553
v -0.074806 -0.048125 -0.459553
v -0.074806 -0.048125 -0.459553
v 0.016987 -0.048125 -0.459553
v 0.016987 -0.048125 -0.459553
v 0.016987 -0.048125 -0.459553
v -0.113855 -0.048125 -0.419163
v -0.113855 -0.048125 -0.419163
v -0.113855 -0.048125 -0.419163
v -0.113855 -0.048125 -0.329653
v -0.113855 -0.048125 -0.329653
v -0.074806 -0.048125 -0.500000
v -0.074806 -0.048125 -0.500000
v -0.074806 -0.048125 -0.500000
v -0.113855 -0.048125 -0.500000
v -0.113855 -0.048125 -0.500000
v -0.023433 -0.048125 -0.499580
v -0.023433 -0.048125 -0.499580
v -0.023433 -0.048125 -0.499580
v -0.074806 -0.048125 -0.499580
v -0.074806 -0.048125 -0.499580
v -0.074806 -0.048125 -0.499580
v -0.178979 -0.048125 -0.448600
v -0.178979 -0.048125 -0.448600
v -0.178979 -0.048125 -0.448600
v -0.178979 -0.048125 -0.419163
v -0.178979 -0.048125 -0.419163
v -0.178979 -0.048125 -0.500000
v -0.178979 -0.048125 -0.500000
v -0.178979 -0.048125 -0.500000
v -0.122238 -0.048125 -0.367193
v -0.122238 -0.048125 -0.367193
v -0.122238 -0.048125 -0.367193
v -0.122238 -0.048125 -0.329653
v -0.122238 -0.048125 -0.329653
v -0.122238 -0.048125 -0.329653
v -0.122238 -0.048125 -0.419163
v -0.122238 -0.048125 -0.419163
v -0.204520 -0.048125 -0.419163
v -0.204520 -0.048125 -0.419163
v -0.204520 -0.048125 -0.419163
v -0.204520 -0.048125 -0.367193
v -0.204520 -0.048125 -0.367193
v -0.204520 -0.048125 -0.367193
v -0.202951 -0.048125 -0.448600
v -0.202951 -0.048125 -0.448600
v -0.202951 -0.048125 -0.448600
v -0.202951 -0.048125 -0.419163
v -0.202951 -0.048125 -0.419163
v -0.202951 -0.048125 -0.419163
v -0.075620 0.064047 -0.049624
v -0.075620 0.064047 -0.049624
v -0.075620 0.064047 -0.049624
v 0.016987 0.064047 -0.049624
v 0.016987 0.064047 -0.049624
v 0.016987 0.064047 -0.049624
v 0.016987 0.064047 -0.244214
v 0.016987 0.064047 -0.244214
v 0.016987 0.064047 -0.244214
v -0.075620 0.064047 -0.244214
v -0.075620 0.064047 -0.244214
v -0.075620 0.064047 -0.244214
v -0.075620 0.064047 -0.205274
v -0.075620 0.064047 -0.205274
v -0.075620 0.064047 -0.116512
v -0.075620 0.064047 -0.116512
v 0.016987 0.064047 -0.049624
v 0.030749 0.064047 -0.049624
v 0.030749 0.064047 -0.049624
v 0.030749 0.064047 -0.049624
v 0.028980 0.064047 -0.104154
v 0.028980 0.064047 -0.104154
v 0.028980 0.064047 -0.104154
v 0.080239 0.064047 -0.106111
v 0.080239 0.064047 -0.106111
v 0.080239 0.064047 -0.106111
v 0.080594 0.064047 -0.157291
v 0.080594 0.064047 -0.157291
v 0.080594 0.064047 -0.157291
v 0.150858 0.064047 -0.155792
v 0.150858 0.064047 -0.155792
v 0.150858 0.064047 -0.155792
v 0.150858 0.064047 -0.244214
v 0.150858 0.064047 -0.244214
v 0.150858 0.064047 -0.244214
v 0.114485 0.064047 -0.244214
v 0.114485 0.064047 -0.244214
v 0.083922 0.064047 -0.244214
v 0.083922 0.064047 -0.244214
v 0.016987 0.064047 -0.244214
v -0.075620 -0.064047 -0.049624
v -0.075620 -0.064047 -0.049624
v -0.075620 -0.064047 -0.049624
v -0.075620 -0.064047 -0.116512
v -0.075620 -0.064047 -0.116512
v -0.075620 -0.064047 -0.205274
v -0.075620 -0.064047 -0.205274
v -0.075620 -0.064047 -0.244214
v -0.075620 -0.064047 -0.244214
v -0.075620 -0.064047 -0.244214
v 0.016987 -0.064047 -0.244214
v 0.016987 -0.064047 -0.244214
v 0.016987 -0.064047 -0.244214
v 0.016987 -0.064047 -0.049624
v 0.016987 -0.064047 -0.049624
v 0.016987 -0.064047 -0.049624
v 0.016987 -0.064047 -0.049624
v 0.016987 -0.064047 -0.244214
v 0.083922 -0.064047 -0.244214
v 0.083922 -0.064047 -0.244214
v 0.114485 -0.064047 -0.244214
v 0.114485 -0.064047 -0.244214
v 0.150858 -0.064047 -0.244214
v 0.150858 -0.064047 -0.244214
v 0.150858 -0.064047 -0.244214
v 0.150858 -0.064047 -0.155792
v 0.150858 -0.064047 -0.155792
v 0.150858 -0.064047 -0.155792
v 0.080594 -0.064047 -0.157291
v 0.080594 -0.064047 -0.157291
v 0.080594 -0.064047 -0.157291
v 0.080239 -0.064047 -0.106111
v 0.080239 -0.064047 -0.106111
v 0.080239 -0.064047 -0.106111
v 0.028980 -0.064047 -0.104154
v 0.028980 -0.064047 -0.104154
v 0.028980 -0.064047 -0.104154
v 0.030749 -0.064047 -0.049624
v 0.030749 -0.064047 -0.049624
v 0.030749 -0.064047 -0.049624
v 0.080239 0.095770 -0.106111
v 0.080239 0.095770 -0.106111
v 0.028980 0.095770 -0.104154
v 0.028980 0.095770 -0.104154
v 0.028980 0.095770 -0.104154
v 0.028980 0.095770 0.497569
v 0.028980 0.095770 0.497569
v 0.028980 0.095770 0.497569
v 0.080239 0.095770 0.495612
v 0.080239 0.095770 0.495612
v 0.150858 0.095770 -0.155792
v 0.150858 0.095770 -0.155792
v 0.150858 0.095770 -0.155792
v 0.080594 0.095770 -0.157291
v 0.080594 0.095770 -0.157291
v 0.080594 0.095770 0.498501
v 0.080594 0.095770 0.498501
v 0.150858 0.095770 0.500000
v 0.150858 0.095770 0.500000
v 0.150858 0.095770 0.500000
v 0.080239 -0.095770 -0.106111
v 0.080239 -0.095770 -0.106111
v 0.080239 -0.095770 0.495612
v 0.080239 -0.095770 0.495612
v 0.028980 -0.095770 0.497569
v 0.028980 -0.095770 0.497569
v 0.028980 -0.095770 0.497569
v 0.028980 -0.095770 -0.104154
v 0.028980 -0.095770 -0.104154
v 0.028980 -0.095770 -0.104154
v 0.150858 -0.095770 -0.155792
v 0.150858 -0.095770 -0.155792
v 0.150858 -0.095770 -0.155792
v 0.150858 -0.095770 0.500000
v 0.150858 -0.095770 0.500000
v 0.150858 -0.095770 0.500000
v 0.080594 -0.095770 0.498501
v 0.080594 -0.095770 0.498501
v 0.080594 -0.095770 -0.157291
v 0.080594 -0.095770 -0.157291
v 0.016987 0.062825 0.063185
v 0.016987 0.062825 0.063185
v 0.016987 0.062825 0.063185
v 0.030749 0.062825 0.063185
v 0.030749 0.062825 0.063185
v 0.030749 0.062825 0.063185
v 0.030749 0.062825 -0.049624
v 0.030749 0.062825 -0.049624
v 0.030749 0.062825 -0.049624
v 0.016987 0.062825 -0.049624
v 0.016987 0.062825 -0.049624
v 0.016987 0.062825 -0.049624
v 0.016987 0.062825 0.063185
v 0.016987 0.062825 -0.049624
v -0.075620 0.062825 -0.049624
v -0.075620 0.062825 -0.049624
v -0.075620 0.062825 -0.049624
v -0.075620 0.062825 0.063185
v -0.075620 0.062825 0.063185
v -0.075620 0.062825 0.063185
v 0.016987 0.062825 0.063185
v -0.075620 0.062825 0.063185
v -0.075620 0.062825 0.295443
v -0.075620 0.062825 0.295443
v -0.075620 0.062825 0.295443
v 0.016987 0.062825 0.295443
v 0.016987 0.062825 0.295443
v 0.016987 0.062825 0.295443
v 0.016987 0.062825 0.295443
v -0.075620 0.062825 0.295443
v -0.075620 0.062825 0.376737
v -0.075620 0.062825 0.376737
v -0.075620 0.062825 0.376737
v -0.009342 0.062825 0.376737
v -0.009342 0.062825 0.376737
v 0.016987 0.062825 0.376737
v 0.016987 0.062825 0.376737
v 0.016987 0.062825 0.376737
v 0.016987 0.062825 0.376737
v -0.009342 0.062825 0.376737
v -0.009342 0.062825 0.376737
v -0.009342 0.062825 0.415028
v -0.009342 0.062825 0.415028
v -0.009342 0.062825 0.415028
v 0.016987 0.062825 0.415028
v 0.016987 0.062825 0.415028
v 0.016987 0.062825 0.415028
v 0.028239 0.062825 0.422842
v 0.028239 0.062825 0.422842
v 0.028239 0.062825 0.422842
v 0.030749 0.062825 0.063185
v 0.030749 0.062825 0.063185
v 0.030749 0.062825 0.063185
v 0.016987 0.062825 0.422842
v 0.016987 0.062825 0.422842
v 0.016987 0.062825 0.422842
v 0.016987 -0.062825 0.063185
v 0.016987 -0.062825 0.063185
v 0.016987 -0.062825 0.063185
v 0.016987 -0.062825 -0.049624
v 0.016987 -0.062825 -0.049624
v 0.016987 -0.062825 -0.049624
v 0.030749 -0.062825 -0.049624
v 0.030749 -0.062825 -0.049624
v 0.030749 -0.062825 -0.049624
v 0.030749 -0.062825 0.063185
v 0.030749 -0.062825 0.063185
v 0.030749 -0.062825 0.063185
v 0.016987 -0.062825 0.063185
v -0.075620 -0.062825 0.063185
v -0.075620 -0.062825 0.063185
v -0.075620 -0.062825 0.063185
v -0.075620 -0.062825 -0.049624
v -0.075620 -0.062825 -0.049624
v -0.075620 -0.062825 -0.049624
v 0.016987 -0.062825 -0.049624
v 0.016987 -0.062825 0.063185
v 0.016987 -0.062825 0.295443
v 0.016987 -0.062825 0.295443
v 0.016987 -0.062825 0.295443
v -0.075620 -0.062825 0.295443
v -0.075620 -0.062825 0.295443
v -0.075620 -0.062825 0.295443
v -0.075620 -0.062825 0.063185
v 0.016987 -0.062825 0.295443
v 0.016987 -0.062825 0.376737
v 0.016987 -0.062825 0.376737
v 0.016987 -0.062825 0.376737
v -0.009342 -0.062825 0.376737
v -0.009342 -0.062825 0.376737
v -0.075620 -0.062825 0.376737
v -0.075620 -0.062825 0.376737
v -0.075620 -0.062825 0.376737
v -0.075620 -0.062825 0.295443
v 0.016987 -0.062825 0.376737
v 0.016987 -0.062825 0.415028
v 0.016987 -0.062825 0.415028
v 0.016987 -0.062825 0.415028
v -0.009342 -0.062825 0.415028
v -0.009342 -0.062825 0.415028
v -0.009342 -0.062825 0.415028
v -0.009342 -0.062825 0.376737
v -0.009342 -0.062825 0.376737
v 0.028239 -0.062825 0.422842
v 0.028239 -0.062825 0.422842
v 0.028239 -0.062825 0.422842
v 0.016987 -0.062825 0.422842
v 0.016987 -0.062825 0.422842
v 0.016987 -0.062825 0.422842
v 0.030749 -0.062825 0.063185
v 0.030749 -0.062825 0.063185
v 0.030749 -0.062825 0.063185
v 0.047441 0.016921 0.496865
v 0.047441 0.016921 0.496865
v 0.047441 0.016921 0.496865
v 0.080594 -0.059832 0.498501
v 0.080594 -0.059832 0.498501
v 0.047892 -0.016921 0.496847
v 0.047892 -0.016921 0.496847
v 0.047892 -0.016921 0.496847
v 0.134822 -0.016921 0.499658
v 0.134822 -0.016921 0.499658
v 0.134822 -0.016921 0.499658
v 0.080239 0.051547 0.495612
v 0.080239 0.051547 0.495612
v 0.080239 -0.060714 0.495612
v 0.080239 -0.060714 0.495612
v 0.080594 0.052202 0.498501
v 0.080594 0.052202 0.498501
v 0.135666 0.016921 0.499676
v 0.135666 0.016921 0.499676
v 0.135666 0.016921 0.499676
v 0.050852 -0.054608 0.496734
v 0.050852 -0.054608 0.496734
v 0.050852 -0.054608 0.496734
v 0.135626 -0.059236 0.499675
v 0.135626 -0.059236 0.499675
v 0.135626 -0.059236 0.499675
v 0.118500 0.056332 0.499310
v 0.118500 0.056332 0.499310
v 0.118500 0.056332 0.499310
v 0.133434 0.053003 0.499628
v 0.133434 0.053003 0.499628
v 0.133434 0.053003 0.499628
v 0.049802 0.050142 0.496774
v 0.049802 0.050142 0.496774
v 0.049802 0.050142 0.496774
v 0.042102 0.016921 0.397563
v 0.042102 0.016921 0.397563
v 0.042102 0.016921 0.397563
v 0.074900 0.016921 0.396311
v 0.042553 -0.016921 0.397546
v 0.042553 -0.016921 0.397546
v 0.042553 -0.016921 0.397546
v 0.074900 -0.016921 0.396311
v 0.083580 0.016921 0.399130
v 0.083580 -0.016921 0.399130
v 0.083580 -0.059832 0.399130
v 0.083580 -0.059832 0.399130
v 0.137808 -0.016921 0.400287
v 0.137808 -0.016921 0.400287
v 0.137808 -0.016921 0.400287
v 0.074900 0.051547 0.396311
v 0.074900 0.051547 0.396311
v 0.074900 -0.060714 0.396311
v 0.074900 -0.060714 0.396311
v 0.083580 0.052202 0.399130
v 0.083580 0.052202 0.399130
v 0.138651 0.016921 0.400305
v 0.138651 0.016921 0.400305
v 0.138651 0.016921 0.400305
v 0.045514 -0.054608 0.397433
v 0.045514 -0.054608 0.397433
v 0.045514 -0.054608 0.397433
v 0.138611 -0.059236 0.400304
v 0.138611 -0.059236 0.400304
v 0.138611 -0.059236 0.400304
v 0.121485 0.056332 0.399939
v 0.121485 0.056332 0.399939
v 0.121485 0.056332 0.399939
v 0.136419 0.053003 0.400257
v 0.136419 0.053003 0.400257
v 0.136419 0.053003 0.400257
v 0.044463 0.050142 0.397473
v 0.044463 0.050142 0.397473
v 0.044463 0.050142 0.397473
v 0.150858 -0.057037 -0.155792
v 0.150858 -0.057037 -0.155792
v 0.150858 -0.057037 -0.155792
v 0.150858 -0.057037 -0.155792
v 0.150858 -0.057034 0.500000
v 0.150858 -0.057034 0.500000
v 0.150858 -0.057034 0.500000
v 0.150858 -0.057034 0.500000
v 0.150858 0.055170 -0.155792
v 0.150858 0.055170 -0.155792
v 0.150858 0.055170 -0.155792
v 0.150858 0.055170 -0.155792
v 0.150858 0.055172 0.500000
v 0.150858 0.055172 0.500000
v 0.150858 0.055172 0.500000
v 0.150858 0.055172 0.500000
v 0.171579 0.016921 0.500000
v 0.171579 0.016921 0.500000
v 0.171579 0.016921 0.500000
v 0.171579 0.016921 -0.155792
v 0.171579 0.016921 -0.155792
v 0.171579 0.016921 -0.155792
v 0.171579 -0.016921 0.500000
v 0.171579 -0.016921 0.500000
v 0.171579 -0.016921 0.500000
v 0.171579 -0.016921 -0.155792
v 0.171579 -0.016921 -0.155792
v 0.171579 -0.016921 -0.155792
v 0.171579 0.055170 -0.155792
v 0.171579 0.055170 -0.155792
v 0.171579 0.055170 -0.155792
v 0.171579 -0.057037 -0.155792
v 0.171579 -0.057037 -0.155792
v 0.171579 -0.057037 -0.155792
v 0.171579 -0.057034 0.500000
v 0.171579 -0.057034 0.500000
v 0.171579 -0.057034 0.500000
v 0.171579 0.055172 0.500000
v 0.171579 0.055172 0.500000
v 0.171579 0.055172 0.500000
v 0.204520 0.016921 0.500000
v 0.204520 0.016921 0.500000
v 0.204520 0.016921 0.500000
v 0.204520 0.016921 -0.155792
v 0.204520 0.016921 -0.155792
v 0.204520 0.016921 -0.155792
v 0.204520 -0.016921 0.500000
v 0.204520 -0.016921 0.500000
v 0.204520 -0.016921 0.500000
v 0.204520 -0.016921 -0.155792
v 0.204520 -0.016921 -0.155792
v 0.204520 -0.016921 -0.155792
vn -0.9994 -0.0190 -0.0300
vn -1.0000 -0.0000 -0.0000
vn -0.0000 -0.0000 -1.0000
vn 1.0000 -0.0000 -0.0000
vn -0.0000 1.0000 -0.0000
vn -0.0000 -0.0000 1.0000
vn -0.0381 -0.0000 -0.9993
vn -0.0000 -1.0000 -0.0000
vn 0.9999 -0.0000 -0.0130
vn 0.9995 -0.0000 -0.0324
vn 1.0000 -0.0000 0.0070
vn -0.9925 -0.0000 0.1222
vn -0.0213 -0.0000 0.9998
vn 0.0381 -0.0000 0.9993
vn 1.0000 -0.0000 0.0069
vn 0.0213 -0.0000 -0.9998
vn 0.0382 -0.0000 0.9993
vn 0.9960 -0.0709 -0.0536
vn 0.9955 0.0784 -0.0535
vn -0.9992 0.0249 -0.0300
vn 0.0460 -0.9989 -0.0025
vn -0.0108 0.9999 -0.0003
vn 0.1082 -0.9941 0.0033
vn -0.2174 -0.9761 -0.0065
vn -0.9976 -0.0617 -0.0300
vn 0.9985 0.0133 -0.0537
vn 0.2030 0.9791 -0.0109
vt 1.012565 0.920232
vt 1.012549 0.918179
vt 1.010672 0.647912
vt 0.397494 0.631040
vt 0.050321 0.032411
vt 0.080213 0.033230
vt 0.078386 0.635996
vt 0.078662 0.591710
vt -0.004500 0.486512
vt -0.003624 0.355914
vt 0.169245 0.360664
vt 0.256166 0.363052
vt -0.002278 0.091671
vt 0.049932 0.093103
vt 0.117353 0.763460
vt 0.118113 0.637089
vt 0.035583 0.590525
vt 0.036249 0.487632
vt 0.254052 0.767224
vt 0.166931 0.764825
vt 0.078936 0.237752
vt 0.080237 0.029260
vt 0.167908 0.594166
vt 0.076727 0.591657
vt 0.078184 0.358162
vt -0.004051 0.355903
vt 0.169935 0.240250
vt 0.169813 0.261518
vt 0.078803 0.259019
vt 0.131769 0.239202
vt 0.133008 0.030707
vt 0.295793 0.362072
vt 0.256177 0.360984
vt 0.256728 0.255625
vt 0.296320 0.256712
vt 0.454151 0.366423
vt 0.386097 0.364553
vt 0.386592 0.254389
vt 0.454603 0.256256
vt 0.386579 0.257365
vt 0.296344 0.251952
vt 0.296687 0.183542
vt 0.386900 0.186018
vt 1.010390 0.644692
vt 0.934518 0.643929
vt 0.934557 0.615257
vt 1.010416 0.617344
vt 1.011498 0.779587
vt 0.342729 0.761171
vt 0.394921 0.761701
vt 1.008553 0.778598
vt 0.453183 0.602014
vt 0.453039 0.637078
vt 0.567991 0.640241
vt -0.003386 0.256762
vt 0.253644 0.845259
vt 0.118378 0.592803
vt 0.168203 0.842906
vt 0.168649 0.764872
vt 0.037095 0.357033
vt 0.568112 0.605176
vt 0.568926 0.369576
vt 0.804749 0.611686
vt 0.805247 0.376069
vt 0.254945 0.596560
vt 0.253158 0.938219
vt 0.343410 0.940707
vt 0.079834 0.093923
vt 0.887581 0.613965
vt 0.887967 0.378342
vt 0.887691 0.546910
vt 0.926596 0.615038
vt 0.926691 0.547983
vt 1.012860 0.959160
vt 1.012566 0.920334
vt 1.012233 0.876462
vt 1.012522 0.914630
vt 1.009890 0.696129
vt 1.009768 0.703677
vt 1.009811 0.700999
vt 1.009909 0.694978
s 0
usemtl Material.001
f 818/1/1 803/2/1 842/2/1
f 818/1/1 842/2/1 857/1/1
f 184/3/2 648/3/2 645/4/2
f 184/3/2 645/4/2 162/4/2
f 105/5/2 103/6/2 463/6/2
f 105/5/2 463/6/2 460/5/2
f 62/7/3 60/8/3 410/8/3
f 62/7/3 410/8/3 407/7/3
f 81/9/3 79/10/3 435/10/3
f 81/9/3 435/10/3 432/9/3
f 44/11/2 42/12/2 387/12/2
f 44/11/2 387/12/2 384/11/2
f 85/13/2 101/14/2 440/14/2
f 85/13/2 440/14/2 445/13/2
f 53/15/3 58/16/3 394/16/3
f 53/15/3 394/16/3 399/15/3
f 64/17/3 77/18/3 413/18/3
f 64/17/3 413/18/3 418/17/3
f 36/19/4 40/20/4 378/20/4
f 36/19/4 378/20/4 370/19/4
f 89/21/3 96/22/3 452/22/3
f 89/21/3 452/22/3 446/21/3
f 38/23/4 55/24/4 403/24/4
f 38/23/4 403/24/4 380/23/4
f 56/25/4 75/26/4 429/26/4
f 56/25/4 429/26/4 405/25/4
f 87/27/5 68/28/5 72/29/5
f 72/29/5 90/21/5 93/30/5
f 72/29/5 93/30/5 87/27/5
f 98/31/6 92/30/6 449/30/6
f 98/31/6 449/30/6 455/31/6
f 97/22/2 99/31/2 457/31/2
f 97/22/2 457/31/2 454/22/2
f 125/32/5 32/33/5 128/34/5
f 125/32/5 128/34/5 131/35/5
f 14/36/5 122/37/5 137/38/5
f 14/36/5 137/38/5 134/39/5
f 146/40/5 149/41/5 143/42/5
f 146/40/5 143/42/5 140/43/5
f 172/44/5 175/45/5 23/46/5
f 172/44/5 23/46/5 107/47/5
f 185/48/5 167/49/5 163/50/5
f 185/48/5 163/50/5 181/51/5
f 6/52/3 690/52/3 687/53/3
f 6/52/3 687/53/3 152/53/3
f 154/53/4 689/53/4 686/54/4
f 154/53/4 686/54/4 180/54/4
f 161/4/7 644/4/7 642/50/7
f 161/4/7 642/50/7 166/50/7
f 641/50/5 643/4/5 646/3/5
f 641/50/5 646/3/5 649/51/5
f 278/31/2 276/22/2 551/22/2
f 278/31/2 551/22/2 554/31/2
f 260/55/3 258/26/3 522/26/3
f 260/55/3 522/26/3 525/55/3
f 233/56/6 222/19/6 464/19/6
f 233/56/6 464/19/6 470/56/6
f 242/15/4 228/20/4 474/20/4
f 242/15/4 474/20/4 497/15/4
f 272/21/3 257/29/3 518/29/3
f 272/21/3 518/29/3 547/21/3
f 227/23/2 240/57/2 494/57/2
f 227/23/2 494/57/2 477/23/2
f 231/11/6 255/28/6 520/28/6
f 231/11/6 520/28/6 478/11/6
f 255/28/6 270/27/6 544/27/6
f 255/28/6 544/27/6 520/28/6
f 271/27/2 274/30/2 543/30/2
f 271/27/2 543/30/2 546/27/2
f 239/58/4 235/56/4 472/56/4
f 239/58/4 472/56/4 486/58/4
f 253/17/4 243/24/4 499/24/4
f 253/17/4 499/24/4 516/17/4
f 268/13/3 260/55/3 525/55/3
f 268/13/3 525/55/3 538/13/3
f 225/19/2 237/59/2 489/59/2
f 225/19/2 489/59/2 467/19/2
f 245/25/2 254/60/2 513/60/2
f 245/25/2 513/60/2 502/25/2
f 304/32/8 310/35/8 307/34/8
f 304/32/8 307/34/8 220/33/8
f 202/36/8 313/39/8 316/38/8
f 202/36/8 316/38/8 301/37/8
f 325/40/8 319/43/8 322/42/8
f 325/40/8 322/42/8 328/41/8
f 351/44/8 286/47/8 211/46/8
f 351/44/8 211/46/8 354/45/8
f 364/48/8 360/51/8 342/50/8
f 364/48/8 342/50/8 346/49/8
f 177/54/6 684/54/6 681/61/6
f 177/54/6 681/61/6 1/61/6
f 682/61/5 685/54/5 688/53/5
f 682/61/5 688/53/5 691/52/5
f 11/62/2 15/36/2 203/36/2
f 11/62/2 203/36/2 199/62/2
f 3/61/4 18/63/4 206/63/4
f 3/61/4 206/63/4 191/61/4
f 21/64/2 11/62/2 199/62/2
f 21/64/2 199/62/2 209/64/2
f 24/46/2 4/61/2 192/61/2
f 24/46/2 192/61/2 212/46/2
f 31/33/3 26/65/3 214/65/3
f 31/33/3 214/65/3 219/33/3
f 30/66/4 157/67/4 336/67/4
f 30/66/4 336/67/4 218/66/4
f 40/20/4 36/19/4 224/19/4
f 40/20/4 224/19/4 228/20/4
f 42/12/2 44/11/2 232/11/2
f 42/12/2 232/11/2 230/12/2
f 25/65/6 41/12/6 229/12/6
f 25/65/6 229/12/6 213/65/6
f 46/56/3 29/66/3 217/66/3
f 46/56/3 217/66/3 234/56/3
f 48/59/3 50/58/3 238/58/3
f 48/59/3 238/58/3 236/59/3
f 37/19/2 49/59/2 237/59/2
f 37/19/2 237/59/2 225/19/2
f 51/58/4 47/56/4 235/56/4
f 51/58/4 235/56/4 239/58/4
f 39/23/2 52/57/2 240/57/2
f 39/23/2 240/57/2 227/23/2
f 54/15/4 40/20/4 228/20/4
f 54/15/4 228/20/4 242/15/4
f 55/24/4 38/23/4 226/23/4
f 55/24/4 226/23/4 243/24/4
f 58/16/3 53/15/3 241/15/3
f 58/16/3 241/15/3 246/16/3
f 60/8/3 62/7/3 250/7/3
f 60/8/3 250/7/3 248/8/3
f 52/57/2 61/8/2 249/8/2
f 52/57/2 249/8/2 240/57/2
f 63/7/4 59/16/4 247/16/4
f 63/7/4 247/16/4 251/7/4
f 57/25/2 66/60/2 254/60/2
f 57/25/2 254/60/2 245/25/2
f 65/17/4 55/24/4 243/24/4
f 65/17/4 243/24/4 253/17/4
f 43/11/6 67/28/6 255/28/6
f 43/11/6 255/28/6 231/11/6
f 76/55/3 74/26/3 258/26/3
f 76/55/3 258/26/3 260/55/3
f 75/26/4 56/25/4 244/25/4
f 75/26/4 244/25/4 259/26/4
f 77/18/3 64/17/3 252/17/3
f 77/18/3 252/17/3 261/18/3
f 79/10/3 81/9/3 265/9/3
f 79/10/3 265/9/3 263/10/3
f 66/60/2 80/10/2 264/10/2
f 66/60/2 264/10/2 254/60/2
f 82/9/4 78/18/4 262/18/4
f 82/9/4 262/18/4 266/9/4
f 70/29/6 83/68/6 267/68/6
f 70/29/6 267/68/6 256/29/6
f 84/13/3 76/55/3 260/55/3
f 84/13/3 260/55/3 268/13/3
f 88/27/2 95/30/2 274/30/2
f 88/27/2 274/30/2 271/27/2
f 67/28/6 86/27/6 270/27/6
f 67/28/6 270/27/6 255/28/6
f 89/21/3 71/29/3 257/29/3
f 89/21/3 257/29/3 272/21/3
f 99/31/2 97/22/2 276/22/2
f 99/31/2 276/22/2 278/31/2
f 92/30/6 98/31/6 277/31/6
f 92/30/6 277/31/6 273/30/6
f 96/22/3 89/21/3 272/21/3
f 96/22/3 272/21/3 275/22/3
f 101/14/2 85/13/2 269/13/2
f 101/14/2 269/13/2 280/14/2
f 103/6/2 105/5/2 284/5/2
f 103/6/2 284/5/2 282/6/2
f 83/68/6 102/6/6 281/6/6
f 83/68/6 281/6/6 267/68/6
f 104/5/3 100/14/3 279/14/3
f 104/5/3 279/14/3 283/5/3
f 108/47/2 24/46/2 212/46/2
f 108/47/2 212/46/2 287/47/2
f 18/63/4 111/69/4 290/69/4
f 18/63/4 290/69/4 206/63/4
f 113/70/2 21/64/2 209/64/2
f 113/70/2 209/64/2 292/70/2
f 114/71/6 112/70/6 291/70/6
f 114/71/6 291/70/6 293/71/6
f 117/72/6 119/73/6 298/73/6
f 117/72/6 298/73/6 296/72/6
f 111/69/4 118/72/4 297/72/4
f 111/69/4 297/72/4 290/69/4
f 120/73/2 116/71/2 295/71/2
f 120/73/2 295/71/2 299/73/2
f 123/37/2 126/32/2 305/32/2
f 123/37/2 305/32/2 302/37/2
f 132/35/2 129/34/2 308/34/2
f 132/35/2 308/34/2 311/35/2
f 124/32/6 130/35/6 309/35/6
f 124/32/6 309/35/6 303/32/6
f 127/34/3 31/33/3 219/33/3
f 127/34/3 219/33/3 306/34/3
f 135/39/2 138/38/2 317/38/2
f 135/39/2 317/38/2 314/39/2
f 12/36/6 133/39/6 312/39/6
f 12/36/6 312/39/6 200/36/6
f 136/38/3 121/37/3 300/37/3
f 136/38/3 300/37/3 315/38/3
f 141/43/2 144/42/2 323/42/2
f 141/43/2 323/42/2 320/43/2
f 142/42/3 148/41/3 327/41/3
f 142/42/3 327/41/3 321/42/3
f 145/40/6 139/43/6 318/43/6
f 145/40/6 318/43/6 324/40/6
f 150/41/9 147/40/9 326/40/9
f 150/41/9 326/40/9 329/41/9
f 160/4/10 153/53/10 332/53/10
f 160/4/10 332/53/10 339/4/10
f 171/44/6 106/47/6 285/47/6
f 171/44/6 285/47/6 350/44/6
f 154/53/4 180/54/4 359/54/4
f 154/53/4 359/54/4 333/53/4
f 179/54/11 176/45/11 355/45/11
f 179/54/11 355/45/11 358/54/11
f 176/45/11 173/44/11 352/44/11
f 176/45/11 352/44/11 355/45/11
f 186/48/12 182/51/12 361/51/12
f 186/48/12 361/51/12 365/48/12
f 184/3/2 162/4/2 341/4/2
f 184/3/2 341/4/2 363/3/2
f 366/74/6 871/74/6 901/74/6
f 366/74/6 901/74/6 889/74/6
f 188/74/13 810/75/13 801/2/13
f 188/74/13 801/2/13 367/74/13
f 373/65/5 369/19/5 377/20/5
f 373/65/5 377/20/5 379/23/5
f 373/65/5 379/23/5 383/11/5
f 373/65/5 383/11/5 386/12/5
f 369/19/5 375/56/5 389/58/5
f 369/19/5 389/58/5 392/59/5
f 397/57/5 379/23/5 377/20/5
f 377/20/5 400/15/5 395/16/5
f 377/20/5 395/16/5 397/57/5
f 383/11/5 379/23/5 402/24/5
f 383/11/5 402/24/5 404/25/5
f 397/57/5 395/16/5 408/7/5
f 397/57/5 408/7/5 411/8/5
f 416/60/5 404/25/5 402/24/5
f 402/24/5 419/17/5 414/18/5
f 402/24/5 414/18/5 416/60/5
f 383/11/5 404/25/5 422/29/5
f 383/11/5 422/29/5 425/28/5
f 422/29/5 404/25/5 428/26/5
f 422/29/5 428/26/5 431/55/5
f 416/60/5 414/18/5 433/9/5
f 416/60/5 433/9/5 436/10/5
f 442/68/5 422/29/5 431/55/5
f 431/55/5 444/13/5 439/14/5
f 431/55/5 439/14/5 442/68/5
f 450/30/5 447/21/5 453/22/5
f 450/30/5 453/22/5 456/31/5
f 442/68/5 439/14/5 459/5/5
f 442/68/5 459/5/5 462/6/5
f 41/12/6 25/65/6 372/65/6
f 41/12/6 372/65/6 385/12/6
f 80/10/2 66/60/2 417/60/2
f 80/10/2 417/60/2 437/10/2
f 61/8/2 52/57/2 398/57/2
f 61/8/2 398/57/2 412/8/2
f 102/6/6 83/68/6 441/68/6
f 102/6/6 441/68/6 461/6/6
f 78/18/4 82/9/4 434/9/4
f 78/18/4 434/9/4 415/18/4
f 59/16/4 63/7/4 409/7/4
f 59/16/4 409/7/4 396/16/4
f 100/14/3 104/5/3 458/5/3
f 100/14/3 458/5/3 438/14/3
f 50/58/3 48/59/3 391/59/3
f 50/58/3 391/59/3 388/58/3
f 83/68/6 70/29/6 421/29/6
f 83/68/6 421/29/6 441/68/6
f 25/65/6 34/19/6 368/19/6
f 25/65/6 368/19/6 372/65/6
f 66/60/2 57/25/2 406/25/2
f 66/60/2 406/25/2 417/60/2
f 49/59/2 37/19/2 371/19/2
f 49/59/2 371/19/2 393/59/2
f 76/55/3 84/13/3 443/13/3
f 76/55/3 443/13/3 430/55/3
f 55/24/4 65/17/4 420/17/4
f 55/24/4 420/17/4 403/24/4
f 47/56/4 51/58/4 390/58/4
f 47/56/4 390/58/4 376/56/4
f 73/29/2 69/28/2 426/28/2
f 73/29/2 426/28/2 423/29/2
f 67/28/6 43/11/6 382/11/6
f 67/28/6 382/11/6 424/28/6
f 52/57/2 39/23/2 381/23/2
f 52/57/2 381/23/2 398/57/2
f 40/20/4 54/15/4 401/15/4
f 40/20/4 401/15/4 378/20/4
f 94/30/4 91/21/4 448/21/4
f 94/30/4 448/21/4 451/30/4
f 34/19/6 45/56/6 374/56/6
f 34/19/6 374/56/6 368/19/6
f 74/26/3 76/55/3 430/55/3
f 74/26/3 430/55/3 427/26/3
f 469/65/8 475/23/8 473/20/8
f 469/65/8 473/20/8 465/19/8
f 469/65/8 482/12/8 479/11/8
f 469/65/8 479/11/8 475/23/8
f 465/19/8 488/59/8 485/58/8
f 465/19/8 485/58/8 471/56/8
f 473/20/8 475/23/8 493/57/8
f 491/16/8 496/15/8 473/20/8
f 493/57/8 491/16/8 473/20/8
f 479/11/8 500/25/8 498/24/8
f 479/11/8 498/24/8 475/23/8
f 493/57/8 507/8/8 504/7/8
f 493/57/8 504/7/8 491/16/8
f 498/24/8 500/25/8 512/60/8
f 510/18/8 515/17/8 498/24/8
f 512/60/8 510/18/8 498/24/8
f 479/11/8 521/28/8 519/29/8
f 479/11/8 519/29/8 500/25/8
f 519/29/8 526/55/8 523/26/8
f 519/29/8 523/26/8 500/25/8
f 512/60/8 531/10/8 528/9/8
f 512/60/8 528/9/8 510/18/8
f 526/55/8 519/29/8 537/68/8
f 534/14/8 539/13/8 526/55/8
f 537/68/8 534/14/8 526/55/8
f 519/29/8 521/28/8 545/27/8
f 542/30/8 548/21/8 519/29/8
f 545/27/8 542/30/8 519/29/8
f 542/30/8 553/31/8 550/22/8
f 542/30/8 550/22/8 548/21/8
f 537/68/8 559/6/8 556/5/8
f 537/68/8 556/5/8 534/14/8
f 273/30/6 277/31/6 552/31/6
f 273/30/6 552/31/6 541/30/6
f 259/26/4 244/25/4 501/25/4
f 259/26/4 501/25/4 524/26/4
f 243/24/4 226/23/4 476/23/4
f 243/24/4 476/23/4 499/24/4
f 275/22/3 272/21/3 547/21/3
f 275/22/3 547/21/3 549/22/3
f 228/20/4 224/19/4 466/19/4
f 228/20/4 466/19/4 474/20/4
f 261/18/3 252/17/3 514/17/3
f 261/18/3 514/17/3 509/18/3
f 246/16/3 241/15/3 495/15/3
f 246/16/3 495/15/3 490/16/3
f 280/14/2 269/13/2 540/13/2
f 280/14/2 540/13/2 535/14/2
f 230/12/2 232/11/2 480/11/2
f 230/12/2 480/11/2 483/12/2
f 263/10/3 265/9/3 527/9/3
f 263/10/3 527/9/3 530/10/3
f 248/8/3 250/7/3 503/7/3
f 248/8/3 503/7/3 506/8/3
f 282/6/2 284/5/2 557/5/2
f 282/6/2 557/5/2 560/6/2
f 213/65/6 229/12/6 481/12/6
f 213/65/6 481/12/6 468/65/6
f 254/60/2 264/10/2 532/10/2
f 254/60/2 532/10/2 513/60/2
f 240/57/2 249/8/2 508/8/2
f 240/57/2 508/8/2 494/57/2
f 267/68/6 281/6/6 558/6/6
f 267/68/6 558/6/6 536/68/6
f 266/9/4 262/18/4 511/18/4
f 266/9/4 511/18/4 529/9/4
f 251/7/4 247/16/4 492/16/4
f 251/7/4 492/16/4 505/7/4
f 283/5/3 279/14/3 533/14/3
f 283/5/3 533/14/3 555/5/3
f 236/59/3 238/58/3 484/58/3
f 236/59/3 484/58/3 487/59/3
f 256/29/6 267/68/6 536/68/6
f 256/29/6 536/68/6 517/29/6
f 222/19/6 213/65/6 468/65/6
f 222/19/6 468/65/6 464/19/6
f 575/37/5 562/36/5 565/52/5
f 565/52/5 568/65/5 571/33/5
f 573/32/5 575/37/5 565/52/5
f 565/52/5 571/33/5 573/32/5
f 5/52/6 564/52/6 561/36/6
f 5/52/6 561/36/6 12/36/6
f 27/65/4 569/65/4 566/52/4
f 27/65/4 566/52/4 7/52/4
f 31/33/3 570/33/3 567/65/3
f 31/33/3 567/65/3 26/65/3
f 126/32/2 574/32/2 572/33/2
f 126/32/2 572/33/2 33/33/2
f 123/37/2 576/37/2 574/32/2
f 123/37/2 574/32/2 126/32/2
f 15/36/2 563/36/2 576/37/2
f 15/36/2 576/37/2 123/37/2
f 568/65/5 565/52/5 579/53/5
f 581/4/5 584/50/5 587/49/5
f 568/65/5 579/53/5 581/4/5
f 599/19/5 568/65/5 581/4/5
f 587/49/5 590/67/5 594/66/5
f 599/19/5 581/4/5 587/49/5
f 587/49/5 594/66/5 597/56/5
f 587/49/5 597/56/5 599/19/5
f 151/53/6 578/53/6 564/52/6
f 151/53/6 564/52/6 5/52/6
f 160/4/10 583/4/10 580/53/10
f 160/4/10 580/53/10 153/53/10
f 164/50/14 585/50/14 582/4/14
f 164/50/14 582/4/14 159/4/14
f 169/49/15 588/49/15 586/50/15
f 169/49/15 586/50/15 165/50/15
f 158/67/13 592/67/13 589/49/13
f 158/67/13 589/49/13 170/49/13
f 30/66/4 595/66/4 591/67/4
f 30/66/4 591/67/4 157/67/4
f 46/56/3 596/56/3 593/66/3
f 46/56/3 593/66/3 29/66/3
f 35/19/3 598/19/3 596/56/3
f 35/19/3 596/56/3 46/56/3
f 26/65/3 567/65/3 598/19/3
f 26/65/3 598/19/3 35/19/3
f 8/52/2 577/52/2 600/65/2
f 8/52/2 600/65/2 28/65/2
f 615/52/8 602/36/8 604/37/8
f 606/32/8 609/33/8 612/65/8
f 615/52/8 604/37/8 606/32/8
f 606/32/8 612/65/8 615/52/8
f 302/37/2 605/37/2 603/36/2
f 302/37/2 603/36/2 203/36/2
f 305/32/2 607/32/2 605/37/2
f 305/32/2 605/37/2 302/37/2
f 221/33/2 610/33/2 607/32/2
f 221/33/2 607/32/2 305/32/2
f 214/65/3 611/65/3 608/33/3
f 214/65/3 608/33/3 219/33/3
f 195/52/4 616/52/4 613/65/4
f 195/52/4 613/65/4 215/65/4
f 200/36/6 601/36/6 614/52/6
f 200/36/6 614/52/6 193/52/6
f 639/53/8 615/52/8 612/65/8
f 635/4/8 639/53/8 612/65/8
f 629/49/8 632/50/8 635/4/8
f 624/66/8 626/67/8 629/49/8
f 622/56/8 624/66/8 629/49/8
f 629/49/8 635/4/8 612/65/8
f 620/19/8 622/56/8 629/49/8
f 612/65/8 620/19/8 629/49/8
f 216/65/2 618/65/2 617/52/2
f 216/65/2 617/52/2 196/52/2
f 223/19/3 619/19/3 611/65/3
f 223/19/3 611/65/3 214/65/3
f 234/56/3 621/56/3 619/19/3
f 234/56/3 619/19/3 223/19/3
f 217/66/3 623/66/3 621/56/3
f 217/66/3 621/56/3 234/56/3
f 336/67/4 627/67/4 625/66/4
f 336/67/4 625/66/4 218/66/4
f 349/49/13 631/49/13 628/67/13
f 349/49/13 628/67/13 337/67/13
f 344/50/15 634/50/15 630/49/15
f 344/50/15 630/49/15 348/49/15
f 338/4/14 636/4/14 633/50/14
f 338/4/14 633/50/14 343/50/14
f 332/53/10 640/53/10 637/4/10
f 332/53/10 637/4/10 339/4/10
f 193/52/6 614/52/6 638/53/6
f 193/52/6 638/53/6 330/53/6
f 651/67/5 654/49/5 656/48/5
f 651/67/5 656/48/5 658/74/5
f 156/67/16 168/49/16 655/49/16
f 655/49/16 652/67/16 877/67/16
f 655/49/16 877/67/16 156/67/16
f 810/75/13 188/74/13 882/74/13
f 882/74/13 660/74/13 657/48/13
f 657/48/13 809/48/13 820/76/13
f 822/77/13 810/75/13 882/74/13
f 657/48/13 820/76/13 822/77/13
f 882/74/13 657/48/13 822/77/13
f 187/74/6 366/74/6 889/74/6
f 187/74/6 889/74/6 883/74/6
f 661/50/8 663/51/8 665/3/8
f 661/50/8 665/3/8 668/4/8
f 798/78/14 362/3/14 666/3/14
f 666/3/14 664/51/14 806/51/14
f 813/79/17 798/78/17 666/3/17
f 666/3/14 806/51/14 813/79/14
f 341/4/2 670/4/2 667/3/2
f 341/4/2 667/3/2 363/3/2
f 345/50/7 662/50/7 669/4/7
f 345/50/7 669/4/7 340/4/7
f 671/67/8 674/74/8 677/48/8
f 671/67/8 677/48/8 679/49/8
f 876/67/5 880/74/5 905/74/5
f 876/67/5 905/74/5 896/67/5
f 827/80/18 794/81/18 829/81/18
f 827/80/18 829/81/18 866/80/18
f 347/49/16 335/67/16 869/67/16
f 869/67/16 672/67/16 680/49/16
f 869/67/16 680/49/16 347/49/16
f 4/61/2 683/61/2 692/52/2
f 4/61/2 692/52/2 8/52/2
f 682/61/5 691/52/5 696/36/5
f 682/61/5 696/36/5 699/62/5
f 7/52/4 694/52/4 693/61/4
f 7/52/4 693/61/4 3/61/4
f 13/36/3 695/36/3 690/52/3
f 13/36/3 690/52/3 6/52/3
f 11/62/2 700/62/2 697/36/2
f 11/62/2 697/36/2 15/36/2
f 1/61/6 681/61/6 698/62/6
f 1/61/6 698/62/6 9/62/6
f 682/61/5 699/62/5 704/64/5
f 682/61/5 704/64/5 707/63/5
f 10/62/3 702/62/3 701/61/3
f 10/62/3 701/61/3 2/61/3
f 21/64/2 705/64/2 700/62/2
f 21/64/2 700/62/2 11/62/2
f 16/63/6 706/63/6 703/64/6
f 16/63/6 703/64/6 19/64/6
f 3/61/4 693/61/4 708/63/4
f 3/61/4 708/63/4 18/63/4
f 717/69/5 707/63/5 704/64/5
f 704/64/5 712/70/5 715/71/5
f 704/64/5 715/71/5 717/69/5
f 20/64/3 710/64/3 709/63/3
f 20/64/3 709/63/3 17/63/3
f 113/70/2 713/70/2 705/64/2
f 113/70/2 705/64/2 21/64/2
f 114/71/6 714/71/6 711/70/6
f 114/71/6 711/70/6 112/70/6
f 109/69/6 716/69/6 714/71/6
f 109/69/6 714/71/6 114/71/6
f 18/63/4 708/63/4 718/69/4
f 18/63/4 718/69/4 111/69/4
f 717/69/5 715/71/5 723/73/5
f 717/69/5 723/73/5 726/72/5
f 115/71/3 720/71/3 719/69/3
f 115/71/3 719/69/3 110/69/3
f 120/73/2 724/73/2 721/71/2
f 120/73/2 721/71/2 116/71/2
f 117/72/6 725/72/6 722/73/6
f 117/72/6 722/73/6 119/73/6
f 111/69/4 718/69/4 727/72/4
f 111/69/4 727/72/4 118/72/4
f 729/45/5 732/54/5 682/61/5
f 729/45/5 682/61/5 735/46/5
f 179/54/11 733/54/11 730/45/11
f 179/54/11 730/45/11 176/45/11
f 2/61/3 701/61/3 731/54/3
f 2/61/3 731/54/3 178/54/3
f 24/46/2 736/46/2 683/61/2
f 24/46/2 683/61/2 4/61/2
f 174/45/6 728/45/6 734/46/6
f 174/45/6 734/46/6 22/46/6
f 738/61/8 741/52/8 744/53/8
f 738/61/8 744/53/8 747/54/8
f 196/52/2 742/52/2 739/61/2
f 196/52/2 739/61/2 192/61/2
f 331/53/3 743/53/3 740/52/3
f 331/53/3 740/52/3 194/52/3
f 359/54/4 748/54/4 745/53/4
f 359/54/4 745/53/4 333/53/4
f 189/61/6 737/61/6 746/54/6
f 189/61/6 746/54/6 356/54/6
f 738/61/8 751/62/8 754/36/8
f 738/61/8 754/36/8 741/52/8
f 197/62/6 750/62/6 737/61/6
f 197/62/6 737/61/6 189/61/6
f 203/36/2 755/36/2 752/62/2
f 203/36/2 752/62/2 199/62/2
f 194/52/3 740/52/3 753/36/3
f 194/52/3 753/36/3 201/36/3
f 191/61/4 749/61/4 756/52/4
f 191/61/4 756/52/4 195/52/4
f 738/61/8 759/63/8 762/64/8
f 738/61/8 762/64/8 751/62/8
f 206/63/4 760/63/4 749/61/4
f 206/63/4 749/61/4 191/61/4
f 207/64/6 761/64/6 758/63/6
f 207/64/6 758/63/6 204/63/6
f 199/62/2 752/62/2 763/64/2
f 199/62/2 763/64/2 209/64/2
f 190/61/3 757/61/3 764/62/3
f 190/61/3 764/62/3 198/62/3
f 762/64/8 759/63/8 767/69/8
f 770/71/8 772/70/8 762/64/8
f 767/69/8 770/71/8 762/64/8
f 290/69/4 768/69/4 760/63/4
f 290/69/4 760/63/4 206/63/4
f 293/71/6 769/71/6 766/69/6
f 293/71/6 766/69/6 288/69/6
f 291/70/6 771/70/6 769/71/6
f 291/70/6 769/71/6 293/71/6
f 209/64/2 763/64/2 773/70/2
f 209/64/2 773/70/2 292/70/2
f 205/63/3 765/63/3 774/64/3
f 205/63/3 774/64/3 208/64/3
f 767/69/8 777/72/8 780/73/8
f 767/69/8 780/73/8 770/71/8
f 297/72/4 778/72/4 768/69/4
f 297/72/4 768/69/4 290/69/4
f 298/73/6 779/73/6 776/72/6
f 298/73/6 776/72/6 296/72/6
f 295/71/2 783/71/2 781/73/2
f 295/71/2 781/73/2 299/73/2
f 289/69/3 775/69/3 782/71/3
f 289/69/3 782/71/3 294/71/3
f 785/45/8 788/46/8 738/61/8
f 785/45/8 738/61/8 791/54/8
f 210/46/6 787/46/6 784/45/6
f 210/46/6 784/45/6 353/45/6
f 192/61/2 739/61/2 789/46/2
f 192/61/2 789/46/2 212/46/2
f 357/54/3 790/54/3 757/61/3
f 357/54/3 757/61/3 190/61/3
f 355/45/11 786/45/11 792/54/11
f 355/45/11 792/54/11 358/54/11
f 799/78/19 815/79/19 854/79/19
f 799/78/19 854/79/19 833/78/19
f 367/74/13 801/2/13 817/1/13
f 817/1/13 797/48/13 678/48/13
f 678/48/13 676/74/13 874/74/13
f 874/74/13 367/74/13 817/1/13
f 817/1/13 678/48/13 874/74/13
f 802/2/20 812/75/20 851/75/20
f 802/2/20 851/75/20 841/2/20
f 798/78/14 793/81/14 183/3/14
f 798/78/14 183/3/14 362/3/14
f 183/3/14 793/81/14 825/80/14
f 825/80/14 804/51/14 650/51/14
f 647/3/14 183/3/14 825/80/14
f 825/80/14 650/51/14 647/3/14
f 831/51/14 843/51/14 864/80/14
f 831/51/14 864/80/14 828/81/14
f 831/51/14 828/81/14 832/78/14
f 831/51/17 832/78/17 835/51/17
f 837/48/13 839/48/13 856/1/13
f 837/48/13 856/1/13 840/2/13
f 832/78/14 852/79/14 845/51/14
f 832/78/17 845/51/17 835/51/17
f 836/48/13 849/75/13 861/77/13
f 861/77/13 859/76/13 848/48/13
f 861/77/13 848/48/13 836/48/13
f 840/2/13 849/75/13 836/48/13
f 840/2/13 836/48/13 837/48/13
f 805/51/21 826/80/21 865/80/21
f 805/51/21 865/80/21 844/51/21
f 796/48/22 816/1/22 855/1/22
f 796/48/22 855/1/22 838/48/22
f 819/76/23 808/48/23 847/48/23
f 819/76/23 847/48/23 858/76/23
f 823/77/24 821/76/24 860/76/24
f 823/77/24 860/76/24 862/77/24
f 811/75/25 824/77/25 863/77/25
f 811/75/25 863/77/25 850/75/25
f 795/81/26 800/78/26 834/78/26
f 795/81/26 834/78/26 830/81/26
f 814/79/27 807/51/27 846/51/27
f 814/79/27 846/51/27 853/79/27
f 883/74/6 889/74/6 913/74/6
f 883/74/6 913/74/6 907/74/6
f 870/67/4 873/74/4 675/74/4
f 870/67/4 675/74/4 673/67/4
f 881/74/4 878/67/4 653/67/4
f 881/74/4 653/67/4 659/74/4
f 888/67/4 897/67/4 906/74/4
f 888/67/4 906/74/4 885/74/4
f 891/74/4 903/74/4 900/67/4
f 891/74/4 900/67/4 894/67/4
f 155/67/3 875/67/3 895/67/3
f 155/67/3 895/67/3 886/67/3
f 334/67/3 155/67/3 886/67/3
f 334/67/3 886/67/3 892/67/3
f 867/67/3 334/67/3 892/67/3
f 867/67/3 892/67/3 898/67/3
f 879/74/6 187/74/6 883/74/6
f 879/74/6 883/74/6 904/74/6
f 872/74/8 868/67/8 899/67/8
f 872/74/8 899/67/8 902/74/8
f 912/67/4 909/74/4 915/74/4
f 912/67/4 915/74/4 918/67/4
f 890/74/8 893/67/8 917/67/8
f 890/74/8 917/67/8 914/74/8
f 892/67/3 886/67/3 910/67/3
f 892/67/3 910/67/3 916/67/3
f 887/67/5 884/74/5 908/74/5
f 887/67/5 908/74/5 911/67/5
