# Blender 5.2.1 LTS
# www.blender.org
mtllib diamond_staff.mtl
o Object_2
v 0.468394 0.337224 -0.041419
v 0.468394 0.337224 0.000302
v 0.559750 0.439870 0.000302
v 0.468394 0.337224 0.000302
v 0.468394 0.337224 0.042022
v 0.369401 0.456652 -0.041419
v 0.438136 0.530580 0.000302
v 0.369401 0.456652 0.000302
v 0.369401 0.456652 0.042022
v -0.538575 -0.583077 -0.015322
v -0.536165 -0.585984 -0.007912
v -0.600000 -0.587199 0.000302
v -0.542328 -0.578550 -0.021202
v -0.538575 -0.583077 -0.015322
v -0.600000 -0.587199 0.000302
v -0.547056 -0.572845 -0.024978
v -0.542328 -0.578550 -0.021202
v -0.600000 -0.587199 0.000302
v -0.552298 -0.566521 -0.026279
v -0.547056 -0.572845 -0.024978
v -0.600000 -0.587199 0.000302
v -0.557540 -0.560197 -0.024978
v -0.552298 -0.566521 -0.026279
v -0.600000 -0.587199 0.000302
v -0.562269 -0.554492 -0.021202
v -0.557540 -0.560197 -0.024978
v -0.600000 -0.587199 0.000302
v -0.566021 -0.549965 -0.015322
v -0.562269 -0.554492 -0.021202
v -0.600000 -0.587199 0.000302
v -0.568431 -0.547058 -0.007912
v -0.566021 -0.549965 -0.015322
v -0.600000 -0.587199 0.000302
v -0.569261 -0.546056 0.000302
v -0.568431 -0.547058 -0.007912
v -0.600000 -0.587199 0.000302
v -0.568431 -0.547058 0.008516
v -0.569261 -0.546056 0.000302
v -0.600000 -0.587199 0.000302
v -0.566021 -0.549965 0.015926
v -0.568431 -0.547058 0.008516
v -0.600000 -0.587199 0.000302
v -0.562269 -0.554492 0.021806
v -0.566021 -0.549965 0.015926
v -0.600000 -0.587199 0.000302
v -0.557540 -0.560197 0.025582
v -0.562269 -0.554492 0.021806
v -0.600000 -0.587199 0.000302
v -0.552298 -0.566521 0.026883
v -0.557540 -0.560197 0.025582
v -0.600000 -0.587199 0.000302
v -0.547056 -0.572845 0.025582
v -0.552298 -0.566521 0.026883
v -0.600000 -0.587199 0.000302
v -0.542328 -0.578550 0.021806
v -0.547056 -0.572845 0.025582
v -0.600000 -0.587199 0.000302
v -0.538575 -0.583077 0.015926
v -0.542328 -0.578550 0.021806
v -0.600000 -0.587199 0.000302
v -0.536165 -0.585984 0.008516
v -0.538575 -0.583077 0.015926
v -0.600000 -0.587199 0.000302
v -0.535335 -0.586986 0.000302
v -0.536165 -0.585984 0.008516
v -0.600000 -0.587199 0.000302
v -0.536165 -0.585984 -0.007912
v -0.535335 -0.586986 0.000302
v -0.600000 -0.587199 0.000302
v -0.468340 -0.534052 -0.024221
v -0.464558 -0.538615 -0.012590
v -0.536165 -0.585984 -0.007912
v -0.538575 -0.583077 -0.015322
v -0.474230 -0.526946 -0.033451
v -0.468340 -0.534052 -0.024221
v -0.538575 -0.583077 -0.015322
v -0.542328 -0.578550 -0.021202
v -0.481652 -0.517992 -0.039376
v -0.474230 -0.526946 -0.033451
v -0.542328 -0.578550 -0.021202
v -0.547056 -0.572845 -0.024978
v -0.489879 -0.508066 -0.041418
v -0.481652 -0.517992 -0.039376
v -0.547056 -0.572845 -0.024978
v -0.552298 -0.566521 -0.026279
v -0.498106 -0.498140 -0.039376
v -0.489879 -0.508066 -0.041418
v -0.552298 -0.566521 -0.026279
v -0.557540 -0.560197 -0.024978
v -0.505529 -0.489186 -0.033451
v -0.498106 -0.498140 -0.039376
v -0.557540 -0.560197 -0.024978
v -0.562269 -0.554492 -0.021202
v -0.511419 -0.482080 -0.024221
v -0.505529 -0.489186 -0.033451
v -0.562269 -0.554492 -0.021202
v -0.566021 -0.549965 -0.015322
v -0.515200 -0.477518 -0.012590
v -0.511419 -0.482080 -0.024221
v -0.566021 -0.549965 -0.015322
v -0.568431 -0.547058 -0.007912
v -0.516504 -0.475946 0.000302
v -0.515200 -0.477518 -0.012590
v -0.568431 -0.547058 -0.007912
v -0.569261 -0.546056 0.000302
v -0.515200 -0.477518 0.013194
v -0.516504 -0.475946 0.000302
v -0.569261 -0.546056 0.000302
v -0.568431 -0.547058 0.008516
v -0.511419 -0.482080 0.024825
v -0.515200 -0.477518 0.013194
v -0.568431 -0.547058 0.008516
v -0.566021 -0.549965 0.015926
v -0.505529 -0.489186 0.034054
v -0.511419 -0.482080 0.024825
v -0.566021 -0.549965 0.015926
v -0.562269 -0.554492 0.021806
v -0.498106 -0.498140 0.039980
v -0.505529 -0.489186 0.034054
v -0.562269 -0.554492 0.021806
v -0.557540 -0.560197 0.025582
v -0.489879 -0.508066 0.042022
v -0.498106 -0.498140 0.039980
v -0.557540 -0.560197 0.025582
v -0.552298 -0.566521 0.026883
v -0.481652 -0.517992 0.039980
v -0.489879 -0.508066 0.042022
v -0.552298 -0.566521 0.026883
v -0.547056 -0.572845 0.025582
v -0.474230 -0.526946 0.034054
v -0.481652 -0.517992 0.039980
v -0.547056 -0.572845 0.025582
v -0.542328 -0.578550 0.021806
v -0.468340 -0.534052 0.024825
v -0.474230 -0.526946 0.034054
v -0.542328 -0.578550 0.021806
v -0.538575 -0.583077 0.015926
v -0.464558 -0.538615 0.013194
v -0.468340 -0.534052 0.024825
v -0.538575 -0.583077 0.015926
v -0.536165 -0.585984 0.008516
v -0.463255 -0.540187 0.000302
v -0.464558 -0.538615 0.013194
v -0.536165 -0.585984 0.008516
v -0.535335 -0.586986 0.000302
v -0.464558 -0.538615 -0.012590
v -0.463255 -0.540187 0.000302
v -0.535335 -0.586986 0.000302
v -0.536165 -0.585984 -0.007912
v -0.336901 -0.412817 -0.012590
v -0.340683 -0.408254 -0.024221
v -0.271941 -0.282463 -0.024221
v -0.268160 -0.287026 -0.012590
v -0.340683 -0.408254 -0.024221
v -0.346573 -0.401148 -0.033451
v -0.277832 -0.275357 -0.033451
v -0.271941 -0.282463 -0.024221
v -0.346573 -0.401148 -0.033451
v -0.353995 -0.392194 -0.039377
v -0.285254 -0.266403 -0.039377
v -0.277832 -0.275357 -0.033451
v -0.353995 -0.392194 -0.039377
v -0.362222 -0.382268 -0.041419
v -0.293481 -0.256477 -0.041419
v -0.285254 -0.266403 -0.039377
v -0.362222 -0.382268 -0.041419
v -0.370450 -0.372342 -0.039377
v -0.301708 -0.246551 -0.039377
v -0.293481 -0.256477 -0.041419
v -0.370450 -0.372342 -0.039377
v -0.377872 -0.363388 -0.033451
v -0.309130 -0.237597 -0.033451
v -0.301708 -0.246551 -0.039377
v -0.377872 -0.363388 -0.033451
v -0.383762 -0.356282 -0.024221
v -0.315021 -0.230491 -0.024221
v -0.309130 -0.237597 -0.033451
v -0.383762 -0.356282 -0.024221
v -0.387544 -0.351719 -0.012590
v -0.318802 -0.225929 -0.012590
v -0.315021 -0.230491 -0.024221
v -0.387544 -0.351719 -0.012590
v -0.388847 -0.350147 0.000302
v -0.320105 -0.224357 0.000302
v -0.318802 -0.225929 -0.012590
v -0.388847 -0.350147 0.000302
v -0.387544 -0.351719 0.013194
v -0.318802 -0.225929 0.013194
v -0.320105 -0.224357 0.000302
v -0.387544 -0.351719 0.013194
v -0.383762 -0.356282 0.024825
v -0.315021 -0.230491 0.024825
v -0.318802 -0.225929 0.013194
v -0.383762 -0.356282 0.024825
v -0.377872 -0.363388 0.034054
v -0.309130 -0.237597 0.034054
v -0.315021 -0.230491 0.024825
v -0.377872 -0.363388 0.034054
v -0.370450 -0.372342 0.039980
v -0.301708 -0.246551 0.039980
v -0.309130 -0.237597 0.034054
v -0.370450 -0.372342 0.039980
v -0.362222 -0.382268 0.042022
v -0.293481 -0.256477 0.042022
v -0.301708 -0.246551 0.039980
v -0.362222 -0.382268 0.042022
v -0.353995 -0.392194 0.039980
v -0.285254 -0.266403 0.039980
v -0.293481 -0.256477 0.042022
v -0.353995 -0.392194 0.039980
v -0.346573 -0.401148 0.034054
v -0.277832 -0.275357 0.034054
v -0.285254 -0.266403 0.039980
v -0.346573 -0.401148 0.034054
v -0.340683 -0.408254 0.024825
v -0.271941 -0.282463 0.024825
v -0.277832 -0.275357 0.034054
v -0.340683 -0.408254 0.024825
v -0.336901 -0.412816 0.013194
v -0.268159 -0.287026 0.013194
v -0.271941 -0.282463 0.024825
v -0.336901 -0.412816 0.013194
v -0.335598 -0.414389 0.000302
v -0.266857 -0.288598 0.000302
v -0.268159 -0.287026 0.013194
v -0.335598 -0.414389 0.000302
v -0.336901 -0.412817 -0.012590
v -0.268160 -0.287026 -0.012590
v -0.266857 -0.288598 0.000302
v -0.268160 -0.287026 -0.012590
v -0.271941 -0.282463 -0.024221
v 0.036857 0.059271 -0.024221
v 0.040639 0.054709 -0.012591
v -0.271941 -0.282463 -0.024221
v -0.277832 -0.275357 -0.033451
v 0.030967 0.066377 -0.033451
v 0.036857 0.059271 -0.024221
v -0.277832 -0.275357 -0.033451
v -0.285254 -0.266403 -0.039377
v 0.023545 0.075331 -0.039377
v 0.030967 0.066377 -0.033451
v -0.285254 -0.266403 -0.039377
v -0.293481 -0.256477 -0.041419
v 0.015317 0.085257 -0.041419
v 0.023545 0.075331 -0.039377
v -0.293481 -0.256477 -0.041419
v -0.301708 -0.246551 -0.039377
v 0.007090 0.095183 -0.039377
v 0.015317 0.085257 -0.041419
v -0.301708 -0.246551 -0.039377
v -0.309130 -0.237597 -0.033451
v -0.000332 0.104137 -0.033451
v 0.007090 0.095183 -0.039377
v -0.309130 -0.237597 -0.033451
v -0.315021 -0.230491 -0.024221
v -0.006222 0.111243 -0.024221
v -0.000332 0.104137 -0.033451
v -0.315021 -0.230491 -0.024221
v -0.318802 -0.225929 -0.012590
v -0.010004 0.115806 -0.012591
v -0.006222 0.111243 -0.024221
v -0.318802 -0.225929 -0.012590
v -0.320105 -0.224357 0.000302
v -0.011307 0.117378 0.000302
v -0.010004 0.115806 -0.012591
v -0.320105 -0.224357 0.000302
v -0.318802 -0.225929 0.013194
v -0.010004 0.115806 0.013194
v -0.011307 0.117378 0.000302
v -0.318802 -0.225929 0.013194
v -0.315021 -0.230491 0.024825
v -0.006222 0.111243 0.024824
v -0.010004 0.115806 0.013194
v -0.315021 -0.230491 0.024825
v -0.309130 -0.237597 0.034054
v -0.000332 0.104137 0.034054
v -0.006222 0.111243 0.024824
v -0.309130 -0.237597 0.034054
v -0.301708 -0.246551 0.039980
v 0.007090 0.095183 0.039980
v -0.000332 0.104137 0.034054
v -0.301708 -0.246551 0.039980
v -0.293481 -0.256477 0.042022
v 0.015317 0.085257 0.042022
v 0.007090 0.095183 0.039980
v -0.293481 -0.256477 0.042022
v -0.285254 -0.266403 0.039980
v 0.023545 0.075331 0.039980
v 0.015317 0.085257 0.042022
v -0.285254 -0.266403 0.039980
v -0.277832 -0.275357 0.034054
v 0.030967 0.066377 0.034054
v 0.023545 0.075331 0.039980
v -0.277832 -0.275357 0.034054
v -0.271941 -0.282463 0.024825
v 0.036857 0.059271 0.024824
v 0.030967 0.066377 0.034054
v -0.271941 -0.282463 0.024825
v -0.268159 -0.287026 0.013194
v 0.040639 0.054709 0.013194
v 0.036857 0.059271 0.024824
v -0.268159 -0.287026 0.013194
v -0.266857 -0.288598 0.000302
v 0.041942 0.053137 0.000302
v 0.040639 0.054709 0.013194
v -0.266857 -0.288598 0.000302
v -0.268160 -0.287026 -0.012590
v 0.040639 0.054709 -0.012591
v 0.041942 0.053137 0.000302
v 0.040639 0.054709 -0.012591
v 0.036857 0.059271 -0.024221
v 0.153683 0.059271 -0.024221
v 0.157465 0.054709 -0.012591
v 0.036857 0.059271 -0.024221
v 0.030967 0.066377 -0.033451
v 0.147793 0.066377 -0.033451
v 0.153683 0.059271 -0.024221
v 0.030967 0.066377 -0.033451
v 0.023545 0.075331 -0.039377
v 0.140371 0.075331 -0.039377
v 0.147793 0.066377 -0.033451
v 0.023545 0.075331 -0.039377
v 0.015317 0.085257 -0.041419
v 0.132143 0.085257 -0.041419
v 0.140371 0.075331 -0.039377
v 0.015317 0.085257 -0.041419
v 0.007090 0.095183 -0.039377
v 0.123916 0.095183 -0.039377
v 0.132143 0.085257 -0.041419
v 0.007090 0.095183 -0.039377
v -0.000332 0.104137 -0.033451
v 0.116494 0.104137 -0.033451
v 0.123916 0.095183 -0.039377
v -0.000332 0.104137 -0.033451
v -0.006222 0.111243 -0.024221
v 0.110604 0.111243 -0.024221
v 0.116494 0.104137 -0.033451
v -0.006222 0.111243 -0.024221
v -0.010004 0.115806 -0.012591
v 0.106822 0.115806 -0.012591
v 0.110604 0.111243 -0.024221
v -0.010004 0.115806 -0.012591
v -0.011307 0.117378 0.000302
v 0.105519 0.117378 0.000302
v 0.106822 0.115806 -0.012591
v -0.011307 0.117378 0.000302
v -0.010004 0.115806 0.013194
v 0.106822 0.115806 0.013194
v 0.105519 0.117378 0.000302
v -0.010004 0.115806 0.013194
v -0.006222 0.111243 0.024824
v 0.110604 0.111243 0.024824
v 0.106822 0.115806 0.013194
v -0.006222 0.111243 0.024824
v -0.000332 0.104137 0.034054
v 0.116494 0.104137 0.034054
v 0.110604 0.111243 0.024824
v -0.000332 0.104137 0.034054
v 0.007090 0.095183 0.039980
v 0.123916 0.095183 0.039980
v 0.116494 0.104137 0.034054
v 0.007090 0.095183 0.039980
v 0.015317 0.085257 0.042022
v 0.132143 0.085257 0.042022
v 0.123916 0.095183 0.039980
v 0.015317 0.085257 0.042022
v 0.023545 0.075331 0.039980
v 0.140371 0.075331 0.039980
v 0.132143 0.085257 0.042022
v 0.023545 0.075331 0.039980
v 0.030967 0.066377 0.034054
v 0.147793 0.066377 0.034054
v 0.140371 0.075331 0.039980
v 0.030967 0.066377 0.034054
v 0.036857 0.059271 0.024824
v 0.153683 0.059271 0.024824
v 0.147793 0.066377 0.034054
v 0.036857 0.059271 0.024824
v 0.040639 0.054709 0.013194
v 0.157465 0.054709 0.013194
v 0.153683 0.059271 0.024824
v 0.040639 0.054709 0.013194
v 0.041942 0.053137 0.000302
v 0.158768 0.053137 0.000302
v 0.157465 0.054709 0.013194
v 0.041942 0.053137 0.000302
v 0.040639 0.054709 -0.012591
v 0.157465 0.054709 -0.012591
v 0.158768 0.053137 0.000302
v 0.157465 0.054709 -0.012591
v 0.153683 0.059271 -0.024221
v 0.319893 0.264565 -0.024221
v 0.323675 0.260003 -0.012591
v 0.153683 0.059271 -0.024221
v 0.147793 0.066377 -0.033451
v 0.314003 0.271671 -0.033451
v 0.319893 0.264565 -0.024221
v 0.147793 0.066377 -0.033451
v 0.140371 0.075331 -0.039377
v 0.306581 0.280625 -0.039377
v 0.314003 0.271671 -0.033451
v 0.140371 0.075331 -0.039377
v 0.132143 0.085257 -0.041419
v 0.298353 0.290551 -0.041419
v 0.306581 0.280625 -0.039377
v 0.132143 0.085257 -0.041419
v 0.123916 0.095183 -0.039377
v 0.290126 0.300477 -0.039377
v 0.298353 0.290551 -0.041419
v 0.123916 0.095183 -0.039377
v 0.116494 0.104137 -0.033451
v 0.282704 0.309431 -0.033451
v 0.290126 0.300477 -0.039377
v 0.116494 0.104137 -0.033451
v 0.110604 0.111243 -0.024221
v 0.276814 0.316537 -0.024221
v 0.282704 0.309431 -0.033451
v 0.110604 0.111243 -0.024221
v 0.106822 0.115806 -0.012591
v 0.273032 0.321099 -0.012591
v 0.276814 0.316537 -0.024221
v 0.106822 0.115806 -0.012591
v 0.105519 0.117378 0.000302
v 0.271729 0.322672 0.000302
v 0.273032 0.321099 -0.012591
v 0.105519 0.117378 0.000302
v 0.106822 0.115806 0.013194
v 0.273032 0.321099 0.013194
v 0.271729 0.322672 0.000302
v 0.106822 0.115806 0.013194
v 0.110604 0.111243 0.024824
v 0.276814 0.316537 0.024824
v 0.273032 0.321099 0.013194
v 0.110604 0.111243 0.024824
v 0.116494 0.104137 0.034054
v 0.282704 0.309431 0.034054
v 0.276814 0.316537 0.024824
v 0.116494 0.104137 0.034054
v 0.123916 0.095183 0.039980
v 0.290126 0.300477 0.039980
v 0.282704 0.309431 0.034054
v 0.123916 0.095183 0.039980
v 0.132143 0.085257 0.042022
v 0.298353 0.290551 0.042022
v 0.290126 0.300477 0.039980
v 0.132143 0.085257 0.042022
v 0.140371 0.075331 0.039980
v 0.306581 0.280625 0.039980
v 0.298353 0.290551 0.042022
v 0.140371 0.075331 0.039980
v 0.147793 0.066377 0.034054
v 0.314003 0.271671 0.034054
v 0.306581 0.280625 0.039980
v 0.147793 0.066377 0.034054
v 0.153683 0.059271 0.024824
v 0.319893 0.264565 0.024824
v 0.314003 0.271671 0.034054
v 0.153683 0.059271 0.024824
v 0.157465 0.054709 0.013194
v 0.323675 0.260003 0.013194
v 0.319893 0.264565 0.024824
v 0.157465 0.054709 0.013194
v 0.158768 0.053137 0.000302
v 0.324978 0.258430 0.000302
v 0.323675 0.260003 0.013194
v 0.158768 0.053137 0.000302
v 0.157465 0.054709 -0.012591
v 0.323675 0.260003 -0.012591
v 0.324978 0.258430 0.000302
v 0.323675 0.260003 -0.012591
v 0.319893 0.264565 -0.024221
v 0.369460 0.306473 -0.024221
v 0.373242 0.301911 -0.012591
v 0.319893 0.264565 -0.024221
v 0.314003 0.271671 -0.033451
v 0.363570 0.313579 -0.033451
v 0.369460 0.306473 -0.024221
v 0.314003 0.271671 -0.033451
v 0.306581 0.280625 -0.039377
v 0.356148 0.322534 -0.039377
v 0.363570 0.313579 -0.033451
v 0.306581 0.280625 -0.039377
v 0.298353 0.290551 -0.041419
v 0.345146 0.335806 -0.049017
v 0.356148 0.322534 -0.039377
v 0.298353 0.290551 -0.041419
v 0.290126 0.300477 -0.039377
v 0.334144 0.349079 -0.039377
v 0.345146 0.335806 -0.049017
v 0.290126 0.300477 -0.039377
v 0.282704 0.309431 -0.033451
v 0.326722 0.358033 -0.033451
v 0.334144 0.349079 -0.039377
v 0.282704 0.309431 -0.033451
v 0.276814 0.316537 -0.024221
v 0.320832 0.365140 -0.024221
v 0.326722 0.358033 -0.033451
v 0.276814 0.316537 -0.024221
v 0.273032 0.321099 -0.012591
v 0.317050 0.369702 -0.012591
v 0.320832 0.365140 -0.024221
v 0.273032 0.321099 -0.012591
v 0.271729 0.322672 0.000302
v 0.315747 0.371274 0.000302
v 0.317050 0.369702 -0.012591
v 0.271729 0.322672 0.000302
v 0.273032 0.321099 0.013194
v 0.317050 0.369702 0.013194
v 0.315747 0.371274 0.000302
v 0.273032 0.321099 0.013194
v 0.276814 0.316537 0.024824
v 0.320832 0.365140 0.024824
v 0.317050 0.369702 0.013194
v 0.276814 0.316537 0.024824
v 0.282704 0.309431 0.034054
v 0.326722 0.358033 0.034054
v 0.320832 0.365140 0.024824
v 0.282704 0.309431 0.034054
v 0.290126 0.300477 0.039980
v 0.334144 0.349079 0.039980
v 0.326722 0.358033 0.034054
v 0.290126 0.300477 0.039980
v 0.298353 0.290551 0.042022
v 0.345146 0.335806 0.049017
v 0.334144 0.349079 0.039980
v 0.298353 0.290551 0.042022
v 0.306581 0.280625 0.039980
v 0.356148 0.322534 0.039980
v 0.345146 0.335806 0.049017
v 0.306581 0.280625 0.039980
v 0.314003 0.271671 0.034054
v 0.363570 0.313579 0.034054
v 0.356148 0.322534 0.039980
v 0.314003 0.271671 0.034054
v 0.319893 0.264565 0.024824
v 0.369460 0.306473 0.024824
v 0.363570 0.313579 0.034054
v 0.319893 0.264565 0.024824
v 0.323675 0.260003 0.013194
v 0.373242 0.301911 0.013194
v 0.369460 0.306473 0.024824
v 0.323675 0.260003 0.013194
v 0.324978 0.258430 0.000302
v 0.374545 0.300339 0.000302
v 0.373242 0.301911 0.013194
v 0.324978 0.258430 0.000302
v 0.323675 0.260003 -0.012591
v 0.373242 0.301911 -0.012591
v 0.374545 0.300339 0.000302
v 0.373242 0.301911 -0.012591
v 0.369460 0.306473 -0.024221
v 0.466437 0.303528 -0.024221
v 0.466093 0.297612 -0.012591
v 0.369460 0.306473 -0.024221
v 0.363570 0.313579 -0.033451
v 0.466972 0.312743 -0.033451
v 0.466437 0.303528 -0.024221
v 0.363570 0.313579 -0.033451
v 0.356148 0.322534 -0.039377
v 0.467646 0.324353 -0.039377
v 0.466972 0.312743 -0.033451
v 0.356148 0.322534 -0.039377
v 0.345146 0.335806 -0.049017
v 0.468394 0.337224 -0.041419
v 0.467646 0.324353 -0.039377
v 0.345146 0.335806 0.049017
v 0.356148 0.322534 0.039980
v 0.467646 0.324353 0.039980
v 0.468394 0.337224 0.042022
v 0.356148 0.322534 0.039980
v 0.363570 0.313579 0.034054
v 0.466972 0.312743 0.034054
v 0.467646 0.324353 0.039980
v 0.363570 0.313579 0.034054
v 0.369460 0.306473 0.024824
v 0.466437 0.303528 0.024824
v 0.466972 0.312743 0.034054
v 0.369460 0.306473 0.024824
v 0.373242 0.301911 0.013194
v 0.466094 0.297612 0.013194
v 0.466437 0.303528 0.024824
v 0.373242 0.301911 0.013194
v 0.374545 0.300339 0.000302
v 0.465975 0.295574 0.000302
v 0.466094 0.297612 0.013194
v 0.374545 0.300339 0.000302
v 0.373242 0.301911 -0.012591
v 0.466093 0.297612 -0.012591
v 0.465975 0.295574 0.000302
v 0.466093 0.297612 -0.012591
v 0.466437 0.303528 -0.024221
v 0.537064 0.381165 -0.024221
v 0.536721 0.375249 -0.012591
v 0.466437 0.303528 -0.024221
v 0.466972 0.312743 -0.033451
v 0.537600 0.390379 -0.033451
v 0.537064 0.381165 -0.024221
v 0.466972 0.312743 -0.033451
v 0.467646 0.324353 -0.039377
v 0.538274 0.401990 -0.039377
v 0.537600 0.390379 -0.033451
v 0.467646 0.324353 0.039980
v 0.466972 0.312743 0.034054
v 0.537600 0.390379 0.034054
v 0.538274 0.401990 0.039980
v 0.466972 0.312743 0.034054
v 0.466437 0.303528 0.024824
v 0.537064 0.381165 0.024824
v 0.537600 0.390379 0.034054
v 0.466437 0.303528 0.024824
v 0.466094 0.297612 0.013194
v 0.536721 0.375249 0.013194
v 0.537064 0.381165 0.024824
v 0.466094 0.297612 0.013194
v 0.465975 0.295574 0.000302
v 0.536602 0.373210 0.000302
v 0.536721 0.375249 0.013194
v 0.465975 0.295574 0.000302
v 0.466093 0.297612 -0.012591
v 0.536721 0.375249 -0.012591
v 0.536602 0.373210 0.000302
v 0.317050 0.369702 -0.012591
v 0.330050 0.461740 -0.012591
v 0.335927 0.460980 -0.024221
v 0.320832 0.365140 -0.024221
v 0.320832 0.365140 -0.024221
v 0.335927 0.460980 -0.024221
v 0.345081 0.459796 -0.033451
v 0.326722 0.358033 -0.033451
v 0.326722 0.358033 -0.033451
v 0.345081 0.459796 -0.033451
v 0.356615 0.458305 -0.039377
v 0.334144 0.349079 -0.039377
v 0.334144 0.349079 -0.039377
v 0.356615 0.458305 -0.039377
v 0.369401 0.456652 -0.041419
v 0.345146 0.335806 -0.049017
v 0.345146 0.335806 0.049017
v 0.369401 0.456652 0.042022
v 0.356615 0.458305 0.039980
v 0.334144 0.349079 0.039980
v 0.334144 0.349079 0.039980
v 0.356615 0.458305 0.039980
v 0.345081 0.459796 0.034054
v 0.326722 0.358033 0.034054
v 0.326722 0.358033 0.034054
v 0.345081 0.459796 0.034054
v 0.335927 0.460980 0.024824
v 0.320832 0.365140 0.024824
v 0.320832 0.365140 0.024824
v 0.335927 0.460980 0.024824
v 0.330050 0.461740 0.013194
v 0.317050 0.369702 0.013194
v 0.317050 0.369702 0.013194
v 0.330050 0.461740 0.013194
v 0.328025 0.462001 0.000302
v 0.315747 0.371274 0.000302
v 0.315747 0.371274 0.000302
v 0.328025 0.462001 0.000302
v 0.330050 0.461740 -0.012591
v 0.317050 0.369702 -0.012591
v 0.330050 0.461740 -0.012591
v 0.384080 0.521425 -0.012591
v 0.389957 0.520665 -0.024221
v 0.335927 0.460980 -0.024221
v 0.335927 0.460980 -0.024221
v 0.389957 0.520665 -0.024221
v 0.399110 0.519482 -0.033451
v 0.345081 0.459796 -0.033451
v 0.345081 0.459796 -0.033451
v 0.399110 0.519482 -0.033451
v 0.410645 0.517991 -0.039377
v 0.356615 0.458305 -0.039377
v 0.356615 0.458305 0.039980
v 0.410645 0.517991 0.039980
v 0.399110 0.519482 0.034054
v 0.345081 0.459796 0.034054
v 0.345081 0.459796 0.034054
v 0.399110 0.519482 0.034054
v 0.389957 0.520665 0.024824
v 0.335927 0.460980 0.024824
v 0.335927 0.460980 0.024824
v 0.389957 0.520665 0.024824
v 0.384080 0.521425 0.013194
v 0.330050 0.461740 0.013194
v 0.330050 0.461740 0.013194
v 0.384080 0.521425 0.013194
v 0.382054 0.521687 0.000302
v 0.328025 0.462001 0.000302
v 0.328025 0.462001 0.000302
v 0.382054 0.521687 0.000302
v 0.384080 0.521425 -0.012591
v 0.330050 0.461740 -0.012591
v 0.536721 0.375249 -0.012591
v 0.537064 0.381165 -0.024221
v 0.559750 0.439870 0.000302
v 0.537600 0.390379 -0.033451
v 0.538274 0.401990 -0.039377
v 0.538274 0.401990 0.039980
v 0.537600 0.390379 0.034054
v 0.537064 0.381165 0.024824
v 0.536721 0.375249 0.013194
v 0.536602 0.373210 0.000302
v 0.467646 0.324353 -0.039377
v 0.468394 0.337224 -0.041419
v 0.468394 0.337224 0.042022
v 0.467646 0.324353 0.039980
v 0.384080 0.521425 -0.012591
v 0.438136 0.530580 0.000302
v 0.389957 0.520665 -0.024221
v 0.399110 0.519482 -0.033451
v 0.410645 0.517991 -0.039377
v 0.410645 0.517991 0.039980
v 0.399110 0.519482 0.034054
v 0.389957 0.520665 0.024824
v 0.384080 0.521425 0.013194
v 0.382054 0.521687 0.000302
v 0.356615 0.458305 -0.039377
v 0.369401 0.456652 -0.041419
v 0.369401 0.456652 0.042022
v 0.356615 0.458305 0.039980
v -0.464558 -0.538615 -0.012590
v -0.468340 -0.534052 -0.024221
v -0.340683 -0.408254 -0.024221
v -0.336901 -0.412817 -0.012590
v -0.474230 -0.526946 -0.033451
v -0.346573 -0.401148 -0.033451
v -0.481652 -0.517992 -0.039376
v -0.353995 -0.392194 -0.039377
v -0.489879 -0.508066 -0.041418
v -0.362222 -0.382268 -0.041419
v -0.498106 -0.498140 -0.039376
v -0.370450 -0.372342 -0.039377
v -0.505529 -0.489186 -0.033451
v -0.377872 -0.363388 -0.033451
v -0.511419 -0.482080 -0.024221
v -0.383762 -0.356282 -0.024221
v -0.515200 -0.477518 -0.012590
v -0.387544 -0.351719 -0.012590
v -0.516504 -0.475946 0.000302
v -0.388847 -0.350147 0.000302
v -0.515200 -0.477518 0.013194
v -0.387544 -0.351719 0.013194
v -0.511419 -0.482080 0.024825
v -0.383762 -0.356282 0.024825
v -0.505529 -0.489186 0.034054
v -0.377872 -0.363388 0.034054
v -0.498106 -0.498140 0.039980
v -0.370450 -0.372342 0.039980
v -0.489879 -0.508066 0.042022
v -0.362222 -0.382268 0.042022
v -0.481652 -0.517992 0.039980
v -0.353995 -0.392194 0.039980
v -0.474230 -0.526946 0.034054
v -0.346573 -0.401148 0.034054
v -0.468340 -0.534052 0.024825
v -0.340683 -0.408254 0.024825
v -0.464558 -0.538615 0.013194
v -0.336901 -0.412816 0.013194
v -0.463255 -0.540187 0.000302
v -0.335598 -0.414389 0.000302
v -0.464558 -0.538615 -0.012590
v -0.336901 -0.412817 -0.012590
v 0.468394 0.337224 0.000302
v 0.468394 0.337224 -0.041419
v 0.562802 0.441662 -0.008042
v 0.586404 0.467771 0.000302
v 0.468394 0.337224 0.042022
v 0.468394 0.337224 0.000302
v 0.586404 0.467771 0.000302
v 0.562802 0.441662 0.008646
v 0.369401 0.456652 -0.041419
v 0.369401 0.456652 0.000302
v 0.487411 0.587199 0.000302
v 0.463809 0.561090 -0.008042
v 0.369401 0.456652 0.042022
v 0.463809 0.561090 0.008646
v 0.468394 0.337224 -0.041419
v 0.345146 0.335806 -0.049017
v 0.549029 0.530795 -0.046255
v 0.562802 0.441662 -0.008042
v 0.600000 0.579542 -0.009109
v 0.586404 0.467771 0.000302
v 0.345146 0.335806 0.049017
v 0.468394 0.337224 0.042022
v 0.562802 0.441662 0.008646
v 0.549029 0.530795 0.037448
v 0.586404 0.467771 0.000302
v 0.600000 0.579542 -0.009109
v 0.345146 0.335806 -0.049017
v 0.369401 0.456652 -0.041419
v 0.463809 0.561090 -0.008042
v 0.549029 0.530795 -0.046255
v 0.487411 0.587199 0.000302
v 0.600000 0.579542 -0.009109
v 0.369401 0.456652 0.042022
v 0.345146 0.335806 0.049017
v 0.549029 0.530795 0.037448
v 0.463809 0.561090 0.008646
v 0.600000 0.579542 -0.009109
v 0.487411 0.587199 0.000302
vn -0.7470 0.6648 -0.0000
vn 0.7324 -0.6809 -0.0000
vn -0.0282 -0.9336 -0.3571
vn -0.0904 -0.8162 -0.5707
vn -0.1811 -0.6428 -0.7443
vn -0.2953 -0.4212 -0.8576
vn -0.4234 -0.1678 -0.8903
vn -0.5517 0.0914 -0.8290
vn -0.6645 0.3239 -0.6734
vn -0.7478 0.4983 -0.4387
vn -0.7918 0.5916 -0.1522
vn -0.7918 0.5916 0.1522
vn -0.7478 0.4983 0.4387
vn -0.6645 0.3239 0.6734
vn -0.5517 0.0914 0.8290
vn -0.4234 -0.1678 0.8903
vn -0.2953 -0.4212 0.8576
vn -0.1811 -0.6428 0.7443
vn -0.0904 -0.8162 0.5707
vn -0.0282 -0.9336 0.3571
vn 0.0033 -0.9926 0.1214
vn 0.0033 -0.9926 -0.1214
vn 0.4718 -0.7578 -0.4507
vn 0.4718 -0.7578 -0.4508
vn 0.3463 -0.6234 -0.7010
vn 0.1741 -0.4390 -0.8814
vn 0.1742 -0.4390 -0.8814
vn -0.0274 -0.2231 -0.9744
vn -0.2380 0.0026 -0.9713
vn -0.2380 0.0025 -0.9713
vn -0.4369 0.2158 -0.8733
vn -0.4369 0.2158 -0.8732
vn -0.6049 0.3960 -0.6909
vn -0.7262 0.5261 -0.4425
vn -0.7262 0.5261 -0.4426
vn -0.7897 0.5943 -0.1523
vn -0.7897 0.5943 0.1523
vn -0.7262 0.5261 0.4425
vn -0.6049 0.3960 0.6909
vn -0.4369 0.2158 0.8733
vn -0.4369 0.2158 0.8732
vn -0.2380 0.0026 0.9713
vn -0.2380 0.0025 0.9713
vn -0.0274 -0.2231 0.9744
vn 0.1741 -0.4390 0.8814
vn 0.1742 -0.4390 0.8814
vn 0.3463 -0.6234 0.7010
vn 0.4718 -0.7578 0.4507
vn 0.4718 -0.7578 0.4508
vn 0.5379 -0.8285 0.1554
vn 0.5379 -0.8285 -0.1554
vn 0.7931 -0.4334 -0.4279
vn 0.6428 -0.3513 -0.6807
vn 0.4219 -0.2306 -0.8768
vn 0.1475 -0.0806 -0.9858
vn 0.1474 -0.0806 -0.9858
vn -0.1475 0.0806 -0.9858
vn -0.4219 0.2306 -0.8768
vn -0.6428 0.3513 -0.6807
vn -0.7931 0.4334 -0.4279
vn -0.8682 0.4744 -0.1456
vn -0.8682 0.4744 0.1456
vn -0.7931 0.4334 0.4279
vn -0.6428 0.3513 0.6807
vn -0.4219 0.2306 0.8768
vn -0.1474 0.0806 0.9858
vn 0.1474 -0.0806 0.9858
vn 0.4219 -0.2306 0.8768
vn 0.6428 -0.3513 0.6807
vn 0.7931 -0.4334 0.4279
vn 0.8682 -0.4744 0.1456
vn 0.8682 -0.4744 -0.1456
vn 0.6625 -0.5986 -0.4503
vn 0.5274 -0.4765 -0.7034
vn 0.3396 -0.3069 -0.8891
vn 0.1172 -0.1059 -0.9874
vn -0.1173 0.1060 -0.9874
vn -0.3396 0.3069 -0.8891
vn -0.5274 0.4765 -0.7034
vn -0.6625 0.5986 -0.4502
vn -0.6625 0.5986 -0.4503
vn -0.7330 0.6624 -0.1549
vn -0.7330 0.6624 0.1549
vn -0.6625 0.5986 0.4503
vn -0.5274 0.4765 0.7034
vn -0.3396 0.3069 0.8891
vn -0.1172 0.1059 0.9874
vn 0.1172 -0.1059 0.9874
vn 0.3396 -0.3069 0.8891
vn 0.5274 -0.4765 0.7034
vn 0.6625 -0.5986 0.4503
vn 0.7330 -0.6624 0.1548
vn 0.7330 -0.6624 0.1549
vn 0.7330 -0.6624 -0.1549
vn 0.7330 -0.6624 -0.1548
vn -0.0000 -0.9309 -0.3652
vn -0.0000 -0.7924 -0.6100
vn -0.0000 -0.5519 -0.8339
vn -0.0000 -0.2015 -0.9795
vn -0.0000 0.2015 -0.9795
vn -0.0000 0.5519 -0.8339
vn -0.0000 0.7924 -0.6100
vn -0.0000 0.9309 -0.3652
vn -0.0000 0.9926 -0.1210
vn -0.0000 0.9926 0.1210
vn -0.0000 0.9309 0.3652
vn -0.0000 0.7924 0.6100
vn -0.0000 0.5519 0.8339
vn -0.0000 0.2015 0.9795
vn -0.0000 -0.2015 0.9795
vn -0.0000 -0.5519 0.8339
vn -0.0000 -0.7924 0.6100
vn -0.0000 -0.9309 0.3652
vn -0.0000 -0.9926 0.1211
vn -0.0000 -0.9926 -0.1210
vn 0.6953 -0.5629 -0.4469
vn 0.5550 -0.4493 -0.7001
vn 0.3584 -0.2902 -0.8873
vn 0.1239 -0.1003 -0.9872
vn -0.1240 0.1004 -0.9872
vn -0.3584 0.2902 -0.8873
vn -0.5550 0.4493 -0.7001
vn -0.6953 0.5629 -0.4469
vn -0.7680 0.6218 -0.1534
vn -0.7680 0.6218 0.1534
vn -0.6953 0.5629 0.4469
vn -0.5550 0.4493 0.7001
vn -0.3584 0.2902 0.8873
vn -0.1239 0.1003 0.9872
vn -0.1239 0.1004 0.9872
vn 0.1239 -0.1003 0.9872
vn 0.3584 -0.2902 0.8873
vn 0.5550 -0.4493 0.7001
vn 0.6953 -0.5629 0.4469
vn 0.7680 -0.6218 0.1534
vn 0.7680 -0.6218 -0.1534
vn 0.5753 -0.6804 -0.4540
vn 0.4566 -0.5400 -0.7071
vn 0.4565 -0.5400 -0.7071
vn 0.2931 -0.3467 -0.8910
vn 0.2005 -0.3029 -0.9317
vn 0.2006 -0.3029 -0.9317
vn 0.2006 -0.3030 -0.9316
vn -0.3020 0.2171 -0.9283
vn -0.3021 0.2171 -0.9282
vn -0.3392 0.3072 -0.8891
vn -0.5268 0.4771 -0.7035
vn -0.6618 0.5994 -0.4503
vn -0.7323 0.6632 -0.1549
vn -0.7323 0.6632 0.1549
vn -0.6618 0.5994 0.4503
vn -0.5268 0.4771 0.7035
vn -0.3392 0.3072 0.8891
vn -0.2873 0.2083 0.9349
vn 0.1926 -0.2882 0.9380
vn 0.1927 -0.2883 0.9380
vn 0.2931 -0.3467 0.8910
vn 0.4566 -0.5400 0.7071
vn 0.4565 -0.5400 0.7071
vn 0.5753 -0.6804 0.4540
vn 0.6377 -0.7542 0.1564
vn 0.6377 -0.7542 -0.1564
vn -0.0348 -0.9131 -0.4062
vn -0.0142 -0.7512 -0.6600
vn -0.0142 -0.7512 -0.6599
vn -0.0142 -0.7511 -0.6600
vn 0.0023 -0.4988 -0.8667
vn 0.0023 -0.4987 -0.8668
vn 0.0352 -0.3962 -0.9175
vn 0.0352 -0.3961 -0.9175
vn 0.0328 -0.3791 0.9248
vn 0.0328 -0.3790 0.9248
vn 0.0023 -0.4988 0.8667
vn 0.0023 -0.4987 0.8668
vn -0.0142 -0.7512 0.6600
vn -0.0142 -0.7511 0.6600
vn -0.0348 -0.9131 0.4062
vn -0.0487 -0.9895 0.1363
vn -0.0487 -0.9895 -0.1363
vn 0.7044 -0.6408 -0.3052
vn 0.6262 -0.5696 -0.5324
vn 0.4656 -0.4236 -0.7770
vn 0.4656 -0.4236 0.7770
vn 0.4657 -0.4236 0.7770
vn 0.6262 -0.5696 0.5324
vn 0.7044 -0.6408 0.3052
vn 0.7361 -0.6696 0.0991
vn 0.7361 -0.6696 -0.0991
vn -0.9037 0.1351 -0.4062
vn -0.9037 0.1352 -0.4062
vn -0.7408 0.1254 -0.6600
vn -0.7407 0.1254 -0.6600
vn -0.4897 0.0948 -0.8667
vn -0.3828 0.1081 -0.9175
vn -0.3828 0.1080 -0.9175
vn -0.3664 0.1025 0.9248
vn -0.3663 0.1025 0.9248
vn -0.4897 0.0948 0.8667
vn -0.4897 0.0948 0.8668
vn -0.7408 0.1254 0.6600
vn -0.7407 0.1254 0.6600
vn -0.9037 0.1351 0.4062
vn -0.9813 0.1357 0.1363
vn -0.9813 0.1357 -0.1363
vn -0.9813 0.1357 -0.1364
vn -0.6839 0.6191 -0.3860
vn -0.5729 0.5186 -0.6347
vn -0.3908 0.3538 -0.8498
vn -0.3908 0.3538 0.8497
vn -0.5729 0.5186 0.6347
vn -0.6839 0.6191 0.3860
vn -0.7352 0.6655 0.1290
vn -0.7352 0.6655 -0.1290
vn 0.9439 -0.3199 -0.0825
vn 0.9412 -0.2946 -0.1654
vn -0.4402 0.8979 -0.0000
vn 0.9360 -0.2493 -0.2487
vn -0.4724 0.6468 -0.5987
vn -0.4724 0.6468 0.5987
vn 0.9360 -0.2493 0.2487
vn 0.9412 -0.2946 0.1654
vn 0.9439 -0.3199 0.0824
vn 0.9447 -0.3280 -0.0000
vn -0.5734 0.6349 -0.5177
vn -0.5734 0.6350 -0.5177
vn -0.5734 0.6350 0.5177
vn -0.1463 0.9855 -0.0864
vn 0.9836 -0.1802 -0.0000
vn -0.1153 0.9788 -0.1693
vn -0.0625 0.9673 -0.2458
vn 0.6909 -0.3017 -0.6570
vn 0.6909 -0.3018 0.6569
vn -0.0625 0.9673 0.2458
vn -0.1152 0.9788 0.1694
vn -0.1464 0.9855 0.0860
vn -0.1566 0.9877 -0.0000
vn 0.6752 -0.4341 -0.5964
vn 0.6751 -0.4341 -0.5964
vn 0.6751 -0.4342 0.5964
vn 0.6752 -0.4341 0.5964
vn 0.6684 -0.6783 -0.3054
vn 0.5706 -0.5790 -0.5823
vn 0.5665 -0.5749 -0.5905
vn 0.6672 -0.6771 -0.3106
vn 0.4175 -0.4236 -0.8039
vn 0.4096 -0.4157 -0.8121
vn 0.2230 -0.2263 -0.9482
vn 0.2122 -0.2153 -0.9532
vn 0.0063 -0.0064 -1.0000
vn -0.0060 0.0061 -1.0000
vn -0.2121 0.2153 -0.9532
vn -0.2234 0.2267 -0.9480
vn -0.4096 0.4156 -0.8121
vn -0.4175 0.4236 -0.8039
vn -0.5665 0.5749 -0.5905
vn -0.5706 0.5790 -0.5823
vn -0.6672 0.6771 -0.3105
vn -0.6684 0.6783 -0.3052
vn -0.7019 0.7123 -0.0000
vn -0.6672 0.6771 0.3105
vn -0.6683 0.6782 0.3055
vn -0.5665 0.5749 0.5905
vn -0.5706 0.5790 0.5823
vn -0.4096 0.4156 0.8121
vn -0.4175 0.4236 0.8039
vn -0.2121 0.2153 0.9532
vn -0.2230 0.2263 0.9482
vn 0.0063 -0.0064 1.0000
vn -0.0063 0.0064 1.0000
vn 0.2234 -0.2267 0.9480
vn 0.2122 -0.2153 0.9532
vn 0.4175 -0.4236 0.8039
vn 0.4096 -0.4157 0.8121
vn 0.5706 -0.5790 0.5823
vn 0.5665 -0.5749 0.5905
vn 0.6683 -0.6782 0.3055
vn 0.6672 -0.6771 0.3105
vn 0.7019 -0.7123 -0.0000
vn 0.6684 -0.6782 -0.3054
vn 0.6672 -0.6771 -0.3105
vn 0.7418 -0.6706 -0.0000
vn -0.0812 -0.0149 -0.9966
vn -0.5153 0.3323 -0.7899
vn -0.3052 0.1605 -0.9387
vn -0.7418 0.6706 -0.0000
vn 0.9512 -0.2907 -0.1030
vn -0.2931 0.4445 0.8465
vn 0.5900 0.1895 0.7849
vn 0.2418 -0.1248 -0.9623
vn 0.3842 -0.1459 -0.9117
vn 0.2972 -0.1333 -0.9455
vn 0.6362 -0.1774 -0.7509
vn 0.6361 -0.1774 -0.7509
vn 0.2127 -0.0655 0.9749
vn 0.2127 -0.0656 0.9749
vn 0.2685 -0.0674 0.9609
vn 0.3664 -0.0700 0.9278
vn 0.6380 -0.0734 0.7665
vn -0.1254 0.2411 -0.9624
vn -0.1187 0.3103 -0.9432
vn -0.1137 0.3578 -0.9268
vn -0.0847 0.5776 -0.8119
vn -0.0846 0.5777 -0.8119
vn -0.0605 0.2068 0.9765
vn -0.0311 0.3348 0.9418
vn -0.0441 0.2797 0.9591
vn 0.0294 0.5720 0.8198
vn 0.0294 0.5719 0.8198
vt 0.500000 0.000000
vt 0.500000 0.156250
vt 0.500003 0.156251
vt 0.500000 0.312500
vt 0.626409 0.935592
vt 0.648603 0.892034
vt 0.500000 0.843750
vt 0.591842 0.970159
vt 0.548284 0.992353
vt 0.500000 1.000000
vt 0.451716 0.992353
vt 0.408159 0.970159
vt 0.373591 0.935591
vt 0.351397 0.892034
vt 0.343750 0.843750
vt 0.351397 0.795466
vt 0.373591 0.751909
vt 0.408159 0.717341
vt 0.451716 0.695147
vt 0.500000 0.687500
vt 0.548284 0.695147
vt 0.591841 0.717341
vt 0.626409 0.751909
vt 0.648603 0.795466
vt 0.656250 0.843750
vt 0.648603 0.107966
vt 0.626409 0.064409
vt 0.591841 0.029841
vt 0.548284 0.007647
vt 0.451716 0.007647
vt 0.408159 0.029841
vt 0.373591 0.064409
vt 0.351397 0.107966
vt 0.343750 0.156250
vt 0.351397 0.204534
vt 0.373591 0.248091
vt 0.408159 0.282659
vt 0.451716 0.304853
vt 0.548284 0.304853
vt 0.591842 0.282659
vt 0.626409 0.248092
vt 0.648603 0.204534
vt 0.656250 0.156250
vt 0.418836 0.007804
vt 0.376049 0.029468
vt 0.341377 0.063661
vt 0.319002 0.107091
vt 0.311180 0.155379
vt 0.318677 0.203736
vt 0.340737 0.247412
vt 0.375180 0.282134
vt 0.418569 0.304521
vt 0.647343 0.107983
vt 0.624571 0.064440
vt 0.589750 0.029888
vt 0.549101 0.007722
vt 0.549259 0.304781
vt 0.590139 0.282596
vt 0.624258 0.248046
vt 0.646973 0.204506
vt 0.655241 0.156245
vt 0.375000 0.687500
vt 0.387500 0.687500
vt 0.387500 0.312500
vt 0.375000 0.312500
vt 0.400000 0.687500
vt 0.400000 0.312500
vt 0.412500 0.687500
vt 0.412500 0.312500
vt 0.425000 0.687500
vt 0.425000 0.312500
vt 0.437500 0.687500
vt 0.437500 0.312500
vt 0.450000 0.687500
vt 0.450000 0.312500
vt 0.462500 0.687500
vt 0.462500 0.312500
vt 0.475000 0.687500
vt 0.475000 0.312500
vt 0.487500 0.687500
vt 0.487500 0.312500
vt 0.512500 0.687500
vt 0.512500 0.312500
vt 0.525000 0.687500
vt 0.525000 0.312500
vt 0.537500 0.687500
vt 0.537500 0.312500
vt 0.550000 0.687500
vt 0.550000 0.312500
vt 0.562500 0.687500
vt 0.562500 0.312500
vt 0.575000 0.687500
vt 0.575000 0.312500
vt 0.587500 0.687500
vt 0.587500 0.312500
vt 0.600000 0.687500
vt 0.600000 0.312500
vt 0.612500 0.687500
vt 0.612500 0.312500
vt 0.625000 0.687500
vt 0.625000 0.312500
vt 0.500000 0.124999
vt 0.500000 0.156248
vt 0.500000 0.187499
vt 0.500000 0.156251
vt 0.500000 0.125001
vt 0.500000 0.187501
s 0
usemtl initialShadingGroup
f 1/1/1 2/2/1 3/3/1
f 4/2/1 5/4/1 3/3/1
f 6/1/2 7/3/2 8/2/2
f 8/2/2 7/3/2 9/4/2
usemtl lambert2SG
f 10/5/3 11/6/3 12/7/3
f 13/8/4 14/5/4 15/7/4
f 16/9/5 17/8/5 18/7/5
f 19/10/6 20/9/6 21/7/6
f 22/11/7 23/10/7 24/7/7
f 25/12/8 26/11/8 27/7/8
f 28/13/9 29/12/9 30/7/9
f 31/14/10 32/13/10 33/7/10
f 34/15/11 35/14/11 36/7/11
f 37/16/12 38/15/12 39/7/12
f 40/17/13 41/16/13 42/7/13
f 43/18/14 44/17/14 45/7/14
f 46/19/15 47/18/15 48/7/15
f 49/20/16 50/19/16 51/7/16
f 52/21/17 53/20/17 54/7/17
f 55/22/18 56/21/18 57/7/18
f 58/23/19 59/22/19 60/7/19
f 61/24/20 62/23/20 63/7/20
f 64/25/21 65/24/21 66/7/21
f 67/6/22 68/25/22 69/7/22
f 70/5/23 71/6/23 72/6/23
f 70/5/24 72/6/24 73/5/24
f 74/8/25 75/5/25 76/5/25
f 74/8/25 76/5/25 77/8/25
f 78/9/26 79/8/26 80/8/26
f 78/9/27 80/8/27 81/9/27
s 1
f 82/10/28 83/9/28 84/9/28
s 0
f 82/10/28 84/9/28 85/10/28
f 86/11/29 87/10/29 88/10/29
f 86/11/30 88/10/30 89/11/30
f 90/12/31 91/11/31 92/11/31
f 90/12/32 92/11/32 93/12/32
f 94/13/33 95/12/33 96/12/33
f 94/13/33 96/12/33 97/13/33
f 98/14/34 99/13/34 100/13/34
f 98/14/35 100/13/35 101/14/35
s 1
f 102/15/36 103/14/36 104/14/36
s 0
f 102/15/36 104/14/36 105/15/36
f 106/16/37 107/15/37 108/15/37
f 106/16/37 108/15/37 109/16/37
f 110/17/38 111/16/38 112/16/38
f 110/17/38 112/16/38 113/17/38
f 114/18/39 115/17/39 116/17/39
f 114/18/39 116/17/39 117/18/39
f 118/19/40 119/18/40 120/18/40
f 118/19/41 120/18/41 121/19/41
f 122/20/42 123/19/42 124/19/42
f 122/20/43 124/19/43 125/20/43
f 126/21/44 127/20/44 128/20/44
f 126/21/44 128/20/44 129/21/44
f 130/22/45 131/21/45 132/21/45
f 130/22/46 132/21/46 133/22/46
f 134/23/47 135/22/47 136/22/47
f 134/23/47 136/22/47 137/23/47
s 1
f 138/24/48 139/23/48 140/23/49
f 138/24/48 140/23/49 141/24/49
s 0
f 142/25/50 143/24/50 144/24/50
f 142/25/50 144/24/50 145/25/50
f 146/6/51 147/25/51 148/25/51
f 146/6/51 148/25/51 149/6/51
f 150/26/52 151/27/52 152/27/52
f 150/26/52 152/27/52 153/26/52
f 154/27/53 155/28/53 156/28/53
f 154/27/53 156/28/53 157/27/53
f 158/28/54 159/29/54 160/29/54
f 158/28/54 160/29/54 161/28/54
f 162/29/55 163/1/55 164/1/55
f 162/29/56 164/1/56 165/29/56
f 166/1/57 167/30/57 168/30/57
f 166/1/57 168/30/57 169/1/57
f 170/30/58 171/31/58 172/31/58
f 170/30/58 172/31/58 173/30/58
f 174/31/59 175/32/59 176/32/59
f 174/31/59 176/32/59 177/31/59
f 178/32/60 179/33/60 180/33/60
f 178/32/60 180/33/60 181/32/60
f 182/33/61 183/34/61 184/34/61
f 182/33/61 184/34/61 185/33/61
f 186/34/62 187/35/62 188/35/62
f 186/34/62 188/35/62 189/34/62
s 1
f 190/35/63 191/36/63 192/36/63
s 0
f 190/35/63 192/36/63 193/35/63
f 194/36/64 195/37/64 196/37/64
f 194/36/64 196/37/64 197/36/64
f 198/37/65 199/38/65 200/38/65
f 198/37/65 200/38/65 201/37/65
f 202/38/66 203/4/66 204/4/66
f 202/38/66 204/4/66 205/38/66
f 206/4/67 207/39/67 208/39/67
f 206/4/67 208/39/67 209/4/67
s 1
f 210/39/68 211/40/68 212/40/68
s 0
f 210/39/68 212/40/68 213/39/68
f 214/40/69 215/41/69 216/41/69
f 214/40/69 216/41/69 217/40/69
f 218/41/70 219/42/70 220/42/70
f 218/41/70 220/42/70 221/41/70
f 222/42/71 223/43/71 224/43/71
f 222/42/71 224/43/71 225/42/71
f 226/43/72 227/26/72 228/26/72
f 226/43/72 228/26/72 229/43/72
f 230/26/73 231/27/73 232/27/73
f 230/26/73 232/27/73 233/26/73
f 234/27/74 235/28/74 236/28/74
f 234/27/74 236/28/74 237/27/74
f 238/28/75 239/29/75 240/29/75
f 238/28/75 240/29/75 241/28/75
f 242/29/76 243/1/76 244/1/76
f 242/29/76 244/1/76 245/29/76
f 246/1/77 247/30/77 248/30/77
f 246/1/77 248/30/77 249/1/77
f 250/30/78 251/31/78 252/31/78
f 250/30/78 252/31/78 253/30/78
f 254/31/79 255/32/79 256/32/79
s 1
f 254/31/79 256/32/79 257/31/79
s 0
f 258/32/80 259/33/80 260/33/80
f 258/32/81 260/33/81 261/32/81
f 262/33/82 263/34/82 264/34/82
f 262/33/82 264/34/82 265/33/82
f 266/34/83 267/35/83 268/35/83
f 266/34/83 268/35/83 269/34/83
f 270/35/84 271/36/84 272/36/84
f 270/35/84 272/36/84 273/35/84
f 274/36/85 275/37/85 276/37/85
f 274/36/85 276/37/85 277/36/85
f 278/37/86 279/38/86 280/38/86
f 278/37/86 280/38/86 281/37/86
f 282/38/87 283/4/87 284/4/87
f 282/38/87 284/4/87 285/38/87
f 286/4/88 287/39/88 288/39/88
f 286/4/88 288/39/88 289/4/88
f 290/39/89 291/40/89 292/40/89
f 290/39/89 292/40/89 293/39/89
f 294/40/90 295/41/90 296/41/90
f 294/40/90 296/41/90 297/40/90
f 298/41/91 299/42/91 300/42/91
f 298/41/91 300/42/91 301/41/91
f 302/42/92 303/43/92 304/43/92
f 302/42/93 304/43/93 305/42/93
f 306/43/94 307/26/94 308/26/94
f 306/43/95 308/26/95 309/43/95
f 310/26/96 311/27/96 312/27/96
f 310/26/96 312/27/96 313/26/96
f 314/27/97 315/28/97 316/28/97
f 314/27/97 316/28/97 317/27/97
f 318/28/98 319/29/98 320/29/98
f 318/28/98 320/29/98 321/28/98
f 322/29/99 323/1/99 324/1/99
f 322/29/99 324/1/99 325/29/99
f 326/1/100 327/30/100 328/30/100
f 326/1/100 328/30/100 329/1/100
f 330/30/101 331/31/101 332/31/101
f 330/30/101 332/31/101 333/30/101
f 334/31/102 335/32/102 336/32/102
f 334/31/102 336/32/102 337/31/102
f 338/32/103 339/33/103 340/33/103
f 338/32/103 340/33/103 341/32/103
f 342/33/104 343/34/104 344/34/104
f 342/33/104 344/34/104 345/33/104
f 346/34/105 347/35/105 348/35/105
f 346/34/105 348/35/105 349/34/105
f 350/35/106 351/36/106 352/36/106
f 350/35/106 352/36/106 353/35/106
f 354/36/107 355/37/107 356/37/107
f 354/36/107 356/37/107 357/36/107
s 1
f 358/37/108 359/38/108 360/38/108
s 0
f 358/37/108 360/38/108 361/37/108
f 362/38/109 363/4/109 364/4/109
f 362/38/109 364/4/109 365/38/109
f 366/4/110 367/39/110 368/39/110
f 366/4/110 368/39/110 369/4/110
f 370/39/111 371/40/111 372/40/111
f 370/39/111 372/40/111 373/39/111
f 374/40/112 375/41/112 376/41/112
f 374/40/112 376/41/112 377/40/112
f 378/41/113 379/42/113 380/42/113
f 378/41/113 380/42/113 381/41/113
f 382/42/114 383/43/114 384/43/114
f 382/42/114 384/43/114 385/42/114
f 386/43/115 387/26/115 388/26/115
f 386/43/115 388/26/115 389/43/115
f 390/26/116 391/27/116 392/27/116
f 390/26/116 392/27/116 393/26/116
f 394/27/117 395/28/117 396/28/117
f 394/27/117 396/28/117 397/27/117
f 398/28/118 399/29/118 400/29/118
f 398/28/118 400/29/118 401/28/118
f 402/29/119 403/1/119 404/1/119
f 402/29/119 404/1/119 405/29/119
f 406/1/120 407/30/120 408/30/120
f 406/1/120 408/30/120 409/1/120
f 410/30/121 411/31/121 412/31/121
s 1
f 410/30/121 412/31/121 413/30/121
s 0
f 414/31/122 415/32/122 416/32/122
f 414/31/122 416/32/122 417/31/122
f 418/32/123 419/33/123 420/33/123
f 418/32/123 420/33/123 421/32/123
f 422/33/124 423/34/124 424/34/124
f 422/33/124 424/34/124 425/33/124
f 426/34/125 427/35/125 428/35/125
f 426/34/125 428/35/125 429/34/125
f 430/35/126 431/36/126 432/36/126
f 430/35/126 432/36/126 433/35/126
f 434/36/127 435/37/127 436/37/127
f 434/36/127 436/37/127 437/36/127
f 438/37/128 439/38/128 440/38/128
f 438/37/128 440/38/128 441/37/128
f 442/38/129 443/4/129 444/4/129
f 442/38/130 444/4/130 445/38/130
f 446/4/131 447/39/131 448/39/131
f 446/4/131 448/39/131 449/4/131
f 450/39/132 451/40/132 452/40/132
f 450/39/132 452/40/132 453/39/132
f 454/40/133 455/41/133 456/41/133
f 454/40/133 456/41/133 457/40/133
f 458/41/134 459/42/134 460/42/134
f 458/41/134 460/42/134 461/41/134
f 462/42/135 463/43/135 464/43/135
f 462/42/135 464/43/135 465/42/135
f 466/43/136 467/26/136 468/26/136
f 466/43/136 468/26/136 469/43/136
s 1
f 470/26/137 471/27/137 472/27/137
s 0
f 470/26/137 472/27/137 473/26/137
f 474/27/138 475/28/138 476/28/138
f 474/27/139 476/28/139 477/27/139
f 478/28/140 479/29/140 480/29/140
f 478/28/140 480/29/140 481/28/140
s 1
f 482/29/141 483/1/141 484/1/142
f 482/29/141 484/1/142 485/29/143
f 486/1/144 487/30/144 488/44/145
f 486/1/144 488/44/145 489/1/145
s 0
f 490/30/146 491/31/146 492/45/146
f 490/30/146 492/45/146 493/44/146
f 494/31/147 495/32/147 496/46/147
f 494/31/147 496/46/147 497/45/147
f 498/32/148 499/33/148 500/47/148
f 498/32/148 500/47/148 501/46/148
f 502/33/149 503/34/149 504/48/149
f 502/33/149 504/48/149 505/47/149
f 506/34/150 507/35/150 508/49/150
f 506/34/150 508/49/150 509/48/150
f 510/35/151 511/36/151 512/50/151
f 510/35/151 512/50/151 513/49/151
f 514/36/152 515/37/152 516/51/152
s 1
f 514/36/152 516/51/152 517/50/152
s 0
f 518/37/153 519/38/153 520/52/153
f 518/37/153 520/52/153 521/51/153
s 1
f 522/38/154 523/4/154 524/4/154
f 522/38/154 524/4/154 525/52/154
f 526/4/155 527/39/155 528/39/156
f 526/4/155 528/39/156 529/4/156
s 0
f 530/39/157 531/40/157 532/40/157
f 530/39/157 532/40/157 533/39/157
f 534/40/158 535/41/158 536/41/158
f 534/40/159 536/41/159 537/40/159
f 538/41/160 539/42/160 540/42/160
f 538/41/160 540/42/160 541/41/160
f 542/42/161 543/43/161 544/43/161
f 542/42/161 544/43/161 545/42/161
f 546/43/162 547/26/162 548/26/162
f 546/43/162 548/26/162 549/43/162
s 1
f 550/26/163 551/27/163 552/27/163
f 550/26/163 552/27/163 553/26/163
f 554/27/164 555/28/165 556/28/166
f 554/27/164 556/28/166 557/27/166
f 558/28/167 559/29/167 560/29/167
f 558/28/167 560/29/167 561/28/168
f 562/29/169 563/1/169 564/1/169
f 562/29/169 564/1/169 565/29/170
f 566/4/171 567/39/171 568/39/172
f 566/4/171 568/39/172 569/4/172
f 570/39/173 571/40/173 572/40/173
f 570/39/173 572/40/173 573/39/174
f 574/40/175 575/41/175 576/41/176
f 574/40/175 576/41/176 577/40/176
f 578/41/177 579/42/177 580/42/177
f 578/41/177 580/42/177 581/41/177
f 582/42/178 583/43/178 584/43/178
f 582/42/178 584/43/178 585/42/178
f 586/43/179 587/26/179 588/26/179
f 586/43/179 588/26/179 589/43/179
s 0
f 590/26/180 591/27/180 592/27/180
f 590/26/180 592/27/180 593/26/180
f 594/27/181 595/28/181 596/28/181
f 594/27/181 596/28/181 597/27/181
f 598/28/182 599/29/182 600/29/182
f 598/28/182 600/29/182 601/28/182
f 602/39/183 603/40/183 604/40/183
f 602/39/184 604/40/184 605/39/184
f 606/40/185 607/41/185 608/41/185
f 606/40/185 608/41/185 609/40/185
f 610/41/186 611/42/186 612/42/186
f 610/41/186 612/42/186 613/41/186
f 614/42/187 615/43/187 616/43/187
f 614/42/187 616/43/187 617/42/187
f 618/43/188 619/26/188 620/26/188
f 618/43/188 620/26/188 621/43/188
s 1
f 622/53/189 623/26/189 624/27/189
f 622/53/189 624/27/189 625/54/190
f 626/54/191 627/27/192 628/28/192
f 626/54/191 628/28/192 629/55/192
f 630/55/193 631/28/193 632/29/193
f 630/55/193 632/29/193 633/56/193
f 634/56/194 635/29/195 636/1/195
f 634/56/194 636/1/195 637/1/195
f 638/4/196 639/4/196 640/39/197
f 638/4/196 640/39/197 641/57/196
f 642/57/198 643/39/199 644/40/198
f 642/57/198 644/40/198 645/58/198
f 646/58/200 647/40/201 648/41/201
f 646/58/200 648/41/201 649/59/200
f 650/59/202 651/41/202 652/42/202
f 650/59/202 652/42/202 653/60/202
f 654/60/203 655/42/203 656/43/203
f 654/60/203 656/43/203 657/61/203
f 658/61/204 659/43/204 660/26/205
f 658/61/204 660/26/205 661/53/204
s 0
f 662/26/206 663/26/206 664/27/206
f 662/26/206 664/27/206 665/27/206
f 666/27/207 667/27/207 668/28/207
f 666/27/207 668/28/207 669/28/207
f 670/28/208 671/28/208 672/29/208
f 670/28/208 672/29/208 673/29/208
f 674/39/209 675/39/209 676/40/209
f 674/39/209 676/40/209 677/40/209
f 678/40/210 679/40/210 680/41/210
f 678/40/210 680/41/210 681/41/210
f 682/41/211 683/41/211 684/42/211
f 682/41/211 684/42/211 685/42/211
f 686/42/212 687/42/212 688/43/212
f 686/42/212 688/43/212 689/43/212
f 690/43/213 691/43/213 692/26/213
f 690/43/213 692/26/213 693/26/213
s 1
f 694/26/214 695/27/215 696/3/216
f 695/27/215 697/28/217 696/3/216
f 697/28/217 698/29/218 696/3/216
f 699/39/219 700/40/220 696/3/216
f 700/40/220 701/41/221 696/3/216
f 701/41/221 702/42/222 696/3/216
f 702/42/222 703/43/223 696/3/216
f 703/43/223 694/26/214 696/3/216
f 704/29/224 705/1/225 696/3/216
f 704/29/224 696/3/216 698/29/218
f 706/4/226 707/39/226 699/39/219
f 706/4/226 699/39/219 696/3/216
f 708/26/227 709/3/228 710/27/229
f 710/27/229 709/3/228 711/28/230
f 711/28/230 709/3/228 712/29/231
f 713/39/232 709/3/228 714/40/233
f 714/40/233 709/3/228 715/41/234
f 715/41/234 709/3/228 716/42/235
f 716/42/235 709/3/228 717/43/236
f 717/43/236 709/3/228 708/26/227
f 718/29/237 712/29/231 709/3/228
f 718/29/237 709/3/228 719/1/238
f 720/4/239 709/3/228 713/39/232
f 720/4/239 713/39/232 721/39/240
f 722/62/241 723/63/242 724/64/243
f 722/62/241 724/64/243 725/65/244
f 723/63/242 726/66/245 727/67/246
f 723/63/242 727/67/246 724/64/243
f 726/66/245 728/68/247 729/69/248
f 726/66/245 729/69/248 727/67/246
f 728/68/247 730/70/249 731/71/250
f 728/68/247 731/71/250 729/69/248
f 730/70/249 732/72/251 733/73/252
f 730/70/249 733/73/252 731/71/250
f 732/72/251 734/74/253 735/75/254
f 732/72/251 735/75/254 733/73/252
f 734/74/253 736/76/255 737/77/256
f 734/74/253 737/77/256 735/75/254
f 736/76/255 738/78/257 739/79/258
f 736/76/255 739/79/258 737/77/256
f 738/78/257 740/80/259 741/81/259
f 738/78/257 741/81/259 739/79/258
f 740/80/259 742/20/260 743/4/261
f 740/80/259 743/4/261 741/81/259
f 742/20/260 744/82/262 745/83/263
f 742/20/260 745/83/263 743/4/261
f 744/82/262 746/84/264 747/85/265
f 744/82/262 747/85/265 745/83/263
f 746/84/264 748/86/266 749/87/267
f 746/84/264 749/87/267 747/85/265
f 748/86/266 750/88/268 751/89/269
f 748/86/266 751/89/269 749/87/267
f 750/88/268 752/90/270 753/91/271
f 750/88/268 753/91/271 751/89/269
f 752/90/270 754/92/272 755/93/273
f 752/90/270 755/93/273 753/91/271
f 754/92/272 756/94/274 757/95/275
f 754/92/272 757/95/275 755/93/273
f 756/94/274 758/96/276 759/97/277
f 756/94/274 759/97/277 757/95/275
f 758/96/276 760/98/278 761/99/278
f 758/96/276 761/99/278 759/97/277
f 760/98/278 762/100/279 763/101/280
f 760/98/278 763/101/280 761/99/278
s 0
usemtl lambert3SG
f 764/2/281 765/1/281 766/102/281
f 764/2/281 766/102/281 767/103/281
f 768/4/281 769/2/281 770/103/281
s 1
f 768/4/282 770/103/283 771/104/284
s 0
f 772/1/285 773/2/285 774/105/285
s 1
f 772/1/286 774/105/287 775/106/288
s 0
f 773/2/285 776/4/285 777/107/285
f 773/2/285 777/107/285 774/105/285
s 1
f 778/1/289 779/1/289 780/102/290
f 778/1/289 780/102/290 781/102/291
f 781/102/291 780/102/290 782/103/292
f 781/102/291 782/103/292 783/103/293
f 784/4/294 785/4/295 786/104/296
f 784/4/294 786/104/296 787/104/297
f 787/104/297 786/104/296 788/103/298
f 787/104/297 788/103/298 789/103/298
f 790/1/299 791/1/299 792/106/300
f 790/1/299 792/106/300 793/102/301
f 793/102/301 792/106/300 794/105/302
f 793/102/301 794/105/302 795/103/303
f 796/4/304 797/4/304 798/104/305
f 796/4/304 798/104/305 799/107/306
f 799/107/306 798/104/305 800/103/307
f 799/107/306 800/103/307 801/105/308
