# Blender 5.2.1 LTS
# www.blender.org
mtllib megashark.mtl
o Object_10
v 0.038182 -0.004113 -0.398276
v 0.038182 -0.004113 -0.550000
v 0.038182 -0.079975 -0.398276
v 0.038182 -0.079975 -0.550000
v -0.037681 -0.004113 -0.550000
v -0.037681 -0.004113 -0.398276
v -0.037681 -0.079975 -0.550000
v -0.037681 -0.079975 -0.398276
v -0.037681 -0.004113 -0.550000
v 0.038182 -0.004113 -0.550000
v -0.037681 -0.004113 -0.398276
v 0.038182 -0.004113 -0.398276
v -0.037681 -0.079975 -0.398276
v 0.038182 -0.079975 -0.398276
v -0.037681 -0.079975 -0.550000
v 0.038182 -0.079975 -0.550000
v -0.037681 -0.004113 -0.398276
v 0.038182 -0.004113 -0.398276
v -0.037681 -0.079975 -0.398276
v 0.038182 -0.079975 -0.398276
v 0.038182 -0.004113 -0.550000
v -0.037681 -0.004113 -0.550000
v 0.038182 -0.079975 -0.550000
v -0.037681 -0.079975 -0.550000
v 0.076113 0.033819 0.170690
v 0.076113 0.033819 -0.246552
v 0.076113 -0.117906 0.170690
v 0.076113 -0.117906 -0.246552
v -0.075612 0.033819 -0.246552
v -0.075612 0.033819 0.170690
v -0.075612 -0.117906 -0.246552
v -0.075612 -0.117906 0.170690
v -0.075612 0.033819 -0.246552
v 0.076113 0.033819 -0.246552
v -0.075612 0.033819 0.170690
v 0.076113 0.033819 0.170690
v -0.075612 -0.117906 0.170690
v 0.076113 -0.117906 0.170690
v -0.075612 -0.117906 -0.246552
v 0.076113 -0.117906 -0.246552
v -0.075612 0.033819 0.170690
v 0.076113 0.033819 0.170690
v -0.075612 -0.117906 0.170690
v 0.076113 -0.117906 0.170690
v 0.076113 0.033819 -0.246552
v -0.075612 0.033819 -0.246552
v 0.076113 -0.117906 -0.246552
v -0.075612 -0.117906 -0.246552
v 0.038182 0.071750 -0.170690
v 0.038182 0.071750 -0.474138
v 0.038182 -0.079975 -0.170690
v 0.038182 -0.079975 -0.474138
v -0.037681 0.071750 -0.474138
v -0.037681 0.071750 -0.170690
v -0.037681 -0.079975 -0.474138
v -0.037681 -0.079975 -0.170690
v -0.037681 0.071750 -0.474138
v 0.038182 0.071750 -0.474138
v -0.037681 0.071750 -0.170690
v 0.038182 0.071750 -0.170690
v -0.037681 -0.079975 -0.170690
v 0.038182 -0.079975 -0.170690
v -0.037681 -0.079975 -0.474138
v 0.038182 -0.079975 -0.474138
v -0.037681 0.071750 -0.170690
v 0.038182 0.071750 -0.170690
v -0.037681 -0.079975 -0.170690
v 0.038182 -0.079975 -0.170690
v 0.038182 0.071750 -0.474138
v -0.037681 0.071750 -0.474138
v 0.038182 -0.079975 -0.474138
v -0.037681 -0.079975 -0.474138
v 0.038182 0.147612 -0.398276
v 0.038182 0.147612 -0.512069
v 0.038182 0.033819 -0.398276
v 0.038182 0.033819 -0.512069
v -0.037681 0.147612 -0.512069
v -0.037681 0.147612 -0.398276
v -0.037681 0.033819 -0.512069
v -0.037681 0.033819 -0.398276
v -0.037681 0.147612 -0.512069
v 0.038182 0.147612 -0.512069
v -0.037681 0.147612 -0.398276
v 0.038182 0.147612 -0.398276
v -0.037681 0.033819 -0.398276
v 0.038182 0.033819 -0.398276
v -0.037681 0.033819 -0.512069
v 0.038182 0.033819 -0.512069
v -0.037681 0.147612 -0.398276
v 0.038182 0.147612 -0.398276
v -0.037681 0.033819 -0.398276
v 0.038182 0.033819 -0.398276
v 0.038182 0.147612 -0.512069
v -0.037681 0.147612 -0.512069
v 0.038182 0.033819 -0.512069
v -0.037681 0.033819 -0.512069
v 0.038182 0.147612 0.018966
v 0.038182 0.147612 -0.056897
v 0.038182 0.033819 0.018966
v 0.038182 0.033819 -0.056897
v -0.037681 0.147612 -0.056897
v -0.037681 0.147612 0.018966
v -0.037681 0.033819 -0.056897
v -0.037681 0.033819 0.018966
v -0.037681 0.147612 -0.056897
v 0.038182 0.147612 -0.056897
v -0.037681 0.147612 0.018966
v 0.038182 0.147612 0.018966
v -0.037681 0.033819 0.018966
v 0.038182 0.033819 0.018966
v -0.037681 0.033819 -0.056897
v 0.038182 0.033819 -0.056897
v -0.037681 0.147612 0.018966
v 0.038182 0.147612 0.018966
v -0.037681 0.033819 0.018966
v 0.038182 0.033819 0.018966
v 0.038182 0.147612 -0.056897
v -0.037681 0.147612 -0.056897
v 0.038182 0.033819 -0.056897
v -0.037681 0.033819 -0.056897
v 0.038182 0.109681 0.056897
v 0.038182 0.109681 0.018966
v 0.038182 0.033819 0.056897
v 0.038182 0.033819 0.018966
v -0.037681 0.109681 0.018966
v -0.037681 0.109681 0.056897
v -0.037681 0.033819 0.018966
v -0.037681 0.033819 0.056897
v -0.037681 0.109681 0.018966
v 0.038182 0.109681 0.018966
v -0.037681 0.109681 0.056897
v 0.038182 0.109681 0.056897
v -0.037681 0.033819 0.056897
v 0.038182 0.033819 0.056897
v -0.037681 0.033819 0.018966
v 0.038182 0.033819 0.018966
v -0.037681 0.109681 0.056897
v 0.038182 0.109681 0.056897
v -0.037681 0.033819 0.056897
v 0.038182 0.033819 0.056897
v 0.038182 0.109681 0.018966
v -0.037681 0.109681 0.018966
v 0.038182 0.033819 0.018966
v -0.037681 0.033819 0.018966
v 0.076113 0.056383 0.346111
v 0.076113 0.036547 0.119391
v 0.076113 0.018596 0.349417
v 0.076113 -0.001240 0.122697
v -0.075612 0.036547 0.119391
v -0.075612 0.056383 0.346111
v -0.075612 -0.001240 0.122697
v -0.075612 0.018596 0.349417
v -0.075612 0.036547 0.119391
v 0.076113 0.036547 0.119391
v -0.075612 0.056383 0.346111
v 0.076113 0.056383 0.346111
v -0.075612 0.018596 0.349417
v 0.076113 0.018596 0.349417
v -0.075612 -0.001240 0.122697
v 0.076113 -0.001240 0.122697
v -0.075612 0.056383 0.346111
v 0.076113 0.056383 0.346111
v -0.075612 0.018596 0.349417
v 0.076113 0.018596 0.349417
v 0.076113 0.036547 0.119391
v -0.075612 0.036547 0.119391
v 0.076113 -0.001240 0.122697
v -0.075612 -0.001240 0.122697
v 0.076113 0.015290 0.311630
v 0.076113 -0.001240 0.122697
v 0.076113 -0.022497 0.314936
v 0.076113 -0.039026 0.126002
v -0.075612 -0.001240 0.122697
v -0.075612 0.015290 0.311630
v -0.075612 -0.039026 0.126002
v -0.075612 -0.022497 0.314936
v -0.075612 -0.001240 0.122697
v 0.076113 -0.001240 0.122697
v -0.075612 0.015290 0.311630
v 0.076113 0.015290 0.311630
v -0.075612 -0.022497 0.314936
v 0.076113 -0.022497 0.314936
v -0.075612 -0.039026 0.126002
v 0.076113 -0.039026 0.126002
v -0.075612 0.015290 0.311630
v 0.076113 0.015290 0.311630
v -0.075612 -0.022497 0.314936
v 0.076113 -0.022497 0.314936
v 0.076113 -0.001240 0.122697
v -0.075612 -0.001240 0.122697
v 0.076113 -0.039026 0.126002
v -0.075612 -0.039026 0.126002
v 0.076113 -0.025803 0.277149
v 0.076113 -0.042332 0.088216
v 0.076113 -0.063589 0.280455
v 0.076113 -0.080119 0.091522
v -0.075612 -0.042332 0.088216
v -0.075612 -0.025803 0.277149
v -0.075612 -0.080119 0.091522
v -0.075612 -0.063589 0.280455
v -0.075612 -0.042332 0.088216
v 0.076113 -0.042332 0.088216
v -0.075612 -0.025803 0.277149
v 0.076113 -0.025803 0.277149
v -0.075612 -0.063589 0.280455
v 0.076113 -0.063589 0.280455
v -0.075612 -0.080119 0.091522
v 0.076113 -0.080119 0.091522
v -0.075612 -0.025803 0.277149
v 0.076113 -0.025803 0.277149
v -0.075612 -0.063589 0.280455
v 0.076113 -0.063589 0.280455
v 0.076113 -0.042332 0.088216
v -0.075612 -0.042332 0.088216
v 0.076113 -0.080119 0.091522
v -0.075612 -0.080119 0.091522
v 0.076113 -0.110005 0.325418
v 0.076113 -0.080299 0.099779
v 0.076113 -0.147612 0.320467
v 0.076113 -0.117906 0.094828
v -0.075612 -0.080299 0.099779
v -0.075612 -0.110005 0.325418
v -0.075612 -0.117906 0.094828
v -0.075612 -0.147612 0.320467
v -0.075612 -0.080299 0.099779
v 0.076113 -0.080299 0.099779
v -0.075612 -0.110005 0.325418
v 0.076113 -0.110005 0.325418
v -0.075612 -0.147612 0.320467
v 0.076113 -0.147612 0.320467
v -0.075612 -0.117906 0.094828
v 0.076113 -0.117906 0.094828
v -0.075612 -0.110005 0.325418
v 0.076113 -0.110005 0.325418
v -0.075612 -0.147612 0.320467
v 0.076113 -0.147612 0.320467
v 0.076113 -0.080299 0.099779
v -0.075612 -0.080299 0.099779
v 0.076113 -0.117906 0.094828
v -0.075612 -0.117906 0.094828
v 0.038182 -0.042044 0.550000
v 0.038182 -0.042044 0.094828
v 0.038182 -0.117906 0.550000
v 0.038182 -0.117906 0.094828
v -0.037681 -0.042044 0.094828
v -0.037681 -0.042044 0.550000
v -0.037681 -0.117906 0.094828
v -0.037681 -0.117906 0.550000
v -0.037681 -0.042044 0.094828
v 0.038182 -0.042044 0.094828
v -0.037681 -0.042044 0.550000
v 0.038182 -0.042044 0.550000
v -0.037681 -0.117906 0.550000
v 0.038182 -0.117906 0.550000
v -0.037681 -0.117906 0.094828
v 0.038182 -0.117906 0.094828
v -0.037681 -0.042044 0.550000
v 0.038182 -0.042044 0.550000
v -0.037681 -0.117906 0.550000
v 0.038182 -0.117906 0.550000
v 0.038182 -0.042044 0.094828
v -0.037681 -0.042044 0.094828
v 0.038182 -0.117906 0.094828
v -0.037681 -0.117906 0.094828
v 0.160096 -0.077135 0.040045
v 0.149349 -0.063701 -0.033841
v 0.149576 -0.113229 0.035013
v 0.138829 -0.099795 -0.038873
v 0.041216 -0.035101 -0.012912
v 0.051962 -0.048535 0.060973
v 0.030695 -0.071195 -0.017945
v 0.041442 -0.084628 0.055941
v 0.041216 -0.035101 -0.012912
v 0.149349 -0.063701 -0.033841
v 0.051962 -0.048535 0.060973
v 0.160096 -0.077135 0.040045
v 0.041442 -0.084628 0.055941
v 0.149576 -0.113229 0.035013
v 0.030695 -0.071195 -0.017945
v 0.138829 -0.099795 -0.038873
v 0.051962 -0.048535 0.060973
v 0.160096 -0.077135 0.040045
v 0.041442 -0.084628 0.055941
v 0.149576 -0.113229 0.035013
v 0.149349 -0.063701 -0.033841
v 0.041216 -0.035101 -0.012912
v 0.138829 -0.099795 -0.038873
v 0.030695 -0.071195 -0.017945
v -0.054596 -0.049388 0.064335
v -0.042499 -0.029888 -0.007974
v -0.041732 -0.084323 0.057066
v -0.029635 -0.064823 -0.015243
v -0.148000 -0.063195 -0.034605
v -0.160096 -0.082695 0.037703
v -0.135136 -0.098130 -0.041874
v -0.147232 -0.117630 0.030434
v -0.148000 -0.063195 -0.034605
v -0.042499 -0.029888 -0.007974
v -0.160096 -0.082695 0.037703
v -0.054596 -0.049388 0.064335
v -0.147232 -0.117630 0.030434
v -0.041732 -0.084323 0.057066
v -0.135136 -0.098130 -0.041874
v -0.029635 -0.064823 -0.015243
v -0.160096 -0.082695 0.037703
v -0.054596 -0.049388 0.064335
v -0.147232 -0.117630 0.030434
v -0.041732 -0.084323 0.057066
v -0.042499 -0.029888 -0.007974
v -0.148000 -0.063195 -0.034605
v -0.029635 -0.064823 -0.015243
v -0.135136 -0.098130 -0.041874
vn 1.0000 -0.0000 -0.0000
vn -1.0000 -0.0000 -0.0000
vn -0.0000 1.0000 -0.0000
vn -0.0000 -1.0000 -0.0000
vn -0.0000 -0.0000 1.0000
vn -0.0000 -0.0000 -1.0000
vn -0.0000 0.9962 -0.0872
vn -0.0000 -0.9962 0.0872
vn -0.0000 0.0872 0.9962
vn -0.0000 -0.0872 -0.9962
vn -0.0000 0.9914 0.1305
vn -0.0000 -0.9914 -0.1305
vn -0.0000 -0.1305 0.9914
vn -0.0000 0.1305 -0.9914
vn 0.9503 -0.2513 -0.1839
vn -0.9503 0.2513 0.1839
vn 0.2774 0.9516 0.1327
vn -0.2774 -0.9516 -0.1327
vn 0.1417 -0.1771 0.9739
vn -0.1417 0.1771 -0.9739
vn 0.9271 0.2927 0.2340
vn -0.9271 -0.2927 -0.2340
vn -0.3391 0.9210 0.1916
vn 0.3391 -0.9210 -0.1916
vn -0.1595 -0.2570 0.9532
vn 0.1595 0.2570 -0.9532
vt 0.718750 0.187500
vt 0.718750 0.250000
vt 0.843750 0.187500
vt 0.843750 0.250000
vt 0.125000 0.750000
vt 0.125000 0.812500
vt 0.250000 0.750000
vt 0.250000 0.812500
vt 0.312500 0.875000
vt 0.312500 0.750000
vt 0.250000 0.875000
vt 0.812500 0.250000
vt 0.812500 0.375000
vt 0.750000 0.250000
vt 0.750000 0.375000
vt 0.812500 0.531250
vt 0.812500 0.593750
vt 0.875000 0.531250
vt 0.875000 0.593750
vt 0.187500 0.812500
vt 0.187500 0.875000
vt 0.000000 0.000000
vt 0.000000 0.125000
vt 0.343750 0.000000
vt 0.343750 0.125000
vt 0.000000 0.250000
vt 0.343750 0.250000
vt 0.125000 0.593750
vt 0.125000 0.250000
vt 0.000000 0.593750
vt 0.250000 0.250000
vt 0.250000 0.593750
vt 0.500000 0.625000
vt 0.500000 0.750000
vt 0.625000 0.625000
vt 0.625000 0.750000
vt 0.593750 0.000000
vt 0.593750 0.125000
vt 0.718750 0.000000
vt 0.718750 0.125000
vt 0.250000 0.375000
vt 0.500000 0.250000
vt 0.500000 0.375000
vt 0.687500 0.812500
vt 0.687500 0.562500
vt 0.625000 0.812500
vt 0.625000 0.562500
vt 0.750000 0.562500
vt 0.750000 0.812500
vt 0.062500 0.750000
vt 0.062500 0.875000
vt 0.125000 0.875000
vt 0.000000 0.750000
vt 0.000000 0.875000
vt 0.718750 0.093750
vt 0.812500 0.000000
vt 0.812500 0.093750
vt 0.812500 0.187500
vt 0.625000 0.843750
vt 0.562500 0.843750
vt 0.562500 0.750000
vt 0.812500 0.562500
vt 0.812500 0.656250
vt 0.750000 0.656250
vt 0.500000 0.843750
vt 0.750000 0.468750
vt 0.812500 0.468750
vt 0.750000 0.750000
vt 0.750000 0.843750
vt 0.812500 0.750000
vt 0.812500 0.843750
vt 0.375000 0.781250
vt 0.375000 0.875000
vt 0.437500 0.781250
vt 0.437500 0.875000
vt 0.875000 0.656250
vt 0.687500 0.875000
vt 0.625000 0.875000
vt 0.312500 0.781250
vt 0.812500 0.718750
vt 0.812500 0.781250
vt 0.843750 0.718750
vt 0.843750 0.781250
vt 0.843750 0.843750
vt 0.906250 0.218750
vt 0.906250 0.187500
vt 0.843750 0.218750
vt 0.906250 0.250000
vt 0.750000 0.875000
vt 0.875000 0.718750
vt 0.500000 0.781250
vt 0.750000 0.406250
vt 0.937500 0.375000
vt 0.937500 0.406250
vt 0.500000 0.562500
vt 0.375000 0.562500
vt 0.375000 0.375000
vt 0.625000 0.250000
vt 0.625000 0.437500
vt 0.500000 0.437500
vt 0.812500 0.156250
vt 0.937500 0.156250
vt 0.937500 0.187500
vt 0.812500 0.125000
vt 0.937500 0.125000
vt 0.812500 0.031250
vt 0.968750 0.000000
vt 0.968750 0.031250
vt 0.812500 0.062500
vt 0.968750 0.062500
vt 0.812500 0.343750
vt 0.937500 0.343750
vt 0.812500 0.312500
vt 0.937500 0.312500
vt 0.968750 0.093750
vt 0.968750 0.125000
vt 0.625000 0.406250
vt 0.812500 0.500000
vt 0.937500 0.500000
vt 0.937500 0.531250
vt 0.937500 0.468750
vt 0.750000 0.437500
vt 0.937500 0.437500
vt 0.375000 0.750000
vt 0.812500 0.281250
vt 0.937500 0.281250
vt 0.937500 0.250000
vt 0.343750 0.187500
vt 0.312500 0.375000
vt 0.437500 0.843750
s 0
usemtl material_0
f 1/1/1 3/2/1 2/3/1
f 3/2/1 4/4/1 2/3/1
f 5/5/2 7/6/2 6/7/2
f 7/6/2 8/8/2 6/7/2
f 9/9/3 11/10/3 10/11/3
f 11/10/3 12/7/3 10/11/3
f 13/12/4 15/13/4 14/14/4
f 15/13/4 16/15/4 14/14/4
f 17/16/5 19/17/5 18/18/5
f 19/17/5 20/19/5 18/18/5
f 21/20/6 23/21/6 22/8/6
f 23/21/6 24/11/6 22/8/6
f 25/22/1 27/23/1 26/24/1
f 27/23/1 28/25/1 26/24/1
f 29/23/2 31/26/2 30/25/2
f 31/26/2 32/27/2 30/25/2
f 33/28/3 35/29/3 34/30/3
f 35/29/3 36/26/3 34/30/3
f 37/31/4 39/32/4 38/29/4
f 39/32/4 40/28/4 38/29/4
f 41/33/5 43/34/5 42/35/5
f 43/34/5 44/36/5 42/35/5
f 45/37/6 47/38/6 46/39/6
f 47/38/6 48/40/6 46/39/6
f 49/31/1 51/41/1 50/42/1
f 51/41/1 52/43/1 50/42/1
f 53/24/2 55/25/2 54/37/2
f 55/25/2 56/38/2 54/37/2
f 57/44/3 59/45/3 58/46/3
f 59/45/3 60/47/3 58/46/3
f 61/48/4 63/49/4 62/45/4
f 63/49/4 64/44/4 62/45/4
f 65/50/5 67/51/5 66/5/5
f 67/51/5 68/52/5 66/5/5
f 69/53/6 71/54/6 70/50/6
f 71/54/6 72/51/6 70/50/6
f 73/39/1 75/55/1 74/56/1
f 75/55/1 76/57/1 74/56/1
f 77/55/2 79/1/2 78/57/2
f 79/1/2 80/58/2 78/57/2
f 81/59/3 83/36/3 82/60/3
f 83/36/3 84/61/3 82/60/3
f 85/62/4 87/63/4 86/48/4
f 87/63/4 88/64/4 86/48/4
f 89/34/5 91/65/5 90/61/5
f 91/65/5 92/60/5 90/61/5
f 93/66/6 95/48/6 94/67/6
f 95/48/6 96/62/6 94/67/6
f 97/68/1 99/69/1 98/70/1
f 99/69/1 100/71/1 98/70/1
f 101/72/2 103/73/2 102/74/2
f 103/73/2 104/75/2 102/74/2
f 105/76/3 107/19/3 106/63/3
f 107/19/3 108/17/3 106/63/3
f 109/44/4 111/77/4 110/46/4
f 111/77/4 112/78/4 110/46/4
f 113/79/5 115/9/5 114/72/5
f 115/9/5 116/73/5 114/72/5
f 117/64/6 119/68/6 118/63/6
f 119/68/6 120/70/6 118/63/6
f 121/80/1 123/81/1 122/82/1
f 123/81/1 124/83/1 122/82/1
f 125/81/2 127/71/2 126/83/2
f 127/71/2 128/84/2 126/83/2
f 129/85/3 131/86/3 130/87/3
f 131/86/3 132/3/3 130/87/3
f 133/85/4 135/88/4 134/87/4
f 135/88/4 136/4/4 134/87/4
f 137/44/5 139/77/5 138/49/5
f 139/77/5 140/89/5 138/49/5
f 141/63/6 143/80/6 142/76/6
f 143/80/6 144/90/6 142/76/6
f 145/10/1 147/79/1 146/34/1
f 147/79/1 148/91/1 146/34/1
f 149/15/2 151/92/2 150/93/2
f 151/92/2 152/94/2 150/93/2
f 153/95/7 155/43/7 154/96/7
f 155/43/7 156/97/7 154/96/7
f 157/98/8 159/99/8 158/42/8
f 159/99/8 160/100/8 158/42/8
f 161/101/9 163/58/9 162/102/9
f 163/58/9 164/103/9 162/102/9
f 165/104/10 167/101/10 166/105/10
f 167/101/10 168/102/10 166/105/10
f 169/56/1 171/106/1 170/107/1
f 171/106/1 172/108/1 170/107/1
f 173/106/2 175/109/2 174/108/2
f 175/109/2 176/110/2 174/108/2
f 177/5/7 179/28/7 178/53/7
f 179/28/7 180/30/7 178/53/7
f 181/32/8 183/7/8 182/28/8
f 183/7/8 184/5/8 182/28/8
f 185/111/9 187/13/9 186/112/9
f 187/13/9 188/93/9 186/112/9
f 189/113/10 191/111/10 190/114/10
f 191/111/10 192/112/10 190/114/10
f 193/109/1 195/57/1 194/110/1
f 195/57/1 196/115/1 194/110/1
f 197/57/2 199/104/2 198/115/2
f 199/104/2 200/116/2 198/115/2
f 201/92/7 203/14/7 202/117/7
f 203/14/7 204/98/7 202/117/7
f 205/92/8 207/48/8 206/117/8
f 207/48/8 208/47/8 206/117/8
f 209/118/9 211/16/9 210/119/9
f 211/16/9 212/120/9 210/119/9
f 213/67/10 215/118/10 214/121/10
f 215/118/10 216/119/10 214/121/10
f 217/92/1 219/122/1 218/94/1
f 219/122/1 220/123/1 218/94/1
f 221/122/2 223/66/2 222/123/2
f 223/66/2 224/121/2 222/123/2
f 225/35/11 227/99/11 226/33/11
f 227/99/11 228/100/11 226/33/11
f 229/95/12 231/34/12 230/96/12
f 231/34/12 232/124/12 230/96/12
f 233/125/13 235/113/13 234/126/13
f 235/113/13 236/114/13 234/126/13
f 237/12/14 239/125/14 238/127/14
f 239/125/14 240/126/14 238/127/14
f 241/25/1 243/128/1 242/40/1
f 243/128/1 244/1/1 242/40/1
f 245/128/2 247/27/2 246/1/2
f 247/27/2 248/2/2 246/1/2
f 249/10/3 251/129/3 250/7/3
f 251/129/3 252/41/3 250/7/3
f 253/97/4 255/124/4 254/129/4
f 255/124/4 256/10/4 254/129/4
f 257/6/5 259/52/5 258/20/5
f 259/52/5 260/21/5 258/20/5
f 261/74/6 263/130/6 262/91/6
f 263/130/6 264/65/6 262/91/6
f 265/68/15 267/69/15 266/70/15
f 267/69/15 268/71/15 266/70/15
f 269/72/16 271/73/16 270/74/16
f 271/73/16 272/75/16 270/74/16
f 273/76/17 275/19/17 274/63/17
f 275/19/17 276/17/17 274/63/17
f 277/44/18 279/77/18 278/46/18
f 279/77/18 280/78/18 278/46/18
f 281/79/19 283/9/19 282/72/19
f 283/9/19 284/73/19 282/72/19
f 285/64/20 287/68/20 286/63/20
f 287/68/20 288/70/20 286/63/20
f 289/68/21 291/69/21 290/70/21
f 291/69/21 292/71/21 290/70/21
f 293/72/22 295/73/22 294/74/22
f 295/73/22 296/75/22 294/74/22
f 297/76/23 299/19/23 298/63/23
f 299/19/23 300/17/23 298/63/23
f 301/44/24 303/77/24 302/46/24
f 303/77/24 304/78/24 302/46/24
f 305/79/25 307/9/25 306/72/25
f 307/9/25 308/73/25 306/72/25
f 309/64/26 311/68/26 310/63/26
f 311/68/26 312/70/26 310/63/26
