# Blender 5.2.1 LTS
# www.blender.org
mtllib meowmere.mtl
o 4c02f978-c7a2-4bcd-a90f-824ae2e63080_Filomiau_material_0
v -0.138793 -0.099138 -0.059483
v -0.138793 -0.178448 -0.059483
v -0.297414 -0.178448 -0.059483
v -0.297414 -0.099138 -0.059483
v 0.019828 -0.297414 -0.059483
v 0.019828 -0.337069 -0.059483
v -0.376724 -0.337069 -0.059483
v -0.376724 -0.297414 -0.059483
v 0.019828 -0.218103 -0.059483
v 0.019828 -0.257759 -0.059483
v -0.376724 -0.257759 -0.059483
v -0.376724 -0.218103 -0.059483
v 0.059483 -0.257759 -0.059483
v 0.059483 -0.297414 -0.059483
v -0.337069 -0.297414 -0.059483
v -0.337069 -0.257759 -0.059483
v 0.456034 0.257759 -0.019828
v 0.456034 0.218103 -0.019828
v 0.099138 0.218103 -0.019828
v 0.099138 0.257759 -0.019828
v 0.495690 0.297414 -0.019828
v 0.495690 0.257759 -0.019828
v 0.138793 0.257759 -0.019828
v 0.138793 0.297414 -0.019828
v -0.019828 -0.337069 -0.059483
v -0.019828 -0.376724 -0.059483
v -0.337069 -0.376724 -0.059483
v -0.337069 -0.337069 -0.059483
v -0.099138 -0.178448 -0.059483
v -0.099138 -0.218103 -0.059483
v -0.337069 -0.218103 -0.059483
v -0.337069 -0.178448 -0.059483
v -0.099138 -0.376724 -0.059483
v -0.099138 -0.416379 -0.059483
v -0.297414 -0.416379 -0.059483
v -0.297414 -0.376724 -0.059483
v 0.099138 -0.138793 -0.019828
v 0.099138 -0.178448 -0.019828
v -0.138793 -0.178448 -0.019828
v -0.138793 -0.138793 -0.019828
v 0.138793 -0.099138 -0.019828
v 0.138793 -0.138793 -0.019828
v -0.138793 -0.138793 -0.019828
v -0.138793 -0.099138 -0.019828
v 0.178448 -0.059483 -0.019828
v 0.178448 -0.099138 -0.019828
v -0.099138 -0.099138 -0.019828
v -0.099138 -0.059483 -0.019828
v 0.218103 -0.019828 -0.019828
v 0.218103 -0.059483 -0.019828
v -0.099138 -0.059483 -0.019828
v -0.099138 -0.019828 -0.019828
v 0.257759 0.019828 -0.019828
v 0.257759 -0.019828 -0.019828
v -0.059483 -0.019828 -0.019828
v -0.059483 0.019828 -0.019828
v 0.257759 0.059483 -0.019828
v 0.257759 0.019828 -0.019828
v -0.019828 0.019828 -0.019828
v -0.019828 0.059483 -0.019828
v 0.297414 0.099138 -0.019828
v 0.297414 0.059483 -0.019828
v 0.019828 0.059483 -0.019828
v 0.019828 0.099138 -0.019828
v 0.337069 0.138793 -0.019828
v 0.337069 0.099138 -0.019828
v 0.059483 0.099138 -0.019828
v 0.059483 0.138793 -0.019828
v 0.376724 0.178448 -0.019828
v 0.376724 0.138793 -0.019828
v 0.099138 0.138793 -0.019828
v 0.099138 0.178448 -0.019828
v 0.416379 0.218103 -0.019828
v 0.416379 0.178448 -0.019828
v 0.099138 0.178448 -0.019828
v 0.099138 0.218103 -0.019828
v 0.495690 0.337069 -0.019828
v 0.495690 0.297414 -0.019828
v 0.178448 0.297414 -0.019828
v 0.178448 0.337069 -0.019828
v 0.495690 0.376724 -0.019828
v 0.495690 0.337069 -0.019828
v 0.218103 0.337069 -0.019828
v 0.218103 0.376724 -0.019828
v 0.495690 0.416379 -0.019828
v 0.495690 0.376724 -0.019828
v 0.257759 0.376724 -0.019828
v 0.257759 0.416379 -0.019828
v 0.495690 0.456035 -0.019828
v 0.495690 0.416379 -0.019828
v 0.297414 0.416379 -0.019828
v 0.297414 0.456035 -0.019828
v -0.138793 -0.059483 -0.059483
v -0.138793 -0.099138 -0.059483
v -0.257759 -0.099138 -0.059483
v -0.257759 -0.059483 -0.059483
v -0.337069 -0.456035 -0.019828
v -0.337069 -0.495690 -0.019828
v -0.495690 -0.495690 -0.019828
v -0.495690 -0.456035 -0.019828
v -0.337069 -0.495690 -0.019828
v -0.337069 -0.535345 -0.019828
v -0.456034 -0.535345 -0.019828
v -0.456034 -0.495690 -0.019828
v -0.297414 -0.416379 -0.019828
v -0.297414 -0.456035 -0.019828
v -0.456034 -0.456035 -0.019828
v -0.456034 -0.416379 -0.019828
v 0.019828 -0.178448 -0.019828
v 0.019828 -0.218103 -0.019828
v -0.099138 -0.218103 -0.019828
v -0.099138 -0.178448 -0.019828
v 0.495690 0.495690 -0.019828
v 0.495690 0.456035 -0.019828
v 0.337069 0.456035 -0.019828
v 0.337069 0.495690 -0.019828
v 0.495690 0.535345 -0.019828
v 0.495690 0.495690 -0.019828
v 0.376724 0.495690 -0.019828
v 0.376724 0.535345 -0.019828
v -0.297414 -0.376724 -0.019828
v -0.297414 -0.416379 -0.019828
v -0.376724 -0.416379 -0.019828
v -0.376724 -0.376724 -0.019828
v -0.218103 -0.416379 -0.059483
v -0.218103 -0.456035 -0.059483
v -0.257759 -0.456035 -0.059483
v -0.257759 -0.416379 -0.059483
v -0.178448 -0.019828 -0.059483
v -0.178448 -0.059483 -0.059483
v -0.218103 -0.059483 -0.059483
v -0.218103 -0.019828 -0.059483
v -0.138793 -0.416379 -0.059483
v -0.138793 -0.456035 -0.059483
v -0.178448 -0.456035 -0.059483
v -0.178448 -0.416379 -0.059483
v -0.376724 -0.535345 -0.019828
v -0.376724 -0.575000 -0.019828
v -0.416379 -0.575000 -0.019828
v -0.416379 -0.535345 -0.019828
v 0.456034 0.575000 -0.019828
v 0.456034 0.535345 -0.019828
v 0.416379 0.535345 -0.019828
v 0.416379 0.575000 -0.019828
v -0.297414 -0.099138 0.059483
v -0.297414 -0.178448 0.059483
v -0.138793 -0.178448 0.059483
v -0.138793 -0.099138 0.059483
v 0.099138 0.257759 0.019828
v 0.099138 0.218103 0.019828
v 0.456034 0.218103 0.019828
v 0.456034 0.257759 0.019828
v 0.138793 0.297414 0.019828
v 0.138793 0.257759 0.019828
v 0.495690 0.257759 0.019828
v 0.495690 0.297414 0.019828
v -0.376724 -0.297414 0.059483
v -0.376724 -0.337069 0.059483
v 0.019828 -0.337069 0.059483
v 0.019828 -0.297414 0.059483
v -0.376724 -0.218103 0.059483
v -0.376724 -0.257759 0.059483
v 0.019828 -0.257759 0.059483
v 0.019828 -0.218103 0.059483
v -0.337069 -0.257759 0.059483
v -0.337069 -0.297414 0.059483
v 0.059483 -0.297414 0.059483
v 0.059483 -0.257759 0.059483
v -0.138793 -0.138793 0.019828
v -0.138793 -0.178448 0.019828
v 0.099138 -0.178448 0.019828
v 0.099138 -0.138793 0.019828
v -0.138793 -0.099138 0.019828
v -0.138793 -0.138793 0.019828
v 0.138793 -0.138793 0.019828
v 0.138793 -0.099138 0.019828
v -0.099138 -0.059483 0.019828
v -0.099138 -0.099138 0.019828
v 0.178448 -0.099138 0.019828
v 0.178448 -0.059483 0.019828
v -0.099138 -0.019828 0.019828
v -0.099138 -0.059483 0.019828
v 0.218103 -0.059483 0.019828
v 0.218103 -0.019828 0.019828
v -0.059483 0.019828 0.019828
v -0.059483 -0.019828 0.019828
v 0.257759 -0.019828 0.019828
v 0.257759 0.019828 0.019828
v -0.019828 0.059483 0.019828
v -0.019828 0.019828 0.019828
v 0.257759 0.019828 0.019828
v 0.257759 0.059483 0.019828
v 0.019828 0.099138 0.019828
v 0.019828 0.059483 0.019828
v 0.297414 0.059483 0.019828
v 0.297414 0.099138 0.019828
v 0.059483 0.138793 0.019828
v 0.059483 0.099138 0.019828
v 0.337069 0.099138 0.019828
v 0.337069 0.138793 0.019828
v 0.099138 0.178448 0.019828
v 0.099138 0.138793 0.019828
v 0.376724 0.138793 0.019828
v 0.376724 0.178448 0.019828
v 0.099138 0.218103 0.019828
v 0.099138 0.178448 0.019828
v 0.416379 0.178448 0.019828
v 0.416379 0.218103 0.019828
v 0.178448 0.337069 0.019828
v 0.178448 0.297414 0.019828
v 0.495690 0.297414 0.019828
v 0.495690 0.337069 0.019828
v 0.218103 0.376724 0.019828
v 0.218103 0.337069 0.019828
v 0.495690 0.337069 0.019828
v 0.495690 0.376724 0.019828
v 0.257759 0.416379 0.019828
v 0.257759 0.376724 0.019828
v 0.495690 0.376724 0.019828
v 0.495690 0.416379 0.019828
v 0.297414 0.456035 0.019828
v 0.297414 0.416379 0.019828
v 0.495690 0.416379 0.019828
v 0.495690 0.456035 0.019828
v -0.337069 -0.337069 0.059483
v -0.337069 -0.376724 0.059483
v -0.019828 -0.376724 0.059483
v -0.019828 -0.337069 0.059483
v -0.337069 -0.178448 0.059483
v -0.337069 -0.218103 0.059483
v -0.099138 -0.218103 0.059483
v -0.099138 -0.178448 0.059483
v -0.297414 -0.376724 0.059483
v -0.297414 -0.416379 0.059483
v -0.099138 -0.416379 0.059483
v -0.099138 -0.376724 0.059483
v -0.495690 -0.456035 0.019828
v -0.495690 -0.495690 0.019828
v -0.337069 -0.495690 0.019828
v -0.337069 -0.456035 0.019828
v -0.456034 -0.495690 0.019828
v -0.456034 -0.535345 0.019828
v -0.337069 -0.535345 0.019828
v -0.337069 -0.495690 0.019828
v -0.456034 -0.416379 0.019828
v -0.456034 -0.456035 0.019828
v -0.297414 -0.456035 0.019828
v -0.297414 -0.416379 0.019828
v -0.099138 -0.178448 0.019828
v -0.099138 -0.218103 0.019828
v 0.019828 -0.218103 0.019828
v 0.019828 -0.178448 0.019828
v 0.337069 0.495690 0.019828
v 0.337069 0.456035 0.019828
v 0.495690 0.456035 0.019828
v 0.495690 0.495690 0.019828
v 0.376724 0.535345 0.019828
v 0.376724 0.495690 0.019828
v 0.495690 0.495690 0.019828
v 0.495690 0.535345 0.019828
v -0.257759 -0.059483 0.059483
v -0.257759 -0.099138 0.059483
v -0.138793 -0.099138 0.059483
v -0.138793 -0.059483 0.059483
v -0.376724 -0.376724 0.019828
v -0.376724 -0.416379 0.019828
v -0.297414 -0.416379 0.019828
v -0.297414 -0.376724 0.019828
v -0.416379 -0.535345 0.019828
v -0.416379 -0.575000 0.019828
v -0.376724 -0.575000 0.019828
v -0.376724 -0.535345 0.019828
v 0.416379 0.575000 0.019828
v 0.416379 0.535345 0.019828
v 0.456034 0.535345 0.019828
v 0.456034 0.575000 0.019828
v -0.257759 -0.416379 0.059483
v -0.257759 -0.456035 0.059483
v -0.218103 -0.456035 0.059483
v -0.218103 -0.416379 0.059483
v -0.218103 -0.019828 0.059483
v -0.218103 -0.059483 0.059483
v -0.178448 -0.059483 0.059483
v -0.178448 -0.019828 0.059483
v -0.178448 -0.416379 0.059483
v -0.178448 -0.456035 0.059483
v -0.138793 -0.456035 0.059483
v -0.138793 -0.416379 0.059483
v 0.099138 0.257759 -0.019828
v 0.099138 0.138793 -0.019828
v 0.099138 0.138793 0.019828
v 0.099138 0.257759 0.019828
v -0.297414 -0.099138 -0.059483
v -0.297414 -0.178448 -0.059483
v -0.297414 -0.178448 0.059483
v -0.297414 -0.099138 0.059483
v -0.099138 -0.019828 -0.019828
v -0.099138 -0.099138 -0.019828
v -0.099138 -0.099138 0.019828
v -0.099138 -0.019828 0.019828
v -0.376724 -0.297414 -0.059483
v -0.376724 -0.337069 -0.059483
v -0.376724 -0.337069 0.059483
v -0.376724 -0.297414 0.059483
v -0.376724 -0.218103 -0.059483
v -0.376724 -0.257759 -0.059483
v -0.376724 -0.257759 0.059483
v -0.376724 -0.218103 0.059483
v -0.337069 -0.337069 -0.059483
v -0.337069 -0.376724 -0.059483
v -0.337069 -0.376724 0.059483
v -0.337069 -0.337069 0.059483
v -0.337069 -0.257759 -0.059483
v -0.337069 -0.297414 -0.059483
v -0.337069 -0.297414 0.059483
v -0.337069 -0.257759 0.059483
v -0.337069 -0.178448 -0.059483
v -0.337069 -0.218103 -0.059483
v -0.337069 -0.218103 0.059483
v -0.337069 -0.178448 0.059483
v -0.257759 -0.416379 -0.059483
v -0.257759 -0.456035 -0.059483
v -0.257759 -0.456035 0.059483
v -0.257759 -0.416379 0.059483
v -0.257759 -0.059483 -0.059483
v -0.257759 -0.099138 -0.059483
v -0.257759 -0.099138 0.059483
v -0.257759 -0.059483 0.059483
v -0.218103 -0.019828 -0.059483
v -0.218103 -0.059483 -0.059483
v -0.218103 -0.059483 0.059483
v -0.218103 -0.019828 0.059483
v -0.178448 -0.416379 -0.059483
v -0.178448 -0.456035 -0.059483
v -0.178448 -0.456035 0.059483
v -0.178448 -0.416379 0.059483
v -0.297414 -0.376724 -0.059483
v -0.297414 -0.416379 -0.059483
v -0.297414 -0.416379 -0.019828
v -0.297414 -0.376724 -0.019828
v -0.495690 -0.456035 -0.019828
v -0.495690 -0.495690 -0.019828
v -0.495690 -0.495690 0.019828
v -0.495690 -0.456035 0.019828
v -0.456034 -0.495690 -0.019828
v -0.456034 -0.535345 -0.019828
v -0.456034 -0.535345 0.019828
v -0.456034 -0.495690 0.019828
v -0.456034 -0.416379 -0.019828
v -0.456034 -0.456035 -0.019828
v -0.456034 -0.456035 0.019828
v -0.456034 -0.416379 0.019828
v -0.416379 -0.535345 -0.019828
v -0.416379 -0.575000 -0.019828
v -0.416379 -0.575000 0.019828
v -0.416379 -0.535345 0.019828
v -0.376724 -0.376724 -0.019828
v -0.376724 -0.416379 -0.019828
v -0.376724 -0.416379 0.019828
v -0.376724 -0.376724 0.019828
v -0.059483 0.019828 -0.019828
v -0.059483 -0.019828 -0.019828
v -0.059483 -0.019828 0.019828
v -0.059483 0.019828 0.019828
v -0.019828 0.059483 -0.019828
v -0.019828 0.019828 -0.019828
v -0.019828 0.019828 0.019828
v -0.019828 0.059483 0.019828
v 0.019828 0.099138 -0.019828
v 0.019828 0.059483 -0.019828
v 0.019828 0.059483 0.019828
v 0.019828 0.099138 0.019828
v 0.059483 0.138793 -0.019828
v 0.059483 0.099138 -0.019828
v 0.059483 0.099138 0.019828
v 0.059483 0.138793 0.019828
v 0.138793 0.297414 -0.019828
v 0.138793 0.257759 -0.019828
v 0.138793 0.257759 0.019828
v 0.138793 0.297414 0.019828
v 0.178448 0.337069 -0.019828
v 0.178448 0.297414 -0.019828
v 0.178448 0.297414 0.019828
v 0.178448 0.337069 0.019828
v 0.218103 0.376724 -0.019828
v 0.218103 0.337069 -0.019828
v 0.218103 0.337069 0.019828
v 0.218103 0.376724 0.019828
v 0.257759 0.416379 -0.019828
v 0.257759 0.376724 -0.019828
v 0.257759 0.376724 0.019828
v 0.257759 0.416379 0.019828
v 0.297414 0.456035 -0.019828
v 0.297414 0.416379 -0.019828
v 0.297414 0.416379 0.019828
v 0.297414 0.456035 0.019828
v 0.337069 0.495690 -0.019828
v 0.337069 0.456035 -0.019828
v 0.337069 0.456035 0.019828
v 0.337069 0.495690 0.019828
v 0.376724 0.535345 -0.019828
v 0.376724 0.495690 -0.019828
v 0.376724 0.495690 0.019828
v 0.376724 0.535345 0.019828
v 0.416379 0.575000 -0.019828
v 0.416379 0.535345 -0.019828
v 0.416379 0.535345 0.019828
v 0.416379 0.575000 0.019828
v -0.297414 -0.376724 0.019828
v -0.297414 -0.416379 0.019828
v -0.297414 -0.416379 0.059483
v -0.297414 -0.376724 0.059483
v 0.495690 0.535345 0.019828
v 0.495690 0.257759 0.019828
v 0.495690 0.257759 -0.019828
v 0.495690 0.535345 -0.019828
v -0.138793 -0.099138 -0.019828
v -0.138793 -0.178448 -0.019828
v -0.138793 -0.178448 -0.059483
v -0.138793 -0.099138 -0.059483
v -0.337069 -0.456035 0.019828
v -0.337069 -0.535345 0.019828
v -0.337069 -0.535345 -0.019828
v -0.337069 -0.456035 -0.019828
v 0.257759 0.059483 0.019828
v 0.257759 -0.019828 0.019828
v 0.257759 -0.019828 -0.019828
v 0.257759 0.059483 -0.019828
v -0.138793 -0.099138 0.059483
v -0.138793 -0.178448 0.059483
v -0.138793 -0.178448 0.019828
v -0.138793 -0.099138 0.019828
v -0.218103 -0.416379 0.059483
v -0.218103 -0.456035 0.059483
v -0.218103 -0.456035 -0.059483
v -0.218103 -0.416379 -0.059483
v -0.178448 -0.019828 0.059483
v -0.178448 -0.059483 0.059483
v -0.178448 -0.059483 -0.059483
v -0.178448 -0.019828 -0.059483
v -0.138793 -0.416379 0.059483
v -0.138793 -0.456035 0.059483
v -0.138793 -0.456035 -0.059483
v -0.138793 -0.416379 -0.059483
v -0.138793 -0.059483 0.059483
v -0.138793 -0.099138 0.059483
v -0.138793 -0.099138 -0.059483
v -0.138793 -0.059483 -0.059483
v -0.099138 -0.376724 0.059483
v -0.099138 -0.416379 0.059483
v -0.099138 -0.416379 -0.059483
v -0.099138 -0.376724 -0.059483
v -0.019828 -0.337069 0.059483
v -0.019828 -0.376724 0.059483
v -0.019828 -0.376724 -0.059483
v -0.019828 -0.337069 -0.059483
v 0.019828 -0.297414 0.059483
v 0.019828 -0.337069 0.059483
v 0.019828 -0.337069 -0.059483
v 0.019828 -0.297414 -0.059483
v 0.019828 -0.218103 0.059483
v 0.019828 -0.257759 0.059483
v 0.019828 -0.257759 -0.059483
v 0.019828 -0.218103 -0.059483
v 0.059483 -0.257759 0.059483
v 0.059483 -0.297414 0.059483
v 0.059483 -0.297414 -0.059483
v 0.059483 -0.257759 -0.059483
v -0.099138 -0.178448 -0.019828
v -0.099138 -0.218103 -0.019828
v -0.099138 -0.218103 -0.059483
v -0.099138 -0.178448 -0.059483
v -0.376724 -0.535345 0.019828
v -0.376724 -0.575000 0.019828
v -0.376724 -0.575000 -0.019828
v -0.376724 -0.535345 -0.019828
v -0.297414 -0.416379 0.019828
v -0.297414 -0.456035 0.019828
v -0.297414 -0.456035 -0.019828
v -0.297414 -0.416379 -0.019828
v 0.019828 -0.178448 0.019828
v 0.019828 -0.218103 0.019828
v 0.019828 -0.218103 -0.019828
v 0.019828 -0.178448 -0.019828
v 0.099138 -0.138793 0.019828
v 0.099138 -0.178448 0.019828
v 0.099138 -0.178448 -0.019828
v 0.099138 -0.138793 -0.019828
v 0.138793 -0.099138 0.019828
v 0.138793 -0.138793 0.019828
v 0.138793 -0.138793 -0.019828
v 0.138793 -0.099138 -0.019828
v 0.178448 -0.059483 0.019828
v 0.178448 -0.099138 0.019828
v 0.178448 -0.099138 -0.019828
v 0.178448 -0.059483 -0.019828
v 0.218103 -0.019828 0.019828
v 0.218103 -0.059483 0.019828
v 0.218103 -0.059483 -0.019828
v 0.218103 -0.019828 -0.019828
v 0.297414 0.099138 0.019828
v 0.297414 0.059483 0.019828
v 0.297414 0.059483 -0.019828
v 0.297414 0.099138 -0.019828
v 0.337069 0.138793 0.019828
v 0.337069 0.099138 0.019828
v 0.337069 0.099138 -0.019828
v 0.337069 0.138793 -0.019828
v 0.376724 0.178448 0.019828
v 0.376724 0.138793 0.019828
v 0.376724 0.138793 -0.019828
v 0.376724 0.178448 -0.019828
v 0.416379 0.218103 0.019828
v 0.416379 0.178448 0.019828
v 0.416379 0.178448 -0.019828
v 0.416379 0.218103 -0.019828
v 0.456034 0.257759 0.019828
v 0.456034 0.218103 0.019828
v 0.456034 0.218103 -0.019828
v 0.456034 0.257759 -0.019828
v 0.456034 0.575000 0.019828
v 0.456034 0.535345 0.019828
v 0.456034 0.535345 -0.019828
v 0.456034 0.575000 -0.019828
v -0.099138 -0.178448 0.059483
v -0.099138 -0.218103 0.059483
v -0.099138 -0.218103 0.019828
v -0.099138 -0.178448 0.019828
v -0.376724 -0.297414 -0.059483
v -0.376724 -0.297414 0.059483
v -0.337069 -0.297414 0.059483
v -0.337069 -0.297414 -0.059483
v -0.376724 -0.218103 -0.059483
v -0.376724 -0.218103 0.059483
v -0.337069 -0.218103 0.059483
v -0.337069 -0.218103 -0.059483
v -0.337069 -0.178448 -0.059483
v -0.337069 -0.178448 0.059483
v -0.297414 -0.178448 0.059483
v -0.297414 -0.178448 -0.059483
v -0.297414 -0.099138 -0.059483
v -0.297414 -0.099138 0.059483
v -0.257759 -0.099138 0.059483
v -0.257759 -0.099138 -0.059483
v -0.257759 -0.059483 -0.059483
v -0.257759 -0.059483 0.059483
v -0.218103 -0.059483 0.059483
v -0.218103 -0.059483 -0.059483
v -0.218103 -0.019828 -0.059483
v -0.218103 -0.019828 0.059483
v -0.178448 -0.019828 0.059483
v -0.178448 -0.019828 -0.059483
v -0.178448 -0.059483 -0.059483
v -0.178448 -0.059483 0.059483
v -0.138793 -0.059483 0.059483
v -0.138793 -0.059483 -0.059483
v 0.019828 -0.257759 -0.059483
v 0.019828 -0.257759 0.059483
v 0.059483 -0.257759 0.059483
v 0.059483 -0.257759 -0.059483
v -0.099138 -0.218103 -0.059483
v -0.099138 -0.218103 -0.019828
v 0.019828 -0.218103 -0.019828
v 0.019828 -0.218103 -0.059483
v -0.099138 -0.218103 0.019828
v -0.099138 -0.218103 0.059483
v 0.019828 -0.218103 0.059483
v 0.019828 -0.218103 0.019828
v -0.456034 -0.416379 -0.019828
v -0.456034 -0.416379 0.019828
v -0.376724 -0.416379 0.019828
v -0.376724 -0.416379 -0.019828
v -0.138793 -0.178448 -0.059483
v -0.138793 -0.178448 -0.019828
v -0.099138 -0.178448 -0.019828
v -0.099138 -0.178448 -0.059483
v -0.495690 -0.456035 -0.019828
v -0.495690 -0.456035 0.019828
v -0.456034 -0.456035 0.019828
v -0.456034 -0.456035 -0.019828
v -0.376724 -0.376724 -0.019828
v -0.376724 -0.376724 0.019828
v -0.337069 -0.376724 0.019828
v -0.337069 -0.376724 -0.019828
v -0.138793 -0.099138 -0.019828
v -0.138793 -0.099138 0.019828
v -0.099138 -0.099138 0.019828
v -0.099138 -0.099138 -0.019828
v -0.099138 -0.019828 -0.019828
v -0.099138 -0.019828 0.019828
v -0.059483 -0.019828 0.019828
v -0.059483 -0.019828 -0.019828
v -0.059483 0.019828 -0.019828
v -0.059483 0.019828 0.019828
v -0.019828 0.019828 0.019828
v -0.019828 0.019828 -0.019828
v -0.019828 0.059483 -0.019828
v -0.019828 0.059483 0.019828
v 0.019828 0.059483 0.019828
v 0.019828 0.059483 -0.019828
v 0.019828 0.099138 -0.019828
v 0.019828 0.099138 0.019828
v 0.059483 0.099138 0.019828
v 0.059483 0.099138 -0.019828
v 0.059483 0.138793 -0.019828
v 0.059483 0.138793 0.019828
v 0.099138 0.138793 0.019828
v 0.099138 0.138793 -0.019828
v 0.099138 0.257759 -0.019828
v 0.099138 0.257759 0.019828
v 0.138793 0.257759 0.019828
v 0.138793 0.257759 -0.019828
v 0.138793 0.297414 -0.019828
v 0.138793 0.297414 0.019828
v 0.178448 0.297414 0.019828
v 0.178448 0.297414 -0.019828
v 0.178448 0.337069 -0.019828
v 0.178448 0.337069 0.019828
v 0.218103 0.337069 0.019828
v 0.218103 0.337069 -0.019828
v 0.218103 0.376724 -0.019828
v 0.218103 0.376724 0.019828
v 0.257759 0.376724 0.019828
v 0.257759 0.376724 -0.019828
v 0.257759 0.416379 -0.019828
v 0.257759 0.416379 0.019828
v 0.297414 0.416379 0.019828
v 0.297414 0.416379 -0.019828
v 0.297414 0.456035 -0.019828
v 0.297414 0.456035 0.019828
v 0.337069 0.456035 0.019828
v 0.337069 0.456035 -0.019828
v 0.337069 0.495690 -0.019828
v 0.337069 0.495690 0.019828
v 0.376724 0.495690 0.019828
v 0.376724 0.495690 -0.019828
v 0.376724 0.535345 -0.019828
v 0.376724 0.535345 0.019828
v 0.416379 0.535345 0.019828
v 0.416379 0.535345 -0.019828
v 0.416379 0.575000 -0.019828
v 0.416379 0.575000 0.019828
v 0.456034 0.575000 0.019828
v 0.456034 0.575000 -0.019828
v 0.456034 0.535345 -0.019828
v 0.456034 0.535345 0.019828
v 0.495690 0.535345 0.019828
v 0.495690 0.535345 -0.019828
v -0.138793 -0.178448 0.019828
v -0.138793 -0.178448 0.059483
v -0.099138 -0.178448 0.059483
v -0.099138 -0.178448 0.019828
v -0.099138 -0.376724 0.059483
v -0.099138 -0.376724 -0.059483
v -0.019828 -0.376724 -0.059483
v -0.019828 -0.376724 0.059483
v -0.376724 -0.337069 0.059483
v -0.376724 -0.337069 -0.059483
v -0.337069 -0.337069 -0.059483
v -0.337069 -0.337069 0.059483
v -0.376724 -0.257759 0.059483
v -0.376724 -0.257759 -0.059483
v -0.337069 -0.257759 -0.059483
v -0.337069 -0.257759 0.059483
v -0.297414 -0.416379 0.059483
v -0.297414 -0.416379 -0.059483
v -0.257759 -0.416379 -0.059483
v -0.257759 -0.416379 0.059483
v -0.257759 -0.456035 0.059483
v -0.257759 -0.456035 -0.059483
v -0.218103 -0.456035 -0.059483
v -0.218103 -0.456035 0.059483
v -0.218103 -0.416379 0.059483
v -0.218103 -0.416379 -0.059483
v -0.178448 -0.416379 -0.059483
v -0.178448 -0.416379 0.059483
v -0.178448 -0.456035 0.059483
v -0.178448 -0.456035 -0.059483
v -0.138793 -0.456035 -0.059483
v -0.138793 -0.456035 0.059483
v -0.138793 -0.416379 0.059483
v -0.138793 -0.416379 -0.059483
v -0.099138 -0.416379 -0.059483
v -0.099138 -0.416379 0.059483
v -0.019828 -0.337069 0.059483
v -0.019828 -0.337069 -0.059483
v 0.019828 -0.337069 -0.059483
v 0.019828 -0.337069 0.059483
v 0.019828 -0.297414 0.059483
v 0.019828 -0.297414 -0.059483
v 0.059483 -0.297414 -0.059483
v 0.059483 -0.297414 0.059483
v 0.019828 -0.178448 0.019828
v 0.019828 -0.178448 -0.019828
v 0.099138 -0.178448 -0.019828
v 0.099138 -0.178448 0.019828
v -0.337069 -0.376724 -0.019828
v -0.337069 -0.376724 -0.059483
v -0.297414 -0.376724 -0.059483
v -0.297414 -0.376724 -0.019828
v -0.495690 -0.495690 0.019828
v -0.495690 -0.495690 -0.019828
v -0.456034 -0.495690 -0.019828
v -0.456034 -0.495690 0.019828
v -0.456034 -0.535345 0.019828
v -0.456034 -0.535345 -0.019828
v -0.416379 -0.535345 -0.019828
v -0.416379 -0.535345 0.019828
v -0.416379 -0.575000 0.019828
v -0.416379 -0.575000 -0.019828
v -0.376724 -0.575000 -0.019828
v -0.376724 -0.575000 0.019828
v -0.376724 -0.535345 0.019828
v -0.376724 -0.535345 -0.019828
v -0.337069 -0.535345 -0.019828
v -0.337069 -0.535345 0.019828
v -0.337069 -0.456035 0.019828
v -0.337069 -0.456035 -0.019828
v -0.297414 -0.456035 -0.019828
v -0.297414 -0.456035 0.019828
v 0.099138 -0.138793 0.019828
v 0.099138 -0.138793 -0.019828
v 0.138793 -0.138793 -0.019828
v 0.138793 -0.138793 0.019828
v 0.138793 -0.099138 0.019828
v 0.138793 -0.099138 -0.019828
v 0.178448 -0.099138 -0.019828
v 0.178448 -0.099138 0.019828
v 0.178448 -0.059483 0.019828
v 0.178448 -0.059483 -0.019828
v 0.218103 -0.059483 -0.019828
v 0.218103 -0.059483 0.019828
v 0.218103 -0.019828 0.019828
v 0.218103 -0.019828 -0.019828
v 0.257759 -0.019828 -0.019828
v 0.257759 -0.019828 0.019828
v 0.257759 0.059483 0.019828
v 0.257759 0.059483 -0.019828
v 0.297414 0.059483 -0.019828
v 0.297414 0.059483 0.019828
v 0.297414 0.099138 0.019828
v 0.297414 0.099138 -0.019828
v 0.337069 0.099138 -0.019828
v 0.337069 0.099138 0.019828
v 0.337069 0.138793 0.019828
v 0.337069 0.138793 -0.019828
v 0.376724 0.138793 -0.019828
v 0.376724 0.138793 0.019828
v 0.376724 0.178448 0.019828
v 0.376724 0.178448 -0.019828
v 0.416379 0.178448 -0.019828
v 0.416379 0.178448 0.019828
v 0.416379 0.218103 0.019828
v 0.416379 0.218103 -0.019828
v 0.456034 0.218103 -0.019828
v 0.456034 0.218103 0.019828
v 0.456034 0.257759 0.019828
v 0.456034 0.257759 -0.019828
v 0.495690 0.257759 -0.019828
v 0.495690 0.257759 0.019828
v -0.337069 -0.376724 0.059483
v -0.337069 -0.376724 0.019828
v -0.297414 -0.376724 0.019828
v -0.297414 -0.376724 0.059483
vn -0.0000 -0.0000 -1.0000
vn -0.0000 -0.0000 1.0000
vn -1.0000 -0.0000 -0.0000
vn 1.0000 -0.0000 -0.0000
vn -0.0000 1.0000 -0.0000
vn -0.0000 -1.0000 -0.0000
vt 0.062500 0.875000
vt 0.062500 0.906250
vt 0.125000 0.906250
vt 0.125000 0.875000
vt 0.015625 0.828125
vt 0.015625 0.843750
vt 0.171875 0.843750
vt 0.171875 0.828125
vt 0.703125 0.890625
vt 0.703125 0.906250
vt 0.859375 0.906250
vt 0.859375 0.890625
vt 0.515625 0.890625
vt 0.515625 0.906250
vt 0.671875 0.906250
vt 0.671875 0.890625
vt 0.359375 0.781250
vt 0.359375 0.796875
vt 0.500000 0.796875
vt 0.500000 0.781250
vt 0.187500 0.781250
vt 0.187500 0.796875
vt 0.328125 0.796875
vt 0.328125 0.781250
vt 0.015625 0.687500
vt 0.015625 0.703125
vt 0.140625 0.703125
vt 0.140625 0.687500
vt 0.406250 0.593750
vt 0.406250 0.609375
vt 0.500000 0.609375
vt 0.500000 0.593750
vt 0.125000 0.546875
vt 0.125000 0.562500
vt 0.203125 0.562500
vt 0.203125 0.546875
vt 0.890625 0.890625
vt 0.890625 0.906250
vt 0.984375 0.906250
vt 0.984375 0.890625
vt 0.015625 0.640625
vt 0.015625 0.656250
vt 0.125000 0.656250
vt 0.125000 0.640625
vt 0.296875 0.640625
vt 0.296875 0.656250
vt 0.406250 0.656250
vt 0.406250 0.640625
vt 0.687500 0.781250
vt 0.687500 0.796875
vt 0.812500 0.796875
vt 0.812500 0.781250
vt 0.531250 0.781250
vt 0.531250 0.796875
vt 0.656250 0.796875
vt 0.656250 0.781250
vt 0.593750 0.687500
vt 0.593750 0.703125
vt 0.703125 0.703125
vt 0.703125 0.687500
vt 0.453125 0.687500
vt 0.453125 0.703125
vt 0.562500 0.703125
vt 0.562500 0.687500
vt 0.718750 0.640625
vt 0.718750 0.656250
vt 0.828125 0.656250
vt 0.828125 0.640625
vt 0.015625 0.593750
vt 0.015625 0.609375
vt 0.125000 0.609375
vt 0.125000 0.593750
vt 0.015625 0.734375
vt 0.015625 0.750000
vt 0.140625 0.750000
vt 0.140625 0.734375
vt 0.843750 0.781250
vt 0.843750 0.796875
vt 0.968750 0.796875
vt 0.968750 0.781250
vt 0.859375 0.640625
vt 0.859375 0.656250
vt 0.968750 0.656250
vt 0.968750 0.640625
vt 0.281250 0.593750
vt 0.281250 0.609375
vt 0.375000 0.609375
vt 0.375000 0.593750
vt 0.781250 0.593750
vt 0.781250 0.609375
vt 0.859375 0.609375
vt 0.859375 0.593750
vt 0.875000 0.500000
vt 0.875000 0.515625
vt 0.921875 0.515625
vt 0.921875 0.500000
vt 0.515625 0.546875
vt 0.515625 0.562500
vt 0.578125 0.562500
vt 0.578125 0.546875
vt 0.796875 0.500000
vt 0.796875 0.515625
vt 0.843750 0.515625
vt 0.843750 0.500000
vt 0.609375 0.546875
vt 0.609375 0.562500
vt 0.671875 0.562500
vt 0.671875 0.546875
vt 0.093750 0.453125
vt 0.093750 0.468750
vt 0.140625 0.468750
vt 0.140625 0.453125
vt 0.234375 0.546875
vt 0.234375 0.562500
vt 0.296875 0.562500
vt 0.296875 0.546875
vt 0.328125 0.453125
vt 0.328125 0.468750
vt 0.375000 0.468750
vt 0.375000 0.453125
vt 0.953125 0.500000
vt 0.953125 0.515625
vt 0.984375 0.515625
vt 0.984375 0.500000
vt 0.140625 0.406250
vt 0.140625 0.421875
vt 0.156250 0.421875
vt 0.156250 0.406250
vt 0.093750 0.406250
vt 0.093750 0.421875
vt 0.109375 0.421875
vt 0.109375 0.406250
vt 0.187500 0.406250
vt 0.187500 0.421875
vt 0.203125 0.421875
vt 0.203125 0.406250
vt 0.375000 0.406250
vt 0.375000 0.421875
vt 0.390625 0.421875
vt 0.390625 0.406250
vt 0.421875 0.406250
vt 0.421875 0.421875
vt 0.437500 0.421875
vt 0.437500 0.406250
vt 0.156250 0.875000
vt 0.156250 0.906250
vt 0.218750 0.906250
vt 0.218750 0.875000
vt 0.765625 0.828125
vt 0.765625 0.843750
vt 0.906250 0.843750
vt 0.906250 0.828125
vt 0.015625 0.781250
vt 0.015625 0.796875
vt 0.156250 0.796875
vt 0.156250 0.781250
vt 0.578125 0.828125
vt 0.578125 0.843750
vt 0.734375 0.843750
vt 0.734375 0.828125
vt 0.390625 0.828125
vt 0.390625 0.843750
vt 0.546875 0.843750
vt 0.546875 0.828125
vt 0.203125 0.828125
vt 0.203125 0.843750
vt 0.359375 0.843750
vt 0.359375 0.828125
vt 0.656250 0.593750
vt 0.656250 0.609375
vt 0.750000 0.609375
vt 0.750000 0.593750
vt 0.734375 0.687500
vt 0.734375 0.703125
vt 0.843750 0.703125
vt 0.843750 0.687500
vt 0.171875 0.687500
vt 0.171875 0.703125
vt 0.281250 0.703125
vt 0.281250 0.687500
vt 0.171875 0.734375
vt 0.171875 0.750000
vt 0.296875 0.750000
vt 0.296875 0.734375
vt 0.640625 0.734375
vt 0.640625 0.750000
vt 0.765625 0.750000
vt 0.765625 0.734375
vt 0.312500 0.687500
vt 0.312500 0.703125
vt 0.421875 0.703125
vt 0.421875 0.687500
vt 0.875000 0.687500
vt 0.875000 0.703125
vt 0.984375 0.703125
vt 0.984375 0.687500
vt 0.437500 0.640625
vt 0.437500 0.656250
vt 0.546875 0.656250
vt 0.546875 0.640625
vt 0.578125 0.640625
vt 0.578125 0.656250
vt 0.687500 0.656250
vt 0.687500 0.640625
vt 0.796875 0.734375
vt 0.796875 0.750000
vt 0.921875 0.750000
vt 0.921875 0.734375
vt 0.484375 0.734375
vt 0.484375 0.750000
vt 0.609375 0.750000
vt 0.609375 0.734375
vt 0.156250 0.640625
vt 0.156250 0.656250
vt 0.265625 0.656250
vt 0.265625 0.640625
vt 0.531250 0.593750
vt 0.531250 0.609375
vt 0.625000 0.609375
vt 0.625000 0.593750
vt 0.890625 0.593750
vt 0.890625 0.609375
vt 0.968750 0.609375
vt 0.968750 0.593750
vt 0.328125 0.734375
vt 0.328125 0.750000
vt 0.453125 0.750000
vt 0.453125 0.734375
vt 0.156250 0.593750
vt 0.156250 0.609375
vt 0.250000 0.609375
vt 0.250000 0.593750
vt 0.015625 0.546875
vt 0.015625 0.562500
vt 0.093750 0.562500
vt 0.093750 0.546875
vt 0.421875 0.546875
vt 0.421875 0.562500
vt 0.484375 0.562500
vt 0.484375 0.546875
vt 0.484375 0.500000
vt 0.484375 0.515625
vt 0.531250 0.515625
vt 0.531250 0.500000
vt 0.328125 0.546875
vt 0.328125 0.562500
vt 0.390625 0.562500
vt 0.390625 0.546875
vt 0.406250 0.500000
vt 0.406250 0.515625
vt 0.453125 0.515625
vt 0.453125 0.500000
vt 0.703125 0.546875
vt 0.703125 0.562500
vt 0.765625 0.562500
vt 0.765625 0.546875
vt 0.171875 0.500000
vt 0.171875 0.515625
vt 0.218750 0.515625
vt 0.218750 0.500000
vt 0.718750 0.500000
vt 0.718750 0.515625
vt 0.765625 0.515625
vt 0.765625 0.500000
vt 0.953125 0.734375
vt 0.953125 0.750000
vt 0.984375 0.750000
vt 0.984375 0.734375
vt 0.328125 0.406250
vt 0.328125 0.421875
vt 0.343750 0.421875
vt 0.343750 0.406250
vt 0.281250 0.406250
vt 0.281250 0.421875
vt 0.296875 0.421875
vt 0.296875 0.406250
vt 0.234375 0.406250
vt 0.234375 0.421875
vt 0.250000 0.421875
vt 0.250000 0.406250
vt 0.468750 0.406250
vt 0.468750 0.421875
vt 0.484375 0.421875
vt 0.484375 0.406250
vt 0.515625 0.406250
vt 0.515625 0.421875
vt 0.531250 0.421875
vt 0.531250 0.406250
vt 0.875000 0.937500
vt 0.875000 0.984375
vt 0.890625 0.984375
vt 0.890625 0.937500
vt 0.250000 0.875000
vt 0.250000 0.906250
vt 0.296875 0.906250
vt 0.296875 0.875000
vt 0.375000 0.875000
vt 0.375000 0.906250
vt 0.390625 0.906250
vt 0.390625 0.875000
vt 0.640625 0.500000
vt 0.640625 0.515625
vt 0.687500 0.515625
vt 0.687500 0.500000
vt 0.328125 0.500000
vt 0.328125 0.515625
vt 0.375000 0.515625
vt 0.375000 0.500000
vt 0.093750 0.500000
vt 0.093750 0.515625
vt 0.140625 0.515625
vt 0.140625 0.500000
vt 0.250000 0.500000
vt 0.250000 0.515625
vt 0.296875 0.515625
vt 0.296875 0.500000
vt 0.875000 0.546875
vt 0.875000 0.562500
vt 0.921875 0.562500
vt 0.921875 0.546875
vt 0.015625 0.500000
vt 0.015625 0.515625
vt 0.062500 0.515625
vt 0.062500 0.500000
vt 0.796875 0.546875
vt 0.796875 0.562500
vt 0.843750 0.562500
vt 0.843750 0.546875
vt 0.937500 0.828125
vt 0.937500 0.843750
vt 0.984375 0.843750
vt 0.984375 0.828125
vt 0.562500 0.500000
vt 0.562500 0.515625
vt 0.609375 0.515625
vt 0.609375 0.500000
vt 0.812500 0.312500
vt 0.812500 0.328125
vt 0.828125 0.328125
vt 0.828125 0.312500
vt 0.859375 0.312500
vt 0.859375 0.328125
vt 0.875000 0.328125
vt 0.875000 0.312500
vt 0.718750 0.312500
vt 0.718750 0.328125
vt 0.734375 0.328125
vt 0.734375 0.312500
vt 0.765625 0.312500
vt 0.765625 0.328125
vt 0.781250 0.328125
vt 0.781250 0.312500
vt 0.015625 0.265625
vt 0.015625 0.281250
vt 0.031250 0.281250
vt 0.031250 0.265625
vt 0.062500 0.265625
vt 0.062500 0.281250
vt 0.078125 0.281250
vt 0.078125 0.265625
vt 0.906250 0.312500
vt 0.906250 0.328125
vt 0.921875 0.328125
vt 0.921875 0.312500
vt 0.953125 0.312500
vt 0.953125 0.328125
vt 0.968750 0.328125
vt 0.968750 0.312500
vt 0.671875 0.312500
vt 0.671875 0.328125
vt 0.687500 0.328125
vt 0.687500 0.312500
vt 0.390625 0.312500
vt 0.390625 0.328125
vt 0.406250 0.328125
vt 0.406250 0.312500
vt 0.437500 0.312500
vt 0.437500 0.328125
vt 0.453125 0.328125
vt 0.453125 0.312500
vt 0.296875 0.312500
vt 0.296875 0.328125
vt 0.312500 0.328125
vt 0.312500 0.312500
vt 0.343750 0.312500
vt 0.343750 0.328125
vt 0.359375 0.328125
vt 0.359375 0.312500
vt 0.578125 0.312500
vt 0.578125 0.328125
vt 0.593750 0.328125
vt 0.593750 0.312500
vt 0.625000 0.312500
vt 0.625000 0.328125
vt 0.640625 0.328125
vt 0.640625 0.312500
vt 0.484375 0.312500
vt 0.484375 0.328125
vt 0.500000 0.328125
vt 0.500000 0.312500
vt 0.531250 0.312500
vt 0.531250 0.328125
vt 0.546875 0.328125
vt 0.546875 0.312500
vt 0.109375 0.265625
vt 0.109375 0.281250
vt 0.125000 0.281250
vt 0.125000 0.265625
vt 0.671875 0.265625
vt 0.671875 0.281250
vt 0.687500 0.281250
vt 0.687500 0.265625
vt 0.015625 0.875000
vt 0.015625 0.984375
vt 0.031250 0.984375
vt 0.031250 0.875000
vt 0.328125 0.875000
vt 0.328125 0.906250
vt 0.343750 0.906250
vt 0.343750 0.875000
vt 0.968750 0.953125
vt 0.968750 0.984375
vt 0.984375 0.984375
vt 0.984375 0.953125
vt 0.468750 0.875000
vt 0.468750 0.906250
vt 0.484375 0.906250
vt 0.484375 0.875000
vt 0.421875 0.875000
vt 0.421875 0.906250
vt 0.437500 0.906250
vt 0.437500 0.875000
vt 0.640625 0.453125
vt 0.640625 0.468750
vt 0.687500 0.468750
vt 0.687500 0.453125
vt 0.718750 0.453125
vt 0.718750 0.468750
vt 0.765625 0.468750
vt 0.765625 0.453125
vt 0.484375 0.453125
vt 0.484375 0.468750
vt 0.531250 0.468750
vt 0.531250 0.453125
vt 0.562500 0.453125
vt 0.562500 0.468750
vt 0.609375 0.468750
vt 0.609375 0.453125
vt 0.796875 0.453125
vt 0.796875 0.468750
vt 0.843750 0.468750
vt 0.843750 0.453125
vt 0.015625 0.406250
vt 0.015625 0.421875
vt 0.062500 0.421875
vt 0.062500 0.406250
vt 0.875000 0.453125
vt 0.875000 0.468750
vt 0.921875 0.468750
vt 0.921875 0.453125
vt 0.406250 0.453125
vt 0.406250 0.468750
vt 0.453125 0.468750
vt 0.453125 0.453125
vt 0.015625 0.453125
vt 0.015625 0.468750
vt 0.062500 0.468750
vt 0.062500 0.453125
vt 0.718750 0.265625
vt 0.718750 0.281250
vt 0.734375 0.281250
vt 0.734375 0.265625
vt 0.578125 0.265625
vt 0.578125 0.281250
vt 0.593750 0.281250
vt 0.593750 0.265625
vt 0.625000 0.265625
vt 0.625000 0.281250
vt 0.640625 0.281250
vt 0.640625 0.265625
vt 0.859375 0.265625
vt 0.859375 0.281250
vt 0.875000 0.281250
vt 0.875000 0.265625
vt 0.906250 0.265625
vt 0.906250 0.281250
vt 0.921875 0.281250
vt 0.921875 0.265625
vt 0.765625 0.265625
vt 0.765625 0.281250
vt 0.781250 0.281250
vt 0.781250 0.265625
vt 0.812500 0.265625
vt 0.812500 0.281250
vt 0.828125 0.281250
vt 0.828125 0.265625
vt 0.531250 0.265625
vt 0.531250 0.281250
vt 0.546875 0.281250
vt 0.546875 0.265625
vt 0.250000 0.265625
vt 0.250000 0.281250
vt 0.265625 0.281250
vt 0.265625 0.265625
vt 0.296875 0.265625
vt 0.296875 0.281250
vt 0.312500 0.281250
vt 0.312500 0.265625
vt 0.156250 0.265625
vt 0.156250 0.281250
vt 0.171875 0.281250
vt 0.171875 0.265625
vt 0.203125 0.265625
vt 0.203125 0.281250
vt 0.218750 0.281250
vt 0.218750 0.265625
vt 0.437500 0.265625
vt 0.437500 0.281250
vt 0.453125 0.281250
vt 0.453125 0.265625
vt 0.484375 0.265625
vt 0.484375 0.281250
vt 0.500000 0.281250
vt 0.500000 0.265625
vt 0.343750 0.265625
vt 0.343750 0.281250
vt 0.359375 0.281250
vt 0.359375 0.265625
vt 0.921875 0.937500
vt 0.921875 0.984375
vt 0.937500 0.984375
vt 0.937500 0.937500
vt 0.687500 0.937500
vt 0.687500 0.984375
vt 0.703125 0.984375
vt 0.703125 0.937500
vt 0.828125 0.937500
vt 0.828125 0.984375
vt 0.843750 0.984375
vt 0.843750 0.937500
vt 0.781250 0.937500
vt 0.781250 0.984375
vt 0.796875 0.984375
vt 0.796875 0.937500
vt 0.546875 0.937500
vt 0.546875 0.984375
vt 0.562500 0.984375
vt 0.562500 0.937500
vt 0.500000 0.937500
vt 0.500000 0.984375
vt 0.515625 0.984375
vt 0.515625 0.937500
vt 0.640625 0.937500
vt 0.640625 0.984375
vt 0.656250 0.984375
vt 0.656250 0.937500
vt 0.593750 0.937500
vt 0.593750 0.984375
vt 0.609375 0.984375
vt 0.609375 0.937500
vt 0.250000 0.453125
vt 0.250000 0.468750
vt 0.296875 0.468750
vt 0.296875 0.453125
vt 0.171875 0.453125
vt 0.171875 0.468750
vt 0.218750 0.468750
vt 0.218750 0.453125
vt 0.953125 0.546875
vt 0.953125 0.562500
vt 0.984375 0.562500
vt 0.984375 0.546875
vt 0.390625 0.265625
vt 0.390625 0.281250
vt 0.406250 0.281250
vt 0.406250 0.265625
vt 0.250000 0.312500
vt 0.250000 0.328125
vt 0.265625 0.328125
vt 0.265625 0.312500
vt 0.109375 0.359375
vt 0.109375 0.375000
vt 0.125000 0.375000
vt 0.125000 0.359375
vt 0.156250 0.359375
vt 0.156250 0.375000
vt 0.171875 0.375000
vt 0.171875 0.359375
vt 0.015625 0.359375
vt 0.015625 0.375000
vt 0.031250 0.375000
vt 0.031250 0.359375
vt 0.062500 0.359375
vt 0.062500 0.375000
vt 0.078125 0.375000
vt 0.078125 0.359375
vt 0.296875 0.359375
vt 0.296875 0.375000
vt 0.312500 0.375000
vt 0.312500 0.359375
vt 0.343750 0.359375
vt 0.343750 0.375000
vt 0.359375 0.375000
vt 0.359375 0.359375
vt 0.203125 0.359375
vt 0.203125 0.375000
vt 0.218750 0.375000
vt 0.218750 0.359375
vt 0.250000 0.359375
vt 0.250000 0.375000
vt 0.265625 0.375000
vt 0.265625 0.359375
vt 0.937500 0.406250
vt 0.937500 0.421875
vt 0.953125 0.421875
vt 0.953125 0.406250
vt 0.656250 0.406250
vt 0.656250 0.421875
vt 0.671875 0.421875
vt 0.671875 0.406250
vt 0.703125 0.406250
vt 0.703125 0.421875
vt 0.718750 0.421875
vt 0.718750 0.406250
vt 0.562500 0.406250
vt 0.562500 0.421875
vt 0.578125 0.421875
vt 0.578125 0.406250
vt 0.609375 0.406250
vt 0.609375 0.421875
vt 0.625000 0.421875
vt 0.625000 0.406250
vt 0.843750 0.406250
vt 0.843750 0.421875
vt 0.859375 0.421875
vt 0.859375 0.406250
vt 0.890625 0.406250
vt 0.890625 0.421875
vt 0.906250 0.421875
vt 0.906250 0.406250
vt 0.750000 0.406250
vt 0.750000 0.421875
vt 0.765625 0.421875
vt 0.765625 0.406250
vt 0.796875 0.406250
vt 0.796875 0.421875
vt 0.812500 0.421875
vt 0.812500 0.406250
vt 0.390625 0.359375
vt 0.390625 0.375000
vt 0.406250 0.375000
vt 0.406250 0.359375
vt 0.062500 0.937500
vt 0.062500 0.984375
vt 0.093750 0.984375
vt 0.093750 0.937500
vt 0.734375 0.937500
vt 0.734375 0.984375
vt 0.750000 0.984375
vt 0.750000 0.937500
vt 0.218750 0.937500
vt 0.218750 0.984375
vt 0.234375 0.984375
vt 0.234375 0.937500
vt 0.171875 0.937500
vt 0.171875 0.984375
vt 0.187500 0.984375
vt 0.187500 0.937500
vt 0.125000 0.937500
vt 0.125000 0.984375
vt 0.140625 0.984375
vt 0.140625 0.937500
vt 0.406250 0.937500
vt 0.406250 0.984375
vt 0.421875 0.984375
vt 0.421875 0.937500
vt 0.453125 0.937500
vt 0.453125 0.984375
vt 0.468750 0.984375
vt 0.468750 0.937500
vt 0.359375 0.937500
vt 0.359375 0.984375
vt 0.375000 0.984375
vt 0.375000 0.937500
vt 0.265625 0.937500
vt 0.265625 0.984375
vt 0.281250 0.984375
vt 0.281250 0.937500
vt 0.312500 0.937500
vt 0.312500 0.984375
vt 0.328125 0.984375
vt 0.328125 0.937500
vt 0.953125 0.453125
vt 0.953125 0.468750
vt 0.984375 0.468750
vt 0.984375 0.453125
vt 0.953125 0.359375
vt 0.953125 0.375000
vt 0.968750 0.375000
vt 0.968750 0.359375
vt 0.015625 0.312500
vt 0.015625 0.328125
vt 0.031250 0.328125
vt 0.031250 0.312500
vt 0.859375 0.359375
vt 0.859375 0.375000
vt 0.875000 0.375000
vt 0.875000 0.359375
vt 0.906250 0.359375
vt 0.906250 0.375000
vt 0.921875 0.375000
vt 0.921875 0.359375
vt 0.156250 0.312500
vt 0.156250 0.328125
vt 0.171875 0.328125
vt 0.171875 0.312500
vt 0.203125 0.312500
vt 0.203125 0.328125
vt 0.218750 0.328125
vt 0.218750 0.312500
vt 0.062500 0.312500
vt 0.062500 0.328125
vt 0.078125 0.328125
vt 0.078125 0.312500
vt 0.109375 0.312500
vt 0.109375 0.328125
vt 0.125000 0.328125
vt 0.125000 0.312500
vt 0.812500 0.359375
vt 0.812500 0.375000
vt 0.828125 0.375000
vt 0.828125 0.359375
vt 0.531250 0.359375
vt 0.531250 0.375000
vt 0.546875 0.375000
vt 0.546875 0.359375
vt 0.578125 0.359375
vt 0.578125 0.375000
vt 0.593750 0.375000
vt 0.593750 0.359375
vt 0.437500 0.359375
vt 0.437500 0.375000
vt 0.453125 0.375000
vt 0.453125 0.359375
vt 0.484375 0.359375
vt 0.484375 0.375000
vt 0.500000 0.375000
vt 0.500000 0.359375
vt 0.718750 0.359375
vt 0.718750 0.375000
vt 0.734375 0.375000
vt 0.734375 0.359375
vt 0.765625 0.359375
vt 0.765625 0.375000
vt 0.781250 0.375000
vt 0.781250 0.359375
vt 0.625000 0.359375
vt 0.625000 0.375000
vt 0.640625 0.375000
vt 0.640625 0.359375
vt 0.671875 0.359375
vt 0.671875 0.375000
vt 0.687500 0.375000
vt 0.687500 0.359375
s 0
usemtl Filomiau_material
f 1/1/1 2/2/1 3/3/1
f 1/1/1 3/3/1 4/4/1
f 5/5/1 6/6/1 7/7/1
f 5/5/1 7/7/1 8/8/1
f 9/9/1 10/10/1 11/11/1
f 9/9/1 11/11/1 12/12/1
f 13/13/1 14/14/1 15/15/1
f 13/13/1 15/15/1 16/16/1
f 17/17/1 18/18/1 19/19/1
f 17/17/1 19/19/1 20/20/1
f 21/21/1 22/22/1 23/23/1
f 21/21/1 23/23/1 24/24/1
f 25/25/1 26/26/1 27/27/1
f 25/25/1 27/27/1 28/28/1
f 29/29/1 30/30/1 31/31/1
f 29/29/1 31/31/1 32/32/1
f 33/33/1 34/34/1 35/35/1
f 33/33/1 35/35/1 36/36/1
f 37/37/1 38/38/1 39/39/1
f 37/37/1 39/39/1 40/40/1
f 41/41/1 42/42/1 43/43/1
f 41/41/1 43/43/1 44/44/1
f 45/45/1 46/46/1 47/47/1
f 45/45/1 47/47/1 48/48/1
f 49/49/1 50/50/1 51/51/1
f 49/49/1 51/51/1 52/52/1
f 53/53/1 54/54/1 55/55/1
f 53/53/1 55/55/1 56/56/1
f 57/57/1 58/58/1 59/59/1
f 57/57/1 59/59/1 60/60/1
f 61/61/1 62/62/1 63/63/1
f 61/61/1 63/63/1 64/64/1
f 65/65/1 66/66/1 67/67/1
f 65/65/1 67/67/1 68/68/1
f 69/69/1 70/70/1 71/71/1
f 69/69/1 71/71/1 72/72/1
f 73/73/1 74/74/1 75/75/1
f 73/73/1 75/75/1 76/76/1
f 77/77/1 78/78/1 79/79/1
f 77/77/1 79/79/1 80/80/1
f 81/81/1 82/82/1 83/83/1
f 81/81/1 83/83/1 84/84/1
f 85/85/1 86/86/1 87/87/1
f 85/85/1 87/87/1 88/88/1
f 89/89/1 90/90/1 91/91/1
f 89/89/1 91/91/1 92/92/1
f 93/93/1 94/94/1 95/95/1
f 93/93/1 95/95/1 96/96/1
f 97/97/1 98/98/1 99/99/1
f 97/97/1 99/99/1 100/100/1
f 101/101/1 102/102/1 103/103/1
f 101/101/1 103/103/1 104/104/1
f 105/105/1 106/106/1 107/107/1
f 105/105/1 107/107/1 108/108/1
f 109/109/1 110/110/1 111/111/1
f 109/109/1 111/111/1 112/112/1
f 113/113/1 114/114/1 115/115/1
f 113/113/1 115/115/1 116/116/1
f 117/117/1 118/118/1 119/119/1
f 117/117/1 119/119/1 120/120/1
f 121/121/1 122/122/1 123/123/1
f 121/121/1 123/123/1 124/124/1
f 125/125/1 126/126/1 127/127/1
f 125/125/1 127/127/1 128/128/1
f 129/129/1 130/130/1 131/131/1
f 129/129/1 131/131/1 132/132/1
f 133/133/1 134/134/1 135/135/1
f 133/133/1 135/135/1 136/136/1
f 137/137/1 138/138/1 139/139/1
f 137/137/1 139/139/1 140/140/1
f 141/141/1 142/142/1 143/143/1
f 141/141/1 143/143/1 144/144/1
f 145/145/2 146/146/2 147/147/2
f 145/145/2 147/147/2 148/148/2
f 149/149/2 150/150/2 151/151/2
f 149/149/2 151/151/2 152/152/2
f 153/153/2 154/154/2 155/155/2
f 153/153/2 155/155/2 156/156/2
f 157/157/2 158/158/2 159/159/2
f 157/157/2 159/159/2 160/160/2
f 161/161/2 162/162/2 163/163/2
f 161/161/2 163/163/2 164/164/2
f 165/165/2 166/166/2 167/167/2
f 165/165/2 167/167/2 168/168/2
f 169/169/2 170/170/2 171/171/2
f 169/169/2 171/171/2 172/172/2
f 173/173/2 174/174/2 175/175/2
f 173/173/2 175/175/2 176/176/2
f 177/177/2 178/178/2 179/179/2
f 177/177/2 179/179/2 180/180/2
f 181/181/2 182/182/2 183/183/2
f 181/181/2 183/183/2 184/184/2
f 185/185/2 186/186/2 187/187/2
f 185/185/2 187/187/2 188/188/2
f 189/189/2 190/190/2 191/191/2
f 189/189/2 191/191/2 192/192/2
f 193/193/2 194/194/2 195/195/2
f 193/193/2 195/195/2 196/196/2
f 197/197/2 198/198/2 199/199/2
f 197/197/2 199/199/2 200/200/2
f 201/201/2 202/202/2 203/203/2
f 201/201/2 203/203/2 204/204/2
f 205/205/2 206/206/2 207/207/2
f 205/205/2 207/207/2 208/208/2
f 209/209/2 210/210/2 211/211/2
f 209/209/2 211/211/2 212/212/2
f 213/213/2 214/214/2 215/215/2
f 213/213/2 215/215/2 216/216/2
f 217/217/2 218/218/2 219/219/2
f 217/217/2 219/219/2 220/220/2
f 221/221/2 222/222/2 223/223/2
f 221/221/2 223/223/2 224/224/2
f 225/225/2 226/226/2 227/227/2
f 225/225/2 227/227/2 228/228/2
f 229/229/2 230/230/2 231/231/2
f 229/229/2 231/231/2 232/232/2
f 233/233/2 234/234/2 235/235/2
f 233/233/2 235/235/2 236/236/2
f 237/237/2 238/238/2 239/239/2
f 237/237/2 239/239/2 240/240/2
f 241/241/2 242/242/2 243/243/2
f 241/241/2 243/243/2 244/244/2
f 245/245/2 246/246/2 247/247/2
f 245/245/2 247/247/2 248/248/2
f 249/249/2 250/250/2 251/251/2
f 249/249/2 251/251/2 252/252/2
f 253/253/2 254/254/2 255/255/2
f 253/253/2 255/255/2 256/256/2
f 257/257/2 258/258/2 259/259/2
f 257/257/2 259/259/2 260/260/2
f 261/261/2 262/262/2 263/263/2
f 261/261/2 263/263/2 264/264/2
f 265/265/2 266/266/2 267/267/2
f 265/265/2 267/267/2 268/268/2
f 269/269/2 270/270/2 271/271/2
f 269/269/2 271/271/2 272/272/2
f 273/273/2 274/274/2 275/275/2
f 273/273/2 275/275/2 276/276/2
f 277/277/2 278/278/2 279/279/2
f 277/277/2 279/279/2 280/280/2
f 281/281/2 282/282/2 283/283/2
f 281/281/2 283/283/2 284/284/2
f 285/285/2 286/286/2 287/287/2
f 285/285/2 287/287/2 288/288/2
f 289/289/3 290/290/3 291/291/3
f 289/289/3 291/291/3 292/292/3
f 293/293/3 294/294/3 295/295/3
f 293/293/3 295/295/3 296/296/3
f 297/297/3 298/298/3 299/299/3
f 297/297/3 299/299/3 300/300/3
f 301/301/3 302/302/3 303/303/3
f 301/301/3 303/303/3 304/304/3
f 305/305/3 306/306/3 307/307/3
f 305/305/3 307/307/3 308/308/3
f 309/309/3 310/310/3 311/311/3
f 309/309/3 311/311/3 312/312/3
f 313/313/3 314/314/3 315/315/3
f 313/313/3 315/315/3 316/316/3
f 317/317/3 318/318/3 319/319/3
f 317/317/3 319/319/3 320/320/3
f 321/321/3 322/322/3 323/323/3
f 321/321/3 323/323/3 324/324/3
f 325/325/3 326/326/3 327/327/3
f 325/325/3 327/327/3 328/328/3
f 329/329/3 330/330/3 331/331/3
f 329/329/3 331/331/3 332/332/3
f 333/333/3 334/334/3 335/335/3
f 333/333/3 335/335/3 336/336/3
f 337/337/3 338/338/3 339/339/3
f 337/337/3 339/339/3 340/340/3
f 341/341/3 342/342/3 343/343/3
f 341/341/3 343/343/3 344/344/3
f 345/345/3 346/346/3 347/347/3
f 345/345/3 347/347/3 348/348/3
f 349/349/3 350/350/3 351/351/3
f 349/349/3 351/351/3 352/352/3
f 353/353/3 354/354/3 355/355/3
f 353/353/3 355/355/3 356/356/3
f 357/357/3 358/358/3 359/359/3
f 357/357/3 359/359/3 360/360/3
f 361/361/3 362/362/3 363/363/3
f 361/361/3 363/363/3 364/364/3
f 365/365/3 366/366/3 367/367/3
f 365/365/3 367/367/3 368/368/3
f 369/369/3 370/370/3 371/371/3
f 369/369/3 371/371/3 372/372/3
f 373/373/3 374/374/3 375/375/3
f 373/373/3 375/375/3 376/376/3
f 377/377/3 378/378/3 379/379/3
f 377/377/3 379/379/3 380/380/3
f 381/381/3 382/382/3 383/383/3
f 381/381/3 383/383/3 384/384/3
f 385/385/3 386/386/3 387/387/3
f 385/385/3 387/387/3 388/388/3
f 389/389/3 390/390/3 391/391/3
f 389/389/3 391/391/3 392/392/3
f 393/393/3 394/394/3 395/395/3
f 393/393/3 395/395/3 396/396/3
f 397/397/3 398/398/3 399/399/3
f 397/397/3 399/399/3 400/400/3
f 401/401/3 402/402/3 403/403/3
f 401/401/3 403/403/3 404/404/3
f 405/405/3 406/406/3 407/407/3
f 405/405/3 407/407/3 408/408/3
f 409/409/3 410/410/3 411/411/3
f 409/409/3 411/411/3 412/412/3
f 413/413/4 414/414/4 415/415/4
f 413/413/4 415/415/4 416/416/4
f 417/417/4 418/418/4 419/419/4
f 417/417/4 419/419/4 420/420/4
f 421/421/4 422/422/4 423/423/4
f 421/421/4 423/423/4 424/424/4
f 425/425/4 426/426/4 427/427/4
f 425/425/4 427/427/4 428/428/4
f 429/429/4 430/430/4 431/431/4
f 429/429/4 431/431/4 432/432/4
f 433/433/4 434/434/4 435/435/4
f 433/433/4 435/435/4 436/436/4
f 437/437/4 438/438/4 439/439/4
f 437/437/4 439/439/4 440/440/4
f 441/441/4 442/442/4 443/443/4
f 441/441/4 443/443/4 444/444/4
f 445/445/4 446/446/4 447/447/4
f 445/445/4 447/447/4 448/448/4
f 449/449/4 450/450/4 451/451/4
f 449/449/4 451/451/4 452/452/4
f 453/453/4 454/454/4 455/455/4
f 453/453/4 455/455/4 456/456/4
f 457/457/4 458/458/4 459/459/4
f 457/457/4 459/459/4 460/460/4
f 461/461/4 462/462/4 463/463/4
f 461/461/4 463/463/4 464/464/4
f 465/465/4 466/466/4 467/467/4
f 465/465/4 467/467/4 468/468/4
f 469/469/4 470/470/4 471/471/4
f 469/469/4 471/471/4 472/472/4
f 473/473/4 474/474/4 475/475/4
f 473/473/4 475/475/4 476/476/4
f 477/477/4 478/478/4 479/479/4
f 477/477/4 479/479/4 480/480/4
f 481/481/4 482/482/4 483/483/4
f 481/481/4 483/483/4 484/484/4
f 485/485/4 486/486/4 487/487/4
f 485/485/4 487/487/4 488/488/4
f 489/489/4 490/490/4 491/491/4
f 489/489/4 491/491/4 492/492/4
f 493/493/4 494/494/4 495/495/4
f 493/493/4 495/495/4 496/496/4
f 497/497/4 498/498/4 499/499/4
f 497/497/4 499/499/4 500/500/4
f 501/501/4 502/502/4 503/503/4
f 501/501/4 503/503/4 504/504/4
f 505/505/4 506/506/4 507/507/4
f 505/505/4 507/507/4 508/508/4
f 509/509/4 510/510/4 511/511/4
f 509/509/4 511/511/4 512/512/4
f 513/513/4 514/514/4 515/515/4
f 513/513/4 515/515/4 516/516/4
f 517/517/4 518/518/4 519/519/4
f 517/517/4 519/519/4 520/520/4
f 521/521/4 522/522/4 523/523/4
f 521/521/4 523/523/4 524/524/4
f 525/525/4 526/526/4 527/527/4
f 525/525/4 527/527/4 528/528/4
f 529/529/5 530/530/5 531/531/5
f 529/529/5 531/531/5 532/532/5
f 533/533/5 534/534/5 535/535/5
f 533/533/5 535/535/5 536/536/5
f 537/537/5 538/538/5 539/539/5
f 537/537/5 539/539/5 540/540/5
f 541/541/5 542/542/5 543/543/5
f 541/541/5 543/543/5 544/544/5
f 545/545/5 546/546/5 547/547/5
f 545/545/5 547/547/5 548/548/5
f 549/549/5 550/550/5 551/551/5
f 549/549/5 551/551/5 552/552/5
f 553/553/5 554/554/5 555/555/5
f 553/553/5 555/555/5 556/556/5
f 557/557/5 558/558/5 559/559/5
f 557/557/5 559/559/5 560/560/5
f 561/561/5 562/562/5 563/563/5
f 561/561/5 563/563/5 564/564/5
f 565/565/5 566/566/5 567/567/5
f 565/565/5 567/567/5 568/568/5
f 569/569/5 570/570/5 571/571/5
f 569/569/5 571/571/5 572/572/5
f 573/573/5 574/574/5 575/575/5
f 573/573/5 575/575/5 576/576/5
f 577/577/5 578/578/5 579/579/5
f 577/577/5 579/579/5 580/580/5
f 581/581/5 582/582/5 583/583/5
f 581/581/5 583/583/5 584/584/5
f 585/585/5 586/586/5 587/587/5
f 585/585/5 587/587/5 588/588/5
f 589/589/5 590/590/5 591/591/5
f 589/589/5 591/591/5 592/592/5
f 593/593/5 594/594/5 595/595/5
f 593/593/5 595/595/5 596/596/5
f 597/597/5 598/598/5 599/599/5
f 597/597/5 599/599/5 600/600/5
f 601/601/5 602/602/5 603/603/5
f 601/601/5 603/603/5 604/604/5
f 605/605/5 606/606/5 607/607/5
f 605/605/5 607/607/5 608/608/5
f 609/609/5 610/610/5 611/611/5
f 609/609/5 611/611/5 612/612/5
f 613/613/5 614/614/5 615/615/5
f 613/613/5 615/615/5 616/616/5
f 617/617/5 618/618/5 619/619/5
f 617/617/5 619/619/5 620/620/5
f 621/621/5 622/622/5 623/623/5
f 621/621/5 623/623/5 624/624/5
f 625/625/5 626/626/5 627/627/5
f 625/625/5 627/627/5 628/628/5
f 629/629/5 630/630/5 631/631/5
f 629/629/5 631/631/5 632/632/5
f 633/633/5 634/634/5 635/635/5
f 633/633/5 635/635/5 636/636/5
f 637/637/5 638/638/5 639/639/5
f 637/637/5 639/639/5 640/640/5
f 641/641/5 642/642/5 643/643/5
f 641/641/5 643/643/5 644/644/5
f 645/645/5 646/646/5 647/647/5
f 645/645/5 647/647/5 648/648/5
f 649/649/5 650/650/5 651/651/5
f 649/649/5 651/651/5 652/652/5
f 653/653/6 654/654/6 655/655/6
f 653/653/6 655/655/6 656/656/6
f 657/657/6 658/658/6 659/659/6
f 657/657/6 659/659/6 660/660/6
f 661/661/6 662/662/6 663/663/6
f 661/661/6 663/663/6 664/664/6
f 665/665/6 666/666/6 667/667/6
f 665/665/6 667/667/6 668/668/6
f 669/669/6 670/670/6 671/671/6
f 669/669/6 671/671/6 672/672/6
f 673/673/6 674/674/6 675/675/6
f 673/673/6 675/675/6 676/676/6
f 677/677/6 678/678/6 679/679/6
f 677/677/6 679/679/6 680/680/6
f 681/681/6 682/682/6 683/683/6
f 681/681/6 683/683/6 684/684/6
f 685/685/6 686/686/6 687/687/6
f 685/685/6 687/687/6 688/688/6
f 689/689/6 690/690/6 691/691/6
f 689/689/6 691/691/6 692/692/6
f 693/693/6 694/694/6 695/695/6
f 693/693/6 695/695/6 696/696/6
f 697/697/6 698/698/6 699/699/6
f 697/697/6 699/699/6 700/700/6
f 701/701/6 702/702/6 703/703/6
f 701/701/6 703/703/6 704/704/6
f 705/705/6 706/706/6 707/707/6
f 705/705/6 707/707/6 708/708/6
f 709/709/6 710/710/6 711/711/6
f 709/709/6 711/711/6 712/712/6
f 713/713/6 714/714/6 715/715/6
f 713/713/6 715/715/6 716/716/6
f 717/717/6 718/718/6 719/719/6
f 717/717/6 719/719/6 720/720/6
f 721/721/6 722/722/6 723/723/6
f 721/721/6 723/723/6 724/724/6
f 725/725/6 726/726/6 727/727/6
f 725/725/6 727/727/6 728/728/6
f 729/729/6 730/730/6 731/731/6
f 729/729/6 731/731/6 732/732/6
f 733/733/6 734/734/6 735/735/6
f 733/733/6 735/735/6 736/736/6
f 737/737/6 738/738/6 739/739/6
f 737/737/6 739/739/6 740/740/6
f 741/741/6 742/742/6 743/743/6
f 741/741/6 743/743/6 744/744/6
f 745/745/6 746/746/6 747/747/6
f 745/745/6 747/747/6 748/748/6
f 749/749/6 750/750/6 751/751/6
f 749/749/6 751/751/6 752/752/6
f 753/753/6 754/754/6 755/755/6
f 753/753/6 755/755/6 756/756/6
f 757/757/6 758/758/6 759/759/6
f 757/757/6 759/759/6 760/760/6
f 761/761/6 762/762/6 763/763/6
f 761/761/6 763/763/6 764/764/6
