# Blender 5.2.1 LTS
# www.blender.org
mtllib nights_edge.mtl
o Object_11
v 0.022917 0.275000 0.412500
v 0.022917 0.229167 0.412500
v 0.022917 0.275000 0.183333
v 0.022917 0.229167 0.183333
v -0.022917 0.275000 0.183333
v -0.022917 0.229167 0.183333
v -0.022917 0.275000 0.412500
v -0.022917 0.229167 0.412500
v -0.022917 0.275000 0.183333
v -0.022917 0.275000 0.412500
v 0.022917 0.275000 0.183333
v 0.022917 0.275000 0.412500
v -0.022917 0.229167 0.412500
v -0.022917 0.229167 0.183333
v 0.022917 0.229167 0.412500
v 0.022917 0.229167 0.183333
v -0.022917 0.275000 0.412500
v -0.022917 0.229167 0.412500
v 0.022917 0.275000 0.412500
v 0.022917 0.229167 0.412500
v 0.022917 0.275000 0.183333
v 0.022917 0.229167 0.183333
v -0.022917 0.275000 0.183333
v -0.022917 0.229167 0.183333
v 0.022917 0.458333 0.504167
v 0.022917 0.412500 0.504167
v 0.022917 0.458333 0.320833
v 0.022917 0.412500 0.320833
v -0.022917 0.458333 0.320833
v -0.022917 0.412500 0.320833
v -0.022917 0.458333 0.504167
v -0.022917 0.412500 0.504167
v -0.022917 0.458333 0.320833
v -0.022917 0.458333 0.504167
v 0.022917 0.458333 0.320833
v 0.022917 0.458333 0.504167
v -0.022917 0.412500 0.504167
v -0.022917 0.412500 0.320833
v 0.022917 0.412500 0.504167
v 0.022917 0.412500 0.320833
v -0.022917 0.458333 0.504167
v -0.022917 0.412500 0.504167
v 0.022917 0.458333 0.504167
v 0.022917 0.412500 0.504167
v 0.022917 0.458333 0.320833
v 0.022917 0.412500 0.320833
v -0.022917 0.458333 0.320833
v -0.022917 0.412500 0.320833
v 0.022917 0.412500 0.504167
v 0.022917 0.366667 0.504167
v 0.022917 0.412500 0.275000
v 0.022917 0.366667 0.275000
v -0.022917 0.412500 0.275000
v -0.022917 0.366667 0.275000
v -0.022917 0.412500 0.504167
v -0.022917 0.366667 0.504167
v -0.022917 0.412500 0.275000
v -0.022917 0.412500 0.504167
v 0.022917 0.412500 0.275000
v 0.022917 0.412500 0.504167
v -0.022917 0.366667 0.504167
v -0.022917 0.366667 0.275000
v 0.022917 0.366667 0.504167
v 0.022917 0.366667 0.275000
v -0.022917 0.412500 0.504167
v -0.022917 0.366667 0.504167
v 0.022917 0.412500 0.504167
v 0.022917 0.366667 0.504167
v 0.022917 0.412500 0.275000
v 0.022917 0.366667 0.275000
v -0.022917 0.412500 0.275000
v -0.022917 0.366667 0.275000
v 0.022917 0.366667 0.458333
v 0.022917 0.320833 0.458333
v 0.022917 0.366667 0.229167
v 0.022917 0.320833 0.229167
v -0.022917 0.366667 0.229167
v -0.022917 0.320833 0.229167
v -0.022917 0.366667 0.458333
v -0.022917 0.320833 0.458333
v -0.022917 0.366667 0.229167
v -0.022917 0.366667 0.458333
v 0.022917 0.366667 0.229167
v 0.022917 0.366667 0.458333
v -0.022917 0.320833 0.458333
v -0.022917 0.320833 0.229167
v 0.022917 0.320833 0.458333
v 0.022917 0.320833 0.229167
v -0.022917 0.366667 0.458333
v -0.022917 0.320833 0.458333
v 0.022917 0.366667 0.458333
v 0.022917 0.320833 0.458333
v 0.022917 0.366667 0.229167
v 0.022917 0.320833 0.229167
v -0.022917 0.366667 0.229167
v -0.022917 0.320833 0.229167
v 0.022917 0.229167 0.412500
v 0.022917 0.183333 0.412500
v 0.022917 0.229167 0.137500
v 0.022917 0.183333 0.137500
v -0.022917 0.229167 0.137500
v -0.022917 0.183333 0.137500
v -0.022917 0.229167 0.412500
v -0.022917 0.183333 0.412500
v -0.022917 0.229167 0.137500
v -0.022917 0.229167 0.412500
v 0.022917 0.229167 0.137500
v 0.022917 0.229167 0.412500
v -0.022917 0.183333 0.412500
v -0.022917 0.183333 0.137500
v 0.022917 0.183333 0.412500
v 0.022917 0.183333 0.137500
v -0.022917 0.229167 0.412500
v -0.022917 0.183333 0.412500
v 0.022917 0.229167 0.412500
v 0.022917 0.183333 0.412500
v 0.022917 0.229167 0.137500
v 0.022917 0.183333 0.137500
v -0.022917 0.229167 0.137500
v -0.022917 0.183333 0.137500
v 0.022917 0.183333 0.366667
v 0.022917 0.137500 0.366667
v 0.022917 0.183333 0.091667
v 0.022917 0.137500 0.091667
v -0.022917 0.183333 0.091667
v -0.022917 0.137500 0.091667
v -0.022917 0.183333 0.366667
v -0.022917 0.137500 0.366667
v -0.022917 0.183333 0.091667
v -0.022917 0.183333 0.366667
v 0.022917 0.183333 0.091667
v 0.022917 0.183333 0.366667
v -0.022917 0.137500 0.366667
v -0.022917 0.137500 0.091667
v 0.022917 0.137500 0.366667
v 0.022917 0.137500 0.091667
v -0.022917 0.183333 0.366667
v -0.022917 0.137500 0.366667
v 0.022917 0.183333 0.366667
v 0.022917 0.137500 0.366667
v 0.022917 0.183333 0.091667
v 0.022917 0.137500 0.091667
v -0.022917 0.183333 0.091667
v -0.022917 0.137500 0.091667
v 0.022917 0.137500 0.320833
v 0.022917 0.091667 0.320833
v 0.022917 0.137500 0.045833
v 0.022917 0.091667 0.045833
v -0.022917 0.137500 0.045833
v -0.022917 0.091667 0.045833
v -0.022917 0.137500 0.320833
v -0.022917 0.091667 0.320833
v -0.022917 0.137500 0.045833
v -0.022917 0.137500 0.320833
v 0.022917 0.137500 0.045833
v 0.022917 0.137500 0.320833
v -0.022917 0.091667 0.320833
v -0.022917 0.091667 0.045833
v 0.022917 0.091667 0.320833
v 0.022917 0.091667 0.045833
v -0.022917 0.137500 0.320833
v -0.022917 0.091667 0.320833
v 0.022917 0.137500 0.320833
v 0.022917 0.091667 0.320833
v 0.022917 0.137500 0.045833
v 0.022917 0.091667 0.045833
v -0.022917 0.137500 0.045833
v -0.022917 0.091667 0.045833
v 0.022917 0.091667 0.275000
v 0.022917 0.045833 0.275000
v 0.022917 0.091667 0.000000
v 0.022917 0.045833 0.000000
v -0.022917 0.091667 0.000000
v -0.022917 0.045833 0.000000
v -0.022917 0.091667 0.275000
v -0.022917 0.045833 0.275000
v -0.022917 0.091667 0.000000
v -0.022917 0.091667 0.275000
v 0.022917 0.091667 0.000000
v 0.022917 0.091667 0.275000
v -0.022917 0.045833 0.275000
v -0.022917 0.045833 0.000000
v 0.022917 0.045833 0.275000
v 0.022917 0.045833 0.000000
v -0.022917 0.091667 0.275000
v -0.022917 0.045833 0.275000
v 0.022917 0.091667 0.275000
v 0.022917 0.045833 0.275000
v 0.022917 0.091667 0.000000
v 0.022917 0.045833 0.000000
v -0.022917 0.091667 0.000000
v -0.022917 0.045833 0.000000
v 0.022917 0.045833 0.229167
v 0.022917 0.000000 0.229167
v 0.022917 0.045833 -0.091667
v 0.022917 0.000000 -0.091667
v -0.022917 0.045833 -0.091667
v -0.022917 0.000000 -0.091667
v -0.022917 0.045833 0.229167
v -0.022917 0.000000 0.229167
v -0.022917 0.045833 -0.091667
v -0.022917 0.045833 0.229167
v 0.022917 0.045833 -0.091667
v 0.022917 0.045833 0.229167
v -0.022917 0.000000 0.229167
v -0.022917 0.000000 -0.091667
v 0.022917 0.000000 0.229167
v 0.022917 0.000000 -0.091667
v -0.022917 0.045833 0.229167
v -0.022917 0.000000 0.229167
v 0.022917 0.045833 0.229167
v 0.022917 0.000000 0.229167
v 0.022917 0.045833 -0.091667
v 0.022917 0.000000 -0.091667
v -0.022917 0.045833 -0.091667
v -0.022917 0.000000 -0.091667
v 0.022917 0.000000 0.183333
v 0.022917 -0.045833 0.183333
v 0.022917 0.000000 -0.137500
v 0.022917 -0.045833 -0.137500
v -0.022917 0.000000 -0.137500
v -0.022917 -0.045833 -0.137500
v -0.022917 0.000000 0.183333
v -0.022917 -0.045833 0.183333
v -0.022917 0.000000 -0.137500
v -0.022917 0.000000 0.183333
v 0.022917 0.000000 -0.137500
v 0.022917 0.000000 0.183333
v -0.022917 -0.045833 0.183333
v -0.022917 -0.045833 -0.137500
v 0.022917 -0.045833 0.183333
v 0.022917 -0.045833 -0.137500
v -0.022917 0.000000 0.183333
v -0.022917 -0.045833 0.183333
v 0.022917 0.000000 0.183333
v 0.022917 -0.045833 0.183333
v 0.022917 0.000000 -0.137500
v 0.022917 -0.045833 -0.137500
v -0.022917 0.000000 -0.137500
v -0.022917 -0.045833 -0.137500
v 0.022917 -0.045833 0.137500
v 0.022917 -0.091667 0.137500
v 0.022917 -0.045833 -0.183333
v 0.022917 -0.091667 -0.183333
v -0.022917 -0.045833 -0.183333
v -0.022917 -0.091667 -0.183333
v -0.022917 -0.045833 0.137500
v -0.022917 -0.091667 0.137500
v -0.022917 -0.045833 -0.183333
v -0.022917 -0.045833 0.137500
v 0.022917 -0.045833 -0.183333
v 0.022917 -0.045833 0.137500
v -0.022917 -0.091667 0.137500
v -0.022917 -0.091667 -0.183333
v 0.022917 -0.091667 0.137500
v 0.022917 -0.091667 -0.183333
v -0.022917 -0.045833 0.137500
v -0.022917 -0.091667 0.137500
v 0.022917 -0.045833 0.137500
v 0.022917 -0.091667 0.137500
v 0.022917 -0.045833 -0.183333
v 0.022917 -0.091667 -0.183333
v -0.022917 -0.045833 -0.183333
v -0.022917 -0.091667 -0.183333
v 0.022917 -0.091667 0.091667
v 0.022917 -0.137500 0.091667
v 0.022917 -0.091667 -0.045833
v 0.022917 -0.137500 -0.045833
v -0.022917 -0.091667 -0.045833
v -0.022917 -0.137500 -0.045833
v -0.022917 -0.091667 0.091667
v -0.022917 -0.137500 0.091667
v -0.022917 -0.091667 -0.045833
v -0.022917 -0.091667 0.091667
v 0.022917 -0.091667 -0.045833
v 0.022917 -0.091667 0.091667
v -0.022917 -0.137500 0.091667
v -0.022917 -0.137500 -0.045833
v 0.022917 -0.137500 0.091667
v 0.022917 -0.137500 -0.045833
v -0.022917 -0.091667 0.091667
v -0.022917 -0.137500 0.091667
v 0.022917 -0.091667 0.091667
v 0.022917 -0.137500 0.091667
v 0.022917 -0.091667 -0.045833
v 0.022917 -0.137500 -0.045833
v -0.022917 -0.091667 -0.045833
v -0.022917 -0.137500 -0.045833
v 0.022917 -0.091667 -0.091667
v 0.022917 -0.137500 -0.091667
v 0.022917 -0.091667 -0.229167
v 0.022917 -0.137500 -0.229167
v -0.022917 -0.091667 -0.229167
v -0.022917 -0.137500 -0.229167
v -0.022917 -0.091667 -0.091667
v -0.022917 -0.137500 -0.091667
v -0.022917 -0.091667 -0.229167
v -0.022917 -0.091667 -0.091667
v 0.022917 -0.091667 -0.229167
v 0.022917 -0.091667 -0.091667
v -0.022917 -0.137500 -0.091667
v -0.022917 -0.137500 -0.229167
v 0.022917 -0.137500 -0.091667
v 0.022917 -0.137500 -0.229167
v -0.022917 -0.091667 -0.091667
v -0.022917 -0.137500 -0.091667
v 0.022917 -0.091667 -0.091667
v 0.022917 -0.137500 -0.091667
v 0.022917 -0.091667 -0.229167
v 0.022917 -0.137500 -0.229167
v -0.022917 -0.091667 -0.229167
v -0.022917 -0.137500 -0.229167
v 0.022917 -0.137500 0.045833
v 0.022917 -0.183333 0.045833
v 0.022917 -0.137500 -0.091667
v 0.022917 -0.183333 -0.091667
v -0.022917 -0.137500 -0.091667
v -0.022917 -0.183333 -0.091667
v -0.022917 -0.137500 0.045833
v -0.022917 -0.183333 0.045833
v -0.022917 -0.137500 -0.091667
v -0.022917 -0.137500 0.045833
v 0.022917 -0.137500 -0.091667
v 0.022917 -0.137500 0.045833
v -0.022917 -0.183333 0.045833
v -0.022917 -0.183333 -0.091667
v 0.022917 -0.183333 0.045833
v 0.022917 -0.183333 -0.091667
v -0.022917 -0.137500 0.045833
v -0.022917 -0.183333 0.045833
v 0.022917 -0.137500 0.045833
v 0.022917 -0.183333 0.045833
v 0.022917 -0.137500 -0.091667
v 0.022917 -0.183333 -0.091667
v -0.022917 -0.137500 -0.091667
v -0.022917 -0.183333 -0.091667
v 0.022917 -0.137500 -0.137500
v 0.022917 -0.183333 -0.137500
v 0.022917 -0.137500 -0.229167
v 0.022917 -0.183333 -0.229167
v -0.022917 -0.137500 -0.229167
v -0.022917 -0.183333 -0.229167
v -0.022917 -0.137500 -0.137500
v -0.022917 -0.183333 -0.137500
v -0.022917 -0.137500 -0.229167
v -0.022917 -0.137500 -0.137500
v 0.022917 -0.137500 -0.229167
v 0.022917 -0.137500 -0.137500
v -0.022917 -0.183333 -0.137500
v -0.022917 -0.183333 -0.229167
v 0.022917 -0.183333 -0.137500
v 0.022917 -0.183333 -0.229167
v -0.022917 -0.137500 -0.137500
v -0.022917 -0.183333 -0.137500
v 0.022917 -0.137500 -0.137500
v 0.022917 -0.183333 -0.137500
v 0.022917 -0.137500 -0.229167
v 0.022917 -0.183333 -0.229167
v -0.022917 -0.137500 -0.229167
v -0.022917 -0.183333 -0.229167
v 0.022917 -0.183333 0.000000
v 0.022917 -0.229167 0.000000
v 0.022917 -0.183333 -0.229167
v 0.022917 -0.229167 -0.229167
v -0.022917 -0.183333 -0.229167
v -0.022917 -0.229167 -0.229167
v -0.022917 -0.183333 0.000000
v -0.022917 -0.229167 0.000000
v -0.022917 -0.183333 -0.229167
v -0.022917 -0.183333 0.000000
v 0.022917 -0.183333 -0.229167
v 0.022917 -0.183333 0.000000
v -0.022917 -0.229167 0.000000
v -0.022917 -0.229167 -0.229167
v 0.022917 -0.229167 0.000000
v 0.022917 -0.229167 -0.229167
v -0.022917 -0.183333 0.000000
v -0.022917 -0.229167 0.000000
v 0.022917 -0.183333 0.000000
v 0.022917 -0.229167 0.000000
v 0.022917 -0.183333 -0.229167
v 0.022917 -0.229167 -0.229167
v -0.022917 -0.183333 -0.229167
v -0.022917 -0.229167 -0.229167
v 0.022917 -0.229167 -0.045833
v 0.022917 -0.275000 -0.045833
v 0.022917 -0.229167 -0.229167
v 0.022917 -0.275000 -0.229167
v -0.022917 -0.229167 -0.229167
v -0.022917 -0.275000 -0.229167
v -0.022917 -0.229167 -0.045833
v -0.022917 -0.275000 -0.045833
v -0.022917 -0.229167 -0.229167
v -0.022917 -0.229167 -0.045833
v 0.022917 -0.229167 -0.229167
v 0.022917 -0.229167 -0.045833
v -0.022917 -0.275000 -0.045833
v -0.022917 -0.275000 -0.229167
v 0.022917 -0.275000 -0.045833
v 0.022917 -0.275000 -0.229167
v -0.022917 -0.229167 -0.045833
v -0.022917 -0.275000 -0.045833
v 0.022917 -0.229167 -0.045833
v 0.022917 -0.275000 -0.045833
v 0.022917 -0.229167 -0.229167
v 0.022917 -0.275000 -0.229167
v -0.022917 -0.229167 -0.229167
v -0.022917 -0.275000 -0.229167
v 0.045833 -0.275000 0.045833
v 0.045833 -0.412500 0.045833
v 0.045833 -0.275000 -0.366667
v 0.045833 -0.412500 -0.366667
v -0.045833 -0.275000 -0.366667
v -0.045833 -0.412500 -0.366667
v -0.045833 -0.275000 0.045833
v -0.045833 -0.412500 0.045833
v -0.045833 -0.275000 -0.366667
v -0.045833 -0.275000 0.045833
v 0.045833 -0.275000 -0.366667
v 0.045833 -0.275000 0.045833
v -0.045833 -0.412500 0.045833
v -0.045833 -0.412500 -0.366667
v 0.045833 -0.412500 0.045833
v 0.045833 -0.412500 -0.366667
v -0.045833 -0.275000 0.045833
v -0.045833 -0.412500 0.045833
v 0.045833 -0.275000 0.045833
v 0.045833 -0.412500 0.045833
v 0.045833 -0.275000 -0.366667
v 0.045833 -0.412500 -0.366667
v -0.045833 -0.275000 -0.366667
v -0.045833 -0.412500 -0.366667
v 0.022917 -0.366667 -0.366667
v 0.022917 -0.412500 -0.366667
v 0.022917 -0.366667 -0.412500
v 0.022917 -0.412500 -0.412500
v -0.022917 -0.366667 -0.412500
v -0.022917 -0.412500 -0.412500
v -0.022917 -0.366667 -0.366667
v -0.022917 -0.412500 -0.366667
v -0.022917 -0.366667 -0.412500
v -0.022917 -0.366667 -0.366667
v 0.022917 -0.366667 -0.412500
v 0.022917 -0.366667 -0.366667
v -0.022917 -0.412500 -0.366667
v -0.022917 -0.412500 -0.412500
v 0.022917 -0.412500 -0.366667
v 0.022917 -0.412500 -0.412500
v -0.022917 -0.366667 -0.366667
v -0.022917 -0.412500 -0.366667
v 0.022917 -0.366667 -0.366667
v 0.022917 -0.412500 -0.366667
v 0.022917 -0.366667 -0.412500
v 0.022917 -0.412500 -0.412500
v -0.022917 -0.366667 -0.412500
v -0.022917 -0.412500 -0.412500
v 0.022917 -0.412500 -0.275000
v 0.022917 -0.458333 -0.275000
v 0.022917 -0.412500 -0.458333
v 0.022917 -0.458333 -0.458333
v -0.022917 -0.412500 -0.458333
v -0.022917 -0.458333 -0.458333
v -0.022917 -0.412500 -0.275000
v -0.022917 -0.458333 -0.275000
v -0.022917 -0.412500 -0.458333
v -0.022917 -0.412500 -0.275000
v 0.022917 -0.412500 -0.458333
v 0.022917 -0.412500 -0.275000
v -0.022917 -0.458333 -0.275000
v -0.022917 -0.458333 -0.458333
v 0.022917 -0.458333 -0.275000
v 0.022917 -0.458333 -0.458333
v -0.022917 -0.412500 -0.275000
v -0.022917 -0.458333 -0.275000
v 0.022917 -0.412500 -0.275000
v 0.022917 -0.458333 -0.275000
v 0.022917 -0.412500 -0.458333
v 0.022917 -0.458333 -0.458333
v -0.022917 -0.412500 -0.458333
v -0.022917 -0.458333 -0.458333
v 0.022917 -0.458333 -0.320833
v 0.022917 -0.504167 -0.320833
v 0.022917 -0.458333 -0.504167
v 0.022917 -0.504167 -0.504167
v -0.022917 -0.458333 -0.504167
v -0.022917 -0.504167 -0.504167
v -0.022917 -0.458333 -0.320833
v -0.022917 -0.504167 -0.320833
v -0.022917 -0.458333 -0.504167
v -0.022917 -0.458333 -0.320833
v 0.022917 -0.458333 -0.504167
v 0.022917 -0.458333 -0.320833
v -0.022917 -0.504167 -0.320833
v -0.022917 -0.504167 -0.504167
v 0.022917 -0.504167 -0.320833
v 0.022917 -0.504167 -0.504167
v -0.022917 -0.458333 -0.320833
v -0.022917 -0.504167 -0.320833
v 0.022917 -0.458333 -0.320833
v 0.022917 -0.504167 -0.320833
v 0.022917 -0.458333 -0.504167
v 0.022917 -0.504167 -0.504167
v -0.022917 -0.458333 -0.504167
v -0.022917 -0.504167 -0.504167
v 0.022917 -0.504167 -0.366667
v 0.022917 -0.550000 -0.366667
v 0.022917 -0.504167 -0.504167
v 0.022917 -0.550000 -0.504167
v -0.022917 -0.504167 -0.504167
v -0.022917 -0.550000 -0.504167
v -0.022917 -0.504167 -0.366667
v -0.022917 -0.550000 -0.366667
v -0.022917 -0.504167 -0.504167
v -0.022917 -0.504167 -0.366667
v 0.022917 -0.504167 -0.504167
v 0.022917 -0.504167 -0.366667
v -0.022917 -0.550000 -0.366667
v -0.022917 -0.550000 -0.504167
v 0.022917 -0.550000 -0.366667
v 0.022917 -0.550000 -0.504167
v -0.022917 -0.504167 -0.366667
v -0.022917 -0.550000 -0.366667
v 0.022917 -0.504167 -0.366667
v 0.022917 -0.550000 -0.366667
v 0.022917 -0.504167 -0.504167
v 0.022917 -0.550000 -0.504167
v -0.022917 -0.504167 -0.504167
v -0.022917 -0.550000 -0.504167
v 0.045833 -0.229167 -0.183333
v 0.045833 -0.275000 -0.183333
v 0.045833 -0.229167 -0.229167
v 0.045833 -0.275000 -0.229167
v -0.045833 -0.229167 -0.229167
v -0.045833 -0.275000 -0.229167
v -0.045833 -0.229167 -0.183333
v -0.045833 -0.275000 -0.183333
v -0.045833 -0.229167 -0.229167
v -0.045833 -0.229167 -0.183333
v 0.045833 -0.229167 -0.229167
v 0.045833 -0.229167 -0.183333
v -0.045833 -0.275000 -0.183333
v -0.045833 -0.275000 -0.229167
v 0.045833 -0.275000 -0.183333
v 0.045833 -0.275000 -0.229167
v -0.045833 -0.229167 -0.183333
v -0.045833 -0.275000 -0.183333
v 0.045833 -0.229167 -0.183333
v 0.045833 -0.275000 -0.183333
v 0.045833 -0.229167 -0.229167
v 0.045833 -0.275000 -0.229167
v -0.045833 -0.229167 -0.229167
v -0.045833 -0.275000 -0.229167
v 0.045833 0.000000 -0.229167
v 0.045833 -0.275000 -0.229167
v 0.045833 0.000000 -0.366667
v 0.045833 -0.275000 -0.366667
v -0.045833 0.000000 -0.366667
v -0.045833 -0.275000 -0.366667
v -0.045833 0.000000 -0.229167
v -0.045833 -0.275000 -0.229167
v -0.045833 0.000000 -0.366667
v -0.045833 0.000000 -0.229167
v 0.045833 0.000000 -0.366667
v 0.045833 0.000000 -0.229167
v -0.045833 -0.275000 -0.229167
v -0.045833 -0.275000 -0.366667
v 0.045833 -0.275000 -0.229167
v 0.045833 -0.275000 -0.366667
v -0.045833 0.000000 -0.229167
v -0.045833 -0.275000 -0.229167
v 0.045833 0.000000 -0.229167
v 0.045833 -0.275000 -0.229167
v 0.045833 0.000000 -0.366667
v 0.045833 -0.275000 -0.366667
v -0.045833 0.000000 -0.366667
v -0.045833 -0.275000 -0.366667
v 0.091667 -0.045833 -0.275000
v 0.091667 -0.091667 -0.275000
v 0.091667 -0.045833 -0.412500
v 0.091667 -0.091667 -0.412500
v 0.045833 -0.045833 -0.412500
v 0.045833 -0.091667 -0.412500
v 0.045833 -0.045833 -0.275000
v 0.045833 -0.091667 -0.275000
v 0.045833 -0.045833 -0.412500
v 0.045833 -0.045833 -0.275000
v 0.091667 -0.045833 -0.412500
v 0.091667 -0.045833 -0.275000
v 0.045833 -0.091667 -0.275000
v 0.045833 -0.091667 -0.412500
v 0.091667 -0.091667 -0.275000
v 0.091667 -0.091667 -0.412500
v 0.045833 -0.045833 -0.275000
v 0.045833 -0.091667 -0.275000
v 0.091667 -0.045833 -0.275000
v 0.091667 -0.091667 -0.275000
v 0.091667 -0.045833 -0.412500
v 0.091667 -0.091667 -0.412500
v 0.045833 -0.045833 -0.412500
v 0.045833 -0.091667 -0.412500
v 0.091667 -0.091667 -0.229167
v 0.091667 -0.137500 -0.229167
v 0.091667 -0.091667 -0.320833
v 0.091667 -0.137500 -0.320833
v 0.045833 -0.091667 -0.320833
v 0.045833 -0.137500 -0.320833
v 0.045833 -0.091667 -0.229167
v 0.045833 -0.137500 -0.229167
v 0.045833 -0.091667 -0.320833
v 0.045833 -0.091667 -0.229167
v 0.091667 -0.091667 -0.320833
v 0.091667 -0.091667 -0.229167
v 0.045833 -0.137500 -0.229167
v 0.045833 -0.137500 -0.320833
v 0.091667 -0.137500 -0.229167
v 0.091667 -0.137500 -0.320833
v 0.045833 -0.091667 -0.229167
v 0.045833 -0.137500 -0.229167
v 0.091667 -0.091667 -0.229167
v 0.091667 -0.137500 -0.229167
v 0.091667 -0.091667 -0.320833
v 0.091667 -0.137500 -0.320833
v 0.045833 -0.091667 -0.320833
v 0.045833 -0.137500 -0.320833
v 0.091667 -0.183333 -0.275000
v 0.091667 -0.229167 -0.275000
v 0.091667 -0.183333 -0.412500
v 0.091667 -0.229167 -0.412500
v 0.045833 -0.183333 -0.412500
v 0.045833 -0.229167 -0.412500
v 0.045833 -0.183333 -0.275000
v 0.045833 -0.229167 -0.275000
v 0.045833 -0.183333 -0.412500
v 0.045833 -0.183333 -0.275000
v 0.091667 -0.183333 -0.412500
v 0.091667 -0.183333 -0.275000
v 0.045833 -0.229167 -0.275000
v 0.045833 -0.229167 -0.412500
v 0.091667 -0.229167 -0.275000
v 0.091667 -0.229167 -0.412500
v 0.045833 -0.183333 -0.275000
v 0.045833 -0.229167 -0.275000
v 0.091667 -0.183333 -0.275000
v 0.091667 -0.229167 -0.275000
v 0.091667 -0.183333 -0.412500
v 0.091667 -0.229167 -0.412500
v 0.045833 -0.183333 -0.412500
v 0.045833 -0.229167 -0.412500
v 0.091667 -0.320833 -0.137500
v 0.091667 -0.458333 -0.137500
v 0.091667 -0.320833 -0.183333
v 0.091667 -0.458333 -0.183333
v 0.045833 -0.320833 -0.183333
v 0.045833 -0.458333 -0.183333
v 0.045833 -0.320833 -0.137500
v 0.045833 -0.458333 -0.137500
v 0.045833 -0.320833 -0.183333
v 0.045833 -0.320833 -0.137500
v 0.091667 -0.320833 -0.183333
v 0.091667 -0.320833 -0.137500
v 0.045833 -0.458333 -0.137500
v 0.045833 -0.458333 -0.183333
v 0.091667 -0.458333 -0.137500
v 0.091667 -0.458333 -0.183333
v 0.045833 -0.320833 -0.137500
v 0.045833 -0.458333 -0.137500
v 0.091667 -0.320833 -0.137500
v 0.091667 -0.458333 -0.137500
v 0.091667 -0.320833 -0.183333
v 0.091667 -0.458333 -0.183333
v 0.045833 -0.320833 -0.183333
v 0.045833 -0.458333 -0.183333
v 0.091667 -0.275000 -0.045833
v 0.091667 -0.366667 -0.045833
v 0.091667 -0.275000 -0.091667
v 0.091667 -0.366667 -0.091667
v 0.045833 -0.275000 -0.091667
v 0.045833 -0.366667 -0.091667
v 0.045833 -0.275000 -0.045833
v 0.045833 -0.366667 -0.045833
v 0.045833 -0.275000 -0.091667
v 0.045833 -0.275000 -0.045833
v 0.091667 -0.275000 -0.091667
v 0.091667 -0.275000 -0.045833
v 0.045833 -0.366667 -0.045833
v 0.045833 -0.366667 -0.091667
v 0.091667 -0.366667 -0.045833
v 0.091667 -0.366667 -0.091667
v 0.045833 -0.275000 -0.045833
v 0.045833 -0.366667 -0.045833
v 0.091667 -0.275000 -0.045833
v 0.091667 -0.366667 -0.045833
v 0.091667 -0.275000 -0.091667
v 0.091667 -0.366667 -0.091667
v 0.045833 -0.275000 -0.091667
v 0.045833 -0.366667 -0.091667
v 0.091667 -0.320833 0.000000
v 0.091667 -0.458333 0.000000
v 0.091667 -0.320833 -0.045833
v 0.091667 -0.458333 -0.045833
v 0.045833 -0.320833 -0.045833
v 0.045833 -0.458333 -0.045833
v 0.045833 -0.320833 0.000000
v 0.045833 -0.458333 0.000000
v 0.045833 -0.320833 -0.045833
v 0.045833 -0.320833 0.000000
v 0.091667 -0.320833 -0.045833
v 0.091667 -0.320833 0.000000
v 0.045833 -0.458333 0.000000
v 0.045833 -0.458333 -0.045833
v 0.091667 -0.458333 0.000000
v 0.091667 -0.458333 -0.045833
v 0.045833 -0.320833 0.000000
v 0.045833 -0.458333 0.000000
v 0.091667 -0.320833 0.000000
v 0.091667 -0.458333 0.000000
v 0.091667 -0.320833 -0.045833
v 0.091667 -0.458333 -0.045833
v 0.045833 -0.320833 -0.045833
v 0.045833 -0.458333 -0.045833
v -0.045833 -0.320833 0.000000
v -0.045833 -0.458333 0.000000
v -0.045833 -0.320833 -0.045833
v -0.045833 -0.458333 -0.045833
v -0.091667 -0.320833 -0.045833
v -0.091667 -0.458333 -0.045833
v -0.091667 -0.320833 0.000000
v -0.091667 -0.458333 0.000000
v -0.091667 -0.320833 -0.045833
v -0.091667 -0.320833 0.000000
v -0.045833 -0.320833 -0.045833
v -0.045833 -0.320833 0.000000
v -0.091667 -0.458333 0.000000
v -0.091667 -0.458333 -0.045833
v -0.045833 -0.458333 0.000000
v -0.045833 -0.458333 -0.045833
v -0.091667 -0.320833 0.000000
v -0.091667 -0.458333 0.000000
v -0.045833 -0.320833 0.000000
v -0.045833 -0.458333 0.000000
v -0.045833 -0.320833 -0.045833
v -0.045833 -0.458333 -0.045833
v -0.091667 -0.320833 -0.045833
v -0.091667 -0.458333 -0.045833
v -0.045833 -0.275000 -0.045833
v -0.045833 -0.366667 -0.045833
v -0.045833 -0.275000 -0.091667
v -0.045833 -0.366667 -0.091667
v -0.091667 -0.275000 -0.091667
v -0.091667 -0.366667 -0.091667
v -0.091667 -0.275000 -0.045833
v -0.091667 -0.366667 -0.045833
v -0.091667 -0.275000 -0.091667
v -0.091667 -0.275000 -0.045833
v -0.045833 -0.275000 -0.091667
v -0.045833 -0.275000 -0.045833
v -0.091667 -0.366667 -0.045833
v -0.091667 -0.366667 -0.091667
v -0.045833 -0.366667 -0.045833
v -0.045833 -0.366667 -0.091667
v -0.091667 -0.275000 -0.045833
v -0.091667 -0.366667 -0.045833
v -0.045833 -0.275000 -0.045833
v -0.045833 -0.366667 -0.045833
v -0.045833 -0.275000 -0.091667
v -0.045833 -0.366667 -0.091667
v -0.091667 -0.275000 -0.091667
v -0.091667 -0.366667 -0.091667
v -0.045833 -0.320833 -0.137500
v -0.045833 -0.458333 -0.137500
v -0.045833 -0.320833 -0.183333
v -0.045833 -0.458333 -0.183333
v -0.091667 -0.320833 -0.183333
v -0.091667 -0.458333 -0.183333
v -0.091667 -0.320833 -0.137500
v -0.091667 -0.458333 -0.137500
v -0.091667 -0.320833 -0.183333
v -0.091667 -0.320833 -0.137500
v -0.045833 -0.320833 -0.183333
v -0.045833 -0.320833 -0.137500
v -0.091667 -0.458333 -0.137500
v -0.091667 -0.458333 -0.183333
v -0.045833 -0.458333 -0.137500
v -0.045833 -0.458333 -0.183333
v -0.091667 -0.320833 -0.137500
v -0.091667 -0.458333 -0.137500
v -0.045833 -0.320833 -0.137500
v -0.045833 -0.458333 -0.137500
v -0.045833 -0.320833 -0.183333
v -0.045833 -0.458333 -0.183333
v -0.091667 -0.320833 -0.183333
v -0.091667 -0.458333 -0.183333
v -0.045833 -0.183333 -0.275000
v -0.045833 -0.229167 -0.275000
v -0.045833 -0.183333 -0.412500
v -0.045833 -0.229167 -0.412500
v -0.091667 -0.183333 -0.412500
v -0.091667 -0.229167 -0.412500
v -0.091667 -0.183333 -0.275000
v -0.091667 -0.229167 -0.275000
v -0.091667 -0.183333 -0.412500
v -0.091667 -0.183333 -0.275000
v -0.045833 -0.183333 -0.412500
v -0.045833 -0.183333 -0.275000
v -0.091667 -0.229167 -0.275000
v -0.091667 -0.229167 -0.412500
v -0.045833 -0.229167 -0.275000
v -0.045833 -0.229167 -0.412500
v -0.091667 -0.183333 -0.275000
v -0.091667 -0.229167 -0.275000
v -0.045833 -0.183333 -0.275000
v -0.045833 -0.229167 -0.275000
v -0.045833 -0.183333 -0.412500
v -0.045833 -0.229167 -0.412500
v -0.091667 -0.183333 -0.412500
v -0.091667 -0.229167 -0.412500
v -0.045833 -0.091667 -0.229167
v -0.045833 -0.137500 -0.229167
v -0.045833 -0.091667 -0.320833
v -0.045833 -0.137500 -0.320833
v -0.091667 -0.091667 -0.320833
v -0.091667 -0.137500 -0.320833
v -0.091667 -0.091667 -0.229167
v -0.091667 -0.137500 -0.229167
v -0.091667 -0.091667 -0.320833
v -0.091667 -0.091667 -0.229167
v -0.045833 -0.091667 -0.320833
v -0.045833 -0.091667 -0.229167
v -0.091667 -0.137500 -0.229167
v -0.091667 -0.137500 -0.320833
v -0.045833 -0.137500 -0.229167
v -0.045833 -0.137500 -0.320833
v -0.091667 -0.091667 -0.229167
v -0.091667 -0.137500 -0.229167
v -0.045833 -0.091667 -0.229167
v -0.045833 -0.137500 -0.229167
v -0.045833 -0.091667 -0.320833
v -0.045833 -0.137500 -0.320833
v -0.091667 -0.091667 -0.320833
v -0.091667 -0.137500 -0.320833
v -0.045833 -0.045833 -0.275000
v -0.045833 -0.091667 -0.275000
v -0.045833 -0.045833 -0.412500
v -0.045833 -0.091667 -0.412500
v -0.091667 -0.045833 -0.412500
v -0.091667 -0.091667 -0.412500
v -0.091667 -0.045833 -0.275000
v -0.091667 -0.091667 -0.275000
v -0.091667 -0.045833 -0.412500
v -0.091667 -0.045833 -0.275000
v -0.045833 -0.045833 -0.412500
v -0.045833 -0.045833 -0.275000
v -0.091667 -0.091667 -0.275000
v -0.091667 -0.091667 -0.412500
v -0.045833 -0.091667 -0.275000
v -0.045833 -0.091667 -0.412500
v -0.091667 -0.045833 -0.275000
v -0.091667 -0.091667 -0.275000
v -0.045833 -0.045833 -0.275000
v -0.045833 -0.091667 -0.275000
v -0.045833 -0.045833 -0.412500
v -0.045833 -0.091667 -0.412500
v -0.091667 -0.045833 -0.412500
v -0.091667 -0.091667 -0.412500
v 0.022917 0.550000 0.504167
v 0.022917 0.504167 0.504167
v 0.022917 0.550000 0.412500
v 0.022917 0.504167 0.412500
v -0.022917 0.550000 0.412500
v -0.022917 0.504167 0.412500
v -0.022917 0.550000 0.504167
v -0.022917 0.504167 0.504167
v -0.022917 0.550000 0.412500
v -0.022917 0.550000 0.504167
v 0.022917 0.550000 0.412500
v 0.022917 0.550000 0.504167
v -0.022917 0.504167 0.504167
v -0.022917 0.504167 0.412500
v 0.022917 0.504167 0.504167
v 0.022917 0.504167 0.412500
v -0.022917 0.550000 0.504167
v -0.022917 0.504167 0.504167
v 0.022917 0.550000 0.504167
v 0.022917 0.504167 0.504167
v 0.022917 0.550000 0.412500
v 0.022917 0.504167 0.412500
v -0.022917 0.550000 0.412500
v -0.022917 0.504167 0.412500
v 0.022917 0.504167 0.504167
v 0.022917 0.458333 0.504167
v 0.022917 0.504167 0.366667
v 0.022917 0.458333 0.366667
v -0.022917 0.504167 0.366667
v -0.022917 0.458333 0.366667
v -0.022917 0.504167 0.504167
v -0.022917 0.458333 0.504167
v -0.022917 0.504167 0.366667
v -0.022917 0.504167 0.504167
v 0.022917 0.504167 0.366667
v 0.022917 0.504167 0.504167
v -0.022917 0.458333 0.504167
v -0.022917 0.458333 0.366667
v 0.022917 0.458333 0.504167
v 0.022917 0.458333 0.366667
v -0.022917 0.504167 0.504167
v -0.022917 0.458333 0.504167
v 0.022917 0.504167 0.504167
v 0.022917 0.458333 0.504167
v 0.022917 0.504167 0.366667
v 0.022917 0.458333 0.366667
v -0.022917 0.504167 0.366667
v -0.022917 0.458333 0.366667
v 0.022917 0.320833 0.458333
v 0.022917 0.275000 0.458333
v 0.022917 0.320833 0.183333
v 0.022917 0.275000 0.183333
v -0.022917 0.320833 0.183333
v -0.022917 0.275000 0.183333
v -0.022917 0.320833 0.458333
v -0.022917 0.275000 0.458333
v -0.022917 0.320833 0.183333
v -0.022917 0.320833 0.458333
v 0.022917 0.320833 0.183333
v 0.022917 0.320833 0.458333
v -0.022917 0.275000 0.458333
v -0.022917 0.275000 0.183333
v 0.022917 0.275000 0.458333
v 0.022917 0.275000 0.183333
v -0.022917 0.320833 0.458333
v -0.022917 0.275000 0.458333
v 0.022917 0.320833 0.458333
v 0.022917 0.275000 0.458333
v 0.022917 0.320833 0.183333
v 0.022917 0.275000 0.183333
v -0.022917 0.320833 0.183333
v -0.022917 0.275000 0.183333
vn 1.0000 -0.0000 -0.0000
vn -1.0000 -0.0000 -0.0000
vn -0.0000 1.0000 -0.0000
vn -0.0000 -1.0000 -0.0000
vn -0.0000 -0.0000 1.0000
vn -0.0000 -0.0000 -1.0000
vt 0.000244 0.765869
vt 0.000244 0.781006
vt 0.077881 0.765869
vt 0.077881 0.781006
vt 0.093994 0.765869
vt 0.093994 0.781006
vt 0.171631 0.765869
vt 0.171631 0.781006
vt 0.093506 0.765381
vt 0.093506 0.687744
vt 0.078369 0.765381
vt 0.078369 0.687744
vt 0.109131 0.687744
vt 0.109131 0.765381
vt 0.093994 0.687744
vt 0.093994 0.765381
vt 0.172119 0.765869
vt 0.172119 0.781006
vt 0.187256 0.765869
vt 0.187256 0.781006
vt 0.078369 0.765869
vt 0.078369 0.781006
vt 0.093506 0.765869
vt 0.093506 0.781006
vt 0.781494 0.750244
vt 0.781494 0.765381
vt 0.843506 0.750244
vt 0.843506 0.765381
vt 0.859619 0.750244
vt 0.859619 0.765381
vt 0.921631 0.750244
vt 0.921631 0.765381
vt 0.859131 0.749756
vt 0.859131 0.687744
vt 0.843994 0.749756
vt 0.843994 0.687744
vt 0.874756 0.687744
vt 0.874756 0.749756
vt 0.859619 0.687744
vt 0.859619 0.749756
vt 0.922119 0.750244
vt 0.922119 0.765381
vt 0.937256 0.750244
vt 0.937256 0.765381
vt 0.843994 0.750244
vt 0.843994 0.765381
vt 0.859131 0.750244
vt 0.859131 0.765381
vt 0.593994 0.765869
vt 0.593994 0.781006
vt 0.671631 0.765869
vt 0.671631 0.781006
vt 0.687744 0.765869
vt 0.687744 0.781006
vt 0.765381 0.765869
vt 0.765381 0.781006
vt 0.687256 0.765381
vt 0.687256 0.687744
vt 0.672119 0.765381
vt 0.672119 0.687744
vt 0.702881 0.687744
vt 0.702881 0.765381
vt 0.687744 0.687744
vt 0.687744 0.765381
vt 0.765869 0.765869
vt 0.765869 0.781006
vt 0.781006 0.765869
vt 0.781006 0.781006
vt 0.672119 0.765869
vt 0.672119 0.781006
vt 0.687256 0.765869
vt 0.687256 0.781006
vt 0.406494 0.765869
vt 0.406494 0.781006
vt 0.484131 0.765869
vt 0.484131 0.781006
vt 0.500244 0.765869
vt 0.500244 0.781006
vt 0.577881 0.765869
vt 0.577881 0.781006
vt 0.499756 0.765381
vt 0.499756 0.687744
vt 0.484619 0.765381
vt 0.484619 0.687744
vt 0.515381 0.687744
vt 0.515381 0.765381
vt 0.500244 0.687744
vt 0.500244 0.765381
vt 0.578369 0.765869
vt 0.578369 0.781006
vt 0.593506 0.765869
vt 0.593506 0.781006
vt 0.484619 0.765869
vt 0.484619 0.781006
vt 0.499756 0.765869
vt 0.499756 0.781006
vt 0.656494 0.656494
vt 0.656494 0.671631
vt 0.749756 0.656494
vt 0.749756 0.671631
vt 0.765869 0.656494
vt 0.765869 0.671631
vt 0.859131 0.656494
vt 0.859131 0.671631
vt 0.765381 0.656006
vt 0.765381 0.562744
vt 0.750244 0.656006
vt 0.750244 0.562744
vt 0.781006 0.562744
vt 0.781006 0.656006
vt 0.765869 0.562744
vt 0.765869 0.656006
vt 0.859619 0.656494
vt 0.859619 0.671631
vt 0.874756 0.656494
vt 0.874756 0.671631
vt 0.750244 0.656494
vt 0.750244 0.671631
vt 0.765381 0.656494
vt 0.765381 0.671631
vt 0.437744 0.656494
vt 0.437744 0.671631
vt 0.531006 0.656494
vt 0.531006 0.671631
vt 0.547119 0.656494
vt 0.547119 0.671631
vt 0.640381 0.656494
vt 0.640381 0.671631
vt 0.546631 0.656006
vt 0.546631 0.562744
vt 0.531494 0.656006
vt 0.531494 0.562744
vt 0.562256 0.562744
vt 0.562256 0.656006
vt 0.547119 0.562744
vt 0.547119 0.656006
vt 0.640869 0.656494
vt 0.640869 0.671631
vt 0.656006 0.656494
vt 0.656006 0.671631
vt 0.531494 0.656494
vt 0.531494 0.671631
vt 0.546631 0.656494
vt 0.546631 0.671631
vt 0.218994 0.656494
vt 0.218994 0.671631
vt 0.312256 0.656494
vt 0.312256 0.671631
vt 0.328369 0.656494
vt 0.328369 0.671631
vt 0.421631 0.656494
vt 0.421631 0.671631
vt 0.327881 0.656006
vt 0.327881 0.562744
vt 0.312744 0.656006
vt 0.312744 0.562744
vt 0.343506 0.562744
vt 0.343506 0.656006
vt 0.328369 0.562744
vt 0.328369 0.656006
vt 0.422119 0.656494
vt 0.422119 0.671631
vt 0.437256 0.656494
vt 0.437256 0.671631
vt 0.312744 0.656494
vt 0.312744 0.671631
vt 0.327881 0.656494
vt 0.327881 0.671631
vt 0.000244 0.656494
vt 0.000244 0.671631
vt 0.093506 0.656494
vt 0.093506 0.671631
vt 0.109619 0.656494
vt 0.109619 0.671631
vt 0.202881 0.656494
vt 0.202881 0.671631
vt 0.109131 0.656006
vt 0.109131 0.562744
vt 0.093994 0.656006
vt 0.093994 0.562744
vt 0.124756 0.562744
vt 0.124756 0.656006
vt 0.109619 0.562744
vt 0.109619 0.656006
vt 0.203369 0.656494
vt 0.203369 0.671631
vt 0.218506 0.656494
vt 0.218506 0.671631
vt 0.093994 0.656494
vt 0.093994 0.671631
vt 0.109131 0.656494
vt 0.109131 0.671631
vt 0.500244 0.531494
vt 0.500244 0.546631
vt 0.609131 0.531494
vt 0.609131 0.546631
vt 0.625244 0.531494
vt 0.625244 0.546631
vt 0.734131 0.531494
vt 0.734131 0.546631
vt 0.624756 0.531006
vt 0.624756 0.422119
vt 0.609619 0.531006
vt 0.609619 0.422119
vt 0.640381 0.422119
vt 0.640381 0.531006
vt 0.625244 0.422119
vt 0.625244 0.531006
vt 0.734619 0.531494
vt 0.734619 0.546631
vt 0.749756 0.531494
vt 0.749756 0.546631
vt 0.609619 0.531494
vt 0.609619 0.546631
vt 0.624756 0.531494
vt 0.624756 0.546631
vt 0.250244 0.531494
vt 0.250244 0.546631
vt 0.359131 0.531494
vt 0.359131 0.546631
vt 0.375244 0.531494
vt 0.375244 0.546631
vt 0.484131 0.531494
vt 0.484131 0.546631
vt 0.374756 0.531006
vt 0.374756 0.422119
vt 0.359619 0.531006
vt 0.359619 0.422119
vt 0.390381 0.422119
vt 0.390381 0.531006
vt 0.375244 0.422119
vt 0.375244 0.531006
vt 0.484619 0.531494
vt 0.484619 0.546631
vt 0.499756 0.531494
vt 0.499756 0.546631
vt 0.359619 0.531494
vt 0.359619 0.546631
vt 0.374756 0.531494
vt 0.374756 0.546631
vt 0.000244 0.531494
vt 0.000244 0.546631
vt 0.109131 0.531494
vt 0.109131 0.546631
vt 0.125244 0.531494
vt 0.125244 0.546631
vt 0.234131 0.531494
vt 0.234131 0.546631
vt 0.124756 0.531006
vt 0.124756 0.422119
vt 0.109619 0.531006
vt 0.109619 0.422119
vt 0.140381 0.422119
vt 0.140381 0.531006
vt 0.125244 0.422119
vt 0.125244 0.531006
vt 0.234619 0.531494
vt 0.234619 0.546631
vt 0.249756 0.531494
vt 0.249756 0.546631
vt 0.109619 0.531494
vt 0.109619 0.546631
vt 0.124756 0.531494
vt 0.124756 0.546631
vt 0.687744 0.375244
vt 0.687744 0.390381
vt 0.734131 0.375244
vt 0.734131 0.390381
vt 0.750244 0.375244
vt 0.750244 0.390381
vt 0.796631 0.375244
vt 0.796631 0.390381
vt 0.749756 0.374756
vt 0.749756 0.328369
vt 0.734619 0.374756
vt 0.734619 0.328369
vt 0.765381 0.328369
vt 0.765381 0.374756
vt 0.750244 0.328369
vt 0.750244 0.374756
vt 0.797119 0.375244
vt 0.797119 0.390381
vt 0.812256 0.375244
vt 0.812256 0.390381
vt 0.734619 0.375244
vt 0.734619 0.390381
vt 0.749756 0.375244
vt 0.749756 0.390381
vt 0.562744 0.375244
vt 0.562744 0.390381
vt 0.609131 0.375244
vt 0.609131 0.390381
vt 0.625244 0.375244
vt 0.625244 0.390381
vt 0.671631 0.375244
vt 0.671631 0.390381
vt 0.624756 0.374756
vt 0.624756 0.328369
vt 0.609619 0.374756
vt 0.609619 0.328369
vt 0.640381 0.328369
vt 0.640381 0.374756
vt 0.625244 0.328369
vt 0.625244 0.374756
vt 0.672119 0.375244
vt 0.672119 0.390381
vt 0.687256 0.375244
vt 0.687256 0.390381
vt 0.609619 0.375244
vt 0.609619 0.390381
vt 0.624756 0.375244
vt 0.624756 0.390381
vt 0.437744 0.375244
vt 0.437744 0.390381
vt 0.484131 0.375244
vt 0.484131 0.390381
vt 0.500244 0.375244
vt 0.500244 0.390381
vt 0.546631 0.375244
vt 0.546631 0.390381
vt 0.499756 0.374756
vt 0.499756 0.328369
vt 0.484619 0.374756
vt 0.484619 0.328369
vt 0.515381 0.328369
vt 0.515381 0.374756
vt 0.500244 0.328369
vt 0.500244 0.374756
vt 0.547119 0.375244
vt 0.547119 0.390381
vt 0.562256 0.375244
vt 0.562256 0.390381
vt 0.484619 0.375244
vt 0.484619 0.390381
vt 0.499756 0.375244
vt 0.499756 0.390381
vt 0.343994 0.359619
vt 0.343994 0.374756
vt 0.374756 0.359619
vt 0.374756 0.374756
vt 0.390869 0.359619
vt 0.390869 0.374756
vt 0.421631 0.359619
vt 0.421631 0.374756
vt 0.390381 0.359131
vt 0.390381 0.328369
vt 0.375244 0.359131
vt 0.375244 0.328369
vt 0.406006 0.328369
vt 0.406006 0.359131
vt 0.390869 0.328369
vt 0.390869 0.359131
vt 0.422119 0.359619
vt 0.422119 0.374756
vt 0.437256 0.359619
vt 0.437256 0.374756
vt 0.375244 0.359619
vt 0.375244 0.374756
vt 0.390381 0.359619
vt 0.390381 0.374756
vt 0.156494 0.406494
vt 0.156494 0.421631
vt 0.234131 0.406494
vt 0.234131 0.421631
vt 0.250244 0.406494
vt 0.250244 0.421631
vt 0.327881 0.406494
vt 0.327881 0.421631
vt 0.249756 0.406006
vt 0.249756 0.328369
vt 0.234619 0.406006
vt 0.234619 0.328369
vt 0.265381 0.328369
vt 0.265381 0.406006
vt 0.250244 0.328369
vt 0.250244 0.406006
vt 0.328369 0.406494
vt 0.328369 0.421631
vt 0.343506 0.406494
vt 0.343506 0.421631
vt 0.234619 0.406494
vt 0.234619 0.421631
vt 0.249756 0.406494
vt 0.249756 0.421631
vt 0.000244 0.390869
vt 0.000244 0.406006
vt 0.062256 0.390869
vt 0.062256 0.406006
vt 0.078369 0.390869
vt 0.078369 0.406006
vt 0.140381 0.390869
vt 0.140381 0.406006
vt 0.077881 0.390381
vt 0.077881 0.328369
vt 0.062744 0.390381
vt 0.062744 0.328369
vt 0.093506 0.328369
vt 0.093506 0.390381
vt 0.078369 0.328369
vt 0.078369 0.390381
vt 0.140869 0.390869
vt 0.140869 0.406006
vt 0.156006 0.390869
vt 0.156006 0.406006
vt 0.062744 0.390869
vt 0.062744 0.406006
vt 0.077881 0.390869
vt 0.077881 0.406006
vt 0.500244 0.140869
vt 0.500244 0.187256
vt 0.640381 0.140869
vt 0.640381 0.187256
vt 0.672119 0.140869
vt 0.672119 0.187256
vt 0.812256 0.140869
vt 0.812256 0.187256
vt 0.671631 0.140381
vt 0.671631 0.000244
vt 0.640869 0.140381
vt 0.640869 0.000244
vt 0.702881 0.000244
vt 0.702881 0.140381
vt 0.672119 0.000244
vt 0.672119 0.140381
vt 0.812744 0.140869
vt 0.812744 0.187256
vt 0.843506 0.140869
vt 0.843506 0.187256
vt 0.640869 0.140869
vt 0.640869 0.187256
vt 0.671631 0.140869
vt 0.671631 0.187256
vt 0.437744 0.015869
vt 0.437744 0.031006
vt 0.452881 0.015869
vt 0.452881 0.031006
vt 0.468994 0.015869
vt 0.468994 0.031006
vt 0.484131 0.015869
vt 0.484131 0.031006
vt 0.468506 0.015381
vt 0.468506 0.000244
vt 0.453369 0.015381
vt 0.453369 0.000244
vt 0.484131 0.000244
vt 0.484131 0.015381
vt 0.468994 0.000244
vt 0.468994 0.015381
vt 0.484619 0.015869
vt 0.484619 0.031006
vt 0.499756 0.015869
vt 0.499756 0.031006
vt 0.453369 0.015869
vt 0.453369 0.031006
vt 0.468506 0.015869
vt 0.468506 0.031006
vt 0.281494 0.062744
vt 0.281494 0.077881
vt 0.343506 0.062744
vt 0.343506 0.077881
vt 0.359619 0.062744
vt 0.359619 0.077881
vt 0.421631 0.062744
vt 0.421631 0.077881
vt 0.359131 0.062256
vt 0.359131 0.000244
vt 0.343994 0.062256
vt 0.343994 0.000244
vt 0.374756 0.000244
vt 0.374756 0.062256
vt 0.359619 0.000244
vt 0.359619 0.062256
vt 0.422119 0.062744
vt 0.422119 0.077881
vt 0.437256 0.062744
vt 0.437256 0.077881
vt 0.343994 0.062744
vt 0.343994 0.077881
vt 0.359131 0.062744
vt 0.359131 0.077881
vt 0.125244 0.062744
vt 0.125244 0.077881
vt 0.187256 0.062744
vt 0.187256 0.077881
vt 0.203369 0.062744
vt 0.203369 0.077881
vt 0.265381 0.062744
vt 0.265381 0.077881
vt 0.202881 0.062256
vt 0.202881 0.000244
vt 0.187744 0.062256
vt 0.187744 0.000244
vt 0.218506 0.000244
vt 0.218506 0.062256
vt 0.203369 0.000244
vt 0.203369 0.062256
vt 0.265869 0.062744
vt 0.265869 0.077881
vt 0.281006 0.062744
vt 0.281006 0.077881
vt 0.187744 0.062744
vt 0.187744 0.077881
vt 0.202881 0.062744
vt 0.202881 0.077881
vt 0.000244 0.047119
vt 0.000244 0.062256
vt 0.046631 0.047119
vt 0.046631 0.062256
vt 0.062744 0.047119
vt 0.062744 0.062256
vt 0.109131 0.047119
vt 0.109131 0.062256
vt 0.062256 0.046631
vt 0.062256 0.000244
vt 0.047119 0.046631
vt 0.047119 0.000244
vt 0.077881 0.000244
vt 0.077881 0.046631
vt 0.062744 0.000244
vt 0.062744 0.046631
vt 0.109619 0.047119
vt 0.109619 0.062256
vt 0.124756 0.047119
vt 0.124756 0.062256
vt 0.047119 0.047119
vt 0.047119 0.062256
vt 0.062256 0.047119
vt 0.062256 0.062256
vt 0.734619 0.906494
vt 0.734619 0.921631
vt 0.749756 0.906494
vt 0.749756 0.921631
vt 0.781494 0.906494
vt 0.781494 0.921631
vt 0.796631 0.906494
vt 0.796631 0.921631
vt 0.781006 0.906006
vt 0.781006 0.890869
vt 0.750244 0.906006
vt 0.750244 0.890869
vt 0.812256 0.890869
vt 0.812256 0.906006
vt 0.781494 0.890869
vt 0.781494 0.906006
vt 0.797119 0.906494
vt 0.797119 0.921631
vt 0.827881 0.906494
vt 0.827881 0.921631
vt 0.750244 0.906494
vt 0.750244 0.921631
vt 0.781006 0.906494
vt 0.781006 0.921631
vt 0.000244 0.218994
vt 0.000244 0.312256
vt 0.046631 0.218994
vt 0.046631 0.312256
vt 0.078369 0.218994
vt 0.078369 0.312256
vt 0.124756 0.218994
vt 0.124756 0.312256
vt 0.077881 0.218506
vt 0.077881 0.172119
vt 0.047119 0.218506
vt 0.047119 0.172119
vt 0.109131 0.172119
vt 0.109131 0.218506
vt 0.078369 0.172119
vt 0.078369 0.218506
vt 0.125244 0.218994
vt 0.125244 0.312256
vt 0.156006 0.218994
vt 0.156006 0.312256
vt 0.047119 0.218994
vt 0.047119 0.312256
vt 0.077881 0.218994
vt 0.077881 0.312256
vt 0.156494 0.218994
vt 0.156494 0.234131
vt 0.202881 0.218994
vt 0.202881 0.234131
vt 0.218994 0.218994
vt 0.218994 0.234131
vt 0.265381 0.218994
vt 0.265381 0.234131
vt 0.218506 0.218506
vt 0.218506 0.172119
vt 0.203369 0.218506
vt 0.203369 0.172119
vt 0.234131 0.172119
vt 0.234131 0.218506
vt 0.218994 0.172119
vt 0.218994 0.218506
vt 0.265869 0.218994
vt 0.265869 0.234131
vt 0.281006 0.218994
vt 0.281006 0.234131
vt 0.203369 0.218994
vt 0.203369 0.234131
vt 0.218506 0.218994
vt 0.218506 0.234131
vt 0.281494 0.203369
vt 0.281494 0.218506
vt 0.312256 0.203369
vt 0.312256 0.218506
vt 0.328369 0.203369
vt 0.328369 0.218506
vt 0.359131 0.203369
vt 0.359131 0.218506
vt 0.327881 0.202881
vt 0.327881 0.172119
vt 0.312744 0.202881
vt 0.312744 0.172119
vt 0.343506 0.172119
vt 0.343506 0.202881
vt 0.328369 0.172119
vt 0.328369 0.202881
vt 0.359619 0.203369
vt 0.359619 0.218506
vt 0.374756 0.203369
vt 0.374756 0.218506
vt 0.312744 0.203369
vt 0.312744 0.218506
vt 0.327881 0.203369
vt 0.327881 0.218506
vt 0.375244 0.187744
vt 0.375244 0.234131
vt 0.390381 0.187744
vt 0.390381 0.234131
vt 0.406494 0.187744
vt 0.406494 0.234131
vt 0.421631 0.187744
vt 0.421631 0.234131
vt 0.406006 0.187256
vt 0.406006 0.172119
vt 0.390869 0.187256
vt 0.390869 0.172119
vt 0.421631 0.172119
vt 0.421631 0.187256
vt 0.406494 0.172119
vt 0.406494 0.187256
vt 0.422119 0.187744
vt 0.422119 0.234131
vt 0.437256 0.187744
vt 0.437256 0.234131
vt 0.390869 0.187744
vt 0.390869 0.234131
vt 0.406006 0.187744
vt 0.406006 0.234131
vt 0.437744 0.187744
vt 0.437744 0.218506
vt 0.452881 0.187744
vt 0.452881 0.218506
vt 0.468994 0.187744
vt 0.468994 0.218506
vt 0.484131 0.187744
vt 0.484131 0.218506
vt 0.468506 0.187256
vt 0.468506 0.172119
vt 0.453369 0.187256
vt 0.453369 0.172119
vt 0.484131 0.172119
vt 0.484131 0.187256
vt 0.468994 0.172119
vt 0.468994 0.187256
vt 0.484619 0.187744
vt 0.484619 0.218506
vt 0.499756 0.187744
vt 0.499756 0.218506
vt 0.453369 0.187744
vt 0.453369 0.218506
vt 0.468506 0.187744
vt 0.468506 0.218506
vt 0.125244 0.828369
vt 0.125244 0.843506
vt 0.156006 0.828369
vt 0.156006 0.843506
vt 0.172119 0.828369
vt 0.172119 0.843506
vt 0.202881 0.828369
vt 0.202881 0.843506
vt 0.171631 0.827881
vt 0.171631 0.797119
vt 0.156494 0.827881
vt 0.156494 0.797119
vt 0.187256 0.797119
vt 0.187256 0.827881
vt 0.172119 0.797119
vt 0.172119 0.827881
vt 0.203369 0.828369
vt 0.203369 0.843506
vt 0.218506 0.828369
vt 0.218506 0.843506
vt 0.156494 0.828369
vt 0.156494 0.843506
vt 0.171631 0.828369
vt 0.171631 0.843506
vt 0.000244 0.843994
vt 0.000244 0.859131
vt 0.046631 0.843994
vt 0.046631 0.859131
vt 0.062744 0.843994
vt 0.062744 0.859131
vt 0.109131 0.843994
vt 0.109131 0.859131
vt 0.062256 0.843506
vt 0.062256 0.797119
vt 0.047119 0.843506
vt 0.047119 0.797119
vt 0.077881 0.797119
vt 0.077881 0.843506
vt 0.062744 0.797119
vt 0.062744 0.843506
vt 0.109619 0.843994
vt 0.109619 0.859131
vt 0.124756 0.843994
vt 0.124756 0.859131
vt 0.047119 0.843994
vt 0.047119 0.859131
vt 0.062256 0.843994
vt 0.062256 0.859131
vt 0.187744 0.781494
vt 0.187744 0.796631
vt 0.281006 0.781494
vt 0.281006 0.796631
vt 0.297119 0.781494
vt 0.297119 0.796631
vt 0.390381 0.781494
vt 0.390381 0.796631
vt 0.296631 0.781006
vt 0.296631 0.687744
vt 0.281494 0.781006
vt 0.281494 0.687744
vt 0.312256 0.687744
vt 0.312256 0.781006
vt 0.297119 0.687744
vt 0.297119 0.781006
vt 0.390869 0.781494
vt 0.390869 0.796631
vt 0.406006 0.781494
vt 0.406006 0.796631
vt 0.281494 0.781494
vt 0.281494 0.796631
vt 0.296631 0.781494
vt 0.296631 0.796631
s 0
usemtl material_0
f 1/1/1 2/2/1 3/3/1
f 2/2/1 4/4/1 3/3/1
f 5/5/2 6/6/2 7/7/2
f 6/6/2 8/8/2 7/7/2
f 9/9/3 10/10/3 11/11/3
f 10/10/3 12/12/3 11/11/3
f 13/13/4 14/14/4 15/15/4
f 14/14/4 16/16/4 15/15/4
f 17/17/5 18/18/5 19/19/5
f 18/18/5 20/20/5 19/19/5
f 21/21/6 22/22/6 23/23/6
f 22/22/6 24/24/6 23/23/6
f 25/25/1 26/26/1 27/27/1
f 26/26/1 28/28/1 27/27/1
f 29/29/2 30/30/2 31/31/2
f 30/30/2 32/32/2 31/31/2
f 33/33/3 34/34/3 35/35/3
f 34/34/3 36/36/3 35/35/3
f 37/37/4 38/38/4 39/39/4
f 38/38/4 40/40/4 39/39/4
f 41/41/5 42/42/5 43/43/5
f 42/42/5 44/44/5 43/43/5
f 45/45/6 46/46/6 47/47/6
f 46/46/6 48/48/6 47/47/6
f 49/49/1 50/50/1 51/51/1
f 50/50/1 52/52/1 51/51/1
f 53/53/2 54/54/2 55/55/2
f 54/54/2 56/56/2 55/55/2
f 57/57/3 58/58/3 59/59/3
f 58/58/3 60/60/3 59/59/3
f 61/61/4 62/62/4 63/63/4
f 62/62/4 64/64/4 63/63/4
f 65/65/5 66/66/5 67/67/5
f 66/66/5 68/68/5 67/67/5
f 69/69/6 70/70/6 71/71/6
f 70/70/6 72/72/6 71/71/6
f 73/73/1 74/74/1 75/75/1
f 74/74/1 76/76/1 75/75/1
f 77/77/2 78/78/2 79/79/2
f 78/78/2 80/80/2 79/79/2
f 81/81/3 82/82/3 83/83/3
f 82/82/3 84/84/3 83/83/3
f 85/85/4 86/86/4 87/87/4
f 86/86/4 88/88/4 87/87/4
f 89/89/5 90/90/5 91/91/5
f 90/90/5 92/92/5 91/91/5
f 93/93/6 94/94/6 95/95/6
f 94/94/6 96/96/6 95/95/6
f 97/97/1 98/98/1 99/99/1
f 98/98/1 100/100/1 99/99/1
f 101/101/2 102/102/2 103/103/2
f 102/102/2 104/104/2 103/103/2
f 105/105/3 106/106/3 107/107/3
f 106/106/3 108/108/3 107/107/3
f 109/109/4 110/110/4 111/111/4
f 110/110/4 112/112/4 111/111/4
f 113/113/5 114/114/5 115/115/5
f 114/114/5 116/116/5 115/115/5
f 117/117/6 118/118/6 119/119/6
f 118/118/6 120/120/6 119/119/6
f 121/121/1 122/122/1 123/123/1
f 122/122/1 124/124/1 123/123/1
f 125/125/2 126/126/2 127/127/2
f 126/126/2 128/128/2 127/127/2
f 129/129/3 130/130/3 131/131/3
f 130/130/3 132/132/3 131/131/3
f 133/133/4 134/134/4 135/135/4
f 134/134/4 136/136/4 135/135/4
f 137/137/5 138/138/5 139/139/5
f 138/138/5 140/140/5 139/139/5
f 141/141/6 142/142/6 143/143/6
f 142/142/6 144/144/6 143/143/6
f 145/145/1 146/146/1 147/147/1
f 146/146/1 148/148/1 147/147/1
f 149/149/2 150/150/2 151/151/2
f 150/150/2 152/152/2 151/151/2
f 153/153/3 154/154/3 155/155/3
f 154/154/3 156/156/3 155/155/3
f 157/157/4 158/158/4 159/159/4
f 158/158/4 160/160/4 159/159/4
f 161/161/5 162/162/5 163/163/5
f 162/162/5 164/164/5 163/163/5
f 165/165/6 166/166/6 167/167/6
f 166/166/6 168/168/6 167/167/6
f 169/169/1 170/170/1 171/171/1
f 170/170/1 172/172/1 171/171/1
f 173/173/2 174/174/2 175/175/2
f 174/174/2 176/176/2 175/175/2
f 177/177/3 178/178/3 179/179/3
f 178/178/3 180/180/3 179/179/3
f 181/181/4 182/182/4 183/183/4
f 182/182/4 184/184/4 183/183/4
f 185/185/5 186/186/5 187/187/5
f 186/186/5 188/188/5 187/187/5
f 189/189/6 190/190/6 191/191/6
f 190/190/6 192/192/6 191/191/6
f 193/193/1 194/194/1 195/195/1
f 194/194/1 196/196/1 195/195/1
f 197/197/2 198/198/2 199/199/2
f 198/198/2 200/200/2 199/199/2
f 201/201/3 202/202/3 203/203/3
f 202/202/3 204/204/3 203/203/3
f 205/205/4 206/206/4 207/207/4
f 206/206/4 208/208/4 207/207/4
f 209/209/5 210/210/5 211/211/5
f 210/210/5 212/212/5 211/211/5
f 213/213/6 214/214/6 215/215/6
f 214/214/6 216/216/6 215/215/6
f 217/217/1 218/218/1 219/219/1
f 218/218/1 220/220/1 219/219/1
f 221/221/2 222/222/2 223/223/2
f 222/222/2 224/224/2 223/223/2
f 225/225/3 226/226/3 227/227/3
f 226/226/3 228/228/3 227/227/3
f 229/229/4 230/230/4 231/231/4
f 230/230/4 232/232/4 231/231/4
f 233/233/5 234/234/5 235/235/5
f 234/234/5 236/236/5 235/235/5
f 237/237/6 238/238/6 239/239/6
f 238/238/6 240/240/6 239/239/6
f 241/241/1 242/242/1 243/243/1
f 242/242/1 244/244/1 243/243/1
f 245/245/2 246/246/2 247/247/2
f 246/246/2 248/248/2 247/247/2
f 249/249/3 250/250/3 251/251/3
f 250/250/3 252/252/3 251/251/3
f 253/253/4 254/254/4 255/255/4
f 254/254/4 256/256/4 255/255/4
f 257/257/5 258/258/5 259/259/5
f 258/258/5 260/260/5 259/259/5
f 261/261/6 262/262/6 263/263/6
f 262/262/6 264/264/6 263/263/6
f 265/265/1 266/266/1 267/267/1
f 266/266/1 268/268/1 267/267/1
f 269/269/2 270/270/2 271/271/2
f 270/270/2 272/272/2 271/271/2
f 273/273/3 274/274/3 275/275/3
f 274/274/3 276/276/3 275/275/3
f 277/277/4 278/278/4 279/279/4
f 278/278/4 280/280/4 279/279/4
f 281/281/5 282/282/5 283/283/5
f 282/282/5 284/284/5 283/283/5
f 285/285/6 286/286/6 287/287/6
f 286/286/6 288/288/6 287/287/6
f 289/289/1 290/290/1 291/291/1
f 290/290/1 292/292/1 291/291/1
f 293/293/2 294/294/2 295/295/2
f 294/294/2 296/296/2 295/295/2
f 297/297/3 298/298/3 299/299/3
f 298/298/3 300/300/3 299/299/3
f 301/301/4 302/302/4 303/303/4
f 302/302/4 304/304/4 303/303/4
f 305/305/5 306/306/5 307/307/5
f 306/306/5 308/308/5 307/307/5
f 309/309/6 310/310/6 311/311/6
f 310/310/6 312/312/6 311/311/6
f 313/313/1 314/314/1 315/315/1
f 314/314/1 316/316/1 315/315/1
f 317/317/2 318/318/2 319/319/2
f 318/318/2 320/320/2 319/319/2
f 321/321/3 322/322/3 323/323/3
f 322/322/3 324/324/3 323/323/3
f 325/325/4 326/326/4 327/327/4
f 326/326/4 328/328/4 327/327/4
f 329/329/5 330/330/5 331/331/5
f 330/330/5 332/332/5 331/331/5
f 333/333/6 334/334/6 335/335/6
f 334/334/6 336/336/6 335/335/6
f 337/337/1 338/338/1 339/339/1
f 338/338/1 340/340/1 339/339/1
f 341/341/2 342/342/2 343/343/2
f 342/342/2 344/344/2 343/343/2
f 345/345/3 346/346/3 347/347/3
f 346/346/3 348/348/3 347/347/3
f 349/349/4 350/350/4 351/351/4
f 350/350/4 352/352/4 351/351/4
f 353/353/5 354/354/5 355/355/5
f 354/354/5 356/356/5 355/355/5
f 357/357/6 358/358/6 359/359/6
f 358/358/6 360/360/6 359/359/6
f 361/361/1 362/362/1 363/363/1
f 362/362/1 364/364/1 363/363/1
f 365/365/2 366/366/2 367/367/2
f 366/366/2 368/368/2 367/367/2
f 369/369/3 370/370/3 371/371/3
f 370/370/3 372/372/3 371/371/3
f 373/373/4 374/374/4 375/375/4
f 374/374/4 376/376/4 375/375/4
f 377/377/5 378/378/5 379/379/5
f 378/378/5 380/380/5 379/379/5
f 381/381/6 382/382/6 383/383/6
f 382/382/6 384/384/6 383/383/6
f 385/385/1 386/386/1 387/387/1
f 386/386/1 388/388/1 387/387/1
f 389/389/2 390/390/2 391/391/2
f 390/390/2 392/392/2 391/391/2
f 393/393/3 394/394/3 395/395/3
f 394/394/3 396/396/3 395/395/3
f 397/397/4 398/398/4 399/399/4
f 398/398/4 400/400/4 399/399/4
f 401/401/5 402/402/5 403/403/5
f 402/402/5 404/404/5 403/403/5
f 405/405/6 406/406/6 407/407/6
f 406/406/6 408/408/6 407/407/6
f 409/409/1 410/410/1 411/411/1
f 410/410/1 412/412/1 411/411/1
f 413/413/2 414/414/2 415/415/2
f 414/414/2 416/416/2 415/415/2
f 417/417/3 418/418/3 419/419/3
f 418/418/3 420/420/3 419/419/3
f 421/421/4 422/422/4 423/423/4
f 422/422/4 424/424/4 423/423/4
f 425/425/5 426/426/5 427/427/5
f 426/426/5 428/428/5 427/427/5
f 429/429/6 430/430/6 431/431/6
f 430/430/6 432/432/6 431/431/6
f 433/433/1 434/434/1 435/435/1
f 434/434/1 436/436/1 435/435/1
f 437/437/2 438/438/2 439/439/2
f 438/438/2 440/440/2 439/439/2
f 441/441/3 442/442/3 443/443/3
f 442/442/3 444/444/3 443/443/3
f 445/445/4 446/446/4 447/447/4
f 446/446/4 448/448/4 447/447/4
f 449/449/5 450/450/5 451/451/5
f 450/450/5 452/452/5 451/451/5
f 453/453/6 454/454/6 455/455/6
f 454/454/6 456/456/6 455/455/6
f 457/457/1 458/458/1 459/459/1
f 458/458/1 460/460/1 459/459/1
f 461/461/2 462/462/2 463/463/2
f 462/462/2 464/464/2 463/463/2
f 465/465/3 466/466/3 467/467/3
f 466/466/3 468/468/3 467/467/3
f 469/469/4 470/470/4 471/471/4
f 470/470/4 472/472/4 471/471/4
f 473/473/5 474/474/5 475/475/5
f 474/474/5 476/476/5 475/475/5
f 477/477/6 478/478/6 479/479/6
f 478/478/6 480/480/6 479/479/6
f 481/481/1 482/482/1 483/483/1
f 482/482/1 484/484/1 483/483/1
f 485/485/2 486/486/2 487/487/2
f 486/486/2 488/488/2 487/487/2
f 489/489/3 490/490/3 491/491/3
f 490/490/3 492/492/3 491/491/3
f 493/493/4 494/494/4 495/495/4
f 494/494/4 496/496/4 495/495/4
f 497/497/5 498/498/5 499/499/5
f 498/498/5 500/500/5 499/499/5
f 501/501/6 502/502/6 503/503/6
f 502/502/6 504/504/6 503/503/6
f 505/505/1 506/506/1 507/507/1
f 506/506/1 508/508/1 507/507/1
f 509/509/2 510/510/2 511/511/2
f 510/510/2 512/512/2 511/511/2
f 513/513/3 514/514/3 515/515/3
f 514/514/3 516/516/3 515/515/3
f 517/517/4 518/518/4 519/519/4
f 518/518/4 520/520/4 519/519/4
f 521/521/5 522/522/5 523/523/5
f 522/522/5 524/524/5 523/523/5
f 525/525/6 526/526/6 527/527/6
f 526/526/6 528/528/6 527/527/6
f 529/529/1 530/530/1 531/531/1
f 530/530/1 532/532/1 531/531/1
f 533/533/2 534/534/2 535/535/2
f 534/534/2 536/536/2 535/535/2
f 537/537/3 538/538/3 539/539/3
f 538/538/3 540/540/3 539/539/3
f 541/541/4 542/542/4 543/543/4
f 542/542/4 544/544/4 543/543/4
f 545/545/5 546/546/5 547/547/5
f 546/546/5 548/548/5 547/547/5
f 549/549/6 550/550/6 551/551/6
f 550/550/6 552/552/6 551/551/6
f 553/553/1 554/554/1 555/555/1
f 554/554/1 556/556/1 555/555/1
f 557/557/2 558/558/2 559/559/2
f 558/558/2 560/560/2 559/559/2
f 561/561/3 562/562/3 563/563/3
f 562/562/3 564/564/3 563/563/3
f 565/565/4 566/566/4 567/567/4
f 566/566/4 568/568/4 567/567/4
f 569/569/5 570/570/5 571/571/5
f 570/570/5 572/572/5 571/571/5
f 573/573/6 574/574/6 575/575/6
f 574/574/6 576/576/6 575/575/6
f 577/577/1 578/578/1 579/579/1
f 578/578/1 580/580/1 579/579/1
f 581/581/2 582/582/2 583/583/2
f 582/582/2 584/584/2 583/583/2
f 585/585/3 586/586/3 587/587/3
f 586/586/3 588/588/3 587/587/3
f 589/589/4 590/590/4 591/591/4
f 590/590/4 592/592/4 591/591/4
f 593/593/5 594/594/5 595/595/5
f 594/594/5 596/596/5 595/595/5
f 597/597/6 598/598/6 599/599/6
f 598/598/6 600/600/6 599/599/6
f 601/601/1 602/602/1 603/603/1
f 602/602/1 604/604/1 603/603/1
f 605/605/2 606/606/2 607/607/2
f 606/606/2 608/608/2 607/607/2
f 609/609/3 610/610/3 611/611/3
f 610/610/3 612/612/3 611/611/3
f 613/613/4 614/614/4 615/615/4
f 614/614/4 616/616/4 615/615/4
f 617/617/5 618/618/5 619/619/5
f 618/618/5 620/620/5 619/619/5
f 621/621/6 622/622/6 623/623/6
f 622/622/6 624/624/6 623/623/6
f 625/577/1 626/578/1 627/579/1
f 626/578/1 628/580/1 627/579/1
f 629/581/2 630/582/2 631/583/2
f 630/582/2 632/584/2 631/583/2
f 633/585/3 634/586/3 635/587/3
f 634/586/3 636/588/3 635/587/3
f 637/589/4 638/590/4 639/591/4
f 638/590/4 640/592/4 639/591/4
f 641/593/5 642/594/5 643/595/5
f 642/594/5 644/596/5 643/595/5
f 645/597/6 646/598/6 647/599/6
f 646/598/6 648/600/6 647/599/6
f 649/625/1 650/626/1 651/627/1
f 650/626/1 652/628/1 651/627/1
f 653/629/2 654/630/2 655/631/2
f 654/630/2 656/632/2 655/631/2
f 657/633/3 658/634/3 659/635/3
f 658/634/3 660/636/3 659/635/3
f 661/637/4 662/638/4 663/639/4
f 662/638/4 664/640/4 663/639/4
f 665/641/5 666/642/5 667/643/5
f 666/642/5 668/644/5 667/643/5
f 669/645/6 670/646/6 671/647/6
f 670/646/6 672/648/6 671/647/6
f 673/649/1 674/650/1 675/651/1
f 674/650/1 676/652/1 675/651/1
f 677/653/2 678/654/2 679/655/2
f 678/654/2 680/656/2 679/655/2
f 681/657/3 682/658/3 683/659/3
f 682/658/3 684/660/3 683/659/3
f 685/661/4 686/662/4 687/663/4
f 686/662/4 688/664/4 687/663/4
f 689/665/5 690/666/5 691/667/5
f 690/666/5 692/668/5 691/667/5
f 693/669/6 694/670/6 695/671/6
f 694/670/6 696/672/6 695/671/6
f 697/625/1 698/626/1 699/627/1
f 698/626/1 700/628/1 699/627/1
f 701/629/2 702/630/2 703/631/2
f 702/630/2 704/632/2 703/631/2
f 705/633/3 706/634/3 707/635/3
f 706/634/3 708/636/3 707/635/3
f 709/637/4 710/638/4 711/639/4
f 710/638/4 712/640/4 711/639/4
f 713/641/5 714/642/5 715/643/5
f 714/642/5 716/644/5 715/643/5
f 717/645/6 718/646/6 719/647/6
f 718/646/6 720/648/6 719/647/6
f 721/625/1 722/626/1 723/627/1
f 722/626/1 724/628/1 723/627/1
f 725/629/2 726/630/2 727/631/2
f 726/630/2 728/632/2 727/631/2
f 729/633/3 730/634/3 731/635/3
f 730/634/3 732/636/3 731/635/3
f 733/637/4 734/638/4 735/639/4
f 734/638/4 736/640/4 735/639/4
f 737/641/5 738/642/5 739/643/5
f 738/642/5 740/644/5 739/643/5
f 741/645/6 742/646/6 743/647/6
f 742/646/6 744/648/6 743/647/6
f 745/649/1 746/650/1 747/651/1
f 746/650/1 748/652/1 747/651/1
f 749/653/2 750/654/2 751/655/2
f 750/654/2 752/656/2 751/655/2
f 753/657/3 754/658/3 755/659/3
f 754/658/3 756/660/3 755/659/3
f 757/661/4 758/662/4 759/663/4
f 758/662/4 760/664/4 759/663/4
f 761/665/5 762/666/5 763/667/5
f 762/666/5 764/668/5 763/667/5
f 765/669/6 766/670/6 767/671/6
f 766/670/6 768/672/6 767/671/6
f 769/625/1 770/626/1 771/627/1
f 770/626/1 772/628/1 771/627/1
f 773/629/2 774/630/2 775/631/2
f 774/630/2 776/632/2 775/631/2
f 777/633/3 778/634/3 779/635/3
f 778/634/3 780/636/3 779/635/3
f 781/637/4 782/638/4 783/639/4
f 782/638/4 784/640/4 783/639/4
f 785/641/5 786/642/5 787/643/5
f 786/642/5 788/644/5 787/643/5
f 789/645/6 790/646/6 791/647/6
f 790/646/6 792/648/6 791/647/6
f 793/577/1 794/578/1 795/579/1
f 794/578/1 796/580/1 795/579/1
f 797/581/2 798/582/2 799/583/2
f 798/582/2 800/584/2 799/583/2
f 801/585/3 802/586/3 803/587/3
f 802/586/3 804/588/3 803/587/3
f 805/589/4 806/590/4 807/591/4
f 806/590/4 808/592/4 807/591/4
f 809/593/5 810/594/5 811/595/5
f 810/594/5 812/596/5 811/595/5
f 813/597/6 814/598/6 815/599/6
f 814/598/6 816/600/6 815/599/6
f 817/601/1 818/602/1 819/603/1
f 818/602/1 820/604/1 819/603/1
f 821/605/2 822/606/2 823/607/2
f 822/606/2 824/608/2 823/607/2
f 825/609/3 826/610/3 827/611/3
f 826/610/3 828/612/3 827/611/3
f 829/613/4 830/614/4 831/615/4
f 830/614/4 832/616/4 831/615/4
f 833/617/5 834/618/5 835/619/5
f 834/618/5 836/620/5 835/619/5
f 837/621/6 838/622/6 839/623/6
f 838/622/6 840/624/6 839/623/6
f 841/577/1 842/578/1 843/579/1
f 842/578/1 844/580/1 843/579/1
f 845/581/2 846/582/2 847/583/2
f 846/582/2 848/584/2 847/583/2
f 849/585/3 850/586/3 851/587/3
f 850/586/3 852/588/3 851/587/3
f 853/589/4 854/590/4 855/591/4
f 854/590/4 856/592/4 855/591/4
f 857/593/5 858/594/5 859/595/5
f 858/594/5 860/596/5 859/595/5
f 861/597/6 862/598/6 863/599/6
f 862/598/6 864/600/6 863/599/6
f 865/673/1 866/674/1 867/675/1
f 866/674/1 868/676/1 867/675/1
f 869/677/2 870/678/2 871/679/2
f 870/678/2 872/680/2 871/679/2
f 873/681/3 874/682/3 875/683/3
f 874/682/3 876/684/3 875/683/3
f 877/685/4 878/686/4 879/687/4
f 878/686/4 880/688/4 879/687/4
f 881/689/5 882/690/5 883/691/5
f 882/690/5 884/692/5 883/691/5
f 885/693/6 886/694/6 887/695/6
f 886/694/6 888/696/6 887/695/6
f 889/697/1 890/698/1 891/699/1
f 890/698/1 892/700/1 891/699/1
f 893/701/2 894/702/2 895/703/2
f 894/702/2 896/704/2 895/703/2
f 897/705/3 898/706/3 899/707/3
f 898/706/3 900/708/3 899/707/3
f 901/709/4 902/710/4 903/711/4
f 902/710/4 904/712/4 903/711/4
f 905/713/5 906/714/5 907/715/5
f 906/714/5 908/716/5 907/715/5
f 909/717/6 910/718/6 911/719/6
f 910/718/6 912/720/6 911/719/6
f 913/721/1 914/722/1 915/723/1
f 914/722/1 916/724/1 915/723/1
f 917/725/2 918/726/2 919/727/2
f 918/726/2 920/728/2 919/727/2
f 921/729/3 922/730/3 923/731/3
f 922/730/3 924/732/3 923/731/3
f 925/733/4 926/734/4 927/735/4
f 926/734/4 928/736/4 927/735/4
f 929/737/5 930/738/5 931/739/5
f 930/738/5 932/740/5 931/739/5
f 933/741/6 934/742/6 935/743/6
f 934/742/6 936/744/6 935/743/6
