# Blender 5.2.1 LTS
# www.blender.org
mtllib seedler.mtl
o 670ce0fc-ec5c-4c63-9736-1aef00b6b238-export_Seedler_material_0
v 0.355882 0.355882 -0.016176
v 0.355882 0.226471 -0.016176
v 0.129412 0.226471 -0.016176
v 0.129412 0.355882 -0.016176
v 0.000000 -0.226471 -0.048529
v 0.000000 -0.323529 -0.048529
v -0.129412 -0.323529 -0.048529
v -0.129412 -0.226471 -0.048529
v -0.129412 -0.226471 -0.016176
v -0.129412 -0.323529 -0.016176
v -0.194118 -0.323529 -0.016176
v -0.194118 -0.226471 -0.016176
v 0.258823 0.032353 -0.016176
v 0.258823 -0.032353 -0.016176
v 0.032353 -0.032353 -0.016176
v 0.032353 0.032353 -0.016176
v 0.291176 0.097059 -0.016176
v 0.291176 0.032353 -0.016176
v 0.064706 0.032353 -0.016176
v 0.064706 0.097059 -0.016176
v 0.355882 0.226471 -0.016176
v 0.355882 0.161765 -0.016176
v 0.097059 0.161765 -0.016176
v 0.097059 0.226471 -0.016176
v 0.323529 0.420588 -0.016176
v 0.323529 0.355882 -0.016176
v 0.129412 0.355882 -0.016176
v 0.129412 0.420588 -0.016176
v 0.129412 -0.452941 -0.016176
v 0.129412 -0.517647 -0.016176
v 0.032353 -0.517647 -0.016176
v 0.032353 -0.452941 -0.016176
v 0.291176 0.485294 -0.016176
v 0.291176 0.420588 -0.016176
v 0.161765 0.420588 -0.016176
v 0.161765 0.485294 -0.016176
v 0.032353 -0.226471 -0.016176
v 0.032353 -0.291176 -0.016176
v 0.000000 -0.291176 -0.016176
v 0.000000 -0.226471 -0.016176
v -0.064706 -0.097059 -0.016176
v -0.064706 -0.129412 -0.016176
v -0.355882 -0.129412 -0.016176
v -0.355882 -0.097059 -0.016176
v 0.129412 -0.355882 -0.016176
v 0.129412 -0.388235 -0.016176
v -0.258823 -0.388235 -0.016176
v -0.258823 -0.355882 -0.016176
v -0.194118 -0.452941 -0.016176
v -0.194118 -0.485294 -0.016176
v -0.355882 -0.485294 -0.016176
v -0.355882 -0.452941 -0.016176
v -0.161765 -0.420588 -0.016176
v -0.161765 -0.452941 -0.016176
v -0.323529 -0.452941 -0.016176
v -0.323529 -0.420588 -0.016176
v -0.161765 -0.129412 -0.016176
v -0.161765 -0.161765 -0.016176
v -0.323529 -0.161765 -0.016176
v -0.323529 -0.129412 -0.016176
v -0.129412 -0.388235 -0.016176
v -0.129412 -0.420588 -0.016176
v -0.291176 -0.420588 -0.016176
v -0.291176 -0.388235 -0.016176
v 0.000000 -0.323529 -0.016176
v 0.000000 -0.355882 -0.016176
v -0.226471 -0.355882 -0.016176
v -0.226471 -0.323529 -0.016176
v -0.064706 -0.064706 -0.016176
v -0.064706 -0.097059 -0.016176
v -0.226471 -0.097059 -0.016176
v -0.226471 -0.064706 -0.016176
v 0.097059 -0.161765 -0.016176
v 0.097059 -0.194118 -0.016176
v -0.097059 -0.194118 -0.016176
v -0.097059 -0.161765 -0.016176
v 0.129412 -0.129412 -0.016176
v 0.129412 -0.161765 -0.016176
v -0.064706 -0.161765 -0.016176
v -0.064706 -0.129412 -0.016176
v 0.129412 -0.388235 -0.016176
v 0.129412 -0.420588 -0.016176
v -0.032353 -0.420588 -0.016176
v -0.032353 -0.388235 -0.016176
v 0.161765 -0.097059 -0.016176
v 0.161765 -0.129412 -0.016176
v -0.032353 -0.129412 -0.016176
v -0.032353 -0.097059 -0.016176
v 0.194118 -0.064706 -0.016176
v 0.194118 -0.097059 -0.016176
v 0.000000 -0.097059 -0.016176
v 0.000000 -0.064706 -0.016176
v 0.226471 -0.032353 -0.016176
v 0.226471 -0.064706 -0.016176
v 0.000000 -0.064706 -0.016176
v 0.000000 -0.032353 -0.016176
v 0.323529 0.129412 -0.016176
v 0.323529 0.097059 -0.016176
v 0.064706 0.097059 -0.016176
v 0.064706 0.129412 -0.016176
v 0.323529 0.161765 -0.016176
v 0.323529 0.129412 -0.016176
v 0.097059 0.129412 -0.016176
v 0.097059 0.161765 -0.016176
v -0.032353 -0.194118 -0.048529
v -0.032353 -0.226471 -0.048529
v -0.129412 -0.226471 -0.048529
v -0.129412 -0.194118 -0.048529
v -0.258823 -0.517647 -0.016176
v -0.258823 -0.550000 -0.016176
v -0.355882 -0.550000 -0.016176
v -0.355882 -0.517647 -0.016176
v -0.226471 -0.485294 -0.016176
v -0.226471 -0.517647 -0.016176
v -0.355882 -0.517647 -0.016176
v -0.355882 -0.485294 -0.016176
v -0.129412 -0.194118 -0.016176
v -0.129412 -0.226471 -0.016176
v -0.226471 -0.226471 -0.016176
v -0.226471 -0.194118 -0.016176
v 0.064706 -0.194118 -0.016176
v 0.064706 -0.226471 -0.016176
v -0.032353 -0.226471 -0.016176
v -0.032353 -0.194118 -0.016176
v 0.161765 -0.291176 -0.016176
v 0.161765 -0.323529 -0.016176
v 0.032353 -0.323529 -0.016176
v 0.032353 -0.291176 -0.016176
v 0.161765 -0.323529 -0.016176
v 0.161765 -0.355882 -0.016176
v 0.064706 -0.355882 -0.016176
v 0.064706 -0.323529 -0.016176
v 0.258823 0.517647 -0.016176
v 0.258823 0.485294 -0.016176
v 0.161765 0.485294 -0.016176
v 0.161765 0.517647 -0.016176
v -0.258823 -0.064706 -0.016176
v -0.258823 -0.097059 -0.016176
v -0.323529 -0.097059 -0.016176
v -0.323529 -0.064706 -0.016176
v -0.161765 -0.161765 -0.016176
v -0.161765 -0.194118 -0.016176
v -0.226471 -0.194118 -0.016176
v -0.226471 -0.161765 -0.016176
v -0.097059 -0.032353 -0.016176
v -0.097059 -0.064706 -0.016176
v -0.161765 -0.064706 -0.016176
v -0.161765 -0.032353 -0.016176
v 0.097059 -0.420588 -0.016176
v 0.097059 -0.452941 -0.016176
v 0.032353 -0.452941 -0.016176
v 0.032353 -0.420588 -0.016176
v 0.129412 -0.258824 -0.016176
v 0.129412 -0.291176 -0.016176
v 0.064706 -0.291176 -0.016176
v 0.064706 -0.258824 -0.016176
v 0.226471 0.550000 -0.016176
v 0.226471 0.517647 -0.016176
v 0.161765 0.517647 -0.016176
v 0.161765 0.550000 -0.016176
v -0.097059 -0.129412 -0.016176
v -0.097059 -0.161765 -0.016176
v -0.129412 -0.161765 -0.016176
v -0.129412 -0.129412 -0.016176
v 0.097059 -0.517647 -0.016176
v 0.097059 -0.550000 -0.016176
v 0.064706 -0.550000 -0.016176
v 0.064706 -0.517647 -0.016176
v 0.129412 0.355882 0.016176
v 0.129412 0.226471 0.016176
v 0.355882 0.226471 0.016176
v 0.355882 0.355882 0.016176
v -0.129412 -0.226471 0.048529
v -0.129412 -0.323529 0.048529
v 0.000000 -0.323529 0.048529
v 0.000000 -0.226471 0.048529
v -0.194118 -0.226471 0.016176
v -0.194118 -0.323529 0.016176
v -0.129412 -0.323529 0.016176
v -0.129412 -0.226471 0.016176
v 0.032353 0.032353 0.016176
v 0.032353 -0.032353 0.016176
v 0.258823 -0.032353 0.016176
v 0.258823 0.032353 0.016176
v 0.064706 0.097059 0.016176
v 0.064706 0.032353 0.016176
v 0.291176 0.032353 0.016176
v 0.291176 0.097059 0.016176
v 0.097059 0.226471 0.016176
v 0.097059 0.161765 0.016176
v 0.355882 0.161765 0.016176
v 0.355882 0.226471 0.016176
v 0.129412 0.420588 0.016176
v 0.129412 0.355882 0.016176
v 0.323529 0.355882 0.016176
v 0.323529 0.420588 0.016176
v 0.032353 -0.452941 0.016176
v 0.032353 -0.517647 0.016176
v 0.129412 -0.517647 0.016176
v 0.129412 -0.452941 0.016176
v 0.161765 0.485294 0.016176
v 0.161765 0.420588 0.016176
v 0.291176 0.420588 0.016176
v 0.291176 0.485294 0.016176
v 0.000000 -0.226471 0.016176
v 0.000000 -0.291176 0.016176
v 0.032353 -0.291176 0.016176
v 0.032353 -0.226471 0.016176
v -0.355882 -0.097059 0.016176
v -0.355882 -0.129412 0.016176
v -0.064706 -0.129412 0.016176
v -0.064706 -0.097059 0.016176
v -0.258823 -0.355882 0.016176
v -0.258823 -0.388235 0.016176
v 0.129412 -0.388235 0.016176
v 0.129412 -0.355882 0.016176
v -0.355882 -0.452941 0.016176
v -0.355882 -0.485294 0.016176
v -0.194118 -0.485294 0.016176
v -0.194118 -0.452941 0.016176
v -0.323529 -0.420588 0.016176
v -0.323529 -0.452941 0.016176
v -0.161765 -0.452941 0.016176
v -0.161765 -0.420588 0.016176
v -0.323529 -0.129412 0.016176
v -0.323529 -0.161765 0.016176
v -0.161765 -0.161765 0.016176
v -0.161765 -0.129412 0.016176
v -0.291176 -0.388235 0.016176
v -0.291176 -0.420588 0.016176
v -0.129412 -0.420588 0.016176
v -0.129412 -0.388235 0.016176
v -0.226471 -0.323529 0.016176
v -0.226471 -0.355882 0.016176
v 0.000000 -0.355882 0.016176
v 0.000000 -0.323529 0.016176
v -0.226471 -0.064706 0.016176
v -0.226471 -0.097059 0.016176
v -0.064706 -0.097059 0.016176
v -0.064706 -0.064706 0.016176
v -0.097059 -0.161765 0.016176
v -0.097059 -0.194118 0.016176
v 0.097059 -0.194118 0.016176
v 0.097059 -0.161765 0.016176
v -0.064706 -0.129412 0.016176
v -0.064706 -0.161765 0.016176
v 0.129412 -0.161765 0.016176
v 0.129412 -0.129412 0.016176
v -0.032353 -0.388235 0.016176
v -0.032353 -0.420588 0.016176
v 0.129412 -0.420588 0.016176
v 0.129412 -0.388235 0.016176
v -0.032353 -0.097059 0.016176
v -0.032353 -0.129412 0.016176
v 0.161765 -0.129412 0.016176
v 0.161765 -0.097059 0.016176
v 0.000000 -0.064706 0.016176
v 0.000000 -0.097059 0.016176
v 0.194118 -0.097059 0.016176
v 0.194118 -0.064706 0.016176
v 0.000000 -0.032353 0.016176
v 0.000000 -0.064706 0.016176
v 0.226471 -0.064706 0.016176
v 0.226471 -0.032353 0.016176
v 0.064706 0.129412 0.016176
v 0.064706 0.097059 0.016176
v 0.323529 0.097059 0.016176
v 0.323529 0.129412 0.016176
v 0.097059 0.161765 0.016176
v 0.097059 0.129412 0.016176
v 0.323529 0.129412 0.016176
v 0.323529 0.161765 0.016176
v -0.355882 -0.517647 0.016176
v -0.355882 -0.550000 0.016176
v -0.258823 -0.550000 0.016176
v -0.258823 -0.517647 0.016176
v -0.355882 -0.485294 0.016176
v -0.355882 -0.517647 0.016176
v -0.226471 -0.517647 0.016176
v -0.226471 -0.485294 0.016176
v -0.226471 -0.194118 0.016176
v -0.226471 -0.226471 0.016176
v -0.129412 -0.226471 0.016176
v -0.129412 -0.194118 0.016176
v -0.032353 -0.194118 0.016176
v -0.032353 -0.226471 0.016176
v 0.064706 -0.226471 0.016176
v 0.064706 -0.194118 0.016176
v 0.032353 -0.291176 0.016176
v 0.032353 -0.323529 0.016176
v 0.161765 -0.323529 0.016176
v 0.161765 -0.291176 0.016176
v 0.064706 -0.323529 0.016176
v 0.064706 -0.355882 0.016176
v 0.161765 -0.355882 0.016176
v 0.161765 -0.323529 0.016176
v 0.161765 0.517647 0.016176
v 0.161765 0.485294 0.016176
v 0.258823 0.485294 0.016176
v 0.258823 0.517647 0.016176
v -0.129412 -0.194118 0.048529
v -0.129412 -0.226471 0.048529
v -0.032353 -0.226471 0.048529
v -0.032353 -0.194118 0.048529
v -0.323529 -0.064706 0.016176
v -0.323529 -0.097059 0.016176
v -0.258823 -0.097059 0.016176
v -0.258823 -0.064706 0.016176
v -0.226471 -0.161765 0.016176
v -0.226471 -0.194118 0.016176
v -0.161765 -0.194118 0.016176
v -0.161765 -0.161765 0.016176
v -0.161765 -0.032353 0.016176
v -0.161765 -0.064706 0.016176
v -0.097059 -0.064706 0.016176
v -0.097059 -0.032353 0.016176
v 0.032353 -0.420588 0.016176
v 0.032353 -0.452941 0.016176
v 0.097059 -0.452941 0.016176
v 0.097059 -0.420588 0.016176
v 0.064706 -0.258824 0.016176
v 0.064706 -0.291176 0.016176
v 0.129412 -0.291176 0.016176
v 0.129412 -0.258824 0.016176
v 0.161765 0.550000 0.016176
v 0.161765 0.517647 0.016176
v 0.226471 0.517647 0.016176
v 0.226471 0.550000 0.016176
v -0.129412 -0.129412 0.016176
v -0.129412 -0.161765 0.016176
v -0.097059 -0.161765 0.016176
v -0.097059 -0.129412 0.016176
v 0.064706 -0.517647 0.016176
v 0.064706 -0.550000 0.016176
v 0.097059 -0.550000 0.016176
v 0.097059 -0.517647 0.016176
v 0.129412 0.420588 -0.016176
v 0.129412 0.226471 -0.016176
v 0.129412 0.226471 0.016176
v 0.129412 0.420588 0.016176
v -0.129412 -0.194118 -0.048529
v -0.129412 -0.323529 -0.048529
v -0.129412 -0.323529 -0.016176
v -0.129412 -0.194118 -0.016176
v -0.355882 -0.452941 -0.016176
v -0.355882 -0.550000 -0.016176
v -0.355882 -0.550000 0.016176
v -0.355882 -0.452941 0.016176
v -0.194118 -0.226471 -0.016176
v -0.194118 -0.323529 -0.016176
v -0.194118 -0.323529 0.016176
v -0.194118 -0.226471 0.016176
v 0.032353 -0.420588 -0.016176
v 0.032353 -0.517647 -0.016176
v 0.032353 -0.517647 0.016176
v 0.032353 -0.420588 0.016176
v 0.064706 0.129412 -0.016176
v 0.064706 0.032353 -0.016176
v 0.064706 0.032353 0.016176
v 0.064706 0.129412 0.016176
v 0.097059 0.226471 -0.016176
v 0.097059 0.129412 -0.016176
v 0.097059 0.129412 0.016176
v 0.097059 0.226471 0.016176
v 0.161765 0.550000 -0.016176
v 0.161765 0.420588 -0.016176
v 0.161765 0.420588 0.016176
v 0.161765 0.550000 0.016176
v -0.129412 -0.194118 0.016176
v -0.129412 -0.323529 0.016176
v -0.129412 -0.323529 0.048529
v -0.129412 -0.194118 0.048529
v -0.226471 -0.161765 -0.016176
v -0.226471 -0.226471 -0.016176
v -0.226471 -0.226471 0.016176
v -0.226471 -0.161765 0.016176
v 0.000000 -0.032353 -0.016176
v 0.000000 -0.097059 -0.016176
v 0.000000 -0.097059 0.016176
v 0.000000 -0.032353 0.016176
v 0.032353 0.032353 -0.016176
v 0.032353 -0.032353 -0.016176
v 0.032353 -0.032353 0.016176
v 0.032353 0.032353 0.016176
v -0.355882 -0.097059 -0.016176
v -0.355882 -0.129412 -0.016176
v -0.355882 -0.129412 0.016176
v -0.355882 -0.097059 0.016176
v -0.323529 -0.420588 -0.016176
v -0.323529 -0.452941 -0.016176
v -0.323529 -0.452941 0.016176
v -0.323529 -0.420588 0.016176
v -0.323529 -0.129412 -0.016176
v -0.323529 -0.161765 -0.016176
v -0.323529 -0.161765 0.016176
v -0.323529 -0.129412 0.016176
v -0.323529 -0.064706 -0.016176
v -0.323529 -0.097059 -0.016176
v -0.323529 -0.097059 0.016176
v -0.323529 -0.064706 0.016176
v -0.291176 -0.388235 -0.016176
v -0.291176 -0.420588 -0.016176
v -0.291176 -0.420588 0.016176
v -0.291176 -0.388235 0.016176
v -0.258823 -0.355882 -0.016176
v -0.258823 -0.388235 -0.016176
v -0.258823 -0.388235 0.016176
v -0.258823 -0.355882 0.016176
v -0.226471 -0.323529 -0.016176
v -0.226471 -0.355882 -0.016176
v -0.226471 -0.355882 0.016176
v -0.226471 -0.323529 0.016176
v -0.226471 -0.064706 -0.016176
v -0.226471 -0.097059 -0.016176
v -0.226471 -0.097059 0.016176
v -0.226471 -0.064706 0.016176
v -0.161765 -0.032353 -0.016176
v -0.161765 -0.064706 -0.016176
v -0.161765 -0.064706 0.016176
v -0.161765 -0.032353 0.016176
v -0.129412 -0.129412 -0.016176
v -0.129412 -0.161765 -0.016176
v -0.129412 -0.161765 0.016176
v -0.129412 -0.129412 0.016176
v -0.097059 -0.161765 -0.016176
v -0.097059 -0.194118 -0.016176
v -0.097059 -0.194118 0.016176
v -0.097059 -0.161765 0.016176
v -0.064706 -0.129412 -0.016176
v -0.064706 -0.161765 -0.016176
v -0.064706 -0.161765 0.016176
v -0.064706 -0.129412 0.016176
v -0.032353 -0.388235 -0.016176
v -0.032353 -0.420588 -0.016176
v -0.032353 -0.420588 0.016176
v -0.032353 -0.388235 0.016176
v -0.032353 -0.097059 -0.016176
v -0.032353 -0.129412 -0.016176
v -0.032353 -0.129412 0.016176
v -0.032353 -0.097059 0.016176
v 0.032353 -0.291176 -0.016176
v 0.032353 -0.323529 -0.016176
v 0.032353 -0.323529 0.016176
v 0.032353 -0.291176 0.016176
v 0.064706 -0.517647 -0.016176
v 0.064706 -0.550000 -0.016176
v 0.064706 -0.550000 0.016176
v 0.064706 -0.517647 0.016176
v 0.064706 -0.323529 -0.016176
v 0.064706 -0.355882 -0.016176
v 0.064706 -0.355882 0.016176
v 0.064706 -0.323529 0.016176
v 0.064706 -0.258824 -0.016176
v 0.064706 -0.291176 -0.016176
v 0.064706 -0.291176 0.016176
v 0.064706 -0.258824 0.016176
v 0.355882 0.355882 0.016176
v 0.355882 0.161765 0.016176
v 0.355882 0.161765 -0.016176
v 0.355882 0.355882 -0.016176
v 0.000000 -0.226471 -0.016176
v 0.000000 -0.291176 -0.016176
v 0.000000 -0.291176 -0.048529
v 0.000000 -0.226471 -0.048529
v -0.161765 -0.129412 0.016176
v -0.161765 -0.194118 0.016176
v -0.161765 -0.194118 -0.016176
v -0.161765 -0.129412 -0.016176
v -0.064706 -0.064706 0.016176
v -0.064706 -0.129412 0.016176
v -0.064706 -0.129412 -0.016176
v -0.064706 -0.064706 -0.016176
v 0.032353 -0.226471 0.016176
v 0.032353 -0.291176 0.016176
v 0.032353 -0.291176 -0.016176
v 0.032353 -0.226471 -0.016176
v 0.129412 -0.452941 0.016176
v 0.129412 -0.517647 0.016176
v 0.129412 -0.517647 -0.016176
v 0.129412 -0.452941 -0.016176
v 0.129412 -0.355882 0.016176
v 0.129412 -0.420588 0.016176
v 0.129412 -0.420588 -0.016176
v 0.129412 -0.355882 -0.016176
v 0.161765 -0.291176 0.016176
v 0.161765 -0.355882 0.016176
v 0.161765 -0.355882 -0.016176
v 0.161765 -0.291176 -0.016176
v 0.258823 0.032353 0.016176
v 0.258823 -0.032353 0.016176
v 0.258823 -0.032353 -0.016176
v 0.258823 0.032353 -0.016176
v 0.291176 0.097059 0.016176
v 0.291176 0.032353 0.016176
v 0.291176 0.032353 -0.016176
v 0.291176 0.097059 -0.016176
v 0.291176 0.485294 0.016176
v 0.291176 0.420588 0.016176
v 0.291176 0.420588 -0.016176
v 0.291176 0.485294 -0.016176
v 0.323529 0.161765 0.016176
v 0.323529 0.097059 0.016176
v 0.323529 0.097059 -0.016176
v 0.323529 0.161765 -0.016176
v 0.323529 0.420588 0.016176
v 0.323529 0.355882 0.016176
v 0.323529 0.355882 -0.016176
v 0.323529 0.420588 -0.016176
v 0.000000 -0.226471 0.048529
v 0.000000 -0.291176 0.048529
v 0.000000 -0.291176 0.016176
v 0.000000 -0.226471 0.016176
v 0.000000 -0.291176 0.048529
v 0.000000 -0.323529 0.048529
v 0.000000 -0.323529 -0.048529
v 0.000000 -0.291176 -0.048529
v -0.032353 -0.194118 -0.016176
v -0.032353 -0.226471 -0.016176
v -0.032353 -0.226471 -0.048529
v -0.032353 -0.194118 -0.048529
v -0.258823 -0.517647 0.016176
v -0.258823 -0.550000 0.016176
v -0.258823 -0.550000 -0.016176
v -0.258823 -0.517647 -0.016176
v -0.258823 -0.064706 0.016176
v -0.258823 -0.097059 0.016176
v -0.258823 -0.097059 -0.016176
v -0.258823 -0.064706 -0.016176
v -0.226471 -0.485294 0.016176
v -0.226471 -0.517647 0.016176
v -0.226471 -0.517647 -0.016176
v -0.226471 -0.485294 -0.016176
v -0.194118 -0.452941 0.016176
v -0.194118 -0.485294 0.016176
v -0.194118 -0.485294 -0.016176
v -0.194118 -0.452941 -0.016176
v -0.161765 -0.420588 0.016176
v -0.161765 -0.452941 0.016176
v -0.161765 -0.452941 -0.016176
v -0.161765 -0.420588 -0.016176
v -0.129412 -0.388235 0.016176
v -0.129412 -0.420588 0.016176
v -0.129412 -0.420588 -0.016176
v -0.129412 -0.388235 -0.016176
v -0.097059 -0.129412 0.016176
v -0.097059 -0.161765 0.016176
v -0.097059 -0.161765 -0.016176
v -0.097059 -0.129412 -0.016176
v -0.097059 -0.032353 0.016176
v -0.097059 -0.064706 0.016176
v -0.097059 -0.064706 -0.016176
v -0.097059 -0.032353 -0.016176
v 0.000000 -0.323529 0.016176
v 0.000000 -0.355882 0.016176
v 0.000000 -0.355882 -0.016176
v 0.000000 -0.323529 -0.016176
v 0.064706 -0.194118 0.016176
v 0.064706 -0.226471 0.016176
v 0.064706 -0.226471 -0.016176
v 0.064706 -0.194118 -0.016176
v 0.097059 -0.517647 0.016176
v 0.097059 -0.550000 0.016176
v 0.097059 -0.550000 -0.016176
v 0.097059 -0.517647 -0.016176
v 0.097059 -0.420588 0.016176
v 0.097059 -0.452941 0.016176
v 0.097059 -0.452941 -0.016176
v 0.097059 -0.420588 -0.016176
v 0.097059 -0.161765 0.016176
v 0.097059 -0.194118 0.016176
v 0.097059 -0.194118 -0.016176
v 0.097059 -0.161765 -0.016176
v 0.129412 -0.258824 0.016176
v 0.129412 -0.291176 0.016176
v 0.129412 -0.291176 -0.016176
v 0.129412 -0.258824 -0.016176
v 0.129412 -0.129412 0.016176
v 0.129412 -0.161765 0.016176
v 0.129412 -0.161765 -0.016176
v 0.129412 -0.129412 -0.016176
v 0.161765 -0.097059 0.016176
v 0.161765 -0.129412 0.016176
v 0.161765 -0.129412 -0.016176
v 0.161765 -0.097059 -0.016176
v 0.194118 -0.064706 0.016176
v 0.194118 -0.097059 0.016176
v 0.194118 -0.097059 -0.016176
v 0.194118 -0.064706 -0.016176
v 0.226471 -0.032353 0.016176
v 0.226471 -0.064706 0.016176
v 0.226471 -0.064706 -0.016176
v 0.226471 -0.032353 -0.016176
v 0.226471 0.550000 0.016176
v 0.226471 0.517647 0.016176
v 0.226471 0.517647 -0.016176
v 0.226471 0.550000 -0.016176
v 0.258823 0.517647 0.016176
v 0.258823 0.485294 0.016176
v 0.258823 0.485294 -0.016176
v 0.258823 0.517647 -0.016176
v -0.032353 -0.194118 0.048529
v -0.032353 -0.226471 0.048529
v -0.032353 -0.226471 0.016176
v -0.032353 -0.194118 0.016176
v -0.129412 -0.194118 -0.048529
v -0.129412 -0.194118 -0.016176
v -0.032353 -0.194118 -0.016176
v -0.032353 -0.194118 -0.048529
v -0.129412 -0.194118 0.016176
v -0.129412 -0.194118 0.048529
v -0.032353 -0.194118 0.048529
v -0.032353 -0.194118 0.016176
v -0.323529 -0.064706 -0.016176
v -0.323529 -0.064706 0.016176
v -0.258823 -0.064706 0.016176
v -0.258823 -0.064706 -0.016176
v -0.226471 -0.064706 -0.016176
v -0.226471 -0.064706 0.016176
v -0.161765 -0.064706 0.016176
v -0.161765 -0.064706 -0.016176
v -0.161765 -0.194118 -0.016176
v -0.161765 -0.194118 0.016176
v -0.097059 -0.194118 0.016176
v -0.097059 -0.194118 -0.016176
v -0.161765 -0.032353 -0.016176
v -0.161765 -0.032353 0.016176
v -0.097059 -0.032353 0.016176
v -0.097059 -0.032353 -0.016176
v 0.000000 -0.355882 -0.016176
v 0.000000 -0.355882 0.016176
v 0.064706 -0.355882 0.016176
v 0.064706 -0.355882 -0.016176
v 0.064706 -0.258824 -0.016176
v 0.064706 -0.258824 0.016176
v 0.129412 -0.258824 0.016176
v 0.129412 -0.258824 -0.016176
v 0.161765 0.550000 -0.016176
v 0.161765 0.550000 0.016176
v 0.226471 0.550000 0.016176
v 0.226471 0.550000 -0.016176
v -0.032353 -0.226471 -0.048529
v -0.032353 -0.226471 -0.016176
v 0.000000 -0.226471 -0.016176
v 0.000000 -0.226471 -0.048529
v -0.355882 -0.452941 -0.016176
v -0.355882 -0.452941 0.016176
v -0.323529 -0.452941 0.016176
v -0.323529 -0.452941 -0.016176
v -0.355882 -0.097059 -0.016176
v -0.355882 -0.097059 0.016176
v -0.323529 -0.097059 0.016176
v -0.323529 -0.097059 -0.016176
v -0.323529 -0.420588 -0.016176
v -0.323529 -0.420588 0.016176
v -0.291176 -0.420588 0.016176
v -0.291176 -0.420588 -0.016176
v -0.291176 -0.388235 -0.016176
v -0.291176 -0.388235 0.016176
v -0.258823 -0.388235 0.016176
v -0.258823 -0.388235 -0.016176
v -0.258823 -0.355882 -0.016176
v -0.258823 -0.355882 0.016176
v -0.226471 -0.355882 0.016176
v -0.226471 -0.355882 -0.016176
v -0.258823 -0.097059 -0.016176
v -0.258823 -0.097059 0.016176
v -0.226471 -0.097059 0.016176
v -0.226471 -0.097059 -0.016176
v -0.226471 -0.323529 -0.016176
v -0.226471 -0.323529 0.016176
v -0.194118 -0.323529 0.016176
v -0.194118 -0.323529 -0.016176
v -0.097059 -0.161765 -0.016176
v -0.097059 -0.161765 0.016176
v -0.064706 -0.161765 0.016176
v -0.064706 -0.161765 -0.016176
v -0.097059 -0.064706 -0.016176
v -0.097059 -0.064706 0.016176
v -0.064706 -0.064706 0.016176
v -0.064706 -0.064706 -0.016176
v -0.064706 -0.129412 -0.016176
v -0.064706 -0.129412 0.016176
v -0.032353 -0.129412 0.016176
v -0.032353 -0.129412 -0.016176
v -0.032353 -0.097059 -0.016176
v -0.032353 -0.097059 0.016176
v 0.000000 -0.097059 0.016176
v 0.000000 -0.097059 -0.016176
v 0.000000 -0.032353 -0.016176
v 0.000000 -0.032353 0.016176
v 0.032353 -0.032353 0.016176
v 0.032353 -0.032353 -0.016176
v 0.032353 -0.291176 -0.016176
v 0.032353 -0.291176 0.016176
v 0.064706 -0.291176 0.016176
v 0.064706 -0.291176 -0.016176
v 0.032353 0.032353 -0.016176
v 0.032353 0.032353 0.016176
v 0.064706 0.032353 0.016176
v 0.064706 0.032353 -0.016176
v 0.064706 0.129412 -0.016176
v 0.064706 0.129412 0.016176
v 0.097059 0.129412 0.016176
v 0.097059 0.129412 -0.016176
v 0.097059 -0.452941 -0.016176
v 0.097059 -0.452941 0.016176
v 0.129412 -0.452941 0.016176
v 0.129412 -0.452941 -0.016176
v 0.097059 0.226471 -0.016176
v 0.097059 0.226471 0.016176
v 0.129412 0.226471 0.016176
v 0.129412 0.226471 -0.016176
v 0.129412 -0.291176 -0.016176
v 0.129412 -0.291176 0.016176
v 0.161765 -0.291176 0.016176
v 0.161765 -0.291176 -0.016176
v 0.129412 0.420588 -0.016176
v 0.129412 0.420588 0.016176
v 0.161765 0.420588 0.016176
v 0.161765 0.420588 -0.016176
v 0.226471 0.517647 -0.016176
v 0.226471 0.517647 0.016176
v 0.258823 0.517647 0.016176
v 0.258823 0.517647 -0.016176
v 0.258823 0.485294 -0.016176
v 0.258823 0.485294 0.016176
v 0.291176 0.485294 0.016176
v 0.291176 0.485294 -0.016176
v 0.291176 0.420588 -0.016176
v 0.291176 0.420588 0.016176
v 0.323529 0.420588 0.016176
v 0.323529 0.420588 -0.016176
v 0.323529 0.355882 -0.016176
v 0.323529 0.355882 0.016176
v 0.355882 0.355882 0.016176
v 0.355882 0.355882 -0.016176
v -0.032353 -0.226471 0.016176
v -0.032353 -0.226471 0.048529
v 0.000000 -0.226471 0.048529
v 0.000000 -0.226471 0.016176
v -0.129412 -0.323529 -0.016176
v -0.129412 -0.323529 -0.048529
v 0.000000 -0.323529 -0.048529
v 0.000000 -0.323529 -0.016176
v -0.355882 -0.550000 0.016176
v -0.355882 -0.550000 -0.016176
v -0.258823 -0.550000 -0.016176
v -0.258823 -0.550000 0.016176
v -0.323529 -0.161765 0.016176
v -0.323529 -0.161765 -0.016176
v -0.226471 -0.161765 -0.016176
v -0.226471 -0.161765 0.016176
v -0.129412 -0.388235 0.016176
v -0.129412 -0.388235 -0.016176
v -0.032353 -0.388235 -0.016176
v -0.032353 -0.388235 0.016176
v -0.129412 -0.323529 0.048529
v -0.129412 -0.323529 0.016176
v 0.000000 -0.323529 0.016176
v 0.000000 -0.323529 0.048529
v -0.032353 -0.420588 0.016176
v -0.032353 -0.420588 -0.016176
v 0.032353 -0.420588 -0.016176
v 0.032353 -0.420588 0.016176
v -0.355882 -0.129412 0.016176
v -0.355882 -0.129412 -0.016176
v -0.323529 -0.129412 -0.016176
v -0.323529 -0.129412 0.016176
v -0.258823 -0.517647 0.016176
v -0.258823 -0.517647 -0.016176
v -0.226471 -0.517647 -0.016176
v -0.226471 -0.517647 0.016176
v -0.226471 -0.485294 0.016176
v -0.226471 -0.485294 -0.016176
v -0.194118 -0.485294 -0.016176
v -0.194118 -0.485294 0.016176
v -0.226471 -0.226471 0.016176
v -0.226471 -0.226471 -0.016176
v -0.194118 -0.226471 -0.016176
v -0.194118 -0.226471 0.016176
v -0.194118 -0.452941 0.016176
v -0.194118 -0.452941 -0.016176
v -0.161765 -0.452941 -0.016176
v -0.161765 -0.452941 0.016176
v -0.161765 -0.420588 0.016176
v -0.161765 -0.420588 -0.016176
v -0.129412 -0.420588 -0.016176
v -0.129412 -0.420588 0.016176
v -0.161765 -0.129412 0.016176
v -0.161765 -0.129412 -0.016176
v -0.129412 -0.129412 -0.016176
v -0.129412 -0.129412 0.016176
v -0.129412 -0.161765 0.016176
v -0.129412 -0.161765 -0.016176
v -0.097059 -0.161765 -0.016176
v -0.097059 -0.161765 0.016176
v -0.097059 -0.129412 0.016176
v -0.097059 -0.129412 -0.016176
v -0.064706 -0.129412 -0.016176
v -0.064706 -0.129412 0.016176
v 0.000000 -0.291176 0.016176
v 0.000000 -0.291176 -0.016176
v 0.032353 -0.291176 -0.016176
v 0.032353 -0.291176 0.016176
v 0.032353 -0.517647 0.016176
v 0.032353 -0.517647 -0.016176
v 0.064706 -0.517647 -0.016176
v 0.064706 -0.517647 0.016176
v 0.032353 -0.323529 0.016176
v 0.032353 -0.323529 -0.016176
v 0.064706 -0.323529 -0.016176
v 0.064706 -0.323529 0.016176
v 0.032353 -0.226471 0.016176
v 0.032353 -0.226471 -0.016176
v 0.064706 -0.226471 -0.016176
v 0.064706 -0.226471 0.016176
v 0.064706 -0.550000 0.016176
v 0.064706 -0.550000 -0.016176
v 0.097059 -0.550000 -0.016176
v 0.097059 -0.550000 0.016176
v 0.064706 -0.194118 0.016176
v 0.064706 -0.194118 -0.016176
v 0.097059 -0.194118 -0.016176
v 0.097059 -0.194118 0.016176
v 0.097059 -0.517647 0.016176
v 0.097059 -0.517647 -0.016176
v 0.129412 -0.517647 -0.016176
v 0.129412 -0.517647 0.016176
v 0.097059 -0.420588 0.016176
v 0.097059 -0.420588 -0.016176
v 0.129412 -0.420588 -0.016176
v 0.129412 -0.420588 0.016176
v 0.097059 -0.161765 0.016176
v 0.097059 -0.161765 -0.016176
v 0.129412 -0.161765 -0.016176
v 0.129412 -0.161765 0.016176
v 0.129412 -0.355882 0.016176
v 0.129412 -0.355882 -0.016176
v 0.161765 -0.355882 -0.016176
v 0.161765 -0.355882 0.016176
v 0.129412 -0.129412 0.016176
v 0.129412 -0.129412 -0.016176
v 0.161765 -0.129412 -0.016176
v 0.161765 -0.129412 0.016176
v 0.161765 -0.097059 0.016176
v 0.161765 -0.097059 -0.016176
v 0.194118 -0.097059 -0.016176
v 0.194118 -0.097059 0.016176
v 0.194118 -0.064706 0.016176
v 0.194118 -0.064706 -0.016176
v 0.226471 -0.064706 -0.016176
v 0.226471 -0.064706 0.016176
v 0.226471 -0.032353 0.016176
v 0.226471 -0.032353 -0.016176
v 0.258823 -0.032353 -0.016176
v 0.258823 -0.032353 0.016176
v 0.258823 0.032353 0.016176
v 0.258823 0.032353 -0.016176
v 0.291176 0.032353 -0.016176
v 0.291176 0.032353 0.016176
v 0.291176 0.097059 0.016176
v 0.291176 0.097059 -0.016176
v 0.323529 0.097059 -0.016176
v 0.323529 0.097059 0.016176
v 0.323529 0.161765 0.016176
v 0.323529 0.161765 -0.016176
v 0.355882 0.161765 -0.016176
v 0.355882 0.161765 0.016176
vn -0.0000 -0.0000 -1.0000
vn -0.0000 -0.0000 1.0000
vn -1.0000 -0.0000 -0.0000
vn 1.0000 -0.0000 -0.0000
vn -0.0000 1.0000 -0.0000
vn -0.0000 -1.0000 -0.0000
vt 0.109375 0.921875
vt 0.109375 0.984375
vt 0.218750 0.984375
vt 0.218750 0.921875
vt 0.625000 0.937500
vt 0.625000 0.984375
vt 0.687500 0.984375
vt 0.687500 0.937500
vt 0.718750 0.937500
vt 0.718750 0.984375
vt 0.750000 0.984375
vt 0.750000 0.937500
vt 0.843750 0.828125
vt 0.843750 0.859375
vt 0.953125 0.859375
vt 0.953125 0.828125
vt 0.703125 0.828125
vt 0.703125 0.859375
vt 0.812500 0.859375
vt 0.812500 0.828125
vt 0.265625 0.828125
vt 0.265625 0.859375
vt 0.390625 0.859375
vt 0.390625 0.828125
vt 0.140625 0.750000
vt 0.140625 0.781250
vt 0.234375 0.781250
vt 0.234375 0.750000
vt 0.453125 0.750000
vt 0.453125 0.781250
vt 0.500000 0.781250
vt 0.500000 0.750000
vt 0.265625 0.750000
vt 0.265625 0.781250
vt 0.328125 0.781250
vt 0.328125 0.750000
vt 0.843750 0.750000
vt 0.843750 0.781250
vt 0.859375 0.781250
vt 0.859375 0.750000
vt 0.187500 0.640625
vt 0.187500 0.656250
vt 0.328125 0.656250
vt 0.328125 0.640625
vt 0.484375 0.703125
vt 0.484375 0.718750
vt 0.671875 0.718750
vt 0.671875 0.703125
vt 0.859375 0.546875
vt 0.859375 0.562500
vt 0.937500 0.562500
vt 0.937500 0.546875
vt 0.640625 0.546875
vt 0.640625 0.562500
vt 0.718750 0.562500
vt 0.718750 0.546875
vt 0.125000 0.500000
vt 0.125000 0.515625
vt 0.203125 0.515625
vt 0.203125 0.500000
vt 0.015625 0.500000
vt 0.015625 0.515625
vt 0.093750 0.515625
vt 0.093750 0.500000
vt 0.437500 0.593750
vt 0.437500 0.609375
vt 0.546875 0.609375
vt 0.546875 0.593750
vt 0.671875 0.500000
vt 0.671875 0.515625
vt 0.750000 0.515625
vt 0.750000 0.500000
vt 0.515625 0.546875
vt 0.515625 0.562500
vt 0.609375 0.562500
vt 0.609375 0.546875
vt 0.140625 0.546875
vt 0.140625 0.562500
vt 0.234375 0.562500
vt 0.234375 0.546875
vt 0.562500 0.500000
vt 0.562500 0.515625
vt 0.640625 0.515625
vt 0.640625 0.500000
vt 0.390625 0.546875
vt 0.390625 0.562500
vt 0.484375 0.562500
vt 0.484375 0.546875
vt 0.265625 0.546875
vt 0.265625 0.562500
vt 0.359375 0.562500
vt 0.359375 0.546875
vt 0.015625 0.593750
vt 0.015625 0.609375
vt 0.125000 0.609375
vt 0.125000 0.593750
vt 0.515625 0.640625
vt 0.515625 0.656250
vt 0.640625 0.656250
vt 0.640625 0.640625
vt 0.671875 0.640625
vt 0.671875 0.656250
vt 0.781250 0.656250
vt 0.781250 0.640625
vt 0.171875 0.406250
vt 0.171875 0.421875
vt 0.218750 0.421875
vt 0.218750 0.406250
vt 0.718750 0.453125
vt 0.718750 0.468750
vt 0.765625 0.468750
vt 0.765625 0.453125
vt 0.203125 0.453125
vt 0.203125 0.468750
vt 0.265625 0.468750
vt 0.265625 0.453125
vt 0.640625 0.453125
vt 0.640625 0.468750
vt 0.687500 0.468750
vt 0.687500 0.453125
vt 0.875000 0.453125
vt 0.875000 0.468750
vt 0.921875 0.468750
vt 0.921875 0.453125
vt 0.390625 0.453125
vt 0.390625 0.468750
vt 0.453125 0.468750
vt 0.453125 0.453125
vt 0.796875 0.453125
vt 0.796875 0.468750
vt 0.843750 0.468750
vt 0.843750 0.453125
vt 0.718750 0.406250
vt 0.718750 0.421875
vt 0.765625 0.421875
vt 0.765625 0.406250
vt 0.328125 0.359375
vt 0.328125 0.375000
vt 0.359375 0.375000
vt 0.359375 0.359375
vt 0.515625 0.359375
vt 0.515625 0.375000
vt 0.546875 0.375000
vt 0.546875 0.359375
vt 0.453125 0.359375
vt 0.453125 0.375000
vt 0.484375 0.375000
vt 0.484375 0.359375
vt 0.140625 0.359375
vt 0.140625 0.375000
vt 0.171875 0.375000
vt 0.171875 0.359375
vt 0.078125 0.359375
vt 0.078125 0.375000
vt 0.109375 0.375000
vt 0.109375 0.359375
vt 0.265625 0.359375
vt 0.265625 0.375000
vt 0.296875 0.375000
vt 0.296875 0.359375
vt 0.015625 0.312500
vt 0.015625 0.328125
vt 0.031250 0.328125
vt 0.031250 0.312500
vt 0.968750 0.546875
vt 0.968750 0.562500
vt 0.984375 0.562500
vt 0.984375 0.546875
vt 0.250000 0.921875
vt 0.250000 0.984375
vt 0.359375 0.984375
vt 0.359375 0.921875
vt 0.531250 0.937500
vt 0.531250 0.984375
vt 0.593750 0.984375
vt 0.593750 0.937500
vt 0.781250 0.937500
vt 0.781250 0.984375
vt 0.812500 0.984375
vt 0.812500 0.937500
vt 0.562500 0.828125
vt 0.562500 0.859375
vt 0.671875 0.859375
vt 0.671875 0.828125
vt 0.421875 0.828125
vt 0.421875 0.859375
vt 0.531250 0.859375
vt 0.531250 0.828125
vt 0.109375 0.828125
vt 0.109375 0.859375
vt 0.234375 0.859375
vt 0.234375 0.828125
vt 0.015625 0.750000
vt 0.015625 0.781250
vt 0.109375 0.781250
vt 0.109375 0.750000
vt 0.531250 0.750000
vt 0.531250 0.781250
vt 0.578125 0.781250
vt 0.578125 0.750000
vt 0.359375 0.750000
vt 0.359375 0.781250
vt 0.421875 0.781250
vt 0.421875 0.750000
vt 0.890625 0.750000
vt 0.890625 0.781250
vt 0.906250 0.781250
vt 0.906250 0.750000
vt 0.015625 0.640625
vt 0.015625 0.656250
vt 0.156250 0.656250
vt 0.156250 0.640625
vt 0.703125 0.703125
vt 0.703125 0.718750
vt 0.890625 0.718750
vt 0.890625 0.703125
vt 0.453125 0.500000
vt 0.453125 0.515625
vt 0.531250 0.515625
vt 0.531250 0.500000
vt 0.890625 0.500000
vt 0.890625 0.515625
vt 0.968750 0.515625
vt 0.968750 0.500000
vt 0.781250 0.500000
vt 0.781250 0.515625
vt 0.859375 0.515625
vt 0.859375 0.500000
vt 0.343750 0.500000
vt 0.343750 0.515625
vt 0.421875 0.515625
vt 0.421875 0.500000
vt 0.156250 0.593750
vt 0.156250 0.609375
vt 0.265625 0.609375
vt 0.265625 0.593750
vt 0.750000 0.546875
vt 0.750000 0.562500
vt 0.828125 0.562500
vt 0.828125 0.546875
vt 0.828125 0.593750
vt 0.828125 0.609375
vt 0.921875 0.609375
vt 0.921875 0.593750
vt 0.015625 0.546875
vt 0.015625 0.562500
vt 0.109375 0.562500
vt 0.109375 0.546875
vt 0.234375 0.500000
vt 0.234375 0.515625
vt 0.312500 0.515625
vt 0.312500 0.500000
vt 0.578125 0.593750
vt 0.578125 0.609375
vt 0.671875 0.609375
vt 0.671875 0.593750
vt 0.703125 0.593750
vt 0.703125 0.609375
vt 0.796875 0.609375
vt 0.796875 0.593750
vt 0.812500 0.640625
vt 0.812500 0.656250
vt 0.921875 0.656250
vt 0.921875 0.640625
vt 0.359375 0.640625
vt 0.359375 0.656250
vt 0.484375 0.656250
vt 0.484375 0.640625
vt 0.296875 0.593750
vt 0.296875 0.609375
vt 0.406250 0.609375
vt 0.406250 0.593750
vt 0.562500 0.406250
vt 0.562500 0.421875
vt 0.609375 0.421875
vt 0.609375 0.406250
vt 0.109375 0.453125
vt 0.109375 0.468750
vt 0.171875 0.468750
vt 0.171875 0.453125
vt 0.484375 0.406250
vt 0.484375 0.421875
vt 0.531250 0.421875
vt 0.531250 0.406250
vt 0.484375 0.453125
vt 0.484375 0.468750
vt 0.531250 0.468750
vt 0.531250 0.453125
vt 0.015625 0.453125
vt 0.015625 0.468750
vt 0.078125 0.468750
vt 0.078125 0.453125
vt 0.796875 0.406250
vt 0.796875 0.421875
vt 0.843750 0.421875
vt 0.843750 0.406250
vt 0.875000 0.406250
vt 0.875000 0.421875
vt 0.921875 0.421875
vt 0.921875 0.406250
vt 0.640625 0.406250
vt 0.640625 0.421875
vt 0.687500 0.421875
vt 0.687500 0.406250
vt 0.828125 0.359375
vt 0.828125 0.375000
vt 0.859375 0.375000
vt 0.859375 0.359375
vt 0.953125 0.640625
vt 0.953125 0.656250
vt 0.984375 0.656250
vt 0.984375 0.640625
vt 0.953125 0.406250
vt 0.953125 0.421875
vt 0.984375 0.421875
vt 0.984375 0.406250
vt 0.015625 0.359375
vt 0.015625 0.375000
vt 0.046875 0.375000
vt 0.046875 0.359375
vt 0.953125 0.593750
vt 0.953125 0.609375
vt 0.984375 0.609375
vt 0.984375 0.593750
vt 0.953125 0.453125
vt 0.953125 0.468750
vt 0.984375 0.468750
vt 0.984375 0.453125
vt 0.062500 0.312500
vt 0.062500 0.328125
vt 0.078125 0.328125
vt 0.078125 0.312500
vt 0.109375 0.312500
vt 0.109375 0.328125
vt 0.125000 0.328125
vt 0.125000 0.312500
vt 0.062500 0.890625
vt 0.062500 0.984375
vt 0.078125 0.984375
vt 0.078125 0.890625
vt 0.437500 0.921875
vt 0.437500 0.984375
vt 0.453125 0.984375
vt 0.453125 0.921875
vt 0.890625 0.937500
vt 0.890625 0.984375
vt 0.906250 0.984375
vt 0.906250 0.937500
vt 0.015625 0.812500
vt 0.015625 0.859375
vt 0.031250 0.859375
vt 0.031250 0.812500
vt 0.062500 0.812500
vt 0.062500 0.859375
vt 0.078125 0.859375
vt 0.078125 0.812500
vt 0.937500 0.937500
vt 0.937500 0.984375
vt 0.953125 0.984375
vt 0.953125 0.937500
vt 0.843750 0.937500
vt 0.843750 0.984375
vt 0.859375 0.984375
vt 0.859375 0.937500
vt 0.484375 0.921875
vt 0.484375 0.984375
vt 0.500000 0.984375
vt 0.500000 0.921875
vt 0.390625 0.921875
vt 0.390625 0.984375
vt 0.406250 0.984375
vt 0.406250 0.921875
vt 0.703125 0.750000
vt 0.703125 0.781250
vt 0.718750 0.781250
vt 0.718750 0.750000
vt 0.609375 0.750000
vt 0.609375 0.781250
vt 0.625000 0.781250
vt 0.625000 0.750000
vt 0.656250 0.750000
vt 0.656250 0.781250
vt 0.671875 0.781250
vt 0.671875 0.750000
vt 0.015625 0.171875
vt 0.015625 0.187500
vt 0.031250 0.187500
vt 0.031250 0.171875
vt 0.062500 0.171875
vt 0.062500 0.187500
vt 0.078125 0.187500
vt 0.078125 0.171875
vt 0.953125 0.218750
vt 0.953125 0.234375
vt 0.968750 0.234375
vt 0.968750 0.218750
vt 0.859375 0.218750
vt 0.859375 0.234375
vt 0.875000 0.234375
vt 0.875000 0.218750
vt 0.906250 0.218750
vt 0.906250 0.234375
vt 0.921875 0.234375
vt 0.921875 0.218750
vt 0.109375 0.171875
vt 0.109375 0.187500
vt 0.125000 0.187500
vt 0.125000 0.171875
vt 0.296875 0.171875
vt 0.296875 0.187500
vt 0.312500 0.187500
vt 0.312500 0.171875
vt 0.343750 0.171875
vt 0.343750 0.187500
vt 0.359375 0.187500
vt 0.359375 0.171875
vt 0.250000 0.171875
vt 0.250000 0.187500
vt 0.265625 0.187500
vt 0.265625 0.171875
vt 0.156250 0.171875
vt 0.156250 0.187500
vt 0.171875 0.187500
vt 0.171875 0.171875
vt 0.203125 0.171875
vt 0.203125 0.187500
vt 0.218750 0.187500
vt 0.218750 0.171875
vt 0.484375 0.218750
vt 0.484375 0.234375
vt 0.500000 0.234375
vt 0.500000 0.218750
vt 0.531250 0.218750
vt 0.531250 0.234375
vt 0.546875 0.234375
vt 0.546875 0.218750
vt 0.437500 0.218750
vt 0.437500 0.234375
vt 0.453125 0.234375
vt 0.453125 0.218750
vt 0.343750 0.218750
vt 0.343750 0.234375
vt 0.359375 0.234375
vt 0.359375 0.218750
vt 0.390625 0.218750
vt 0.390625 0.234375
vt 0.406250 0.234375
vt 0.406250 0.218750
vt 0.578125 0.218750
vt 0.578125 0.234375
vt 0.593750 0.234375
vt 0.593750 0.218750
vt 0.765625 0.218750
vt 0.765625 0.234375
vt 0.781250 0.234375
vt 0.781250 0.218750
vt 0.015625 0.890625
vt 0.015625 0.984375
vt 0.031250 0.984375
vt 0.031250 0.890625
vt 0.390625 0.687500
vt 0.390625 0.718750
vt 0.406250 0.718750
vt 0.406250 0.687500
vt 0.250000 0.687500
vt 0.250000 0.718750
vt 0.265625 0.718750
vt 0.265625 0.687500
vt 0.296875 0.687500
vt 0.296875 0.718750
vt 0.312500 0.718750
vt 0.312500 0.687500
vt 0.156250 0.687500
vt 0.156250 0.718750
vt 0.171875 0.718750
vt 0.171875 0.687500
vt 0.203125 0.687500
vt 0.203125 0.718750
vt 0.218750 0.718750
vt 0.218750 0.687500
vt 0.437500 0.687500
vt 0.437500 0.718750
vt 0.453125 0.718750
vt 0.453125 0.687500
vt 0.343750 0.687500
vt 0.343750 0.718750
vt 0.359375 0.718750
vt 0.359375 0.687500
vt 0.109375 0.687500
vt 0.109375 0.718750
vt 0.125000 0.718750
vt 0.125000 0.687500
vt 0.750000 0.750000
vt 0.750000 0.781250
vt 0.765625 0.781250
vt 0.765625 0.750000
vt 0.796875 0.750000
vt 0.796875 0.781250
vt 0.812500 0.781250
vt 0.812500 0.750000
vt 0.015625 0.687500
vt 0.015625 0.718750
vt 0.031250 0.718750
vt 0.031250 0.687500
vt 0.062500 0.687500
vt 0.062500 0.718750
vt 0.078125 0.718750
vt 0.078125 0.687500
vt 0.937500 0.750000
vt 0.937500 0.781250
vt 0.953125 0.781250
vt 0.953125 0.750000
vt 0.562500 0.453125
vt 0.562500 0.468750
vt 0.609375 0.468750
vt 0.609375 0.453125
vt 0.812500 0.218750
vt 0.812500 0.234375
vt 0.828125 0.234375
vt 0.828125 0.218750
vt 0.718750 0.218750
vt 0.718750 0.234375
vt 0.734375 0.234375
vt 0.734375 0.218750
vt 0.625000 0.218750
vt 0.625000 0.234375
vt 0.640625 0.234375
vt 0.640625 0.218750
vt 0.671875 0.218750
vt 0.671875 0.234375
vt 0.687500 0.234375
vt 0.687500 0.218750
vt 0.390625 0.171875
vt 0.390625 0.187500
vt 0.406250 0.187500
vt 0.406250 0.171875
vt 0.109375 0.125000
vt 0.109375 0.140625
vt 0.125000 0.140625
vt 0.125000 0.125000
vt 0.156250 0.125000
vt 0.156250 0.140625
vt 0.171875 0.140625
vt 0.171875 0.125000
vt 0.062500 0.125000
vt 0.062500 0.140625
vt 0.078125 0.140625
vt 0.078125 0.125000
vt 0.953125 0.171875
vt 0.953125 0.187500
vt 0.968750 0.187500
vt 0.968750 0.171875
vt 0.015625 0.125000
vt 0.015625 0.140625
vt 0.031250 0.140625
vt 0.031250 0.125000
vt 0.203125 0.125000
vt 0.203125 0.140625
vt 0.218750 0.140625
vt 0.218750 0.125000
vt 0.390625 0.125000
vt 0.390625 0.140625
vt 0.406250 0.140625
vt 0.406250 0.125000
vt 0.437500 0.125000
vt 0.437500 0.140625
vt 0.453125 0.140625
vt 0.453125 0.125000
vt 0.343750 0.125000
vt 0.343750 0.140625
vt 0.359375 0.140625
vt 0.359375 0.125000
vt 0.250000 0.125000
vt 0.250000 0.140625
vt 0.265625 0.140625
vt 0.265625 0.125000
vt 0.296875 0.125000
vt 0.296875 0.140625
vt 0.312500 0.140625
vt 0.312500 0.125000
vt 0.578125 0.171875
vt 0.578125 0.187500
vt 0.593750 0.187500
vt 0.593750 0.171875
vt 0.625000 0.171875
vt 0.625000 0.187500
vt 0.640625 0.187500
vt 0.640625 0.171875
vt 0.531250 0.171875
vt 0.531250 0.187500
vt 0.546875 0.187500
vt 0.546875 0.171875
vt 0.437500 0.171875
vt 0.437500 0.187500
vt 0.453125 0.187500
vt 0.453125 0.171875
vt 0.484375 0.171875
vt 0.484375 0.187500
vt 0.500000 0.187500
vt 0.500000 0.171875
vt 0.671875 0.171875
vt 0.671875 0.187500
vt 0.687500 0.187500
vt 0.687500 0.171875
vt 0.328125 0.406250
vt 0.328125 0.421875
vt 0.375000 0.421875
vt 0.375000 0.406250
vt 0.406250 0.406250
vt 0.406250 0.421875
vt 0.453125 0.421875
vt 0.453125 0.406250
vt 0.890625 0.359375
vt 0.890625 0.375000
vt 0.921875 0.375000
vt 0.921875 0.359375
vt 0.765625 0.359375
vt 0.765625 0.375000
vt 0.796875 0.375000
vt 0.796875 0.359375
vt 0.640625 0.359375
vt 0.640625 0.375000
vt 0.671875 0.375000
vt 0.671875 0.359375
vt 0.703125 0.359375
vt 0.703125 0.375000
vt 0.734375 0.375000
vt 0.734375 0.359375
vt 0.953125 0.359375
vt 0.953125 0.375000
vt 0.984375 0.375000
vt 0.984375 0.359375
vt 0.578125 0.359375
vt 0.578125 0.375000
vt 0.609375 0.375000
vt 0.609375 0.359375
vt 0.203125 0.359375
vt 0.203125 0.375000
vt 0.234375 0.375000
vt 0.234375 0.359375
vt 0.859375 0.171875
vt 0.859375 0.187500
vt 0.875000 0.187500
vt 0.875000 0.171875
vt 0.906250 0.171875
vt 0.906250 0.187500
vt 0.921875 0.187500
vt 0.921875 0.171875
vt 0.812500 0.171875
vt 0.812500 0.187500
vt 0.828125 0.187500
vt 0.828125 0.171875
vt 0.718750 0.171875
vt 0.718750 0.187500
vt 0.734375 0.187500
vt 0.734375 0.171875
vt 0.765625 0.171875
vt 0.765625 0.187500
vt 0.781250 0.187500
vt 0.781250 0.171875
vt 0.296875 0.218750
vt 0.296875 0.234375
vt 0.312500 0.234375
vt 0.312500 0.218750
vt 0.812500 0.312500
vt 0.812500 0.328125
vt 0.828125 0.328125
vt 0.828125 0.312500
vt 0.859375 0.312500
vt 0.859375 0.328125
vt 0.875000 0.328125
vt 0.875000 0.312500
vt 0.765625 0.312500
vt 0.765625 0.328125
vt 0.781250 0.328125
vt 0.781250 0.312500
vt 0.671875 0.312500
vt 0.671875 0.328125
vt 0.687500 0.328125
vt 0.687500 0.312500
vt 0.718750 0.312500
vt 0.718750 0.328125
vt 0.734375 0.328125
vt 0.734375 0.312500
vt 0.906250 0.312500
vt 0.906250 0.328125
vt 0.921875 0.328125
vt 0.921875 0.312500
vt 0.109375 0.265625
vt 0.109375 0.281250
vt 0.125000 0.281250
vt 0.125000 0.265625
vt 0.156250 0.265625
vt 0.156250 0.281250
vt 0.171875 0.281250
vt 0.171875 0.265625
vt 0.062500 0.265625
vt 0.062500 0.281250
vt 0.078125 0.281250
vt 0.078125 0.265625
vt 0.953125 0.312500
vt 0.953125 0.328125
vt 0.968750 0.328125
vt 0.968750 0.312500
vt 0.015625 0.265625
vt 0.015625 0.281250
vt 0.031250 0.281250
vt 0.031250 0.265625
vt 0.296875 0.312500
vt 0.296875 0.328125
vt 0.312500 0.328125
vt 0.312500 0.312500
vt 0.343750 0.312500
vt 0.343750 0.328125
vt 0.359375 0.328125
vt 0.359375 0.312500
vt 0.250000 0.312500
vt 0.250000 0.328125
vt 0.265625 0.328125
vt 0.265625 0.312500
vt 0.156250 0.312500
vt 0.156250 0.328125
vt 0.171875 0.328125
vt 0.171875 0.312500
vt 0.203125 0.312500
vt 0.203125 0.328125
vt 0.218750 0.328125
vt 0.218750 0.312500
vt 0.390625 0.312500
vt 0.390625 0.328125
vt 0.406250 0.328125
vt 0.406250 0.312500
vt 0.578125 0.312500
vt 0.578125 0.328125
vt 0.593750 0.328125
vt 0.593750 0.312500
vt 0.625000 0.312500
vt 0.625000 0.328125
vt 0.640625 0.328125
vt 0.640625 0.312500
vt 0.921875 0.703125
vt 0.921875 0.718750
vt 0.984375 0.718750
vt 0.984375 0.703125
vt 0.250000 0.406250
vt 0.250000 0.421875
vt 0.296875 0.421875
vt 0.296875 0.406250
vt 0.015625 0.406250
vt 0.015625 0.421875
vt 0.062500 0.421875
vt 0.062500 0.406250
vt 0.093750 0.406250
vt 0.093750 0.421875
vt 0.140625 0.421875
vt 0.140625 0.406250
vt 0.296875 0.453125
vt 0.296875 0.468750
vt 0.359375 0.468750
vt 0.359375 0.453125
vt 0.390625 0.359375
vt 0.390625 0.375000
vt 0.421875 0.375000
vt 0.421875 0.359375
vt 0.531250 0.312500
vt 0.531250 0.328125
vt 0.546875 0.328125
vt 0.546875 0.312500
vt 0.437500 0.312500
vt 0.437500 0.328125
vt 0.453125 0.328125
vt 0.453125 0.312500
vt 0.484375 0.312500
vt 0.484375 0.328125
vt 0.500000 0.328125
vt 0.500000 0.312500
vt 0.203125 0.265625
vt 0.203125 0.281250
vt 0.218750 0.281250
vt 0.218750 0.265625
vt 0.906250 0.265625
vt 0.906250 0.281250
vt 0.921875 0.281250
vt 0.921875 0.265625
vt 0.953125 0.265625
vt 0.953125 0.281250
vt 0.968750 0.281250
vt 0.968750 0.265625
vt 0.859375 0.265625
vt 0.859375 0.281250
vt 0.875000 0.281250
vt 0.875000 0.265625
vt 0.765625 0.265625
vt 0.765625 0.281250
vt 0.781250 0.281250
vt 0.781250 0.265625
vt 0.812500 0.265625
vt 0.812500 0.281250
vt 0.828125 0.281250
vt 0.828125 0.265625
vt 0.015625 0.218750
vt 0.015625 0.234375
vt 0.031250 0.234375
vt 0.031250 0.218750
vt 0.203125 0.218750
vt 0.203125 0.234375
vt 0.218750 0.234375
vt 0.218750 0.218750
vt 0.250000 0.218750
vt 0.250000 0.234375
vt 0.265625 0.234375
vt 0.265625 0.218750
vt 0.156250 0.218750
vt 0.156250 0.234375
vt 0.171875 0.234375
vt 0.171875 0.218750
vt 0.062500 0.218750
vt 0.062500 0.234375
vt 0.078125 0.234375
vt 0.078125 0.218750
vt 0.109375 0.218750
vt 0.109375 0.234375
vt 0.125000 0.234375
vt 0.125000 0.218750
vt 0.390625 0.265625
vt 0.390625 0.281250
vt 0.406250 0.281250
vt 0.406250 0.265625
vt 0.437500 0.265625
vt 0.437500 0.281250
vt 0.453125 0.281250
vt 0.453125 0.265625
vt 0.343750 0.265625
vt 0.343750 0.281250
vt 0.359375 0.281250
vt 0.359375 0.265625
vt 0.250000 0.265625
vt 0.250000 0.281250
vt 0.265625 0.281250
vt 0.265625 0.265625
vt 0.296875 0.265625
vt 0.296875 0.281250
vt 0.312500 0.281250
vt 0.312500 0.265625
vt 0.484375 0.265625
vt 0.484375 0.281250
vt 0.500000 0.281250
vt 0.500000 0.265625
vt 0.671875 0.265625
vt 0.671875 0.281250
vt 0.687500 0.281250
vt 0.687500 0.265625
vt 0.718750 0.265625
vt 0.718750 0.281250
vt 0.734375 0.281250
vt 0.734375 0.265625
vt 0.625000 0.265625
vt 0.625000 0.281250
vt 0.640625 0.281250
vt 0.640625 0.265625
vt 0.531250 0.265625
vt 0.531250 0.281250
vt 0.546875 0.281250
vt 0.546875 0.265625
vt 0.578125 0.265625
vt 0.578125 0.281250
vt 0.593750 0.281250
vt 0.593750 0.265625
s 0
usemtl Seedler_material
f 1/1/1 2/2/1 3/3/1
f 1/1/1 3/3/1 4/4/1
f 5/5/1 6/6/1 7/7/1
f 5/5/1 7/7/1 8/8/1
f 9/9/1 10/10/1 11/11/1
f 9/9/1 11/11/1 12/12/1
f 13/13/1 14/14/1 15/15/1
f 13/13/1 15/15/1 16/16/1
f 17/17/1 18/18/1 19/19/1
f 17/17/1 19/19/1 20/20/1
f 21/21/1 22/22/1 23/23/1
f 21/21/1 23/23/1 24/24/1
f 25/25/1 26/26/1 27/27/1
f 25/25/1 27/27/1 28/28/1
f 29/29/1 30/30/1 31/31/1
f 29/29/1 31/31/1 32/32/1
f 33/33/1 34/34/1 35/35/1
f 33/33/1 35/35/1 36/36/1
f 37/37/1 38/38/1 39/39/1
f 37/37/1 39/39/1 40/40/1
f 41/41/1 42/42/1 43/43/1
f 41/41/1 43/43/1 44/44/1
f 45/45/1 46/46/1 47/47/1
f 45/45/1 47/47/1 48/48/1
f 49/49/1 50/50/1 51/51/1
f 49/49/1 51/51/1 52/52/1
f 53/53/1 54/54/1 55/55/1
f 53/53/1 55/55/1 56/56/1
f 57/57/1 58/58/1 59/59/1
f 57/57/1 59/59/1 60/60/1
f 61/61/1 62/62/1 63/63/1
f 61/61/1 63/63/1 64/64/1
f 65/65/1 66/66/1 67/67/1
f 65/65/1 67/67/1 68/68/1
f 69/69/1 70/70/1 71/71/1
f 69/69/1 71/71/1 72/72/1
f 73/73/1 74/74/1 75/75/1
f 73/73/1 75/75/1 76/76/1
f 77/77/1 78/78/1 79/79/1
f 77/77/1 79/79/1 80/80/1
f 81/81/1 82/82/1 83/83/1
f 81/81/1 83/83/1 84/84/1
f 85/85/1 86/86/1 87/87/1
f 85/85/1 87/87/1 88/88/1
f 89/89/1 90/90/1 91/91/1
f 89/89/1 91/91/1 92/92/1
f 93/93/1 94/94/1 95/95/1
f 93/93/1 95/95/1 96/96/1
f 97/97/1 98/98/1 99/99/1
f 97/97/1 99/99/1 100/100/1
f 101/101/1 102/102/1 103/103/1
f 101/101/1 103/103/1 104/104/1
f 105/105/1 106/106/1 107/107/1
f 105/105/1 107/107/1 108/108/1
f 109/109/1 110/110/1 111/111/1
f 109/109/1 111/111/1 112/112/1
f 113/113/1 114/114/1 115/115/1
f 113/113/1 115/115/1 116/116/1
f 117/117/1 118/118/1 119/119/1
f 117/117/1 119/119/1 120/120/1
f 121/121/1 122/122/1 123/123/1
f 121/121/1 123/123/1 124/124/1
f 125/125/1 126/126/1 127/127/1
f 125/125/1 127/127/1 128/128/1
f 129/129/1 130/130/1 131/131/1
f 129/129/1 131/131/1 132/132/1
f 133/133/1 134/134/1 135/135/1
f 133/133/1 135/135/1 136/136/1
f 137/137/1 138/138/1 139/139/1
f 137/137/1 139/139/1 140/140/1
f 141/141/1 142/142/1 143/143/1
f 141/141/1 143/143/1 144/144/1
f 145/145/1 146/146/1 147/147/1
f 145/145/1 147/147/1 148/148/1
f 149/149/1 150/150/1 151/151/1
f 149/149/1 151/151/1 152/152/1
f 153/153/1 154/154/1 155/155/1
f 153/153/1 155/155/1 156/156/1
f 157/157/1 158/158/1 159/159/1
f 157/157/1 159/159/1 160/160/1
f 161/161/1 162/162/1 163/163/1
f 161/161/1 163/163/1 164/164/1
f 165/165/1 166/166/1 167/167/1
f 165/165/1 167/167/1 168/168/1
f 169/169/2 170/170/2 171/171/2
f 169/169/2 171/171/2 172/172/2
f 173/173/2 174/174/2 175/175/2
f 173/173/2 175/175/2 176/176/2
f 177/177/2 178/178/2 179/179/2
f 177/177/2 179/179/2 180/180/2
f 181/181/2 182/182/2 183/183/2
f 181/181/2 183/183/2 184/184/2
f 185/185/2 186/186/2 187/187/2
f 185/185/2 187/187/2 188/188/2
f 189/189/2 190/190/2 191/191/2
f 189/189/2 191/191/2 192/192/2
f 193/193/2 194/194/2 195/195/2
f 193/193/2 195/195/2 196/196/2
f 197/197/2 198/198/2 199/199/2
f 197/197/2 199/199/2 200/200/2
f 201/201/2 202/202/2 203/203/2
f 201/201/2 203/203/2 204/204/2
f 205/205/2 206/206/2 207/207/2
f 205/205/2 207/207/2 208/208/2
f 209/209/2 210/210/2 211/211/2
f 209/209/2 211/211/2 212/212/2
f 213/213/2 214/214/2 215/215/2
f 213/213/2 215/215/2 216/216/2
f 217/217/2 218/218/2 219/219/2
f 217/217/2 219/219/2 220/220/2
f 221/221/2 222/222/2 223/223/2
f 221/221/2 223/223/2 224/224/2
f 225/225/2 226/226/2 227/227/2
f 225/225/2 227/227/2 228/228/2
f 229/229/2 230/230/2 231/231/2
f 229/229/2 231/231/2 232/232/2
f 233/233/2 234/234/2 235/235/2
f 233/233/2 235/235/2 236/236/2
f 237/237/2 238/238/2 239/239/2
f 237/237/2 239/239/2 240/240/2
f 241/241/2 242/242/2 243/243/2
f 241/241/2 243/243/2 244/244/2
f 245/245/2 246/246/2 247/247/2
f 245/245/2 247/247/2 248/248/2
f 249/249/2 250/250/2 251/251/2
f 249/249/2 251/251/2 252/252/2
f 253/253/2 254/254/2 255/255/2
f 253/253/2 255/255/2 256/256/2
f 257/257/2 258/258/2 259/259/2
f 257/257/2 259/259/2 260/260/2
f 261/261/2 262/262/2 263/263/2
f 261/261/2 263/263/2 264/264/2
f 265/265/2 266/266/2 267/267/2
f 265/265/2 267/267/2 268/268/2
f 269/269/2 270/270/2 271/271/2
f 269/269/2 271/271/2 272/272/2
f 273/273/2 274/274/2 275/275/2
f 273/273/2 275/275/2 276/276/2
f 277/277/2 278/278/2 279/279/2
f 277/277/2 279/279/2 280/280/2
f 281/281/2 282/282/2 283/283/2
f 281/281/2 283/283/2 284/284/2
f 285/285/2 286/286/2 287/287/2
f 285/285/2 287/287/2 288/288/2
f 289/289/2 290/290/2 291/291/2
f 289/289/2 291/291/2 292/292/2
f 293/293/2 294/294/2 295/295/2
f 293/293/2 295/295/2 296/296/2
f 297/297/2 298/298/2 299/299/2
f 297/297/2 299/299/2 300/300/2
f 301/301/2 302/302/2 303/303/2
f 301/301/2 303/303/2 304/304/2
f 305/305/2 306/306/2 307/307/2
f 305/305/2 307/307/2 308/308/2
f 309/309/2 310/310/2 311/311/2
f 309/309/2 311/311/2 312/312/2
f 313/313/2 314/314/2 315/315/2
f 313/313/2 315/315/2 316/316/2
f 317/317/2 318/318/2 319/319/2
f 317/317/2 319/319/2 320/320/2
f 321/321/2 322/322/2 323/323/2
f 321/321/2 323/323/2 324/324/2
f 325/325/2 326/326/2 327/327/2
f 325/325/2 327/327/2 328/328/2
f 329/329/2 330/330/2 331/331/2
f 329/329/2 331/331/2 332/332/2
f 333/333/2 334/334/2 335/335/2
f 333/333/2 335/335/2 336/336/2
f 337/337/3 338/338/3 339/339/3
f 337/337/3 339/339/3 340/340/3
f 341/341/3 342/342/3 343/343/3
f 341/341/3 343/343/3 344/344/3
f 345/345/3 346/346/3 347/347/3
f 345/345/3 347/347/3 348/348/3
f 349/349/3 350/350/3 351/351/3
f 349/349/3 351/351/3 352/352/3
f 353/353/3 354/354/3 355/355/3
f 353/353/3 355/355/3 356/356/3
f 357/357/3 358/358/3 359/359/3
f 357/357/3 359/359/3 360/360/3
f 361/361/3 362/362/3 363/363/3
f 361/361/3 363/363/3 364/364/3
f 365/365/3 366/366/3 367/367/3
f 365/365/3 367/367/3 368/368/3
f 369/369/3 370/370/3 371/371/3
f 369/369/3 371/371/3 372/372/3
f 373/373/3 374/374/3 375/375/3
f 373/373/3 375/375/3 376/376/3
f 377/377/3 378/378/3 379/379/3
f 377/377/3 379/379/3 380/380/3
f 381/381/3 382/382/3 383/383/3
f 381/381/3 383/383/3 384/384/3
f 385/385/3 386/386/3 387/387/3
f 385/385/3 387/387/3 388/388/3
f 389/389/3 390/390/3 391/391/3
f 389/389/3 391/391/3 392/392/3
f 393/393/3 394/394/3 395/395/3
f 393/393/3 395/395/3 396/396/3
f 397/397/3 398/398/3 399/399/3
f 397/397/3 399/399/3 400/400/3
f 401/401/3 402/402/3 403/403/3
f 401/401/3 403/403/3 404/404/3
f 405/405/3 406/406/3 407/407/3
f 405/405/3 407/407/3 408/408/3
f 409/409/3 410/410/3 411/411/3
f 409/409/3 411/411/3 412/412/3
f 413/413/3 414/414/3 415/415/3
f 413/413/3 415/415/3 416/416/3
f 417/417/3 418/418/3 419/419/3
f 417/417/3 419/419/3 420/420/3
f 421/421/3 422/422/3 423/423/3
f 421/421/3 423/423/3 424/424/3
f 425/425/3 426/426/3 427/427/3
f 425/425/3 427/427/3 428/428/3
f 429/429/3 430/430/3 431/431/3
f 429/429/3 431/431/3 432/432/3
f 433/433/3 434/434/3 435/435/3
f 433/433/3 435/435/3 436/436/3
f 437/437/3 438/438/3 439/439/3
f 437/437/3 439/439/3 440/440/3
f 441/441/3 442/442/3 443/443/3
f 441/441/3 443/443/3 444/444/3
f 445/445/3 446/446/3 447/447/3
f 445/445/3 447/447/3 448/448/3
f 449/449/3 450/450/3 451/451/3
f 449/449/3 451/451/3 452/452/3
f 453/453/3 454/454/3 455/455/3
f 453/453/3 455/455/3 456/456/3
f 457/457/4 458/458/4 459/459/4
f 457/457/4 459/459/4 460/460/4
f 461/461/4 462/462/4 463/463/4
f 461/461/4 463/463/4 464/464/4
f 465/465/4 466/466/4 467/467/4
f 465/465/4 467/467/4 468/468/4
f 469/469/4 470/470/4 471/471/4
f 469/469/4 471/471/4 472/472/4
f 473/473/4 474/474/4 475/475/4
f 473/473/4 475/475/4 476/476/4
f 477/477/4 478/478/4 479/479/4
f 477/477/4 479/479/4 480/480/4
f 481/481/4 482/482/4 483/483/4
f 481/481/4 483/483/4 484/484/4
f 485/485/4 486/486/4 487/487/4
f 485/485/4 487/487/4 488/488/4
f 489/489/4 490/490/4 491/491/4
f 489/489/4 491/491/4 492/492/4
f 493/493/4 494/494/4 495/495/4
f 493/493/4 495/495/4 496/496/4
f 497/497/4 498/498/4 499/499/4
f 497/497/4 499/499/4 500/500/4
f 501/501/4 502/502/4 503/503/4
f 501/501/4 503/503/4 504/504/4
f 505/505/4 506/506/4 507/507/4
f 505/505/4 507/507/4 508/508/4
f 509/509/4 510/510/4 511/511/4
f 509/509/4 511/511/4 512/512/4
f 513/513/4 514/514/4 515/515/4
f 513/513/4 515/515/4 516/516/4
f 517/517/4 518/518/4 519/519/4
f 517/517/4 519/519/4 520/520/4
f 521/521/4 522/522/4 523/523/4
f 521/521/4 523/523/4 524/524/4
f 525/525/4 526/526/4 527/527/4
f 525/525/4 527/527/4 528/528/4
f 529/529/4 530/530/4 531/531/4
f 529/529/4 531/531/4 532/532/4
f 533/533/4 534/534/4 535/535/4
f 533/533/4 535/535/4 536/536/4
f 537/537/4 538/538/4 539/539/4
f 537/537/4 539/539/4 540/540/4
f 541/541/4 542/542/4 543/543/4
f 541/541/4 543/543/4 544/544/4
f 545/545/4 546/546/4 547/547/4
f 545/545/4 547/547/4 548/548/4
f 549/549/4 550/550/4 551/551/4
f 549/549/4 551/551/4 552/552/4
f 553/553/4 554/554/4 555/555/4
f 553/553/4 555/555/4 556/556/4
f 557/557/4 558/558/4 559/559/4
f 557/557/4 559/559/4 560/560/4
f 561/561/4 562/562/4 563/563/4
f 561/561/4 563/563/4 564/564/4
f 565/565/4 566/566/4 567/567/4
f 565/565/4 567/567/4 568/568/4
f 569/569/4 570/570/4 571/571/4
f 569/569/4 571/571/4 572/572/4
f 573/573/4 574/574/4 575/575/4
f 573/573/4 575/575/4 576/576/4
f 577/577/4 578/578/4 579/579/4
f 577/577/4 579/579/4 580/580/4
f 581/581/4 582/582/4 583/583/4
f 581/581/4 583/583/4 584/584/4
f 585/585/4 586/586/4 587/587/4
f 585/585/4 587/587/4 588/588/4
f 589/589/4 590/590/4 591/591/4
f 589/589/4 591/591/4 592/592/4
f 593/593/4 594/594/4 595/595/4
f 593/593/4 595/595/4 596/596/4
f 597/597/4 598/598/4 599/599/4
f 597/597/4 599/599/4 600/600/4
f 601/601/4 602/602/4 603/603/4
f 601/601/4 603/603/4 604/604/4
f 605/605/5 606/606/5 607/607/5
f 605/605/5 607/607/5 608/608/5
f 609/609/5 610/610/5 611/611/5
f 609/609/5 611/611/5 612/612/5
f 613/613/5 614/614/5 615/615/5
f 613/613/5 615/615/5 616/616/5
f 617/617/5 618/618/5 619/619/5
f 617/617/5 619/619/5 620/620/5
f 621/621/5 622/622/5 623/623/5
f 621/621/5 623/623/5 624/624/5
f 625/625/5 626/626/5 627/627/5
f 625/625/5 627/627/5 628/628/5
f 629/629/5 630/630/5 631/631/5
f 629/629/5 631/631/5 632/632/5
f 633/633/5 634/634/5 635/635/5
f 633/633/5 635/635/5 636/636/5
f 637/637/5 638/638/5 639/639/5
f 637/637/5 639/639/5 640/640/5
f 641/641/5 642/642/5 643/643/5
f 641/641/5 643/643/5 644/644/5
f 645/645/5 646/646/5 647/647/5
f 645/645/5 647/647/5 648/648/5
f 649/649/5 650/650/5 651/651/5
f 649/649/5 651/651/5 652/652/5
f 653/653/5 654/654/5 655/655/5
f 653/653/5 655/655/5 656/656/5
f 657/657/5 658/658/5 659/659/5
f 657/657/5 659/659/5 660/660/5
f 661/661/5 662/662/5 663/663/5
f 661/661/5 663/663/5 664/664/5
f 665/665/5 666/666/5 667/667/5
f 665/665/5 667/667/5 668/668/5
f 669/669/5 670/670/5 671/671/5
f 669/669/5 671/671/5 672/672/5
f 673/673/5 674/674/5 675/675/5
f 673/673/5 675/675/5 676/676/5
f 677/677/5 678/678/5 679/679/5
f 677/677/5 679/679/5 680/680/5
f 681/681/5 682/682/5 683/683/5
f 681/681/5 683/683/5 684/684/5
f 685/685/5 686/686/5 687/687/5
f 685/685/5 687/687/5 688/688/5
f 689/689/5 690/690/5 691/691/5
f 689/689/5 691/691/5 692/692/5
f 693/693/5 694/694/5 695/695/5
f 693/693/5 695/695/5 696/696/5
f 697/697/5 698/698/5 699/699/5
f 697/697/5 699/699/5 700/700/5
f 701/701/5 702/702/5 703/703/5
f 701/701/5 703/703/5 704/704/5
f 705/705/5 706/706/5 707/707/5
f 705/705/5 707/707/5 708/708/5
f 709/709/5 710/710/5 711/711/5
f 709/709/5 711/711/5 712/712/5
f 713/713/5 714/714/5 715/715/5
f 713/713/5 715/715/5 716/716/5
f 717/717/5 718/718/5 719/719/5
f 717/717/5 719/719/5 720/720/5
f 721/721/5 722/722/5 723/723/5
f 721/721/5 723/723/5 724/724/5
f 725/725/5 726/726/5 727/727/5
f 725/725/5 727/727/5 728/728/5
f 729/729/5 730/730/5 731/731/5
f 729/729/5 731/731/5 732/732/5
f 733/733/5 734/734/5 735/735/5
f 733/733/5 735/735/5 736/736/5
f 737/737/5 738/738/5 739/739/5
f 737/737/5 739/739/5 740/740/5
f 741/741/6 742/742/6 743/743/6
f 741/741/6 743/743/6 744/744/6
f 745/745/6 746/746/6 747/747/6
f 745/745/6 747/747/6 748/748/6
f 749/749/6 750/750/6 751/751/6
f 749/749/6 751/751/6 752/752/6
f 753/753/6 754/754/6 755/755/6
f 753/753/6 755/755/6 756/756/6
f 757/757/6 758/758/6 759/759/6
f 757/757/6 759/759/6 760/760/6
f 761/761/6 762/762/6 763/763/6
f 761/761/6 763/763/6 764/764/6
f 765/765/6 766/766/6 767/767/6
f 765/765/6 767/767/6 768/768/6
f 769/769/6 770/770/6 771/771/6
f 769/769/6 771/771/6 772/772/6
f 773/773/6 774/774/6 775/775/6
f 773/773/6 775/775/6 776/776/6
f 777/777/6 778/778/6 779/779/6
f 777/777/6 779/779/6 780/780/6
f 781/781/6 782/782/6 783/783/6
f 781/781/6 783/783/6 784/784/6
f 785/785/6 786/786/6 787/787/6
f 785/785/6 787/787/6 788/788/6
f 789/789/6 790/790/6 791/791/6
f 789/789/6 791/791/6 792/792/6
f 793/793/6 794/794/6 795/795/6
f 793/793/6 795/795/6 796/796/6
f 797/797/6 798/798/6 799/799/6
f 797/797/6 799/799/6 800/800/6
f 801/801/6 802/802/6 803/803/6
f 801/801/6 803/803/6 804/804/6
f 805/805/6 806/806/6 807/807/6
f 805/805/6 807/807/6 808/808/6
f 809/809/6 810/810/6 811/811/6
f 809/809/6 811/811/6 812/812/6
f 813/813/6 814/814/6 815/815/6
f 813/813/6 815/815/6 816/816/6
f 817/817/6 818/818/6 819/819/6
f 817/817/6 819/819/6 820/820/6
f 821/821/6 822/822/6 823/823/6
f 821/821/6 823/823/6 824/824/6
f 825/825/6 826/826/6 827/827/6
f 825/825/6 827/827/6 828/828/6
f 829/829/6 830/830/6 831/831/6
f 829/829/6 831/831/6 832/832/6
f 833/833/6 834/834/6 835/835/6
f 833/833/6 835/835/6 836/836/6
f 837/837/6 838/838/6 839/839/6
f 837/837/6 839/839/6 840/840/6
f 841/841/6 842/842/6 843/843/6
f 841/841/6 843/843/6 844/844/6
f 845/845/6 846/846/6 847/847/6
f 845/845/6 847/847/6 848/848/6
f 849/849/6 850/850/6 851/851/6
f 849/849/6 851/851/6 852/852/6
f 853/853/6 854/854/6 855/855/6
f 853/853/6 855/855/6 856/856/6
f 857/857/6 858/858/6 859/859/6
f 857/857/6 859/859/6 860/860/6
f 861/861/6 862/862/6 863/863/6
f 861/861/6 863/863/6 864/864/6
f 865/865/6 866/866/6 867/867/6
f 865/865/6 867/867/6 868/868/6
