# Blender 5.2.1 LTS
# www.blender.org
mtllib starfury.mtl
o Object_2
v -0.007466 0.006636 -0.196066
v -0.007466 0.006636 -0.135029
v 0.068484 -0.004437 -0.135029
v 0.029284 -0.004437 -0.196066
v -0.007466 0.006636 -0.073992
v 0.029284 -0.004437 -0.073992
v -0.007466 -0.000845 -0.550000
v 0.029284 -0.004437 -0.440212
v -0.007466 0.006636 0.229061
v 0.029284 -0.004437 0.229061
v -0.044216 -0.004437 -0.196066
v -0.044216 -0.004437 -0.440212
v -0.083416 -0.004437 -0.135029
v -0.044216 -0.004437 -0.073992
v -0.044216 -0.004437 0.229061
v -0.007466 -0.007103 -0.550000
v -0.007466 -0.000845 -0.550000
v 0.029284 -0.004437 -0.440212
v 0.029284 -0.004438 -0.440212
v -0.044216 -0.004437 -0.440212
v -0.044216 -0.004438 -0.440212
v -0.007466 -0.014584 -0.135029
v -0.007466 -0.014584 -0.196066
v 0.029284 -0.004438 -0.196066
v 0.068484 -0.004438 -0.135029
v -0.007466 -0.014584 -0.073992
v 0.029284 -0.004437 -0.073992
v -0.007466 -0.007103 -0.550000
v 0.029284 -0.004438 -0.440212
v -0.007466 -0.014584 0.229061
v 0.029284 -0.004437 0.229061
v -0.044216 -0.004437 -0.073992
v -0.044216 -0.004437 0.229061
v -0.083416 -0.004438 -0.135029
v -0.044216 -0.004438 -0.196066
v -0.044216 -0.004438 -0.440212
v 0.068484 -0.004437 -0.135029
v 0.068484 -0.004438 -0.135029
v 0.029284 -0.004438 -0.196066
v 0.029284 -0.004437 -0.196066
v 0.029284 -0.004437 -0.073992
v 0.029284 -0.004437 -0.073992
v 0.029284 -0.004438 -0.440212
v 0.029284 -0.004437 -0.440212
v 0.029284 -0.004437 0.229061
v 0.029284 -0.004437 0.229061
v -0.044216 -0.004437 -0.196066
v -0.044216 -0.004438 -0.196066
v -0.083416 -0.004438 -0.135029
v -0.083416 -0.004437 -0.135029
v -0.044216 -0.004437 -0.073992
v -0.044216 -0.004437 -0.073992
v -0.044216 -0.004438 -0.440212
v -0.044216 -0.004437 -0.440212
v -0.044216 -0.004437 0.229061
v -0.044216 -0.004437 0.229061
v -0.007466 -0.014584 0.229061
v 0.029284 -0.004437 0.229061
v 0.021581 -0.010132 0.291967
v -0.007466 -0.010132 0.291967
v 0.029284 -0.004437 0.229061
v 0.029284 -0.004437 0.229061
v 0.021581 0.001258 0.291967
v 0.021581 -0.010132 0.291967
v 0.029284 -0.004437 0.229061
v -0.007466 0.006636 0.229061
v -0.007466 0.001258 0.291967
v 0.021581 0.001258 0.291967
v -0.044216 -0.004437 0.229061
v -0.007466 -0.014584 0.229061
v -0.007466 -0.010132 0.291967
v -0.036514 -0.010132 0.291967
v -0.007466 0.006636 0.229061
v -0.044216 -0.004437 0.229061
v -0.036514 0.001258 0.291967
v -0.007466 0.001258 0.291967
v -0.044216 -0.004437 0.229061
v -0.044216 -0.004437 0.229061
v -0.036514 -0.010132 0.291967
v -0.036514 0.001258 0.291967
v -0.007466 0.001258 0.550000
v -0.007466 -0.010132 0.550000
v 0.021581 -0.010132 0.517047
v 0.021581 0.001258 0.517047
v -0.036514 -0.010132 0.517047
v -0.036514 0.001258 0.517047
v -0.007466 -0.010132 0.291967
v 0.021581 -0.010132 0.291967
v 0.021581 -0.010132 0.462416
v -0.007466 -0.010132 0.462416
v -0.036514 -0.010132 0.291967
v -0.036514 -0.010132 0.462416
v -0.007466 -0.010132 0.489732
v 0.033845 -0.010132 0.489732
v 0.021581 -0.010132 0.517047
v -0.007466 -0.010132 0.550000
v -0.048778 -0.010132 0.489732
v -0.036514 -0.010132 0.517047
v 0.021581 -0.010132 0.291967
v 0.021581 0.001258 0.291967
v 0.021581 0.001258 0.462416
v 0.021581 -0.010132 0.462416
v 0.033845 -0.010132 0.489732
v 0.033845 0.001258 0.489732
v 0.021581 0.001258 0.517047
v 0.021581 -0.010132 0.517047
v 0.021581 0.001258 0.291967
v -0.007466 0.001258 0.291967
v -0.007466 0.001258 0.462416
v 0.021581 0.001258 0.462416
v -0.036514 0.001258 0.291967
v -0.036514 0.001258 0.462416
v 0.033845 0.001258 0.489732
v -0.007466 0.001258 0.489732
v -0.007466 0.001258 0.550000
v 0.021581 0.001258 0.517047
v -0.048778 0.001258 0.489732
v -0.036514 0.001258 0.517047
v -0.036514 0.001258 0.291967
v -0.036514 -0.010132 0.291967
v -0.036514 -0.010132 0.462416
v -0.036514 0.001258 0.462416
v -0.048778 0.001258 0.489732
v -0.048778 -0.010132 0.489732
v -0.036514 -0.010132 0.517047
v -0.036514 0.001258 0.517047
v -0.206598 -0.002395 0.070415
v -0.171847 -0.002397 0.106791
v -0.171847 -0.002397 0.106791
v -0.206598 -0.002399 0.070415
v 0.169225 -0.002397 0.103542
v 0.169225 -0.002397 0.103542
v 0.204764 -0.002395 0.069072
v 0.204764 -0.002399 0.069072
v -0.207885 0.001195 0.141219
v -0.207885 -0.005989 0.141219
v -0.171847 -0.002397 0.106791
v -0.171847 -0.002397 0.106791
v 0.203925 -0.005989 0.139319
v 0.203925 0.001195 0.139319
v 0.169225 -0.002397 0.103542
v 0.169225 -0.002397 0.103542
v -0.007607 0.016515 0.219026
v -0.007607 -0.021308 0.219026
v 0.168386 -0.008069 0.242079
v 0.168386 0.003276 0.242079
v -0.173134 0.003276 0.245884
v -0.173134 -0.008069 0.245884
v 0.229734 -0.002523 0.195820
v 0.229734 -0.002271 0.195820
v -0.232108 -0.002271 0.199429
v -0.232108 -0.002523 0.199429
v -0.291081 -0.003068 0.152973
v -0.291081 -0.001726 0.152973
v 0.291081 -0.003068 0.149561
v 0.291081 -0.001726 0.149561
v -0.007607 0.016515 0.150736
v -0.007607 0.016515 0.219026
v 0.168386 0.003276 0.242079
v 0.168386 0.003276 0.173788
v -0.173134 0.003276 0.177594
v -0.173134 0.003276 0.245884
v 0.229734 -0.002271 0.195820
v 0.203925 0.001195 0.139319
v -0.207885 0.001195 0.141219
v -0.232108 -0.002271 0.199429
v -0.291081 -0.001726 0.152973
v -0.242635 -0.001726 0.104843
v 0.291081 -0.001726 0.149561
v 0.239464 -0.001726 0.104849
v -0.171847 -0.002397 0.106791
v -0.206598 -0.002395 0.070415
v 0.204764 -0.002395 0.069072
v 0.169225 -0.002397 0.103542
v -0.007607 -0.021308 0.150736
v -0.007607 0.016515 0.150736
v 0.168386 0.003276 0.173788
v 0.168386 -0.008069 0.173788
v -0.173134 -0.008069 0.177594
v -0.173134 0.003276 0.177594
v 0.203925 0.001195 0.139319
v 0.203925 -0.005989 0.139319
v -0.207885 -0.005989 0.141219
v -0.207885 0.001195 0.141219
v -0.007607 -0.021308 0.219026
v -0.007607 -0.021308 0.150736
v 0.168386 -0.008069 0.173788
v 0.168386 -0.008069 0.242079
v -0.173134 -0.008069 0.245884
v -0.173134 -0.008069 0.177594
v 0.203925 -0.005989 0.139319
v 0.229734 -0.002523 0.195820
v -0.232108 -0.002523 0.199429
v -0.207885 -0.005989 0.141219
v -0.242635 -0.003068 0.104843
v -0.291081 -0.003068 0.152973
v 0.239464 -0.003068 0.104849
v 0.291081 -0.003068 0.149561
v -0.206598 -0.002399 0.070415
v -0.171847 -0.002397 0.106791
v 0.169225 -0.002397 0.103542
v 0.204764 -0.002399 0.069072
v 0.291081 -0.003068 0.149561
v 0.239464 -0.003068 0.104849
v 0.239464 -0.001726 0.104849
v 0.291081 -0.001726 0.149561
v 0.239464 -0.001726 0.104849
v 0.239464 -0.003068 0.104849
v 0.204764 -0.002399 0.069072
v 0.204764 -0.002395 0.069072
v -0.242635 -0.003068 0.104843
v -0.291081 -0.003068 0.152973
v -0.291081 -0.001726 0.152973
v -0.242635 -0.001726 0.104843
v -0.242635 -0.003068 0.104843
v -0.242635 -0.001726 0.104843
v -0.206598 -0.002395 0.070415
v -0.206598 -0.002399 0.070415
v 0.024097 -0.024199 0.139029
v 0.099637 -0.024199 0.141499
v -0.005614 -0.033524 0.180837
v -0.012869 -0.024199 0.061547
v -0.036195 -0.024199 0.139661
v -0.123674 -0.024199 0.143841
v -0.054225 -0.024199 0.197197
v -0.079649 -0.024199 0.274653
v -0.005076 -0.024199 0.232124
v 0.058365 -0.024199 0.273205
v 0.043330 -0.024199 0.196174
v 0.099637 0.017257 0.141499
v 0.024097 0.017257 0.139029
v -0.005614 0.033524 0.180837
v -0.012869 0.017257 0.061547
v -0.036195 0.017257 0.139661
v -0.123674 0.017257 0.143841
v -0.054225 0.017257 0.197197
v -0.079649 0.017257 0.274653
v -0.005076 0.017257 0.232124
v 0.058365 0.017257 0.273205
v 0.043330 0.017257 0.196174
v 0.099637 -0.024199 0.141499
v 0.024097 -0.024199 0.139029
v 0.024097 0.017257 0.139029
v 0.099637 0.017257 0.141499
v 0.024097 -0.024199 0.139029
v -0.012869 -0.024199 0.061547
v -0.012869 0.017257 0.061547
v 0.024097 0.017257 0.139029
v -0.012869 -0.024199 0.061547
v -0.036195 -0.024199 0.139661
v -0.036195 0.017257 0.139661
v -0.012869 0.017257 0.061547
v -0.036195 -0.024199 0.139661
v -0.123674 -0.024199 0.143841
v -0.123674 0.017257 0.143841
v -0.036195 0.017257 0.139661
v -0.123674 -0.024199 0.143841
v -0.054225 -0.024199 0.197197
v -0.054225 0.017257 0.197197
v -0.123674 0.017257 0.143841
v -0.054225 -0.024199 0.197197
v -0.079649 -0.024199 0.274653
v -0.079649 0.017257 0.274653
v -0.054225 0.017257 0.197197
v -0.079649 -0.024199 0.274653
v -0.005076 -0.024199 0.232124
v -0.005076 0.017257 0.232124
v -0.079649 0.017257 0.274653
v -0.005076 -0.024199 0.232124
v 0.058365 -0.024199 0.273205
v 0.058365 0.017257 0.273205
v -0.005076 0.017257 0.232124
v 0.058365 -0.024199 0.273205
v 0.043330 -0.024199 0.196174
v 0.043330 0.017257 0.196174
v 0.058365 0.017257 0.273205
v 0.043330 -0.024199 0.196174
v 0.099637 -0.024199 0.141499
v 0.099637 0.017257 0.141499
v 0.043330 0.017257 0.196174
vn -0.0000 0.9997 -0.0251
vn -0.0000 1.0000 -0.0000
vn 0.1928 0.9812 -0.0000
vn 0.2077 0.9779 -0.0257
vn -0.0000 0.9999 0.0149
vn 0.2634 0.9645 0.0164
vn -0.0000 0.9999 -0.0125
vn 0.2132 0.9769 -0.0122
vn 0.2885 0.9575 -0.0000
vn -0.2077 0.9779 -0.0257
vn -0.2132 0.9769 -0.0122
vn -0.1928 0.9812 -0.0000
vn -0.2634 0.9645 0.0164
vn -0.2885 0.9575 -0.0000
vn -0.0000 -0.0000 -1.0000
vn 0.9491 -0.0000 -0.3151
vn 0.9491 -0.0000 -0.3150
vn -0.9496 -0.0000 -0.3134
vn -0.9497 -0.0000 -0.3132
vn -0.0000 -1.0000 -0.0000
vn -0.0000 -0.9997 -0.0238
vn 0.1861 -0.9822 -0.0245
vn 0.1772 -0.9842 -0.0000
vn -0.0000 -0.9999 0.0137
vn 0.2426 -0.9700 0.0152
vn -0.0000 -0.9999 -0.0125
vn 0.1895 -0.9818 -0.0123
vn 0.2661 -0.9639 -0.0000
vn -0.2426 -0.9700 0.0152
vn -0.2661 -0.9639 -0.0000
vn -0.1772 -0.9842 -0.0000
vn -0.1861 -0.9822 -0.0245
vn -0.1895 -0.9818 -0.0123
vn 1.0000 -0.0000 -0.0016
vn 0.9918 -0.0001 -0.1275
vn 0.9918 -0.0000 -0.1275
vn 0.9940 -0.0000 0.1095
vn 1.0000 -0.0000 -0.0000
vn -0.9918 -0.0001 -0.1275
vn -0.9918 -0.0000 -0.1276
vn -1.0000 -0.0000 0.0016
vn -0.9943 0.0001 0.1064
vn -0.9943 -0.0000 0.1064
vn -1.0000 -0.0000 -0.0000
vn 0.1524 -0.9883 -0.0004
vn 0.1524 -0.9883 -0.0005
vn 0.9930 -0.0000 0.1181
vn 0.9926 -0.0000 0.1215
vn 0.1660 0.9861 0.0077
vn 0.1659 0.9861 0.0077
vn -0.1524 -0.9883 -0.0004
vn -0.1660 0.9861 0.0077
vn -0.1659 0.9861 0.0077
vn -0.9929 -0.0000 0.1185
vn -0.9926 -0.0000 0.1215
vn -0.0000 -0.0000 1.0000
vn 0.7502 -0.0000 0.6613
vn -0.7502 -0.0000 0.6613
vn 0.9981 -0.0000 -0.0619
vn 0.9123 -0.0000 0.4096
vn -0.9981 -0.0000 -0.0619
vn -0.9123 -0.0000 0.4096
vn 0.7230 -0.0000 -0.6909
vn 0.7230 -0.0000 -0.6908
vn -0.6963 -0.0000 -0.7177
vn -0.6962 -0.0000 -0.7178
vn 0.6908 -0.0000 0.7231
vn 0.6910 -0.0000 0.7228
vn -0.7178 -0.0000 0.6962
vn -0.7183 -0.0000 0.6957
vn 0.0138 -0.0000 0.9999
vn -0.0884 -0.0000 0.9961
vn -0.0883 -0.0000 0.9961
vn 0.1144 -0.0000 0.9934
vn 0.1145 -0.0000 0.9934
vn 0.6021 -0.0000 0.7984
vn -0.6188 -0.0000 0.7855
vn 0.0037 1.0000 -0.0000
vn -0.0016 1.0000 -0.0000
vn 0.0759 0.9971 0.0007
vn 0.0783 0.9969 0.0028
vn -0.0826 0.9966 0.0029
vn -0.0806 0.9967 0.0009
vn 0.0820 0.9966 0.0097
vn 0.0347 0.9994 0.0068
vn -0.0357 0.9993 0.0068
vn -0.0854 0.9963 0.0100
vn -0.0337 0.9994 0.0095
vn 0.0051 0.9991 -0.0427
vn 0.0324 0.9994 0.0094
vn -0.0028 0.9991 -0.0425
vn 0.0109 0.9987 -0.0503
vn 0.0109 0.9987 -0.0504
vn -0.0088 0.9987 -0.0511
vn -0.0086 0.9987 -0.0511
vn -0.0138 -0.0000 -0.9999
vn -0.0139 -0.0000 -0.9999
vn 0.0784 -0.0000 -0.9969
vn -0.1010 -0.0000 -0.9949
vn 0.7231 -0.0000 -0.6908
vn -0.0016 -1.0000 -0.0000
vn 0.0037 -1.0000 -0.0000
vn 0.0783 -0.9969 0.0028
vn 0.0759 -0.9971 0.0007
vn -0.0806 -0.9967 0.0008
vn -0.0827 -0.9966 0.0029
vn 0.0347 -0.9994 0.0068
vn 0.0820 -0.9966 0.0097
vn -0.0854 -0.9963 0.0100
vn -0.0357 -0.9993 0.0068
vn 0.0051 -0.9991 -0.0427
vn -0.0337 -0.9994 0.0095
vn -0.0028 -0.9991 -0.0425
vn 0.0324 -0.9994 0.0095
vn 0.0111 -0.9987 -0.0504
vn 0.0108 -0.9987 -0.0504
vn -0.0086 -0.9987 -0.0509
vn -0.0086 -0.9987 -0.0511
vn 0.6547 -0.0000 -0.7559
vn 0.6719 -0.0000 -0.7407
vn 0.6719 -0.0000 -0.7406
vn 0.6719 0.0009 -0.7406
vn 0.7179 -0.0000 -0.6962
vn -0.7011 -0.0000 -0.7130
vn -0.7048 -0.0000 -0.7094
vn -0.7011 -0.0000 -0.7131
vn -0.6908 -0.0000 -0.7230
vn 0.1025 -0.9839 -0.1466
vn 0.0793 -0.9966 -0.0241
vn 0.0041 -1.0000 0.0013
vn 0.0030 -0.9969 -0.0781
vn -0.1075 -0.9839 -0.1430
vn -0.0717 -0.9972 -0.0225
vn -0.1699 -0.9839 0.0561
vn -0.0421 -0.9969 0.0659
vn 0.0005 -0.9839 0.1789
vn 0.0513 -0.9966 0.0651
vn 0.1707 -0.9839 0.0535
vn 0.1366 0.9897 -0.0438
vn 0.1738 0.9532 -0.2474
vn 0.0044 1.0000 0.0014
vn 0.0019 0.9908 -0.1352
vn -0.1812 0.9532 -0.2420
vn -0.1244 0.9915 -0.0390
vn -0.2869 0.9532 0.0953
vn -0.0756 0.9908 0.1121
vn 0.0015 0.9532 0.3023
vn 0.0872 0.9897 0.1139
vn 0.2885 0.9532 0.0904
vn 0.0327 -0.0000 -0.9995
vn 0.9025 -0.0000 -0.4306
vn -0.9582 -0.0000 -0.2861
vn -0.0477 -0.0000 -0.9989
vn -0.6092 -0.0000 0.7930
vn -0.9501 -0.0000 -0.3119
vn 0.4954 -0.0000 0.8687
vn -0.5435 -0.0000 0.8394
vn 0.9815 -0.0000 -0.1916
vn 0.6966 -0.0000 0.7174
vt 0.500000 0.600000
vt 0.500000 0.625000
vt 0.625000 0.625000
vt 0.625000 0.600000
vt 0.500000 0.650000
vt 0.625000 0.650000
vt 0.500000 0.500000
vt 0.625000 0.500000
vt 0.500000 0.750000
vt 0.625000 0.750000
vt 0.375000 0.600000
vt 0.375000 0.500000
vt 0.375000 0.625000
vt 0.375000 0.650000
vt 0.375000 0.750000
vt 0.500000 0.250000
vt 0.625000 0.250000
vt 0.375000 0.250000
vt 0.500000 0.125000
vt 0.500000 0.150000
vt 0.625000 0.150000
vt 0.625000 0.125000
vt 0.500000 0.100000
vt 0.625000 0.100000
vt 0.500000 0.000000
vt 0.625000 0.000000
vt 0.375000 0.100000
vt 0.375000 0.000000
vt 0.375000 0.125000
vt 0.375000 0.150000
vt 0.750000 0.750000
vt 0.750000 1.000000
vt 0.775000 1.000000
vt 0.775000 0.750000
vt 0.725000 0.750000
vt 0.725000 1.000000
vt 0.875000 1.000000
vt 0.875000 0.750000
vt 0.625000 1.000000
vt 0.225000 0.750000
vt 0.225000 1.000000
vt 0.250000 1.000000
vt 0.250000 0.750000
vt 0.275000 1.000000
vt 0.275000 0.750000
vt 0.125000 1.000000
vt 0.125000 0.750000
vt 0.375000 1.000000
vt 0.500000 1.000000
vt 0.400000 0.500000
vt 0.400000 0.250000
vt 0.600000 0.250000
vt 0.600000 0.500000
vt 0.575000 1.000000
vt 0.575000 0.750000
vt 0.425000 0.750000
vt 0.425000 1.000000
vt 0.600000 1.000000
vt 0.600000 0.750000
vt 0.400000 0.750000
vt 0.400000 1.000000
vt 0.575000 0.500000
vt 0.425000 0.500000
vt 0.575000 0.250000
vt 0.425000 0.250000
vt 0.575000 0.000000
vt 0.425000 0.000000
vt 0.600000 0.000000
vt 0.400000 0.000000
vt 0.548284 0.992353
vt 0.626409 0.935591
vt 0.500000 0.850000
vt 0.451716 0.992353
vt 0.373591 0.935591
vt 0.343750 0.843750
vt 0.373591 0.751909
vt 0.451716 0.695147
vt 0.548284 0.695147
vt 0.626409 0.751909
vt 0.656250 0.843750
vt 0.626409 0.064409
vt 0.548284 0.007647
vt 0.500000 0.162500
vt 0.451716 0.007647
vt 0.373591 0.064409
vt 0.343750 0.156250
vt 0.373591 0.248091
vt 0.451716 0.304853
vt 0.548284 0.304853
vt 0.626409 0.248091
vt 0.656250 0.156250
vt 0.375000 0.687500
vt 0.400000 0.687500
vt 0.400000 0.311560
vt 0.375000 0.311560
vt 0.425000 0.687500
vt 0.425000 0.311560
vt 0.450000 0.687500
vt 0.450000 0.311560
vt 0.475000 0.687500
vt 0.475000 0.311560
vt 0.500000 0.687500
vt 0.500000 0.311560
vt 0.525000 0.687500
vt 0.525000 0.311560
vt 0.550000 0.687500
vt 0.550000 0.311560
vt 0.575000 0.687500
vt 0.575000 0.311560
vt 0.600000 0.687500
vt 0.600000 0.311560
vt 0.625000 0.687500
vt 0.625000 0.311560
s 1
usemtl anisotropic1SG
f 1/1/1 2/2/2 3/3/3
f 1/1/1 3/3/3 4/4/4
f 2/2/2 5/5/5 6/6/6
f 2/2/2 6/6/6 3/3/3
f 7/7/7 1/1/1 4/4/4
f 7/7/7 4/4/4 8/8/8
f 5/5/5 9/9/2 10/10/9
f 5/5/5 10/10/9 6/6/6
f 11/11/10 1/1/1 7/7/7
f 11/11/10 7/7/7 12/12/11
f 13/13/12 2/2/2 1/1/1
f 13/13/12 1/1/1 11/11/10
f 14/14/13 5/5/5 2/2/2
f 14/14/13 2/2/2 13/13/12
f 15/15/14 9/9/2 5/5/5
f 15/15/14 5/5/5 14/14/13
f 16/16/15 17/7/15 18/8/16
f 16/16/15 18/8/16 19/17/17
f 20/12/18 17/7/15 16/16/15
f 20/12/18 16/16/15 21/18/19
f 22/19/20 23/20/21 24/21/22
f 22/19/20 24/21/22 25/22/23
f 26/23/24 22/19/20 25/22/23
f 26/23/24 25/22/23 27/24/25
f 23/20/21 28/16/26 29/17/27
f 23/20/21 29/17/27 24/21/22
f 30/25/20 26/23/24 27/24/25
f 30/25/20 27/24/25 31/26/28
f 32/27/29 26/23/24 30/25/20
f 32/27/29 30/25/20 33/28/30
f 34/29/31 22/19/20 26/23/24
f 34/29/31 26/23/24 32/27/29
f 35/30/32 23/20/21 22/19/20
f 35/30/32 22/19/20 34/29/31
f 36/18/33 28/16/26 23/20/21
f 36/18/33 23/20/21 35/30/32
f 37/31/34 38/32/34 39/33/35
f 37/31/34 39/33/35 40/34/36
f 41/35/37 42/36/37 38/32/34
f 41/35/37 38/32/34 37/31/34
f 40/34/36 39/33/35 43/37/38
f 40/34/36 43/37/38 44/38/38
f 45/39/38 42/36/37 41/35/37
f 45/39/38 41/35/37 46/10/38
f 47/40/39 48/41/40 49/42/41
f 47/40/39 49/42/41 50/43/41
f 50/43/41 49/42/41 51/44/42
f 50/43/41 51/44/42 52/45/43
f 53/46/44 48/41/40 47/40/39
f 53/46/44 47/40/39 54/47/44
f 52/45/43 51/44/42 55/48/44
f 52/45/43 55/48/44 56/15/44
usemtl anisotropic2SG
f 57/49/45 58/39/46 59/39/45
f 57/49/45 59/39/45 60/49/45
f 61/39/47 62/10/47 63/10/47
s 0
f 61/39/48 63/10/48 64/39/48
s 1
f 65/10/49 66/9/49 67/9/49
f 65/10/49 67/9/49 68/10/50
f 69/48/51 70/49/51 71/49/51
f 69/48/51 71/49/51 72/48/51
f 73/9/52 74/15/52 75/15/53
f 73/9/52 75/15/53 76/9/53
f 77/15/54 78/48/54 79/48/54
s 0
f 77/15/55 79/48/55 80/15/55
s 1
f 81/9/56 82/49/56 83/39/57
f 81/9/56 83/39/57 84/10/57
f 85/48/58 82/49/56 81/9/56
f 85/48/58 81/9/56 86/15/58
s 0
f 87/49/20 88/39/20 89/39/20
f 87/49/20 89/39/20 90/49/20
f 91/48/20 87/49/20 90/49/20
f 91/48/20 90/49/20 92/48/20
f 93/49/20 94/39/20 95/39/20
f 93/49/20 95/39/20 96/49/20
f 97/48/20 93/49/20 96/49/20
f 97/48/20 96/49/20 98/48/20
f 92/48/20 90/49/20 93/49/20
f 92/48/20 93/49/20 97/48/20
f 90/49/20 89/39/20 94/39/20
f 90/49/20 94/39/20 93/49/20
s 1
f 99/39/38 100/10/38 101/10/59
f 99/39/38 101/10/59 102/39/59
f 103/39/38 104/10/38 105/10/60
f 103/39/38 105/10/60 106/39/60
f 102/39/59 101/10/59 104/10/38
f 102/39/59 104/10/38 103/39/38
s 0
f 107/10/2 108/9/2 109/9/2
f 107/10/2 109/9/2 110/10/2
f 108/9/2 111/15/2 112/15/2
f 108/9/2 112/15/2 109/9/2
f 113/10/2 114/9/2 115/9/2
f 113/10/2 115/9/2 116/10/2
f 114/9/2 117/15/2 118/15/2
f 114/9/2 118/15/2 115/9/2
f 109/9/2 112/15/2 117/15/2
f 109/9/2 117/15/2 114/9/2
f 110/10/2 109/9/2 114/9/2
f 110/10/2 114/9/2 113/10/2
s 1
f 119/15/44 120/48/44 121/48/61
f 119/15/44 121/48/61 122/15/61
f 123/15/44 124/48/44 125/48/62
f 123/15/44 125/48/62 126/15/62
f 122/15/61 121/48/61 124/48/44
f 122/15/61 124/48/44 123/15/44
s 0
f 127/12/63 128/50/63 129/51/63
f 127/12/64 129/51/64 130/18/64
f 131/52/65 132/53/65 133/8/65
f 131/52/66 133/8/66 134/17/66
f 135/50/67 136/51/67 137/51/67
s 1
f 135/50/68 137/51/68 138/50/68
s 0
f 139/52/69 140/53/69 141/53/69
s 1
f 139/52/70 141/53/70 142/52/70
f 143/9/71 144/49/71 145/54/72
f 143/9/71 145/54/72 146/55/73
f 147/56/74 148/57/75 144/49/71
f 147/56/74 144/49/71 143/9/71
f 146/55/73 145/54/72 149/58/76
f 146/55/73 149/58/76 150/59/76
f 151/60/77 152/61/77 148/57/75
f 151/60/77 148/57/75 147/56/74
s 0
f 153/48/77 152/61/77 151/60/77
f 153/48/77 151/60/77 154/15/77
f 150/59/76 149/58/76 155/39/76
f 150/59/76 155/39/76 156/10/76
s 1
f 157/7/78 158/9/79 159/55/80
f 157/7/78 159/55/80 160/62/81
f 161/63/82 162/56/83 158/9/79
f 161/63/82 158/9/79 157/7/78
f 160/62/81 159/55/80 163/59/84
f 160/62/81 163/59/84 164/53/85
f 165/50/86 166/60/87 162/56/83
f 165/50/86 162/56/83 161/63/82
f 167/15/88 166/60/87 165/50/86
f 167/15/88 165/50/86 168/12/89
f 164/53/85 163/59/84 169/10/90
f 164/53/85 169/10/90 170/8/91
f 168/12/89 165/50/86 171/50/92
f 168/12/89 171/50/92 172/12/93
f 164/53/85 170/8/91 173/8/94
f 164/53/85 173/8/94 174/53/95
f 175/16/96 176/7/97 177/62/98
f 175/16/96 177/62/98 178/64/98
f 179/65/99 180/63/99 176/7/97
f 179/65/99 176/7/97 175/16/96
f 178/64/98 177/62/98 181/53/66
f 178/64/98 181/53/66 182/52/66
f 183/51/100 184/50/100 180/63/99
f 183/51/100 180/63/99 179/65/99
f 185/25/101 186/16/102 187/64/103
f 185/25/101 187/64/103 188/66/104
f 189/67/105 190/65/106 186/16/102
f 189/67/105 186/16/102 185/25/101
f 188/66/104 187/64/103 191/52/107
f 188/66/104 191/52/107 192/68/108
f 193/69/109 194/51/110 190/65/106
f 193/69/109 190/65/106 189/67/105
f 195/18/111 194/51/110 193/69/109
f 195/18/111 193/69/109 196/28/112
f 192/68/108 191/52/107 197/17/113
f 192/68/108 197/17/113 198/26/114
f 194/51/110 195/18/111 199/18/115
f 194/51/110 199/18/115 200/51/116
f 197/17/113 191/52/107 201/52/117
f 197/17/113 201/52/117 202/17/118
f 203/39/119 204/37/120 205/38/120
f 203/39/119 205/38/120 206/10/119
f 207/8/121 208/17/122 209/17/123
f 207/8/121 209/17/123 210/8/123
f 211/46/124 212/48/125 213/15/125
f 211/46/124 213/15/125 214/47/124
f 215/18/126 216/12/126 217/12/127
f 215/18/126 217/12/127 218/18/127
usemtl lambert2SG
f 219/70/128 220/71/129 221/72/130
f 222/73/131 219/70/128 221/72/130
f 223/74/132 222/73/131 221/72/130
f 224/75/133 223/74/132 221/72/130
f 225/76/134 224/75/133 221/72/130
f 226/77/135 225/76/134 221/72/130
f 227/78/136 226/77/135 221/72/130
f 228/79/137 227/78/136 221/72/130
f 229/80/138 228/79/137 221/72/130
f 220/71/129 229/80/138 221/72/130
f 230/81/139 231/82/140 232/83/141
f 231/82/140 233/84/142 232/83/141
f 233/84/142 234/85/143 232/83/141
f 234/85/143 235/86/144 232/83/141
f 235/86/144 236/87/145 232/83/141
f 236/87/145 237/88/146 232/83/141
f 237/88/146 238/89/147 232/83/141
f 238/89/147 239/90/148 232/83/141
f 239/90/148 240/91/149 232/83/141
f 240/91/149 230/81/139 232/83/141
s 0
f 241/92/150 242/93/150 243/94/150
f 241/92/150 243/94/150 244/95/150
f 245/93/151 246/96/151 247/97/151
f 245/93/151 247/97/151 248/94/151
f 249/96/152 250/98/152 251/99/152
f 249/96/152 251/99/152 252/97/152
f 253/98/153 254/100/153 255/101/153
f 253/98/153 255/101/153 256/99/153
s 1
f 257/100/154 258/102/154 259/103/154
f 257/100/154 259/103/154 260/101/154
s 0
f 261/102/155 262/104/155 263/105/155
f 261/102/155 263/105/155 264/103/155
f 265/104/156 266/106/156 267/107/156
f 265/104/156 267/107/156 268/105/156
f 269/106/157 270/108/157 271/109/157
f 269/106/157 271/109/157 272/107/157
f 273/108/158 274/110/158 275/111/158
f 273/108/158 275/111/158 276/109/158
f 277/110/159 278/112/159 279/113/159
f 277/110/159 279/113/159 280/111/159
