# Blender 5.2.1 LTS
# www.blender.org
mtllib true_nights_edge.mtl
o 6d9b4a4c-6921-412e-955f-9e6e6597a103-export_True_Night's_Edge_material_0
v -0.328571 -0.205357 -0.020536
v -0.328571 -0.287500 -0.020536
v -0.492857 -0.287500 -0.020536
v -0.492857 -0.205357 -0.020536
v -0.041071 -0.410714 -0.020536
v -0.041071 -0.451786 -0.020536
v -0.451786 -0.451786 -0.020536
v -0.451786 -0.410714 -0.020536
v 0.205357 -0.082143 -0.020536
v 0.205357 -0.123214 -0.020536
v -0.246429 -0.123214 -0.020536
v -0.246429 -0.082143 -0.020536
v 0.246429 -0.041071 -0.020536
v 0.246429 -0.082143 -0.020536
v -0.205357 -0.082143 -0.020536
v -0.205357 -0.041071 -0.020536
v 0.287500 0.000000 -0.020536
v 0.287500 -0.041071 -0.020536
v -0.164286 -0.041071 -0.020536
v -0.164286 0.000000 -0.020536
v 0.328571 0.041071 -0.020536
v 0.328571 0.000000 -0.020536
v -0.123214 0.000000 -0.020536
v -0.123214 0.041071 -0.020536
v 0.369643 0.082143 -0.020536
v 0.369643 0.041071 -0.020536
v -0.041071 0.041071 -0.020536
v -0.041071 0.082143 -0.020536
v 0.410714 0.123214 -0.020536
v 0.410714 0.082143 -0.020536
v 0.000000 0.082143 -0.020536
v 0.000000 0.123214 -0.020536
v 0.410714 0.164286 -0.020536
v 0.410714 0.123214 -0.020536
v 0.041071 0.123214 -0.020536
v 0.041071 0.164286 -0.020536
v 0.451786 0.205357 -0.020536
v 0.451786 0.164286 -0.020536
v 0.041071 0.164286 -0.020536
v 0.041071 0.205357 -0.020536
v 0.451786 0.246429 -0.020536
v 0.451786 0.205357 -0.020536
v 0.082143 0.205357 -0.020536
v 0.082143 0.246429 -0.020536
v 0.492857 0.287500 -0.020536
v 0.492857 0.246429 -0.020536
v 0.123214 0.246429 -0.020536
v 0.123214 0.287500 -0.020536
v -0.123214 -0.328571 -0.061607
v -0.123214 -0.369643 -0.061607
v -0.328571 -0.369643 -0.061607
v -0.328571 -0.328571 -0.061607
v -0.123214 -0.246429 -0.061607
v -0.123214 -0.287500 -0.061607
v -0.328571 -0.287500 -0.061607
v -0.328571 -0.246429 -0.061607
v -0.287500 -0.451786 -0.020536
v -0.287500 -0.492857 -0.020536
v -0.492857 -0.492857 -0.020536
v -0.492857 -0.451786 -0.020536
v -0.164286 -0.164286 -0.020536
v -0.164286 -0.205357 -0.020536
v -0.451786 -0.205357 -0.020536
v -0.451786 -0.164286 -0.020536
v 0.000000 -0.492857 -0.020536
v 0.000000 -0.533929 -0.020536
v -0.246429 -0.533929 -0.020536
v -0.246429 -0.492857 -0.020536
v 0.000000 -0.451786 -0.020536
v 0.000000 -0.492857 -0.020536
v -0.205357 -0.492857 -0.020536
v -0.205357 -0.451786 -0.020536
v 0.164286 -0.123214 -0.020536
v 0.164286 -0.164286 -0.020536
v -0.041071 -0.164286 -0.020536
v -0.041071 -0.123214 -0.020536
v 0.492857 0.328571 -0.020536
v 0.492857 0.287500 -0.020536
v 0.164286 0.287500 -0.020536
v 0.164286 0.328571 -0.020536
v 0.492857 0.369643 -0.020536
v 0.492857 0.328571 -0.020536
v 0.205357 0.328571 -0.020536
v 0.205357 0.369643 -0.020536
v 0.492857 0.410714 -0.020536
v 0.492857 0.369643 -0.020536
v 0.246429 0.369643 -0.020536
v 0.246429 0.410714 -0.020536
v 0.492857 0.451786 -0.020536
v 0.492857 0.410714 -0.020536
v 0.287500 0.410714 -0.020536
v 0.287500 0.451786 -0.020536
v -0.164286 -0.287500 -0.061607
v -0.164286 -0.328571 -0.061607
v -0.287500 -0.328571 -0.061607
v -0.287500 -0.287500 -0.061607
v -0.082143 -0.205357 -0.061607
v -0.082143 -0.246429 -0.061607
v -0.205357 -0.246429 -0.061607
v -0.205357 -0.205357 -0.061607
v -0.041071 -0.164286 -0.061607
v -0.041071 -0.205357 -0.061607
v -0.164286 -0.205357 -0.061607
v -0.164286 -0.164286 -0.061607
v -0.369643 -0.533929 -0.020536
v -0.369643 -0.575000 -0.020536
v -0.492857 -0.575000 -0.020536
v -0.492857 -0.533929 -0.020536
v -0.328571 -0.492857 -0.020536
v -0.328571 -0.533929 -0.020536
v -0.492857 -0.533929 -0.020536
v -0.492857 -0.492857 -0.020536
v -0.328571 -0.123214 -0.020536
v -0.328571 -0.164286 -0.020536
v -0.492857 -0.164286 -0.020536
v -0.492857 -0.123214 -0.020536
v -0.123214 -0.123214 -0.020536
v -0.123214 -0.164286 -0.020536
v -0.287500 -0.164286 -0.020536
v -0.287500 -0.123214 -0.020536
v 0.000000 -0.287500 -0.020536
v 0.000000 -0.328571 -0.020536
v -0.164286 -0.328571 -0.020536
v -0.164286 -0.287500 -0.020536
v 0.041071 -0.246429 -0.020536
v 0.041071 -0.287500 -0.020536
v -0.123214 -0.287500 -0.020536
v -0.123214 -0.246429 -0.020536
v 0.082143 -0.205357 -0.020536
v 0.082143 -0.246429 -0.020536
v -0.082143 -0.246429 -0.020536
v -0.082143 -0.205357 -0.020536
v 0.123214 -0.164286 -0.020536
v 0.123214 -0.205357 -0.020536
v -0.041071 -0.205357 -0.020536
v -0.041071 -0.164286 -0.020536
v 0.492857 0.492857 -0.020536
v 0.492857 0.451786 -0.020536
v 0.328571 0.451786 -0.020536
v 0.328571 0.492857 -0.020536
v 0.492857 0.533929 -0.020536
v 0.492857 0.492857 -0.020536
v 0.369643 0.492857 -0.020536
v 0.369643 0.533929 -0.020536
v -0.246429 -0.369643 -0.061607
v -0.246429 -0.410714 -0.061607
v -0.328571 -0.410714 -0.061607
v -0.328571 -0.369643 -0.061607
v -0.246429 -0.205357 -0.061607
v -0.246429 -0.246429 -0.061607
v -0.328571 -0.246429 -0.061607
v -0.328571 -0.205357 -0.061607
v -0.123214 -0.369643 -0.061607
v -0.123214 -0.410714 -0.061607
v -0.205357 -0.410714 -0.061607
v -0.205357 -0.369643 -0.061607
v -0.041071 -0.123214 -0.061607
v -0.041071 -0.164286 -0.061607
v -0.123214 -0.164286 -0.061607
v -0.123214 -0.123214 -0.061607
v -0.369643 -0.082143 -0.020536
v -0.369643 -0.123214 -0.020536
v -0.451786 -0.123214 -0.020536
v -0.451786 -0.082143 -0.020536
v -0.328571 -0.369643 -0.020536
v -0.328571 -0.410714 -0.020536
v -0.410714 -0.410714 -0.020536
v -0.410714 -0.369643 -0.020536
v -0.287500 -0.287500 -0.020536
v -0.287500 -0.328571 -0.020536
v -0.369643 -0.328571 -0.020536
v -0.369643 -0.287500 -0.020536
v -0.123214 -0.533929 -0.020536
v -0.123214 -0.575000 -0.020536
v -0.205357 -0.575000 -0.020536
v -0.205357 -0.533929 -0.020536
v -0.041071 -0.328571 -0.020536
v -0.041071 -0.369643 -0.020536
v -0.123214 -0.369643 -0.020536
v -0.123214 -0.328571 -0.020536
v 0.492857 0.575000 -0.020536
v 0.492857 0.533929 -0.020536
v 0.410714 0.533929 -0.020536
v 0.410714 0.575000 -0.020536
v -0.410714 -0.287500 -0.020536
v -0.410714 -0.328571 -0.020536
v -0.451786 -0.328571 -0.020536
v -0.451786 -0.287500 -0.020536
v -0.328571 -0.328571 -0.020536
v -0.328571 -0.369643 -0.020536
v -0.369643 -0.369643 -0.020536
v -0.369643 -0.328571 -0.020536
v -0.205357 -0.369643 -0.020536
v -0.205357 -0.410714 -0.020536
v -0.246429 -0.410714 -0.020536
v -0.246429 -0.369643 -0.020536
v -0.205357 -0.205357 -0.020536
v -0.205357 -0.246429 -0.020536
v -0.246429 -0.246429 -0.020536
v -0.246429 -0.205357 -0.020536
v -0.082143 -0.369643 -0.020536
v -0.082143 -0.410714 -0.020536
v -0.123214 -0.410714 -0.020536
v -0.123214 -0.369643 -0.020536
v -0.041071 -0.533929 -0.020536
v -0.041071 -0.575000 -0.020536
v -0.082143 -0.575000 -0.020536
v -0.082143 -0.533929 -0.020536
v -0.492857 -0.205357 0.020536
v -0.492857 -0.287500 0.020536
v -0.328571 -0.287500 0.020536
v -0.328571 -0.205357 0.020536
v -0.451786 -0.410714 0.020536
v -0.451786 -0.451786 0.020536
v -0.041071 -0.451786 0.020536
v -0.041071 -0.410714 0.020536
v -0.246429 -0.082143 0.020536
v -0.246429 -0.123214 0.020536
v 0.205357 -0.123214 0.020536
v 0.205357 -0.082143 0.020536
v -0.205357 -0.041071 0.020536
v -0.205357 -0.082143 0.020536
v 0.246429 -0.082143 0.020536
v 0.246429 -0.041071 0.020536
v -0.164286 0.000000 0.020536
v -0.164286 -0.041071 0.020536
v 0.287500 -0.041071 0.020536
v 0.287500 0.000000 0.020536
v -0.123214 0.041071 0.020536
v -0.123214 0.000000 0.020536
v 0.328571 0.000000 0.020536
v 0.328571 0.041071 0.020536
v -0.041071 0.082143 0.020536
v -0.041071 0.041071 0.020536
v 0.369643 0.041071 0.020536
v 0.369643 0.082143 0.020536
v 0.000000 0.123214 0.020536
v 0.000000 0.082143 0.020536
v 0.410714 0.082143 0.020536
v 0.410714 0.123214 0.020536
v 0.041071 0.164286 0.020536
v 0.041071 0.123214 0.020536
v 0.410714 0.123214 0.020536
v 0.410714 0.164286 0.020536
v 0.041071 0.205357 0.020536
v 0.041071 0.164286 0.020536
v 0.451786 0.164286 0.020536
v 0.451786 0.205357 0.020536
v 0.082143 0.246429 0.020536
v 0.082143 0.205357 0.020536
v 0.451786 0.205357 0.020536
v 0.451786 0.246429 0.020536
v 0.123214 0.287500 0.020536
v 0.123214 0.246429 0.020536
v 0.492857 0.246429 0.020536
v 0.492857 0.287500 0.020536
v -0.492857 -0.451786 0.020536
v -0.492857 -0.492857 0.020536
v -0.287500 -0.492857 0.020536
v -0.287500 -0.451786 0.020536
v -0.451786 -0.164286 0.020536
v -0.451786 -0.205357 0.020536
v -0.164286 -0.205357 0.020536
v -0.164286 -0.164286 0.020536
v -0.246429 -0.492857 0.020536
v -0.246429 -0.533929 0.020536
v 0.000000 -0.533929 0.020536
v 0.000000 -0.492857 0.020536
v -0.205357 -0.451786 0.020536
v -0.205357 -0.492857 0.020536
v 0.000000 -0.492857 0.020536
v 0.000000 -0.451786 0.020536
v -0.041071 -0.123214 0.020536
v -0.041071 -0.164286 0.020536
v 0.164286 -0.164286 0.020536
v 0.164286 -0.123214 0.020536
v 0.164286 0.328571 0.020536
v 0.164286 0.287500 0.020536
v 0.492857 0.287500 0.020536
v 0.492857 0.328571 0.020536
v 0.205357 0.369643 0.020536
v 0.205357 0.328571 0.020536
v 0.492857 0.328571 0.020536
v 0.492857 0.369643 0.020536
v 0.246429 0.410714 0.020536
v 0.246429 0.369643 0.020536
v 0.492857 0.369643 0.020536
v 0.492857 0.410714 0.020536
v 0.287500 0.451786 0.020536
v 0.287500 0.410714 0.020536
v 0.492857 0.410714 0.020536
v 0.492857 0.451786 0.020536
v -0.328571 -0.328571 0.061607
v -0.328571 -0.369643 0.061607
v -0.123214 -0.369643 0.061607
v -0.123214 -0.328571 0.061607
v -0.328571 -0.246429 0.061607
v -0.328571 -0.287500 0.061607
v -0.123214 -0.287500 0.061607
v -0.123214 -0.246429 0.061607
v -0.492857 -0.533929 0.020536
v -0.492857 -0.575000 0.020536
v -0.369643 -0.575000 0.020536
v -0.369643 -0.533929 0.020536
v -0.492857 -0.492857 0.020536
v -0.492857 -0.533929 0.020536
v -0.328571 -0.533929 0.020536
v -0.328571 -0.492857 0.020536
v -0.492857 -0.123214 0.020536
v -0.492857 -0.164286 0.020536
v -0.328571 -0.164286 0.020536
v -0.328571 -0.123214 0.020536
v -0.287500 -0.123214 0.020536
v -0.287500 -0.164286 0.020536
v -0.123214 -0.164286 0.020536
v -0.123214 -0.123214 0.020536
v -0.164286 -0.287500 0.020536
v -0.164286 -0.328571 0.020536
v 0.000000 -0.328571 0.020536
v 0.000000 -0.287500 0.020536
v -0.123214 -0.246429 0.020536
v -0.123214 -0.287500 0.020536
v 0.041071 -0.287500 0.020536
v 0.041071 -0.246429 0.020536
v -0.082143 -0.205357 0.020536
v -0.082143 -0.246429 0.020536
v 0.082143 -0.246429 0.020536
v 0.082143 -0.205357 0.020536
v -0.041071 -0.164286 0.020536
v -0.041071 -0.205357 0.020536
v 0.123214 -0.205357 0.020536
v 0.123214 -0.164286 0.020536
v 0.328571 0.492857 0.020536
v 0.328571 0.451786 0.020536
v 0.492857 0.451786 0.020536
v 0.492857 0.492857 0.020536
v 0.369643 0.533929 0.020536
v 0.369643 0.492857 0.020536
v 0.492857 0.492857 0.020536
v 0.492857 0.533929 0.020536
v -0.287500 -0.287500 0.061607
v -0.287500 -0.328571 0.061607
v -0.164286 -0.328571 0.061607
v -0.164286 -0.287500 0.061607
v -0.205357 -0.205357 0.061607
v -0.205357 -0.246429 0.061607
v -0.082143 -0.246429 0.061607
v -0.082143 -0.205357 0.061607
v -0.164286 -0.164286 0.061607
v -0.164286 -0.205357 0.061607
v -0.041071 -0.205357 0.061607
v -0.041071 -0.164286 0.061607
v -0.451786 -0.082143 0.020536
v -0.451786 -0.123214 0.020536
v -0.369643 -0.123214 0.020536
v -0.369643 -0.082143 0.020536
v -0.410714 -0.369643 0.020536
v -0.410714 -0.410714 0.020536
v -0.328571 -0.410714 0.020536
v -0.328571 -0.369643 0.020536
v -0.369643 -0.287500 0.020536
v -0.369643 -0.328571 0.020536
v -0.287500 -0.328571 0.020536
v -0.287500 -0.287500 0.020536
v -0.205357 -0.533929 0.020536
v -0.205357 -0.575000 0.020536
v -0.123214 -0.575000 0.020536
v -0.123214 -0.533929 0.020536
v -0.123214 -0.328571 0.020536
v -0.123214 -0.369643 0.020536
v -0.041071 -0.369643 0.020536
v -0.041071 -0.328571 0.020536
v 0.410714 0.575000 0.020536
v 0.410714 0.533929 0.020536
v 0.492857 0.533929 0.020536
v 0.492857 0.575000 0.020536
v -0.328571 -0.369643 0.061607
v -0.328571 -0.410714 0.061607
v -0.246429 -0.410714 0.061607
v -0.246429 -0.369643 0.061607
v -0.328571 -0.205357 0.061607
v -0.328571 -0.246429 0.061607
v -0.246429 -0.246429 0.061607
v -0.246429 -0.205357 0.061607
v -0.205357 -0.369643 0.061607
v -0.205357 -0.410714 0.061607
v -0.123214 -0.410714 0.061607
v -0.123214 -0.369643 0.061607
v -0.123214 -0.123214 0.061607
v -0.123214 -0.164286 0.061607
v -0.041071 -0.164286 0.061607
v -0.041071 -0.123214 0.061607
v -0.451786 -0.287500 0.020536
v -0.451786 -0.328571 0.020536
v -0.410714 -0.328571 0.020536
v -0.410714 -0.287500 0.020536
v -0.369643 -0.328571 0.020536
v -0.369643 -0.369643 0.020536
v -0.328571 -0.369643 0.020536
v -0.328571 -0.328571 0.020536
v -0.246429 -0.369643 0.020536
v -0.246429 -0.410714 0.020536
v -0.205357 -0.410714 0.020536
v -0.205357 -0.369643 0.020536
v -0.246429 -0.205357 0.020536
v -0.246429 -0.246429 0.020536
v -0.205357 -0.246429 0.020536
v -0.205357 -0.205357 0.020536
v -0.123214 -0.369643 0.020536
v -0.123214 -0.410714 0.020536
v -0.082143 -0.410714 0.020536
v -0.082143 -0.369643 0.020536
v -0.082143 -0.533929 0.020536
v -0.082143 -0.575000 0.020536
v -0.041071 -0.575000 0.020536
v -0.041071 -0.533929 0.020536
v -0.492857 -0.451786 -0.020536
v -0.492857 -0.575000 -0.020536
v -0.492857 -0.575000 0.020536
v -0.492857 -0.451786 0.020536
v -0.328571 -0.328571 -0.061607
v -0.328571 -0.410714 -0.061607
v -0.328571 -0.410714 -0.020536
v -0.328571 -0.328571 -0.020536
v -0.328571 -0.205357 -0.061607
v -0.328571 -0.287500 -0.061607
v -0.328571 -0.287500 -0.020536
v -0.328571 -0.205357 -0.020536
v -0.492857 -0.205357 -0.020536
v -0.492857 -0.287500 -0.020536
v -0.492857 -0.287500 0.020536
v -0.492857 -0.205357 0.020536
v -0.369643 -0.287500 -0.020536
v -0.369643 -0.369643 -0.020536
v -0.369643 -0.369643 0.020536
v -0.369643 -0.287500 0.020536
v 0.041071 0.205357 -0.020536
v 0.041071 0.123214 -0.020536
v 0.041071 0.123214 0.020536
v 0.041071 0.205357 0.020536
v -0.328571 -0.328571 0.020536
v -0.328571 -0.410714 0.020536
v -0.328571 -0.410714 0.061607
v -0.328571 -0.328571 0.061607
v -0.328571 -0.205357 0.020536
v -0.328571 -0.287500 0.020536
v -0.328571 -0.287500 0.061607
v -0.328571 -0.205357 0.061607
v -0.287500 -0.287500 -0.061607
v -0.287500 -0.328571 -0.061607
v -0.287500 -0.328571 -0.020536
v -0.287500 -0.287500 -0.020536
v -0.205357 -0.369643 -0.061607
v -0.205357 -0.410714 -0.061607
v -0.205357 -0.410714 -0.020536
v -0.205357 -0.369643 -0.020536
v -0.205357 -0.205357 -0.061607
v -0.205357 -0.246429 -0.061607
v -0.205357 -0.246429 -0.020536
v -0.205357 -0.205357 -0.020536
v -0.164286 -0.164286 -0.061607
v -0.164286 -0.205357 -0.061607
v -0.164286 -0.205357 -0.020536
v -0.164286 -0.164286 -0.020536
v -0.123214 -0.123214 -0.061607
v -0.123214 -0.164286 -0.061607
v -0.123214 -0.164286 -0.020536
v -0.123214 -0.123214 -0.020536
v -0.492857 -0.123214 -0.020536
v -0.492857 -0.164286 -0.020536
v -0.492857 -0.164286 0.020536
v -0.492857 -0.123214 0.020536
v -0.451786 -0.410714 -0.020536
v -0.451786 -0.451786 -0.020536
v -0.451786 -0.451786 0.020536
v -0.451786 -0.410714 0.020536
v -0.451786 -0.287500 -0.020536
v -0.451786 -0.328571 -0.020536
v -0.451786 -0.328571 0.020536
v -0.451786 -0.287500 0.020536
v -0.451786 -0.164286 -0.020536
v -0.451786 -0.205357 -0.020536
v -0.451786 -0.205357 0.020536
v -0.451786 -0.164286 0.020536
v -0.451786 -0.082143 -0.020536
v -0.451786 -0.123214 -0.020536
v -0.451786 -0.123214 0.020536
v -0.451786 -0.082143 0.020536
v -0.410714 -0.369643 -0.020536
v -0.410714 -0.410714 -0.020536
v -0.410714 -0.410714 0.020536
v -0.410714 -0.369643 0.020536
v -0.287500 -0.123214 -0.020536
v -0.287500 -0.164286 -0.020536
v -0.287500 -0.164286 0.020536
v -0.287500 -0.123214 0.020536
v -0.246429 -0.492857 -0.020536
v -0.246429 -0.533929 -0.020536
v -0.246429 -0.533929 0.020536
v -0.246429 -0.492857 0.020536
v -0.246429 -0.082143 -0.020536
v -0.246429 -0.123214 -0.020536
v -0.246429 -0.123214 0.020536
v -0.246429 -0.082143 0.020536
v -0.205357 -0.533929 -0.020536
v -0.205357 -0.575000 -0.020536
v -0.205357 -0.575000 0.020536
v -0.205357 -0.533929 0.020536
v -0.205357 -0.451786 -0.020536
v -0.205357 -0.492857 -0.020536
v -0.205357 -0.492857 0.020536
v -0.205357 -0.451786 0.020536
v -0.205357 -0.041071 -0.020536
v -0.205357 -0.082143 -0.020536
v -0.205357 -0.082143 0.020536
v -0.205357 -0.041071 0.020536
v -0.164286 0.000000 -0.020536
v -0.164286 -0.041071 -0.020536
v -0.164286 -0.041071 0.020536
v -0.164286 0.000000 0.020536
v -0.123214 0.041071 -0.020536
v -0.123214 0.000000 -0.020536
v -0.123214 0.000000 0.020536
v -0.123214 0.041071 0.020536
v -0.082143 -0.533929 -0.020536
v -0.082143 -0.575000 -0.020536
v -0.082143 -0.575000 0.020536
v -0.082143 -0.533929 0.020536
v -0.041071 0.082143 -0.020536
v -0.041071 0.041071 -0.020536
v -0.041071 0.041071 0.020536
v -0.041071 0.082143 0.020536
v 0.000000 0.123214 -0.020536
v 0.000000 0.082143 -0.020536
v 0.000000 0.082143 0.020536
v 0.000000 0.123214 0.020536
v 0.082143 0.246429 -0.020536
v 0.082143 0.205357 -0.020536
v 0.082143 0.205357 0.020536
v 0.082143 0.246429 0.020536
v 0.123214 0.287500 -0.020536
v 0.123214 0.246429 -0.020536
v 0.123214 0.246429 0.020536
v 0.123214 0.287500 0.020536
v 0.164286 0.328571 -0.020536
v 0.164286 0.287500 -0.020536
v 0.164286 0.287500 0.020536
v 0.164286 0.328571 0.020536
v 0.205357 0.369643 -0.020536
v 0.205357 0.328571 -0.020536
v 0.205357 0.328571 0.020536
v 0.205357 0.369643 0.020536
v 0.246429 0.410714 -0.020536
v 0.246429 0.369643 -0.020536
v 0.246429 0.369643 0.020536
v 0.246429 0.410714 0.020536
v 0.287500 0.451786 -0.020536
v 0.287500 0.410714 -0.020536
v 0.287500 0.410714 0.020536
v 0.287500 0.451786 0.020536
v 0.328571 0.492857 -0.020536
v 0.328571 0.451786 -0.020536
v 0.328571 0.451786 0.020536
v 0.328571 0.492857 0.020536
v 0.369643 0.533929 -0.020536
v 0.369643 0.492857 -0.020536
v 0.369643 0.492857 0.020536
v 0.369643 0.533929 0.020536
v 0.410714 0.575000 -0.020536
v 0.410714 0.533929 -0.020536
v 0.410714 0.533929 0.020536
v 0.410714 0.575000 0.020536
v -0.287500 -0.287500 0.020536
v -0.287500 -0.328571 0.020536
v -0.287500 -0.328571 0.061607
v -0.287500 -0.287500 0.061607
v -0.205357 -0.369643 0.020536
v -0.205357 -0.410714 0.020536
v -0.205357 -0.410714 0.061607
v -0.205357 -0.369643 0.061607
v -0.205357 -0.205357 0.020536
v -0.205357 -0.246429 0.020536
v -0.205357 -0.246429 0.061607
v -0.205357 -0.205357 0.061607
v -0.164286 -0.164286 0.020536
v -0.164286 -0.205357 0.020536
v -0.164286 -0.205357 0.061607
v -0.164286 -0.164286 0.061607
v -0.123214 -0.123214 0.020536
v -0.123214 -0.164286 0.020536
v -0.123214 -0.164286 0.061607
v -0.123214 -0.123214 0.061607
v 0.492857 0.575000 0.020536
v 0.492857 0.246429 0.020536
v 0.492857 0.246429 -0.020536
v 0.492857 0.575000 -0.020536
v -0.123214 -0.328571 -0.020536
v -0.123214 -0.410714 -0.020536
v -0.123214 -0.410714 -0.061607
v -0.123214 -0.328571 -0.061607
v -0.041071 -0.123214 -0.020536
v -0.041071 -0.205357 -0.020536
v -0.041071 -0.205357 -0.061607
v -0.041071 -0.123214 -0.061607
v 0.000000 -0.451786 0.020536
v 0.000000 -0.533929 0.020536
v 0.000000 -0.533929 -0.020536
v 0.000000 -0.451786 -0.020536
v 0.410714 0.164286 0.020536
v 0.410714 0.082143 0.020536
v 0.410714 0.082143 -0.020536
v 0.410714 0.164286 -0.020536
v 0.451786 0.246429 0.020536
v 0.451786 0.164286 0.020536
v 0.451786 0.164286 -0.020536
v 0.451786 0.246429 -0.020536
v -0.123214 -0.328571 0.061607
v -0.123214 -0.410714 0.061607
v -0.123214 -0.410714 0.020536
v -0.123214 -0.328571 0.020536
v -0.041071 -0.123214 0.061607
v -0.041071 -0.205357 0.061607
v -0.041071 -0.205357 0.020536
v -0.041071 -0.123214 0.020536
v -0.246429 -0.369643 -0.020536
v -0.246429 -0.410714 -0.020536
v -0.246429 -0.410714 -0.061607
v -0.246429 -0.369643 -0.061607
v -0.246429 -0.205357 -0.020536
v -0.246429 -0.246429 -0.020536
v -0.246429 -0.246429 -0.061607
v -0.246429 -0.205357 -0.061607
v -0.164286 -0.287500 -0.020536
v -0.164286 -0.328571 -0.020536
v -0.164286 -0.328571 -0.061607
v -0.164286 -0.287500 -0.061607
v -0.123214 -0.246429 -0.020536
v -0.123214 -0.287500 -0.020536
v -0.123214 -0.287500 -0.061607
v -0.123214 -0.246429 -0.061607
v -0.082143 -0.205357 -0.020536
v -0.082143 -0.246429 -0.020536
v -0.082143 -0.246429 -0.061607
v -0.082143 -0.205357 -0.061607
v -0.410714 -0.287500 0.020536
v -0.410714 -0.328571 0.020536
v -0.410714 -0.328571 -0.020536
v -0.410714 -0.287500 -0.020536
v -0.369643 -0.533929 0.020536
v -0.369643 -0.575000 0.020536
v -0.369643 -0.575000 -0.020536
v -0.369643 -0.533929 -0.020536
v -0.369643 -0.082143 0.020536
v -0.369643 -0.123214 0.020536
v -0.369643 -0.123214 -0.020536
v -0.369643 -0.082143 -0.020536
v -0.328571 -0.492857 0.020536
v -0.328571 -0.533929 0.020536
v -0.328571 -0.533929 -0.020536
v -0.328571 -0.492857 -0.020536
v -0.328571 -0.123214 0.020536
v -0.328571 -0.164286 0.020536
v -0.328571 -0.164286 -0.020536
v -0.328571 -0.123214 -0.020536
v -0.287500 -0.451786 0.020536
v -0.287500 -0.492857 0.020536
v -0.287500 -0.492857 -0.020536
v -0.287500 -0.451786 -0.020536
v -0.123214 -0.533929 0.020536
v -0.123214 -0.575000 0.020536
v -0.123214 -0.575000 -0.020536
v -0.123214 -0.533929 -0.020536
v -0.082143 -0.369643 0.020536
v -0.082143 -0.410714 0.020536
v -0.082143 -0.410714 -0.020536
v -0.082143 -0.369643 -0.020536
v -0.041071 -0.533929 0.020536
v -0.041071 -0.575000 0.020536
v -0.041071 -0.575000 -0.020536
v -0.041071 -0.533929 -0.020536
v -0.041071 -0.410714 0.020536
v -0.041071 -0.451786 0.020536
v -0.041071 -0.451786 -0.020536
v -0.041071 -0.410714 -0.020536
v -0.041071 -0.328571 0.020536
v -0.041071 -0.369643 0.020536
v -0.041071 -0.369643 -0.020536
v -0.041071 -0.328571 -0.020536
v 0.000000 -0.287500 0.020536
v 0.000000 -0.328571 0.020536
v 0.000000 -0.328571 -0.020536
v 0.000000 -0.287500 -0.020536
v 0.041071 -0.246429 0.020536
v 0.041071 -0.287500 0.020536
v 0.041071 -0.287500 -0.020536
v 0.041071 -0.246429 -0.020536
v 0.082143 -0.205357 0.020536
v 0.082143 -0.246429 0.020536
v 0.082143 -0.246429 -0.020536
v 0.082143 -0.205357 -0.020536
v 0.123214 -0.164286 0.020536
v 0.123214 -0.205357 0.020536
v 0.123214 -0.205357 -0.020536
v 0.123214 -0.164286 -0.020536
v 0.164286 -0.123214 0.020536
v 0.164286 -0.164286 0.020536
v 0.164286 -0.164286 -0.020536
v 0.164286 -0.123214 -0.020536
v 0.205357 -0.082143 0.020536
v 0.205357 -0.123214 0.020536
v 0.205357 -0.123214 -0.020536
v 0.205357 -0.082143 -0.020536
v 0.246429 -0.041071 0.020536
v 0.246429 -0.082143 0.020536
v 0.246429 -0.082143 -0.020536
v 0.246429 -0.041071 -0.020536
v 0.287500 0.000000 0.020536
v 0.287500 -0.041071 0.020536
v 0.287500 -0.041071 -0.020536
v 0.287500 0.000000 -0.020536
v 0.328571 0.041071 0.020536
v 0.328571 0.000000 0.020536
v 0.328571 0.000000 -0.020536
v 0.328571 0.041071 -0.020536
v 0.369643 0.082143 0.020536
v 0.369643 0.041071 0.020536
v 0.369643 0.041071 -0.020536
v 0.369643 0.082143 -0.020536
v -0.246429 -0.369643 0.061607
v -0.246429 -0.410714 0.061607
v -0.246429 -0.410714 0.020536
v -0.246429 -0.369643 0.020536
v -0.246429 -0.205357 0.061607
v -0.246429 -0.246429 0.061607
v -0.246429 -0.246429 0.020536
v -0.246429 -0.205357 0.020536
v -0.164286 -0.287500 0.061607
v -0.164286 -0.328571 0.061607
v -0.164286 -0.328571 0.020536
v -0.164286 -0.287500 0.020536
v -0.123214 -0.246429 0.061607
v -0.123214 -0.287500 0.061607
v -0.123214 -0.287500 0.020536
v -0.123214 -0.246429 0.020536
v -0.082143 -0.205357 0.061607
v -0.082143 -0.246429 0.061607
v -0.082143 -0.246429 0.020536
v -0.082143 -0.205357 0.020536
v -0.328571 -0.205357 -0.061607
v -0.328571 -0.205357 -0.020536
v -0.246429 -0.205357 -0.020536
v -0.246429 -0.205357 -0.061607
v -0.123214 -0.123214 -0.061607
v -0.123214 -0.123214 -0.020536
v -0.041071 -0.123214 -0.020536
v -0.041071 -0.123214 -0.061607
v -0.451786 -0.082143 -0.020536
v -0.451786 -0.082143 0.020536
v -0.369643 -0.082143 0.020536
v -0.369643 -0.082143 -0.020536
v -0.123214 0.041071 -0.020536
v -0.123214 0.041071 0.020536
v -0.041071 0.041071 0.020536
v -0.041071 0.041071 -0.020536
v 0.410714 0.575000 -0.020536
v 0.410714 0.575000 0.020536
v 0.492857 0.575000 0.020536
v 0.492857 0.575000 -0.020536
v -0.328571 -0.205357 0.020536
v -0.328571 -0.205357 0.061607
v -0.246429 -0.205357 0.061607
v -0.246429 -0.205357 0.020536
v -0.123214 -0.123214 0.020536
v -0.123214 -0.123214 0.061607
v -0.041071 -0.123214 0.061607
v -0.041071 -0.123214 0.020536
v -0.328571 -0.328571 -0.061607
v -0.328571 -0.328571 -0.020536
v -0.287500 -0.328571 -0.020536
v -0.287500 -0.328571 -0.061607
v -0.246429 -0.246429 -0.061607
v -0.246429 -0.246429 -0.020536
v -0.205357 -0.246429 -0.020536
v -0.205357 -0.246429 -0.061607
v -0.205357 -0.205357 -0.061607
v -0.205357 -0.205357 -0.020536
v -0.164286 -0.205357 -0.020536
v -0.164286 -0.205357 -0.061607
v -0.164286 -0.328571 -0.061607
v -0.164286 -0.328571 -0.020536
v -0.123214 -0.328571 -0.020536
v -0.123214 -0.328571 -0.061607
v -0.164286 -0.164286 -0.061607
v -0.164286 -0.164286 -0.020536
v -0.123214 -0.164286 -0.020536
v -0.123214 -0.164286 -0.061607
v -0.492857 -0.451786 -0.020536
v -0.492857 -0.451786 0.020536
v -0.451786 -0.451786 0.020536
v -0.451786 -0.451786 -0.020536
v -0.492857 -0.205357 -0.020536
v -0.492857 -0.205357 0.020536
v -0.451786 -0.205357 0.020536
v -0.451786 -0.205357 -0.020536
v -0.492857 -0.123214 -0.020536
v -0.492857 -0.123214 0.020536
v -0.451786 -0.123214 0.020536
v -0.451786 -0.123214 -0.020536
v -0.451786 -0.410714 -0.020536
v -0.451786 -0.410714 0.020536
v -0.410714 -0.410714 0.020536
v -0.410714 -0.410714 -0.020536
v -0.410714 -0.369643 -0.020536
v -0.410714 -0.369643 0.020536
v -0.369643 -0.369643 0.020536
v -0.369643 -0.369643 -0.020536
v -0.369643 -0.123214 -0.020536
v -0.369643 -0.123214 0.020536
v -0.328571 -0.123214 0.020536
v -0.328571 -0.123214 -0.020536
v -0.328571 -0.164286 -0.020536
v -0.328571 -0.164286 0.020536
v -0.287500 -0.164286 0.020536
v -0.287500 -0.164286 -0.020536
v -0.287500 -0.123214 -0.020536
v -0.287500 -0.123214 0.020536
v -0.246429 -0.123214 0.020536
v -0.246429 -0.123214 -0.020536
v -0.246429 -0.492857 -0.020536
v -0.246429 -0.492857 0.020536
v -0.205357 -0.492857 0.020536
v -0.205357 -0.492857 -0.020536
v -0.246429 -0.082143 -0.020536
v -0.246429 -0.082143 0.020536
v -0.205357 -0.082143 0.020536
v -0.205357 -0.082143 -0.020536
v -0.205357 -0.041071 -0.020536
v -0.205357 -0.041071 0.020536
v -0.164286 -0.041071 0.020536
v -0.164286 -0.041071 -0.020536
v -0.164286 0.000000 -0.020536
v -0.164286 0.000000 0.020536
v -0.123214 0.000000 0.020536
v -0.123214 0.000000 -0.020536
v -0.082143 -0.410714 -0.020536
v -0.082143 -0.410714 0.020536
v -0.041071 -0.410714 0.020536
v -0.041071 -0.410714 -0.020536
v -0.041071 -0.451786 -0.020536
v -0.041071 -0.451786 0.020536
v 0.000000 -0.451786 0.020536
v 0.000000 -0.451786 -0.020536
v -0.041071 0.082143 -0.020536
v -0.041071 0.082143 0.020536
v 0.000000 0.082143 0.020536
v 0.000000 0.082143 -0.020536
v 0.000000 0.123214 -0.020536
v 0.000000 0.123214 0.020536
v 0.041071 0.123214 0.020536
v 0.041071 0.123214 -0.020536
v 0.041071 0.205357 -0.020536
v 0.041071 0.205357 0.020536
v 0.082143 0.205357 0.020536
v 0.082143 0.205357 -0.020536
v 0.082143 0.246429 -0.020536
v 0.082143 0.246429 0.020536
v 0.123214 0.246429 0.020536
v 0.123214 0.246429 -0.020536
v 0.123214 0.287500 -0.020536
v 0.123214 0.287500 0.020536
v 0.164286 0.287500 0.020536
v 0.164286 0.287500 -0.020536
v 0.164286 0.328571 -0.020536
v 0.164286 0.328571 0.020536
v 0.205357 0.328571 0.020536
v 0.205357 0.328571 -0.020536
v 0.205357 0.369643 -0.020536
v 0.205357 0.369643 0.020536
v 0.246429 0.369643 0.020536
v 0.246429 0.369643 -0.020536
v 0.246429 0.410714 -0.020536
v 0.246429 0.410714 0.020536
v 0.287500 0.410714 0.020536
v 0.287500 0.410714 -0.020536
v 0.287500 0.451786 -0.020536
v 0.287500 0.451786 0.020536
v 0.328571 0.451786 0.020536
v 0.328571 0.451786 -0.020536
v 0.328571 0.492857 -0.020536
v 0.328571 0.492857 0.020536
v 0.369643 0.492857 0.020536
v 0.369643 0.492857 -0.020536
v 0.369643 0.533929 -0.020536
v 0.369643 0.533929 0.020536
v 0.410714 0.533929 0.020536
v 0.410714 0.533929 -0.020536
v -0.328571 -0.328571 0.020536
v -0.328571 -0.328571 0.061607
v -0.287500 -0.328571 0.061607
v -0.287500 -0.328571 0.020536
v -0.246429 -0.246429 0.020536
v -0.246429 -0.246429 0.061607
v -0.205357 -0.246429 0.061607
v -0.205357 -0.246429 0.020536
v -0.205357 -0.205357 0.020536
v -0.205357 -0.205357 0.061607
v -0.164286 -0.205357 0.061607
v -0.164286 -0.205357 0.020536
v -0.164286 -0.328571 0.020536
v -0.164286 -0.328571 0.061607
v -0.123214 -0.328571 0.061607
v -0.123214 -0.328571 0.020536
v -0.164286 -0.164286 0.020536
v -0.164286 -0.164286 0.061607
v -0.123214 -0.164286 0.061607
v -0.123214 -0.164286 0.020536
v -0.492857 -0.575000 0.020536
v -0.492857 -0.575000 -0.020536
v -0.369643 -0.575000 -0.020536
v -0.369643 -0.575000 0.020536
v -0.328571 -0.410714 -0.020536
v -0.328571 -0.410714 -0.061607
v -0.246429 -0.410714 -0.061607
v -0.246429 -0.410714 -0.020536
v -0.205357 -0.410714 -0.020536
v -0.205357 -0.410714 -0.061607
v -0.123214 -0.410714 -0.061607
v -0.123214 -0.410714 -0.020536
v -0.287500 -0.451786 0.020536
v -0.287500 -0.451786 -0.020536
v -0.205357 -0.451786 -0.020536
v -0.205357 -0.451786 0.020536
v -0.205357 -0.575000 0.020536
v -0.205357 -0.575000 -0.020536
v -0.123214 -0.575000 -0.020536
v -0.123214 -0.575000 0.020536
v -0.328571 -0.410714 0.061607
v -0.328571 -0.410714 0.020536
v -0.246429 -0.410714 0.020536
v -0.246429 -0.410714 0.061607
v -0.205357 -0.410714 0.061607
v -0.205357 -0.410714 0.020536
v -0.123214 -0.410714 0.020536
v -0.123214 -0.410714 0.061607
v -0.328571 -0.287500 -0.020536
v -0.328571 -0.287500 -0.061607
v -0.287500 -0.287500 -0.061607
v -0.287500 -0.287500 -0.020536
v -0.246429 -0.369643 -0.020536
v -0.246429 -0.369643 -0.061607
v -0.205357 -0.369643 -0.061607
v -0.205357 -0.369643 -0.020536
v -0.164286 -0.287500 -0.020536
v -0.164286 -0.287500 -0.061607
v -0.123214 -0.287500 -0.061607
v -0.123214 -0.287500 -0.020536
v -0.123214 -0.246429 -0.020536
v -0.123214 -0.246429 -0.061607
v -0.082143 -0.246429 -0.061607
v -0.082143 -0.246429 -0.020536
v -0.082143 -0.205357 -0.020536
v -0.082143 -0.205357 -0.061607
v -0.041071 -0.205357 -0.061607
v -0.041071 -0.205357 -0.020536
v -0.492857 -0.287500 0.020536
v -0.492857 -0.287500 -0.020536
v -0.451786 -0.287500 -0.020536
v -0.451786 -0.287500 0.020536
v -0.492857 -0.164286 0.020536
v -0.492857 -0.164286 -0.020536
v -0.451786 -0.164286 -0.020536
v -0.451786 -0.164286 0.020536
v -0.451786 -0.328571 0.020536
v -0.451786 -0.328571 -0.020536
v -0.410714 -0.328571 -0.020536
v -0.410714 -0.328571 0.020536
v -0.410714 -0.287500 0.020536
v -0.410714 -0.287500 -0.020536
v -0.369643 -0.287500 -0.020536
v -0.369643 -0.287500 0.020536
v -0.369643 -0.533929 0.020536
v -0.369643 -0.533929 -0.020536
v -0.328571 -0.533929 -0.020536
v -0.328571 -0.533929 0.020536
v -0.328571 -0.492857 0.020536
v -0.328571 -0.492857 -0.020536
v -0.287500 -0.492857 -0.020536
v -0.287500 -0.492857 0.020536
v -0.246429 -0.533929 0.020536
v -0.246429 -0.533929 -0.020536
v -0.205357 -0.533929 -0.020536
v -0.205357 -0.533929 0.020536
v -0.123214 -0.533929 0.020536
v -0.123214 -0.533929 -0.020536
v -0.082143 -0.533929 -0.020536
v -0.082143 -0.533929 0.020536
v -0.082143 -0.575000 0.020536
v -0.082143 -0.575000 -0.020536
v -0.041071 -0.575000 -0.020536
v -0.041071 -0.575000 0.020536
v -0.082143 -0.369643 0.020536
v -0.082143 -0.369643 -0.020536
v -0.041071 -0.369643 -0.020536
v -0.041071 -0.369643 0.020536
v -0.041071 -0.533929 0.020536
v -0.041071 -0.533929 -0.020536
v 0.000000 -0.533929 -0.020536
v 0.000000 -0.533929 0.020536
v -0.041071 -0.328571 0.020536
v -0.041071 -0.328571 -0.020536
v 0.000000 -0.328571 -0.020536
v 0.000000 -0.328571 0.020536
v 0.000000 -0.287500 0.020536
v 0.000000 -0.287500 -0.020536
v 0.041071 -0.287500 -0.020536
v 0.041071 -0.287500 0.020536
v 0.041071 -0.246429 0.020536
v 0.041071 -0.246429 -0.020536
v 0.082143 -0.246429 -0.020536
v 0.082143 -0.246429 0.020536
v 0.082143 -0.205357 0.020536
v 0.082143 -0.205357 -0.020536
v 0.123214 -0.205357 -0.020536
v 0.123214 -0.205357 0.020536
v 0.123214 -0.164286 0.020536
v 0.123214 -0.164286 -0.020536
v 0.164286 -0.164286 -0.020536
v 0.164286 -0.164286 0.020536
v 0.164286 -0.123214 0.020536
v 0.164286 -0.123214 -0.020536
v 0.205357 -0.123214 -0.020536
v 0.205357 -0.123214 0.020536
v 0.205357 -0.082143 0.020536
v 0.205357 -0.082143 -0.020536
v 0.246429 -0.082143 -0.020536
v 0.246429 -0.082143 0.020536
v 0.246429 -0.041071 0.020536
v 0.246429 -0.041071 -0.020536
v 0.287500 -0.041071 -0.020536
v 0.287500 -0.041071 0.020536
v 0.287500 0.000000 0.020536
v 0.287500 0.000000 -0.020536
v 0.328571 0.000000 -0.020536
v 0.328571 0.000000 0.020536
v 0.328571 0.041071 0.020536
v 0.328571 0.041071 -0.020536
v 0.369643 0.041071 -0.020536
v 0.369643 0.041071 0.020536
v 0.369643 0.082143 0.020536
v 0.369643 0.082143 -0.020536
v 0.410714 0.082143 -0.020536
v 0.410714 0.082143 0.020536
v 0.410714 0.164286 0.020536
v 0.410714 0.164286 -0.020536
v 0.451786 0.164286 -0.020536
v 0.451786 0.164286 0.020536
v 0.451786 0.246429 0.020536
v 0.451786 0.246429 -0.020536
v 0.492857 0.246429 -0.020536
v 0.492857 0.246429 0.020536
v -0.328571 -0.287500 0.061607
v -0.328571 -0.287500 0.020536
v -0.287500 -0.287500 0.020536
v -0.287500 -0.287500 0.061607
v -0.246429 -0.369643 0.061607
v -0.246429 -0.369643 0.020536
v -0.205357 -0.369643 0.020536
v -0.205357 -0.369643 0.061607
v -0.164286 -0.287500 0.061607
v -0.164286 -0.287500 0.020536
v -0.123214 -0.287500 0.020536
v -0.123214 -0.287500 0.061607
v -0.123214 -0.246429 0.061607
v -0.123214 -0.246429 0.020536
v -0.082143 -0.246429 0.020536
v -0.082143 -0.246429 0.061607
v -0.082143 -0.205357 0.061607
v -0.082143 -0.205357 0.020536
v -0.041071 -0.205357 0.020536
v -0.041071 -0.205357 0.061607
vn -0.0000 -0.0000 -1.0000
vn -0.0000 -0.0000 1.0000
vn -1.0000 -0.0000 -0.0000
vn 1.0000 -0.0000 -0.0000
vn -0.0000 1.0000 -0.0000
vn -0.0000 -1.0000 -0.0000
vt 0.203125 0.953125
vt 0.203125 0.984375
vt 0.265625 0.984375
vt 0.265625 0.953125
vt 0.015625 0.765625
vt 0.015625 0.781250
vt 0.171875 0.781250
vt 0.171875 0.765625
vt 0.265625 0.890625
vt 0.265625 0.906250
vt 0.437500 0.906250
vt 0.437500 0.890625
vt 0.062500 0.890625
vt 0.062500 0.906250
vt 0.234375 0.906250
vt 0.234375 0.890625
vt 0.671875 0.890625
vt 0.671875 0.906250
vt 0.843750 0.906250
vt 0.843750 0.890625
vt 0.468750 0.890625
vt 0.468750 0.906250
vt 0.640625 0.906250
vt 0.640625 0.890625
vt 0.015625 0.718750
vt 0.015625 0.734375
vt 0.171875 0.734375
vt 0.171875 0.718750
vt 0.765625 0.765625
vt 0.765625 0.781250
vt 0.921875 0.781250
vt 0.921875 0.765625
vt 0.187500 0.671875
vt 0.187500 0.687500
vt 0.328125 0.687500
vt 0.328125 0.671875
vt 0.203125 0.718750
vt 0.203125 0.734375
vt 0.359375 0.734375
vt 0.359375 0.718750
vt 0.015625 0.671875
vt 0.015625 0.687500
vt 0.156250 0.687500
vt 0.156250 0.671875
vt 0.734375 0.718750
vt 0.734375 0.734375
vt 0.875000 0.734375
vt 0.875000 0.718750
vt 0.562500 0.578125
vt 0.562500 0.593750
vt 0.640625 0.593750
vt 0.640625 0.578125
vt 0.671875 0.578125
vt 0.671875 0.593750
vt 0.750000 0.593750
vt 0.750000 0.578125
vt 0.343750 0.578125
vt 0.343750 0.593750
vt 0.421875 0.593750
vt 0.421875 0.578125
vt 0.875000 0.890625
vt 0.875000 0.906250
vt 0.984375 0.906250
vt 0.984375 0.890625
vt 0.671875 0.625000
vt 0.671875 0.640625
vt 0.765625 0.640625
vt 0.765625 0.625000
vt 0.453125 0.578125
vt 0.453125 0.593750
vt 0.531250 0.593750
vt 0.531250 0.578125
vt 0.781250 0.578125
vt 0.781250 0.593750
vt 0.859375 0.593750
vt 0.859375 0.578125
vt 0.687500 0.671875
vt 0.687500 0.687500
vt 0.812500 0.687500
vt 0.812500 0.671875
vt 0.843750 0.671875
vt 0.843750 0.687500
vt 0.953125 0.687500
vt 0.953125 0.671875
vt 0.546875 0.625000
vt 0.546875 0.640625
vt 0.640625 0.640625
vt 0.640625 0.625000
vt 0.890625 0.578125
vt 0.890625 0.593750
vt 0.968750 0.593750
vt 0.968750 0.578125
vt 0.406250 0.437500
vt 0.406250 0.453125
vt 0.453125 0.453125
vt 0.453125 0.437500
vt 0.015625 0.437500
vt 0.015625 0.453125
vt 0.062500 0.453125
vt 0.062500 0.437500
vt 0.656250 0.484375
vt 0.656250 0.500000
vt 0.703125 0.500000
vt 0.703125 0.484375
vt 0.578125 0.484375
vt 0.578125 0.500000
vt 0.625000 0.500000
vt 0.625000 0.484375
vt 0.765625 0.531250
vt 0.765625 0.546875
vt 0.828125 0.546875
vt 0.828125 0.531250
vt 0.859375 0.531250
vt 0.859375 0.546875
vt 0.921875 0.546875
vt 0.921875 0.531250
vt 0.671875 0.531250
vt 0.671875 0.546875
vt 0.734375 0.546875
vt 0.734375 0.531250
vt 0.484375 0.531250
vt 0.484375 0.546875
vt 0.546875 0.546875
vt 0.546875 0.531250
vt 0.296875 0.531250
vt 0.296875 0.546875
vt 0.359375 0.546875
vt 0.359375 0.531250
vt 0.203125 0.531250
vt 0.203125 0.546875
vt 0.265625 0.546875
vt 0.265625 0.531250
vt 0.015625 0.531250
vt 0.015625 0.546875
vt 0.078125 0.546875
vt 0.078125 0.531250
vt 0.484375 0.484375
vt 0.484375 0.500000
vt 0.546875 0.500000
vt 0.546875 0.484375
vt 0.812500 0.484375
vt 0.812500 0.500000
vt 0.859375 0.500000
vt 0.859375 0.484375
vt 0.953125 0.390625
vt 0.953125 0.406250
vt 0.984375 0.406250
vt 0.984375 0.390625
vt 0.265625 0.343750
vt 0.265625 0.359375
vt 0.296875 0.359375
vt 0.296875 0.343750
vt 0.328125 0.343750
vt 0.328125 0.359375
vt 0.359375 0.359375
vt 0.359375 0.343750
vt 0.140625 0.343750
vt 0.140625 0.359375
vt 0.171875 0.359375
vt 0.171875 0.343750
vt 0.078125 0.390625
vt 0.078125 0.406250
vt 0.109375 0.406250
vt 0.109375 0.390625
vt 0.734375 0.437500
vt 0.734375 0.453125
vt 0.765625 0.453125
vt 0.765625 0.437500
vt 0.796875 0.437500
vt 0.796875 0.453125
vt 0.828125 0.453125
vt 0.828125 0.437500
vt 0.609375 0.437500
vt 0.609375 0.453125
vt 0.640625 0.453125
vt 0.640625 0.437500
vt 0.671875 0.437500
vt 0.671875 0.453125
vt 0.703125 0.453125
vt 0.703125 0.437500
vt 0.859375 0.437500
vt 0.859375 0.453125
vt 0.890625 0.453125
vt 0.890625 0.437500
vt 0.296875 0.296875
vt 0.296875 0.312500
vt 0.312500 0.312500
vt 0.312500 0.296875
vt 0.250000 0.296875
vt 0.250000 0.312500
vt 0.265625 0.312500
vt 0.265625 0.296875
vt 0.203125 0.296875
vt 0.203125 0.312500
vt 0.218750 0.312500
vt 0.218750 0.296875
vt 0.953125 0.343750
vt 0.953125 0.359375
vt 0.968750 0.359375
vt 0.968750 0.343750
vt 0.906250 0.343750
vt 0.906250 0.359375
vt 0.921875 0.359375
vt 0.921875 0.343750
vt 0.156250 0.296875
vt 0.156250 0.312500
vt 0.171875 0.312500
vt 0.171875 0.296875
vt 0.109375 0.953125
vt 0.109375 0.984375
vt 0.171875 0.984375
vt 0.171875 0.953125
vt 0.390625 0.765625
vt 0.390625 0.781250
vt 0.546875 0.781250
vt 0.546875 0.765625
vt 0.218750 0.812500
vt 0.218750 0.828125
vt 0.390625 0.828125
vt 0.390625 0.812500
vt 0.015625 0.812500
vt 0.015625 0.828125
vt 0.187500 0.828125
vt 0.187500 0.812500
vt 0.625000 0.812500
vt 0.625000 0.828125
vt 0.796875 0.828125
vt 0.796875 0.812500
vt 0.421875 0.812500
vt 0.421875 0.828125
vt 0.593750 0.828125
vt 0.593750 0.812500
vt 0.578125 0.765625
vt 0.578125 0.781250
vt 0.734375 0.781250
vt 0.734375 0.765625
vt 0.828125 0.812500
vt 0.828125 0.828125
vt 0.984375 0.828125
vt 0.984375 0.812500
vt 0.562500 0.718750
vt 0.562500 0.734375
vt 0.703125 0.734375
vt 0.703125 0.718750
vt 0.203125 0.765625
vt 0.203125 0.781250
vt 0.359375 0.781250
vt 0.359375 0.765625
vt 0.390625 0.718750
vt 0.390625 0.734375
vt 0.531250 0.734375
vt 0.531250 0.718750
vt 0.359375 0.671875
vt 0.359375 0.687500
vt 0.500000 0.687500
vt 0.500000 0.671875
vt 0.906250 0.625000
vt 0.906250 0.640625
vt 0.984375 0.640625
vt 0.984375 0.625000
vt 0.156250 0.625000
vt 0.156250 0.640625
vt 0.265625 0.640625
vt 0.265625 0.625000
vt 0.421875 0.625000
vt 0.421875 0.640625
vt 0.515625 0.640625
vt 0.515625 0.625000
vt 0.906250 0.718750
vt 0.906250 0.734375
vt 0.984375 0.734375
vt 0.984375 0.718750
vt 0.796875 0.625000
vt 0.796875 0.640625
vt 0.875000 0.640625
vt 0.875000 0.625000
vt 0.531250 0.671875
vt 0.531250 0.687500
vt 0.656250 0.687500
vt 0.656250 0.671875
vt 0.015625 0.625000
vt 0.015625 0.640625
vt 0.125000 0.640625
vt 0.125000 0.625000
vt 0.296875 0.625000
vt 0.296875 0.640625
vt 0.390625 0.640625
vt 0.390625 0.625000
vt 0.234375 0.578125
vt 0.234375 0.593750
vt 0.312500 0.593750
vt 0.312500 0.578125
vt 0.125000 0.578125
vt 0.125000 0.593750
vt 0.203125 0.593750
vt 0.203125 0.578125
vt 0.015625 0.578125
vt 0.015625 0.593750
vt 0.093750 0.593750
vt 0.093750 0.578125
vt 0.734375 0.484375
vt 0.734375 0.500000
vt 0.781250 0.500000
vt 0.781250 0.484375
vt 0.109375 0.531250
vt 0.109375 0.546875
vt 0.171875 0.546875
vt 0.171875 0.531250
vt 0.390625 0.531250
vt 0.390625 0.546875
vt 0.453125 0.546875
vt 0.453125 0.531250
vt 0.109375 0.484375
vt 0.109375 0.500000
vt 0.171875 0.500000
vt 0.171875 0.484375
vt 0.015625 0.484375
vt 0.015625 0.500000
vt 0.078125 0.500000
vt 0.078125 0.484375
vt 0.203125 0.484375
vt 0.203125 0.500000
vt 0.265625 0.500000
vt 0.265625 0.484375
vt 0.390625 0.484375
vt 0.390625 0.500000
vt 0.453125 0.500000
vt 0.453125 0.484375
vt 0.296875 0.484375
vt 0.296875 0.500000
vt 0.359375 0.500000
vt 0.359375 0.484375
vt 0.578125 0.531250
vt 0.578125 0.546875
vt 0.640625 0.546875
vt 0.640625 0.531250
vt 0.328125 0.437500
vt 0.328125 0.453125
vt 0.375000 0.453125
vt 0.375000 0.437500
vt 0.093750 0.437500
vt 0.093750 0.453125
vt 0.140625 0.453125
vt 0.140625 0.437500
vt 0.171875 0.437500
vt 0.171875 0.453125
vt 0.218750 0.453125
vt 0.218750 0.437500
vt 0.250000 0.437500
vt 0.250000 0.453125
vt 0.296875 0.453125
vt 0.296875 0.437500
vt 0.203125 0.343750
vt 0.203125 0.359375
vt 0.234375 0.359375
vt 0.234375 0.343750
vt 0.203125 0.390625
vt 0.203125 0.406250
vt 0.234375 0.406250
vt 0.234375 0.390625
vt 0.953125 0.968750
vt 0.953125 0.984375
vt 0.984375 0.984375
vt 0.984375 0.968750
vt 0.546875 0.437500
vt 0.546875 0.453125
vt 0.578125 0.453125
vt 0.578125 0.437500
vt 0.953125 0.531250
vt 0.953125 0.546875
vt 0.984375 0.546875
vt 0.984375 0.531250
vt 0.484375 0.437500
vt 0.484375 0.453125
vt 0.515625 0.453125
vt 0.515625 0.437500
vt 0.953125 0.765625
vt 0.953125 0.781250
vt 0.984375 0.781250
vt 0.984375 0.765625
vt 0.015625 0.390625
vt 0.015625 0.406250
vt 0.046875 0.406250
vt 0.046875 0.390625
vt 0.921875 0.437500
vt 0.921875 0.453125
vt 0.953125 0.453125
vt 0.953125 0.437500
vt 0.140625 0.390625
vt 0.140625 0.406250
vt 0.171875 0.406250
vt 0.171875 0.390625
vt 0.062500 0.296875
vt 0.062500 0.312500
vt 0.078125 0.312500
vt 0.078125 0.296875
vt 0.109375 0.296875
vt 0.109375 0.312500
vt 0.125000 0.312500
vt 0.125000 0.296875
vt 0.015625 0.296875
vt 0.015625 0.312500
vt 0.031250 0.312500
vt 0.031250 0.296875
vt 0.343750 0.296875
vt 0.343750 0.312500
vt 0.359375 0.312500
vt 0.359375 0.296875
vt 0.390625 0.296875
vt 0.390625 0.312500
vt 0.406250 0.312500
vt 0.406250 0.296875
vt 0.437500 0.296875
vt 0.437500 0.312500
vt 0.453125 0.312500
vt 0.453125 0.296875
vt 0.062500 0.937500
vt 0.062500 0.984375
vt 0.078125 0.984375
vt 0.078125 0.937500
vt 0.296875 0.953125
vt 0.296875 0.984375
vt 0.312500 0.984375
vt 0.312500 0.953125
vt 0.437500 0.953125
vt 0.437500 0.984375
vt 0.453125 0.984375
vt 0.453125 0.953125
vt 0.390625 0.953125
vt 0.390625 0.984375
vt 0.406250 0.984375
vt 0.406250 0.953125
vt 0.343750 0.953125
vt 0.343750 0.984375
vt 0.359375 0.984375
vt 0.359375 0.953125
vt 0.906250 0.953125
vt 0.906250 0.984375
vt 0.921875 0.984375
vt 0.921875 0.953125
vt 0.812500 0.953125
vt 0.812500 0.984375
vt 0.828125 0.984375
vt 0.828125 0.953125
vt 0.859375 0.953125
vt 0.859375 0.984375
vt 0.875000 0.984375
vt 0.875000 0.953125
vt 0.437500 0.343750
vt 0.437500 0.359375
vt 0.453125 0.359375
vt 0.453125 0.343750
vt 0.390625 0.343750
vt 0.390625 0.359375
vt 0.406250 0.359375
vt 0.406250 0.343750
vt 0.968750 0.484375
vt 0.968750 0.500000
vt 0.984375 0.500000
vt 0.984375 0.484375
vt 0.484375 0.343750
vt 0.484375 0.359375
vt 0.500000 0.359375
vt 0.500000 0.343750
vt 0.765625 0.343750
vt 0.765625 0.359375
vt 0.781250 0.359375
vt 0.781250 0.343750
vt 0.718750 0.343750
vt 0.718750 0.359375
vt 0.734375 0.359375
vt 0.734375 0.343750
vt 0.859375 0.343750
vt 0.859375 0.359375
vt 0.875000 0.359375
vt 0.875000 0.343750
vt 0.578125 0.343750
vt 0.578125 0.359375
vt 0.593750 0.359375
vt 0.593750 0.343750
vt 0.531250 0.343750
vt 0.531250 0.359375
vt 0.546875 0.359375
vt 0.546875 0.343750
vt 0.671875 0.343750
vt 0.671875 0.359375
vt 0.687500 0.359375
vt 0.687500 0.343750
vt 0.625000 0.343750
vt 0.625000 0.359375
vt 0.640625 0.359375
vt 0.640625 0.343750
vt 0.812500 0.343750
vt 0.812500 0.359375
vt 0.828125 0.359375
vt 0.828125 0.343750
vt 0.390625 0.109375
vt 0.390625 0.125000
vt 0.406250 0.125000
vt 0.406250 0.109375
vt 0.437500 0.109375
vt 0.437500 0.125000
vt 0.453125 0.125000
vt 0.453125 0.109375
vt 0.484375 0.109375
vt 0.484375 0.125000
vt 0.500000 0.125000
vt 0.500000 0.109375
vt 0.343750 0.109375
vt 0.343750 0.125000
vt 0.359375 0.125000
vt 0.359375 0.109375
vt 0.203125 0.109375
vt 0.203125 0.125000
vt 0.218750 0.125000
vt 0.218750 0.109375
vt 0.250000 0.109375
vt 0.250000 0.125000
vt 0.265625 0.125000
vt 0.265625 0.109375
vt 0.296875 0.109375
vt 0.296875 0.125000
vt 0.312500 0.125000
vt 0.312500 0.109375
vt 0.531250 0.109375
vt 0.531250 0.125000
vt 0.546875 0.125000
vt 0.546875 0.109375
vt 0.765625 0.109375
vt 0.765625 0.125000
vt 0.781250 0.125000
vt 0.781250 0.109375
vt 0.812500 0.109375
vt 0.812500 0.125000
vt 0.828125 0.125000
vt 0.828125 0.109375
vt 0.859375 0.109375
vt 0.859375 0.125000
vt 0.875000 0.125000
vt 0.875000 0.109375
vt 0.718750 0.109375
vt 0.718750 0.125000
vt 0.734375 0.125000
vt 0.734375 0.109375
vt 0.578125 0.109375
vt 0.578125 0.125000
vt 0.593750 0.125000
vt 0.593750 0.109375
vt 0.625000 0.109375
vt 0.625000 0.125000
vt 0.640625 0.125000
vt 0.640625 0.109375
vt 0.671875 0.109375
vt 0.671875 0.125000
vt 0.687500 0.125000
vt 0.687500 0.109375
vt 0.156250 0.109375
vt 0.156250 0.125000
vt 0.171875 0.125000
vt 0.171875 0.109375
vt 0.625000 0.156250
vt 0.625000 0.171875
vt 0.640625 0.171875
vt 0.640625 0.156250
vt 0.671875 0.156250
vt 0.671875 0.171875
vt 0.687500 0.171875
vt 0.687500 0.156250
vt 0.718750 0.156250
vt 0.718750 0.171875
vt 0.734375 0.171875
vt 0.734375 0.156250
vt 0.578125 0.156250
vt 0.578125 0.171875
vt 0.593750 0.171875
vt 0.593750 0.156250
vt 0.437500 0.156250
vt 0.437500 0.171875
vt 0.453125 0.171875
vt 0.453125 0.156250
vt 0.484375 0.156250
vt 0.484375 0.171875
vt 0.500000 0.171875
vt 0.500000 0.156250
vt 0.531250 0.156250
vt 0.531250 0.171875
vt 0.546875 0.171875
vt 0.546875 0.156250
vt 0.765625 0.156250
vt 0.765625 0.171875
vt 0.781250 0.171875
vt 0.781250 0.156250
vt 0.015625 0.859375
vt 0.015625 0.984375
vt 0.031250 0.984375
vt 0.031250 0.859375
vt 0.484375 0.953125
vt 0.484375 0.984375
vt 0.500000 0.984375
vt 0.500000 0.953125
vt 0.671875 0.953125
vt 0.671875 0.984375
vt 0.687500 0.984375
vt 0.687500 0.953125
vt 0.718750 0.953125
vt 0.718750 0.984375
vt 0.734375 0.984375
vt 0.734375 0.953125
vt 0.765625 0.953125
vt 0.765625 0.984375
vt 0.781250 0.984375
vt 0.781250 0.953125
vt 0.531250 0.953125
vt 0.531250 0.984375
vt 0.546875 0.984375
vt 0.546875 0.953125
vt 0.578125 0.953125
vt 0.578125 0.984375
vt 0.593750 0.984375
vt 0.593750 0.953125
vt 0.625000 0.953125
vt 0.625000 0.984375
vt 0.640625 0.984375
vt 0.640625 0.953125
vt 0.015625 0.109375
vt 0.015625 0.125000
vt 0.031250 0.125000
vt 0.031250 0.109375
vt 0.062500 0.109375
vt 0.062500 0.125000
vt 0.078125 0.125000
vt 0.078125 0.109375
vt 0.109375 0.109375
vt 0.109375 0.125000
vt 0.125000 0.125000
vt 0.125000 0.109375
vt 0.953125 0.156250
vt 0.953125 0.171875
vt 0.968750 0.171875
vt 0.968750 0.156250
vt 0.812500 0.156250
vt 0.812500 0.171875
vt 0.828125 0.171875
vt 0.828125 0.156250
vt 0.859375 0.156250
vt 0.859375 0.171875
vt 0.875000 0.171875
vt 0.875000 0.156250
vt 0.906250 0.156250
vt 0.906250 0.171875
vt 0.921875 0.171875
vt 0.921875 0.156250
vt 0.859375 0.062500
vt 0.859375 0.078125
vt 0.875000 0.078125
vt 0.875000 0.062500
vt 0.906250 0.062500
vt 0.906250 0.078125
vt 0.921875 0.078125
vt 0.921875 0.062500
vt 0.953125 0.062500
vt 0.953125 0.078125
vt 0.968750 0.078125
vt 0.968750 0.062500
vt 0.812500 0.062500
vt 0.812500 0.078125
vt 0.828125 0.078125
vt 0.828125 0.062500
vt 0.671875 0.062500
vt 0.671875 0.078125
vt 0.687500 0.078125
vt 0.687500 0.062500
vt 0.718750 0.062500
vt 0.718750 0.078125
vt 0.734375 0.078125
vt 0.734375 0.062500
vt 0.765625 0.062500
vt 0.765625 0.078125
vt 0.781250 0.078125
vt 0.781250 0.062500
vt 0.015625 0.015625
vt 0.015625 0.031250
vt 0.031250 0.031250
vt 0.031250 0.015625
vt 0.250000 0.015625
vt 0.250000 0.031250
vt 0.265625 0.031250
vt 0.265625 0.015625
vt 0.296875 0.015625
vt 0.296875 0.031250
vt 0.312500 0.031250
vt 0.312500 0.015625
vt 0.343750 0.015625
vt 0.343750 0.031250
vt 0.359375 0.031250
vt 0.359375 0.015625
vt 0.203125 0.015625
vt 0.203125 0.031250
vt 0.218750 0.031250
vt 0.218750 0.015625
vt 0.062500 0.015625
vt 0.062500 0.031250
vt 0.078125 0.031250
vt 0.078125 0.015625
vt 0.109375 0.015625
vt 0.109375 0.031250
vt 0.125000 0.031250
vt 0.125000 0.015625
vt 0.156250 0.015625
vt 0.156250 0.031250
vt 0.171875 0.031250
vt 0.171875 0.015625
vt 0.625000 0.062500
vt 0.625000 0.078125
vt 0.640625 0.078125
vt 0.640625 0.062500
vt 0.109375 0.062500
vt 0.109375 0.078125
vt 0.125000 0.078125
vt 0.125000 0.062500
vt 0.156250 0.062500
vt 0.156250 0.078125
vt 0.171875 0.078125
vt 0.171875 0.062500
vt 0.203125 0.062500
vt 0.203125 0.078125
vt 0.218750 0.078125
vt 0.218750 0.062500
vt 0.062500 0.062500
vt 0.062500 0.078125
vt 0.078125 0.078125
vt 0.078125 0.062500
vt 0.906250 0.109375
vt 0.906250 0.125000
vt 0.921875 0.125000
vt 0.921875 0.109375
vt 0.953125 0.109375
vt 0.953125 0.125000
vt 0.968750 0.125000
vt 0.968750 0.109375
vt 0.015625 0.062500
vt 0.015625 0.078125
vt 0.031250 0.078125
vt 0.031250 0.062500
vt 0.250000 0.062500
vt 0.250000 0.078125
vt 0.265625 0.078125
vt 0.265625 0.062500
vt 0.328125 0.390625
vt 0.328125 0.406250
vt 0.359375 0.406250
vt 0.359375 0.390625
vt 0.765625 0.390625
vt 0.765625 0.406250
vt 0.796875 0.406250
vt 0.796875 0.390625
vt 0.828125 0.390625
vt 0.828125 0.406250
vt 0.859375 0.406250
vt 0.859375 0.390625
vt 0.703125 0.390625
vt 0.703125 0.406250
vt 0.734375 0.406250
vt 0.734375 0.390625
vt 0.578125 0.390625
vt 0.578125 0.406250
vt 0.609375 0.406250
vt 0.609375 0.390625
vt 0.640625 0.390625
vt 0.640625 0.406250
vt 0.671875 0.406250
vt 0.671875 0.390625
vt 0.265625 0.390625
vt 0.265625 0.406250
vt 0.296875 0.406250
vt 0.296875 0.390625
vt 0.484375 0.062500
vt 0.484375 0.078125
vt 0.500000 0.078125
vt 0.500000 0.062500
vt 0.531250 0.062500
vt 0.531250 0.078125
vt 0.546875 0.078125
vt 0.546875 0.062500
vt 0.578125 0.062500
vt 0.578125 0.078125
vt 0.593750 0.078125
vt 0.593750 0.062500
vt 0.437500 0.062500
vt 0.437500 0.078125
vt 0.453125 0.078125
vt 0.453125 0.062500
vt 0.296875 0.062500
vt 0.296875 0.078125
vt 0.312500 0.078125
vt 0.312500 0.062500
vt 0.343750 0.062500
vt 0.343750 0.078125
vt 0.359375 0.078125
vt 0.359375 0.062500
vt 0.390625 0.062500
vt 0.390625 0.078125
vt 0.406250 0.078125
vt 0.406250 0.062500
vt 0.437500 0.250000
vt 0.437500 0.265625
vt 0.453125 0.265625
vt 0.453125 0.250000
vt 0.484375 0.250000
vt 0.484375 0.265625
vt 0.500000 0.265625
vt 0.500000 0.250000
vt 0.531250 0.250000
vt 0.531250 0.265625
vt 0.546875 0.265625
vt 0.546875 0.250000
vt 0.390625 0.250000
vt 0.390625 0.265625
vt 0.406250 0.265625
vt 0.406250 0.250000
vt 0.250000 0.250000
vt 0.250000 0.265625
vt 0.265625 0.265625
vt 0.265625 0.250000
vt 0.296875 0.250000
vt 0.296875 0.265625
vt 0.312500 0.265625
vt 0.312500 0.250000
vt 0.343750 0.250000
vt 0.343750 0.265625
vt 0.359375 0.265625
vt 0.359375 0.250000
vt 0.578125 0.250000
vt 0.578125 0.265625
vt 0.593750 0.265625
vt 0.593750 0.250000
vt 0.812500 0.250000
vt 0.812500 0.265625
vt 0.828125 0.265625
vt 0.828125 0.250000
vt 0.859375 0.250000
vt 0.859375 0.265625
vt 0.875000 0.265625
vt 0.875000 0.250000
vt 0.906250 0.250000
vt 0.906250 0.265625
vt 0.921875 0.265625
vt 0.921875 0.250000
vt 0.765625 0.250000
vt 0.765625 0.265625
vt 0.781250 0.265625
vt 0.781250 0.250000
vt 0.625000 0.250000
vt 0.625000 0.265625
vt 0.640625 0.265625
vt 0.640625 0.250000
vt 0.671875 0.250000
vt 0.671875 0.265625
vt 0.687500 0.265625
vt 0.687500 0.250000
vt 0.718750 0.250000
vt 0.718750 0.265625
vt 0.734375 0.265625
vt 0.734375 0.250000
vt 0.203125 0.250000
vt 0.203125 0.265625
vt 0.218750 0.265625
vt 0.218750 0.250000
vt 0.671875 0.296875
vt 0.671875 0.312500
vt 0.687500 0.312500
vt 0.687500 0.296875
vt 0.718750 0.296875
vt 0.718750 0.312500
vt 0.734375 0.312500
vt 0.734375 0.296875
vt 0.765625 0.296875
vt 0.765625 0.312500
vt 0.781250 0.312500
vt 0.781250 0.296875
vt 0.625000 0.296875
vt 0.625000 0.312500
vt 0.640625 0.312500
vt 0.640625 0.296875
vt 0.484375 0.296875
vt 0.484375 0.312500
vt 0.500000 0.312500
vt 0.500000 0.296875
vt 0.531250 0.296875
vt 0.531250 0.312500
vt 0.546875 0.312500
vt 0.546875 0.296875
vt 0.578125 0.296875
vt 0.578125 0.312500
vt 0.593750 0.312500
vt 0.593750 0.296875
vt 0.812500 0.296875
vt 0.812500 0.312500
vt 0.828125 0.312500
vt 0.828125 0.296875
vt 0.062500 0.250000
vt 0.062500 0.265625
vt 0.078125 0.265625
vt 0.078125 0.250000
vt 0.109375 0.250000
vt 0.109375 0.265625
vt 0.125000 0.265625
vt 0.125000 0.250000
vt 0.156250 0.250000
vt 0.156250 0.265625
vt 0.171875 0.265625
vt 0.171875 0.250000
vt 0.015625 0.250000
vt 0.015625 0.265625
vt 0.031250 0.265625
vt 0.031250 0.250000
vt 0.890625 0.484375
vt 0.890625 0.500000
vt 0.937500 0.500000
vt 0.937500 0.484375
vt 0.015625 0.343750
vt 0.015625 0.359375
vt 0.046875 0.359375
vt 0.046875 0.343750
vt 0.078125 0.343750
vt 0.078125 0.359375
vt 0.109375 0.359375
vt 0.109375 0.343750
vt 0.890625 0.390625
vt 0.890625 0.406250
vt 0.921875 0.406250
vt 0.921875 0.390625
vt 0.453125 0.390625
vt 0.453125 0.406250
vt 0.484375 0.406250
vt 0.484375 0.390625
vt 0.515625 0.390625
vt 0.515625 0.406250
vt 0.546875 0.406250
vt 0.546875 0.390625
vt 0.390625 0.390625
vt 0.390625 0.406250
vt 0.421875 0.406250
vt 0.421875 0.390625
vt 0.859375 0.296875
vt 0.859375 0.312500
vt 0.875000 0.312500
vt 0.875000 0.296875
vt 0.906250 0.296875
vt 0.906250 0.312500
vt 0.921875 0.312500
vt 0.921875 0.296875
vt 0.953125 0.296875
vt 0.953125 0.312500
vt 0.968750 0.312500
vt 0.968750 0.296875
vt 0.906250 0.203125
vt 0.906250 0.218750
vt 0.921875 0.218750
vt 0.921875 0.203125
vt 0.953125 0.203125
vt 0.953125 0.218750
vt 0.968750 0.218750
vt 0.968750 0.203125
vt 0.015625 0.156250
vt 0.015625 0.171875
vt 0.031250 0.171875
vt 0.031250 0.156250
vt 0.859375 0.203125
vt 0.859375 0.218750
vt 0.875000 0.218750
vt 0.875000 0.203125
vt 0.718750 0.203125
vt 0.718750 0.218750
vt 0.734375 0.218750
vt 0.734375 0.203125
vt 0.765625 0.203125
vt 0.765625 0.218750
vt 0.781250 0.218750
vt 0.781250 0.203125
vt 0.812500 0.203125
vt 0.812500 0.218750
vt 0.828125 0.218750
vt 0.828125 0.203125
vt 0.062500 0.156250
vt 0.062500 0.171875
vt 0.078125 0.171875
vt 0.078125 0.156250
vt 0.296875 0.156250
vt 0.296875 0.171875
vt 0.312500 0.171875
vt 0.312500 0.156250
vt 0.343750 0.156250
vt 0.343750 0.171875
vt 0.359375 0.171875
vt 0.359375 0.156250
vt 0.390625 0.156250
vt 0.390625 0.171875
vt 0.406250 0.171875
vt 0.406250 0.156250
vt 0.250000 0.156250
vt 0.250000 0.171875
vt 0.265625 0.171875
vt 0.265625 0.156250
vt 0.109375 0.156250
vt 0.109375 0.171875
vt 0.125000 0.171875
vt 0.125000 0.156250
vt 0.156250 0.156250
vt 0.156250 0.171875
vt 0.171875 0.171875
vt 0.171875 0.156250
vt 0.203125 0.156250
vt 0.203125 0.171875
vt 0.218750 0.171875
vt 0.218750 0.156250
vt 0.671875 0.203125
vt 0.671875 0.218750
vt 0.687500 0.218750
vt 0.687500 0.203125
vt 0.156250 0.203125
vt 0.156250 0.218750
vt 0.171875 0.218750
vt 0.171875 0.203125
vt 0.203125 0.203125
vt 0.203125 0.218750
vt 0.218750 0.218750
vt 0.218750 0.203125
vt 0.250000 0.203125
vt 0.250000 0.218750
vt 0.265625 0.218750
vt 0.265625 0.203125
vt 0.109375 0.203125
vt 0.109375 0.218750
vt 0.125000 0.218750
vt 0.125000 0.203125
vt 0.953125 0.250000
vt 0.953125 0.265625
vt 0.968750 0.265625
vt 0.968750 0.250000
vt 0.015625 0.203125
vt 0.015625 0.218750
vt 0.031250 0.218750
vt 0.031250 0.203125
vt 0.062500 0.203125
vt 0.062500 0.218750
vt 0.078125 0.218750
vt 0.078125 0.203125
vt 0.296875 0.203125
vt 0.296875 0.218750
vt 0.312500 0.218750
vt 0.312500 0.203125
vt 0.531250 0.203125
vt 0.531250 0.218750
vt 0.546875 0.218750
vt 0.546875 0.203125
vt 0.578125 0.203125
vt 0.578125 0.218750
vt 0.593750 0.218750
vt 0.593750 0.203125
vt 0.625000 0.203125
vt 0.625000 0.218750
vt 0.640625 0.218750
vt 0.640625 0.203125
vt 0.484375 0.203125
vt 0.484375 0.218750
vt 0.500000 0.218750
vt 0.500000 0.203125
vt 0.343750 0.203125
vt 0.343750 0.218750
vt 0.359375 0.218750
vt 0.359375 0.203125
vt 0.390625 0.203125
vt 0.390625 0.218750
vt 0.406250 0.218750
vt 0.406250 0.203125
vt 0.437500 0.203125
vt 0.437500 0.218750
vt 0.453125 0.218750
vt 0.453125 0.203125
s 0
usemtl True_Nights_Edge_material
f 1/1/1 2/2/1 3/3/1
f 1/1/1 3/3/1 4/4/1
f 5/5/1 6/6/1 7/7/1
f 5/5/1 7/7/1 8/8/1
f 9/9/1 10/10/1 11/11/1
f 9/9/1 11/11/1 12/12/1
f 13/13/1 14/14/1 15/15/1
f 13/13/1 15/15/1 16/16/1
f 17/17/1 18/18/1 19/19/1
f 17/17/1 19/19/1 20/20/1
f 21/21/1 22/22/1 23/23/1
f 21/21/1 23/23/1 24/24/1
f 25/25/1 26/26/1 27/27/1
f 25/25/1 27/27/1 28/28/1
f 29/29/1 30/30/1 31/31/1
f 29/29/1 31/31/1 32/32/1
f 33/33/1 34/34/1 35/35/1
f 33/33/1 35/35/1 36/36/1
f 37/37/1 38/38/1 39/39/1
f 37/37/1 39/39/1 40/40/1
f 41/41/1 42/42/1 43/43/1
f 41/41/1 43/43/1 44/44/1
f 45/45/1 46/46/1 47/47/1
f 45/45/1 47/47/1 48/48/1
f 49/49/1 50/50/1 51/51/1
f 49/49/1 51/51/1 52/52/1
f 53/53/1 54/54/1 55/55/1
f 53/53/1 55/55/1 56/56/1
f 57/57/1 58/58/1 59/59/1
f 57/57/1 59/59/1 60/60/1
f 61/61/1 62/62/1 63/63/1
f 61/61/1 63/63/1 64/64/1
f 65/65/1 66/66/1 67/67/1
f 65/65/1 67/67/1 68/68/1
f 69/69/1 70/70/1 71/71/1
f 69/69/1 71/71/1 72/72/1
f 73/73/1 74/74/1 75/75/1
f 73/73/1 75/75/1 76/76/1
f 77/77/1 78/78/1 79/79/1
f 77/77/1 79/79/1 80/80/1
f 81/81/1 82/82/1 83/83/1
f 81/81/1 83/83/1 84/84/1
f 85/85/1 86/86/1 87/87/1
f 85/85/1 87/87/1 88/88/1
f 89/89/1 90/90/1 91/91/1
f 89/89/1 91/91/1 92/92/1
f 93/93/1 94/94/1 95/95/1
f 93/93/1 95/95/1 96/96/1
f 97/97/1 98/98/1 99/99/1
f 97/97/1 99/99/1 100/100/1
f 101/101/1 102/102/1 103/103/1
f 101/101/1 103/103/1 104/104/1
f 105/105/1 106/106/1 107/107/1
f 105/105/1 107/107/1 108/108/1
f 109/109/1 110/110/1 111/111/1
f 109/109/1 111/111/1 112/112/1
f 113/113/1 114/114/1 115/115/1
f 113/113/1 115/115/1 116/116/1
f 117/117/1 118/118/1 119/119/1
f 117/117/1 119/119/1 120/120/1
f 121/121/1 122/122/1 123/123/1
f 121/121/1 123/123/1 124/124/1
f 125/125/1 126/126/1 127/127/1
f 125/125/1 127/127/1 128/128/1
f 129/129/1 130/130/1 131/131/1
f 129/129/1 131/131/1 132/132/1
f 133/133/1 134/134/1 135/135/1
f 133/133/1 135/135/1 136/136/1
f 137/137/1 138/138/1 139/139/1
f 137/137/1 139/139/1 140/140/1
f 141/141/1 142/142/1 143/143/1
f 141/141/1 143/143/1 144/144/1
f 145/145/1 146/146/1 147/147/1
f 145/145/1 147/147/1 148/148/1
f 149/149/1 150/150/1 151/151/1
f 149/149/1 151/151/1 152/152/1
f 153/153/1 154/154/1 155/155/1
f 153/153/1 155/155/1 156/156/1
f 157/157/1 158/158/1 159/159/1
f 157/157/1 159/159/1 160/160/1
f 161/161/1 162/162/1 163/163/1
f 161/161/1 163/163/1 164/164/1
f 165/165/1 166/166/1 167/167/1
f 165/165/1 167/167/1 168/168/1
f 169/169/1 170/170/1 171/171/1
f 169/169/1 171/171/1 172/172/1
f 173/173/1 174/174/1 175/175/1
f 173/173/1 175/175/1 176/176/1
f 177/177/1 178/178/1 179/179/1
f 177/177/1 179/179/1 180/180/1
f 181/181/1 182/182/1 183/183/1
f 181/181/1 183/183/1 184/184/1
f 185/185/1 186/186/1 187/187/1
f 185/185/1 187/187/1 188/188/1
f 189/189/1 190/190/1 191/191/1
f 189/189/1 191/191/1 192/192/1
f 193/193/1 194/194/1 195/195/1
f 193/193/1 195/195/1 196/196/1
f 197/197/1 198/198/1 199/199/1
f 197/197/1 199/199/1 200/200/1
f 201/201/1 202/202/1 203/203/1
f 201/201/1 203/203/1 204/204/1
f 205/205/1 206/206/1 207/207/1
f 205/205/1 207/207/1 208/208/1
f 209/209/2 210/210/2 211/211/2
f 209/209/2 211/211/2 212/212/2
f 213/213/2 214/214/2 215/215/2
f 213/213/2 215/215/2 216/216/2
f 217/217/2 218/218/2 219/219/2
f 217/217/2 219/219/2 220/220/2
f 221/221/2 222/222/2 223/223/2
f 221/221/2 223/223/2 224/224/2
f 225/225/2 226/226/2 227/227/2
f 225/225/2 227/227/2 228/228/2
f 229/229/2 230/230/2 231/231/2
f 229/229/2 231/231/2 232/232/2
f 233/233/2 234/234/2 235/235/2
f 233/233/2 235/235/2 236/236/2
f 237/237/2 238/238/2 239/239/2
f 237/237/2 239/239/2 240/240/2
f 241/241/2 242/242/2 243/243/2
f 241/241/2 243/243/2 244/244/2
f 245/245/2 246/246/2 247/247/2
f 245/245/2 247/247/2 248/248/2
f 249/249/2 250/250/2 251/251/2
f 249/249/2 251/251/2 252/252/2
f 253/253/2 254/254/2 255/255/2
f 253/253/2 255/255/2 256/256/2
f 257/257/2 258/258/2 259/259/2
f 257/257/2 259/259/2 260/260/2
f 261/261/2 262/262/2 263/263/2
f 261/261/2 263/263/2 264/264/2
f 265/265/2 266/266/2 267/267/2
f 265/265/2 267/267/2 268/268/2
f 269/269/2 270/270/2 271/271/2
f 269/269/2 271/271/2 272/272/2
f 273/273/2 274/274/2 275/275/2
f 273/273/2 275/275/2 276/276/2
f 277/277/2 278/278/2 279/279/2
f 277/277/2 279/279/2 280/280/2
f 281/281/2 282/282/2 283/283/2
f 281/281/2 283/283/2 284/284/2
f 285/285/2 286/286/2 287/287/2
f 285/285/2 287/287/2 288/288/2
f 289/289/2 290/290/2 291/291/2
f 289/289/2 291/291/2 292/292/2
f 293/293/2 294/294/2 295/295/2
f 293/293/2 295/295/2 296/296/2
f 297/297/2 298/298/2 299/299/2
f 297/297/2 299/299/2 300/300/2
f 301/301/2 302/302/2 303/303/2
f 301/301/2 303/303/2 304/304/2
f 305/305/2 306/306/2 307/307/2
f 305/305/2 307/307/2 308/308/2
f 309/309/2 310/310/2 311/311/2
f 309/309/2 311/311/2 312/312/2
f 313/313/2 314/314/2 315/315/2
f 313/313/2 315/315/2 316/316/2
f 317/317/2 318/318/2 319/319/2
f 317/317/2 319/319/2 320/320/2
f 321/321/2 322/322/2 323/323/2
f 321/321/2 323/323/2 324/324/2
f 325/325/2 326/326/2 327/327/2
f 325/325/2 327/327/2 328/328/2
f 329/329/2 330/330/2 331/331/2
f 329/329/2 331/331/2 332/332/2
f 333/333/2 334/334/2 335/335/2
f 333/333/2 335/335/2 336/336/2
f 337/337/2 338/338/2 339/339/2
f 337/337/2 339/339/2 340/340/2
f 341/341/2 342/342/2 343/343/2
f 341/341/2 343/343/2 344/344/2
f 345/345/2 346/346/2 347/347/2
f 345/345/2 347/347/2 348/348/2
f 349/349/2 350/350/2 351/351/2
f 349/349/2 351/351/2 352/352/2
f 353/353/2 354/354/2 355/355/2
f 353/353/2 355/355/2 356/356/2
f 357/357/2 358/358/2 359/359/2
f 357/357/2 359/359/2 360/360/2
f 361/361/2 362/362/2 363/363/2
f 361/361/2 363/363/2 364/364/2
f 365/365/2 366/366/2 367/367/2
f 365/365/2 367/367/2 368/368/2
f 369/369/2 370/370/2 371/371/2
f 369/369/2 371/371/2 372/372/2
f 373/373/2 374/374/2 375/375/2
f 373/373/2 375/375/2 376/376/2
f 377/377/2 378/378/2 379/379/2
f 377/377/2 379/379/2 380/380/2
f 381/381/2 382/382/2 383/383/2
f 381/381/2 383/383/2 384/384/2
f 385/385/2 386/386/2 387/387/2
f 385/385/2 387/387/2 388/388/2
f 389/389/2 390/390/2 391/391/2
f 389/389/2 391/391/2 392/392/2
f 393/393/2 394/394/2 395/395/2
f 393/393/2 395/395/2 396/396/2
f 397/397/2 398/398/2 399/399/2
f 397/397/2 399/399/2 400/400/2
f 401/401/2 402/402/2 403/403/2
f 401/401/2 403/403/2 404/404/2
f 405/405/2 406/406/2 407/407/2
f 405/405/2 407/407/2 408/408/2
f 409/409/2 410/410/2 411/411/2
f 409/409/2 411/411/2 412/412/2
f 413/413/2 414/414/2 415/415/2
f 413/413/2 415/415/2 416/416/2
f 417/417/3 418/418/3 419/419/3
f 417/417/3 419/419/3 420/420/3
f 421/421/3 422/422/3 423/423/3
f 421/421/3 423/423/3 424/424/3
f 425/425/3 426/426/3 427/427/3
f 425/425/3 427/427/3 428/428/3
f 429/429/3 430/430/3 431/431/3
f 429/429/3 431/431/3 432/432/3
f 433/433/3 434/434/3 435/435/3
f 433/433/3 435/435/3 436/436/3
f 437/437/3 438/438/3 439/439/3
f 437/437/3 439/439/3 440/440/3
f 441/441/3 442/442/3 443/443/3
f 441/441/3 443/443/3 444/444/3
f 445/445/3 446/446/3 447/447/3
f 445/445/3 447/447/3 448/448/3
f 449/449/3 450/450/3 451/451/3
f 449/449/3 451/451/3 452/452/3
f 453/453/3 454/454/3 455/455/3
f 453/453/3 455/455/3 456/456/3
f 457/457/3 458/458/3 459/459/3
f 457/457/3 459/459/3 460/460/3
f 461/461/3 462/462/3 463/463/3
f 461/461/3 463/463/3 464/464/3
f 465/465/3 466/466/3 467/467/3
f 465/465/3 467/467/3 468/468/3
f 469/469/3 470/470/3 471/471/3
f 469/469/3 471/471/3 472/472/3
f 473/473/3 474/474/3 475/475/3
f 473/473/3 475/475/3 476/476/3
f 477/477/3 478/478/3 479/479/3
f 477/477/3 479/479/3 480/480/3
f 481/481/3 482/482/3 483/483/3
f 481/481/3 483/483/3 484/484/3
f 485/485/3 486/486/3 487/487/3
f 485/485/3 487/487/3 488/488/3
f 489/489/3 490/490/3 491/491/3
f 489/489/3 491/491/3 492/492/3
f 493/493/3 494/494/3 495/495/3
f 493/493/3 495/495/3 496/496/3
f 497/497/3 498/498/3 499/499/3
f 497/497/3 499/499/3 500/500/3
f 501/501/3 502/502/3 503/503/3
f 501/501/3 503/503/3 504/504/3
f 505/505/3 506/506/3 507/507/3
f 505/505/3 507/507/3 508/508/3
f 509/509/3 510/510/3 511/511/3
f 509/509/3 511/511/3 512/512/3
f 513/513/3 514/514/3 515/515/3
f 513/513/3 515/515/3 516/516/3
f 517/517/3 518/518/3 519/519/3
f 517/517/3 519/519/3 520/520/3
f 521/521/3 522/522/3 523/523/3
f 521/521/3 523/523/3 524/524/3
f 525/525/3 526/526/3 527/527/3
f 525/525/3 527/527/3 528/528/3
f 529/529/3 530/530/3 531/531/3
f 529/529/3 531/531/3 532/532/3
f 533/533/3 534/534/3 535/535/3
f 533/533/3 535/535/3 536/536/3
f 537/537/3 538/538/3 539/539/3
f 537/537/3 539/539/3 540/540/3
f 541/541/3 542/542/3 543/543/3
f 541/541/3 543/543/3 544/544/3
f 545/545/3 546/546/3 547/547/3
f 545/545/3 547/547/3 548/548/3
f 549/549/3 550/550/3 551/551/3
f 549/549/3 551/551/3 552/552/3
f 553/553/3 554/554/3 555/555/3
f 553/553/3 555/555/3 556/556/3
f 557/557/3 558/558/3 559/559/3
f 557/557/3 559/559/3 560/560/3
f 561/561/3 562/562/3 563/563/3
f 561/561/3 563/563/3 564/564/3
f 565/565/3 566/566/3 567/567/3
f 565/565/3 567/567/3 568/568/3
f 569/569/3 570/570/3 571/571/3
f 569/569/3 571/571/3 572/572/3
f 573/573/3 574/574/3 575/575/3
f 573/573/3 575/575/3 576/576/3
f 577/577/3 578/578/3 579/579/3
f 577/577/3 579/579/3 580/580/3
f 581/581/3 582/582/3 583/583/3
f 581/581/3 583/583/3 584/584/3
f 585/585/3 586/586/3 587/587/3
f 585/585/3 587/587/3 588/588/3
f 589/589/3 590/590/3 591/591/3
f 589/589/3 591/591/3 592/592/3
f 593/593/4 594/594/4 595/595/4
f 593/593/4 595/595/4 596/596/4
f 597/597/4 598/598/4 599/599/4
f 597/597/4 599/599/4 600/600/4
f 601/601/4 602/602/4 603/603/4
f 601/601/4 603/603/4 604/604/4
f 605/605/4 606/606/4 607/607/4
f 605/605/4 607/607/4 608/608/4
f 609/609/4 610/610/4 611/611/4
f 609/609/4 611/611/4 612/612/4
f 613/613/4 614/614/4 615/615/4
f 613/613/4 615/615/4 616/616/4
f 617/617/4 618/618/4 619/619/4
f 617/617/4 619/619/4 620/620/4
f 621/621/4 622/622/4 623/623/4
f 621/621/4 623/623/4 624/624/4
f 625/625/4 626/626/4 627/627/4
f 625/625/4 627/627/4 628/628/4
f 629/629/4 630/630/4 631/631/4
f 629/629/4 631/631/4 632/632/4
f 633/633/4 634/634/4 635/635/4
f 633/633/4 635/635/4 636/636/4
f 637/637/4 638/638/4 639/639/4
f 637/637/4 639/639/4 640/640/4
f 641/641/4 642/642/4 643/643/4
f 641/641/4 643/643/4 644/644/4
f 645/645/4 646/646/4 647/647/4
f 645/645/4 647/647/4 648/648/4
f 649/649/4 650/650/4 651/651/4
f 649/649/4 651/651/4 652/652/4
f 653/653/4 654/654/4 655/655/4
f 653/653/4 655/655/4 656/656/4
f 657/657/4 658/658/4 659/659/4
f 657/657/4 659/659/4 660/660/4
f 661/661/4 662/662/4 663/663/4
f 661/661/4 663/663/4 664/664/4
f 665/665/4 666/666/4 667/667/4
f 665/665/4 667/667/4 668/668/4
f 669/669/4 670/670/4 671/671/4
f 669/669/4 671/671/4 672/672/4
f 673/673/4 674/674/4 675/675/4
f 673/673/4 675/675/4 676/676/4
f 677/677/4 678/678/4 679/679/4
f 677/677/4 679/679/4 680/680/4
f 681/681/4 682/682/4 683/683/4
f 681/681/4 683/683/4 684/684/4
f 685/685/4 686/686/4 687/687/4
f 685/685/4 687/687/4 688/688/4
f 689/689/4 690/690/4 691/691/4
f 689/689/4 691/691/4 692/692/4
f 693/693/4 694/694/4 695/695/4
f 693/693/4 695/695/4 696/696/4
f 697/697/4 698/698/4 699/699/4
f 697/697/4 699/699/4 700/700/4
f 701/701/4 702/702/4 703/703/4
f 701/701/4 703/703/4 704/704/4
f 705/705/4 706/706/4 707/707/4
f 705/705/4 707/707/4 708/708/4
f 709/709/4 710/710/4 711/711/4
f 709/709/4 711/711/4 712/712/4
f 713/713/4 714/714/4 715/715/4
f 713/713/4 715/715/4 716/716/4
f 717/717/4 718/718/4 719/719/4
f 717/717/4 719/719/4 720/720/4
f 721/721/4 722/722/4 723/723/4
f 721/721/4 723/723/4 724/724/4
f 725/725/4 726/726/4 727/727/4
f 725/725/4 727/727/4 728/728/4
f 729/729/4 730/730/4 731/731/4
f 729/729/4 731/731/4 732/732/4
f 733/733/4 734/734/4 735/735/4
f 733/733/4 735/735/4 736/736/4
f 737/737/4 738/738/4 739/739/4
f 737/737/4 739/739/4 740/740/4
f 741/741/4 742/742/4 743/743/4
f 741/741/4 743/743/4 744/744/4
f 745/745/4 746/746/4 747/747/4
f 745/745/4 747/747/4 748/748/4
f 749/749/5 750/750/5 751/751/5
f 749/749/5 751/751/5 752/752/5
f 753/753/5 754/754/5 755/755/5
f 753/753/5 755/755/5 756/756/5
f 757/757/5 758/758/5 759/759/5
f 757/757/5 759/759/5 760/760/5
f 761/761/5 762/762/5 763/763/5
f 761/761/5 763/763/5 764/764/5
f 765/765/5 766/766/5 767/767/5
f 765/765/5 767/767/5 768/768/5
f 769/769/5 770/770/5 771/771/5
f 769/769/5 771/771/5 772/772/5
f 773/773/5 774/774/5 775/775/5
f 773/773/5 775/775/5 776/776/5
f 777/777/5 778/778/5 779/779/5
f 777/777/5 779/779/5 780/780/5
f 781/781/5 782/782/5 783/783/5
f 781/781/5 783/783/5 784/784/5
f 785/785/5 786/786/5 787/787/5
f 785/785/5 787/787/5 788/788/5
f 789/789/5 790/790/5 791/791/5
f 789/789/5 791/791/5 792/792/5
f 793/793/5 794/794/5 795/795/5
f 793/793/5 795/795/5 796/796/5
f 797/797/5 798/798/5 799/799/5
f 797/797/5 799/799/5 800/800/5
f 801/801/5 802/802/5 803/803/5
f 801/801/5 803/803/5 804/804/5
f 805/805/5 806/806/5 807/807/5
f 805/805/5 807/807/5 808/808/5
f 809/809/5 810/810/5 811/811/5
f 809/809/5 811/811/5 812/812/5
f 813/813/5 814/814/5 815/815/5
f 813/813/5 815/815/5 816/816/5
f 817/817/5 818/818/5 819/819/5
f 817/817/5 819/819/5 820/820/5
f 821/821/5 822/822/5 823/823/5
f 821/821/5 823/823/5 824/824/5
f 825/825/5 826/826/5 827/827/5
f 825/825/5 827/827/5 828/828/5
f 829/829/5 830/830/5 831/831/5
f 829/829/5 831/831/5 832/832/5
f 833/833/5 834/834/5 835/835/5
f 833/833/5 835/835/5 836/836/5
f 837/837/5 838/838/5 839/839/5
f 837/837/5 839/839/5 840/840/5
f 841/841/5 842/842/5 843/843/5
f 841/841/5 843/843/5 844/844/5
f 845/845/5 846/846/5 847/847/5
f 845/845/5 847/847/5 848/848/5
f 849/849/5 850/850/5 851/851/5
f 849/849/5 851/851/5 852/852/5
f 853/853/5 854/854/5 855/855/5
f 853/853/5 855/855/5 856/856/5
f 857/857/5 858/858/5 859/859/5
f 857/857/5 859/859/5 860/860/5
f 861/861/5 862/862/5 863/863/5
f 861/861/5 863/863/5 864/864/5
f 865/865/5 866/866/5 867/867/5
f 865/865/5 867/867/5 868/868/5
f 869/869/5 870/870/5 871/871/5
f 869/869/5 871/871/5 872/872/5
f 873/873/5 874/874/5 875/875/5
f 873/873/5 875/875/5 876/876/5
f 877/877/5 878/878/5 879/879/5
f 877/877/5 879/879/5 880/880/5
f 881/881/5 882/882/5 883/883/5
f 881/881/5 883/883/5 884/884/5
f 885/885/5 886/886/5 887/887/5
f 885/885/5 887/887/5 888/888/5
f 889/889/5 890/890/5 891/891/5
f 889/889/5 891/891/5 892/892/5
f 893/893/5 894/894/5 895/895/5
f 893/893/5 895/895/5 896/896/5
f 897/897/5 898/898/5 899/899/5
f 897/897/5 899/899/5 900/900/5
f 901/901/5 902/902/5 903/903/5
f 901/901/5 903/903/5 904/904/5
f 905/905/5 906/906/5 907/907/5
f 905/905/5 907/907/5 908/908/5
f 909/909/5 910/910/5 911/911/5
f 909/909/5 911/911/5 912/912/5
f 913/913/5 914/914/5 915/915/5
f 913/913/5 915/915/5 916/916/5
f 917/917/6 918/918/6 919/919/6
f 917/917/6 919/919/6 920/920/6
f 921/921/6 922/922/6 923/923/6
f 921/921/6 923/923/6 924/924/6
f 925/925/6 926/926/6 927/927/6
f 925/925/6 927/927/6 928/928/6
f 929/929/6 930/930/6 931/931/6
f 929/929/6 931/931/6 932/932/6
f 933/933/6 934/934/6 935/935/6
f 933/933/6 935/935/6 936/936/6
f 937/937/6 938/938/6 939/939/6
f 937/937/6 939/939/6 940/940/6
f 941/941/6 942/942/6 943/943/6
f 941/941/6 943/943/6 944/944/6
f 945/945/6 946/946/6 947/947/6
f 945/945/6 947/947/6 948/948/6
f 949/949/6 950/950/6 951/951/6
f 949/949/6 951/951/6 952/952/6
f 953/953/6 954/954/6 955/955/6
f 953/953/6 955/955/6 956/956/6
f 957/957/6 958/958/6 959/959/6
f 957/957/6 959/959/6 960/960/6
f 961/961/6 962/962/6 963/963/6
f 961/961/6 963/963/6 964/964/6
f 965/965/6 966/966/6 967/967/6
f 965/965/6 967/967/6 968/968/6
f 969/969/6 970/970/6 971/971/6
f 969/969/6 971/971/6 972/972/6
f 973/973/6 974/974/6 975/975/6
f 973/973/6 975/975/6 976/976/6
f 977/977/6 978/978/6 979/979/6
f 977/977/6 979/979/6 980/980/6
f 981/981/6 982/982/6 983/983/6
f 981/981/6 983/983/6 984/984/6
f 985/985/6 986/986/6 987/987/6
f 985/985/6 987/987/6 988/988/6
f 989/989/6 990/990/6 991/991/6
f 989/989/6 991/991/6 992/992/6
f 993/993/6 994/994/6 995/995/6
f 993/993/6 995/995/6 996/996/6
f 997/997/6 998/998/6 999/999/6
f 997/997/6 999/999/6 1000/1000/6
f 1001/1001/6 1002/1002/6 1003/1003/6
f 1001/1001/6 1003/1003/6 1004/1004/6
f 1005/1005/6 1006/1006/6 1007/1007/6
f 1005/1005/6 1007/1007/6 1008/1008/6
f 1009/1009/6 1010/1010/6 1011/1011/6
f 1009/1009/6 1011/1011/6 1012/1012/6
f 1013/1013/6 1014/1014/6 1015/1015/6
f 1013/1013/6 1015/1015/6 1016/1016/6
f 1017/1017/6 1018/1018/6 1019/1019/6
f 1017/1017/6 1019/1019/6 1020/1020/6
f 1021/1021/6 1022/1022/6 1023/1023/6
f 1021/1021/6 1023/1023/6 1024/1024/6
f 1025/1025/6 1026/1026/6 1027/1027/6
f 1025/1025/6 1027/1027/6 1028/1028/6
f 1029/1029/6 1030/1030/6 1031/1031/6
f 1029/1029/6 1031/1031/6 1032/1032/6
f 1033/1033/6 1034/1034/6 1035/1035/6
f 1033/1033/6 1035/1035/6 1036/1036/6
f 1037/1037/6 1038/1038/6 1039/1039/6
f 1037/1037/6 1039/1039/6 1040/1040/6
f 1041/1041/6 1042/1042/6 1043/1043/6
f 1041/1041/6 1043/1043/6 1044/1044/6
f 1045/1045/6 1046/1046/6 1047/1047/6
f 1045/1045/6 1047/1047/6 1048/1048/6
f 1049/1049/6 1050/1050/6 1051/1051/6
f 1049/1049/6 1051/1051/6 1052/1052/6
f 1053/1053/6 1054/1054/6 1055/1055/6
f 1053/1053/6 1055/1055/6 1056/1056/6
f 1057/1057/6 1058/1058/6 1059/1059/6
f 1057/1057/6 1059/1059/6 1060/1060/6
f 1061/1061/6 1062/1062/6 1063/1063/6
f 1061/1061/6 1063/1063/6 1064/1064/6
f 1065/1065/6 1066/1066/6 1067/1067/6
f 1065/1065/6 1067/1067/6 1068/1068/6
f 1069/1069/6 1070/1070/6 1071/1071/6
f 1069/1069/6 1071/1071/6 1072/1072/6
f 1073/1073/6 1074/1074/6 1075/1075/6
f 1073/1073/6 1075/1075/6 1076/1076/6
f 1077/1077/6 1078/1078/6 1079/1079/6
f 1077/1077/6 1079/1079/6 1080/1080/6
