# Blender 5.2.1 LTS
# www.blender.org
mtllib uzi.mtl
o Object_4
v -0.057639 -0.345400 0.086939
v -0.057639 -0.345400 0.086939
v -0.057639 -0.345400 0.086939
v 0.027358 0.357433 -0.057880
v 0.027358 0.357433 -0.057880
v 0.027358 0.357433 -0.057880
v -0.007632 0.347925 -0.122740
v -0.007632 0.347925 -0.122740
v -0.007632 0.347925 -0.122740
v -0.191439 0.145579 -0.395754
v -0.191439 0.145579 -0.395754
v -0.191439 0.145579 -0.395754
v -0.223866 -0.126564 -0.338892
v -0.223866 -0.126564 -0.338892
v 0.242751 0.227732 0.425000
v 0.242751 0.227732 0.425000
v 0.242751 0.227732 0.425000
v 0.251731 0.303081 0.409257
v 0.251731 0.303081 0.409257
v 0.251731 0.303081 0.409257
v -0.108555 -0.358184 -0.008115
v -0.108555 -0.358184 -0.008115
v -0.108555 -0.358184 -0.008115
v -0.118311 0.015389 -0.193541
v -0.118311 0.015389 -0.193541
v -0.118311 0.015389 -0.193541
v -0.099416 0.021837 -0.159104
v -0.099416 0.021837 -0.159104
v -0.099416 0.021837 -0.159104
v -0.107659 -0.055974 -0.140811
v -0.107659 -0.055974 -0.140811
v -0.107659 -0.055974 -0.140811
v -0.107659 -0.055974 -0.140811
v -0.107659 -0.055974 -0.140811
v -0.091348 -0.050336 -0.111110
v -0.091348 -0.050336 -0.111110
v -0.091348 -0.050336 -0.111110
v -0.091348 -0.050336 -0.111110
v -0.091348 -0.050336 -0.111110
v -0.107759 -0.206953 -0.073944
v -0.107759 -0.206953 -0.073944
v -0.107759 -0.206953 -0.073944
v -0.088356 -0.201686 -0.037759
v -0.088356 -0.201686 -0.037759
v -0.088356 -0.201686 -0.037759
v -0.037668 -0.190453 0.057541
v -0.037668 -0.190453 0.057541
v -0.037668 -0.190453 0.057541
v -0.037668 -0.190453 0.057541
v -0.037668 -0.190453 0.057541
v -0.020081 -0.183489 0.088531
v -0.020081 -0.183489 0.088531
v -0.020081 -0.183489 0.088531
v -0.003664 -0.062283 0.066039
v -0.003664 -0.062283 0.066039
v 0.031639 -0.054162 0.132348
v 0.031639 -0.054162 0.132348
v 0.035863 -0.018836 0.126058
v 0.035863 -0.018836 0.126058
v 0.054028 -0.015292 0.160347
v 0.054028 -0.015292 0.160347
v 0.054028 -0.015292 0.160347
v 0.064672 0.066487 0.145036
v 0.064672 0.066487 0.145036
v 0.064672 0.066487 0.145036
v 0.064672 0.066487 0.145036
v 0.064672 0.066487 0.145036
v 0.118657 0.081943 0.244755
v 0.118657 0.081943 0.244755
v 0.118657 0.081943 0.244755
v 0.118657 0.081943 0.244755
v 0.123711 0.121590 0.237122
v 0.123711 0.121590 0.237122
v 0.123711 0.121590 0.237122
v 0.123711 0.121590 0.237122
v 0.123711 0.121590 0.237122
v 0.123711 0.121590 0.237122
v 0.177824 0.134852 0.338067
v 0.177824 0.134852 0.338067
v 0.177824 0.134852 0.338067
v 0.177824 0.134852 0.338067
v 0.182793 0.174279 0.330364
v 0.182793 0.174279 0.330364
v 0.182793 0.174279 0.330364
v 0.182793 0.174279 0.330364
v 0.182793 0.174279 0.330364
v 0.219270 0.183696 0.398198
v 0.219270 0.183696 0.398198
v 0.219270 0.183696 0.398198
v 0.224198 0.222374 0.390749
v 0.224198 0.222374 0.390749
v 0.224198 0.222374 0.390749
v 0.196115 0.289358 0.307096
v 0.196115 0.289358 0.307096
v 0.196115 0.289358 0.307096
v 0.196115 0.289358 0.307096
v 0.196115 0.289358 0.307096
v 0.196115 0.289358 0.307096
v 0.201099 0.327241 0.298559
v 0.201099 0.327241 0.298559
v 0.201099 0.327241 0.298559
v 0.184406 0.322412 0.267748
v 0.184406 0.322412 0.267748
v 0.184406 0.322412 0.267748
v 0.187562 0.361547 0.256593
v 0.187562 0.361547 0.256593
v 0.187562 0.361547 0.256593
v 0.152993 0.351229 0.192923
v 0.152993 0.351229 0.192923
v 0.152993 0.351229 0.192923
v 0.149875 0.316858 0.202039
v 0.149875 0.316858 0.202039
v 0.149875 0.316858 0.202039
v 0.037296 0.283684 -0.005496
v 0.037296 0.283684 -0.005496
v 0.037296 0.283684 -0.005496
v 0.037296 0.283684 -0.005496
v 0.037296 0.283684 -0.005496
v 0.041459 0.324111 -0.015236
v 0.041459 0.324111 -0.015236
v 0.041459 0.324111 -0.015236
v 0.022988 0.318749 -0.049325
v 0.022988 0.318749 -0.049325
v 0.022988 0.318749 -0.049325
v -0.016170 0.270618 -0.105253
v -0.016170 0.270618 -0.105253
v -0.016170 0.270618 -0.105253
v -0.016170 0.270618 -0.105253
v -0.016170 0.270618 -0.105253
v -0.072338 0.254329 -0.208915
v -0.072338 0.254329 -0.208915
v -0.072338 0.254329 -0.208915
v -0.072338 0.254329 -0.208915
v -0.072338 0.254329 -0.208915
v -0.067841 0.292423 -0.216958
v -0.067841 0.292423 -0.216958
v -0.067841 0.292423 -0.216958
v -0.103925 0.281528 -0.283361
v -0.103925 0.281528 -0.283361
v -0.103925 0.281528 -0.283361
v -0.108388 0.245172 -0.276024
v -0.108388 0.245172 -0.276024
v -0.108388 0.245172 -0.276024
v -0.126494 0.239790 -0.309384
v -0.126494 0.239790 -0.309384
v -0.126494 0.239790 -0.309384
v -0.131345 0.201485 -0.301944
v -0.131345 0.201485 -0.301944
v -0.131345 0.201485 -0.301944
v -0.131345 0.201485 -0.301944
v -0.131345 0.201485 -0.301944
v -0.148910 0.196595 -0.334451
v -0.148910 0.196595 -0.334451
v -0.148910 0.196595 -0.334451
v -0.153966 0.156794 -0.326751
v -0.153966 0.156794 -0.326751
v -0.153966 0.156794 -0.326751
v -0.205860 -0.119637 -0.306416
v -0.205860 -0.119637 -0.306416
v -0.210213 -0.162441 -0.295996
v -0.210213 -0.162441 -0.295996
v -0.190892 -0.155450 -0.260955
v -0.190892 -0.155450 -0.260955
v -0.186653 -0.113944 -0.271022
v -0.186653 -0.113944 -0.271022
v -0.168069 -0.106973 -0.237428
v -0.168069 -0.106973 -0.237428
v -0.168069 -0.106973 -0.237428
v -0.160262 -0.029293 -0.256522
v -0.160262 -0.029293 -0.256522
v -0.160262 -0.029293 -0.256522
v -0.160262 -0.029293 -0.256522
v -0.160262 -0.029293 -0.256522
v -0.121171 -0.014850 -0.185757
v -0.121171 -0.014850 -0.185757
v -0.121171 -0.014850 -0.185757
v -0.119030 0.015143 -0.194855
v -0.119030 0.015143 -0.194855
v -0.119030 0.015143 -0.194855
v 0.036120 -0.018787 0.126540
v 0.036120 -0.018787 0.126540
v 0.036120 -0.018787 0.126540
v 0.005105 0.010834 0.052163
v 0.005105 0.010834 0.052163
v 0.005105 0.010834 0.052163
v 0.005105 0.010834 0.052163
v 0.022441 0.015667 0.084257
v 0.022441 0.015667 0.084257
v 0.022441 0.015667 0.084257
v 0.026814 0.053482 0.076066
v 0.026814 0.053482 0.076066
v 0.026814 0.053482 0.076066
v 0.045043 0.058553 0.109804
v 0.045043 0.058553 0.109804
v 0.045043 0.058553 0.109804
v 0.045043 0.058553 0.109804
v 0.045043 0.058553 0.109804
v 0.045043 0.058553 0.109804
v 0.045043 0.058553 0.109804
v 0.045043 0.058553 0.109804
v 0.045043 0.058553 0.109804
v 0.000059 -0.025887 0.058558
v 0.000059 -0.025887 0.058558
v 0.000059 -0.025887 0.058558
v 0.105705 0.084836 0.251308
v 0.105705 0.084836 0.251308
v 0.105705 0.084836 0.251308
v -0.090844 -0.045983 -0.112052
v -0.090844 -0.045983 -0.112052
v -0.090844 -0.045983 -0.112052
v -0.117319 -0.204804 -0.069076
v -0.117319 -0.204804 -0.069076
v -0.117319 -0.204804 -0.069076
v 0.049956 0.096685 0.102566
v 0.049956 0.096685 0.102566
v 0.049956 0.096685 0.102566
v 0.049956 0.096685 0.102566
v 0.067682 0.101622 0.135370
v 0.067682 0.101622 0.135370
v 0.067682 0.101622 0.135370
v 0.067682 0.101622 0.135370
v 0.073015 0.141903 0.128004
v 0.073015 0.141903 0.128004
v 0.073015 0.141903 0.128004
v 0.073015 0.141903 0.128004
v 0.128387 0.157196 0.231005
v 0.128387 0.157196 0.231005
v 0.128387 0.157196 0.231005
v 0.128387 0.157196 0.231005
v 0.182392 0.173718 0.329827
v 0.182392 0.173718 0.329827
v 0.182392 0.173718 0.329827
v -0.076854 0.215892 -0.200757
v -0.076854 0.215892 -0.200757
v -0.076854 0.215892 -0.200757
v 0.146873 0.315972 0.196504
v 0.146873 0.315972 0.196504
v 0.146873 0.315972 0.196504
v 0.146873 0.315972 0.196504
v 0.146873 0.315972 0.196504
v 0.142829 0.275902 0.206318
v 0.142829 0.275902 0.206318
v 0.142829 0.275902 0.206318
v -0.055027 -0.231530 0.041462
v -0.055027 -0.231530 0.041462
v -0.055027 -0.231530 0.041462
v -0.042709 -0.229557 0.064960
v -0.042709 -0.229557 0.064960
v -0.042709 -0.229557 0.064960
v -0.093353 -0.240410 -0.030424
v -0.093353 -0.240410 -0.030424
v -0.093353 -0.240410 -0.030424
v -0.093353 -0.240410 -0.030424
v -0.093353 -0.240410 -0.030424
v -0.078667 -0.237104 -0.002832
v -0.078667 -0.237104 -0.002832
v -0.078667 -0.237104 -0.002832
v -0.073878 -0.200387 -0.009690
v -0.073878 -0.200387 -0.009690
v -0.073878 -0.200387 -0.009690
v -0.055592 -0.194843 0.024027
v -0.055592 -0.194843 0.024027
v -0.055592 -0.194843 0.024027
v -0.059855 -0.232224 0.032218
v -0.059855 -0.232224 0.032218
v -0.059855 -0.232224 0.032218
v -0.071542 -0.034511 -0.079031
v -0.071542 -0.034511 -0.079031
v -0.071542 -0.034511 -0.079031
v -0.071542 -0.034511 -0.079031
v -0.063496 0.032237 -0.092804
v -0.063496 0.032237 -0.092804
v -0.063496 0.032237 -0.092804
v -0.063496 0.032237 -0.092804
v -0.091653 -0.053263 -0.110415
v -0.091653 -0.053263 -0.110415
v -0.091653 -0.053263 -0.110415
v -0.091653 -0.053263 -0.110415
v -0.091653 -0.053263 -0.110415
v -0.091653 -0.053263 -0.110415
v -0.073190 -0.047989 -0.076290
v -0.073190 -0.047989 -0.076290
v -0.073190 -0.047989 -0.076290
v -0.073190 -0.047989 -0.076290
v -0.042666 -0.348762 0.079384
v -0.042666 -0.348762 0.079384
v -0.042666 -0.348762 0.079384
v 0.042321 0.354066 -0.065458
v 0.042321 0.354066 -0.065458
v 0.042321 0.354066 -0.065458
v 0.007329 0.344559 -0.130319
v 0.007329 0.344559 -0.130319
v 0.007329 0.344559 -0.130319
v -0.176476 0.142211 -0.403331
v -0.176476 0.142211 -0.403331
v -0.176476 0.142211 -0.403331
v -0.208906 -0.129933 -0.346471
v -0.208906 -0.129933 -0.346471
v 0.257673 0.224415 0.417318
v 0.257673 0.224415 0.417318
v 0.257673 0.224415 0.417318
v 0.266650 0.299763 0.401575
v 0.266650 0.299763 0.401575
v 0.266650 0.299763 0.401575
v -0.093579 -0.361548 -0.015669
v -0.093579 -0.361548 -0.015669
v -0.093579 -0.361548 -0.015669
v -0.103347 0.012022 -0.201120
v -0.103347 0.012022 -0.201120
v -0.103347 0.012022 -0.201120
v -0.103347 0.012022 -0.201120
v -0.084455 0.018470 -0.166683
v -0.084455 0.018470 -0.166683
v -0.084455 0.018470 -0.166683
v -0.092696 -0.059341 -0.148389
v -0.092696 -0.059341 -0.148389
v -0.092696 -0.059341 -0.148389
v -0.092696 -0.059341 -0.148389
v -0.092696 -0.059341 -0.148389
v -0.076382 -0.053702 -0.118686
v -0.076382 -0.053702 -0.118686
v -0.076382 -0.053702 -0.118686
v -0.076382 -0.053702 -0.118686
v -0.076382 -0.053702 -0.118686
v -0.092814 -0.210313 -0.081557
v -0.092814 -0.210313 -0.081557
v -0.092814 -0.210313 -0.081557
v -0.073411 -0.205046 -0.045372
v -0.073411 -0.205046 -0.045372
v -0.073411 -0.205046 -0.045372
v -0.022718 -0.193813 0.049938
v -0.022718 -0.193813 0.049938
v -0.022718 -0.193813 0.049938
v -0.022718 -0.193813 0.049938
v -0.022718 -0.193813 0.049938
v -0.005133 -0.186849 0.080918
v -0.005133 -0.186849 0.080918
v -0.005133 -0.186849 0.080918
v 0.011281 -0.065643 0.058426
v 0.011281 -0.065643 0.058426
v 0.046587 -0.057522 0.124735
v 0.046587 -0.057522 0.124735
v 0.050811 -0.022197 0.118445
v 0.050811 -0.022197 0.118445
v 0.068992 -0.018658 0.152768
v 0.068992 -0.018658 0.152768
v 0.068992 -0.018658 0.152768
v 0.079641 0.063136 0.137461
v 0.079641 0.063136 0.137461
v 0.079641 0.063136 0.137461
v 0.079641 0.063136 0.137461
v 0.079641 0.063136 0.137461
v 0.133628 0.078598 0.237183
v 0.133628 0.078598 0.237183
v 0.133628 0.078598 0.237183
v 0.133628 0.078598 0.237183
v 0.138679 0.118239 0.229547
v 0.138679 0.118239 0.229547
v 0.138679 0.118239 0.229547
v 0.138679 0.118239 0.229547
v 0.138679 0.118239 0.229547
v 0.138679 0.118239 0.229547
v 0.192785 0.131483 0.330489
v 0.192785 0.131483 0.330489
v 0.192785 0.131483 0.330489
v 0.192785 0.131483 0.330489
v 0.197725 0.170949 0.322709
v 0.197725 0.170949 0.322709
v 0.197725 0.170949 0.322709
v 0.197725 0.170949 0.322709
v 0.197725 0.170949 0.322709
v 0.234189 0.180378 0.390516
v 0.234189 0.180378 0.390516
v 0.234189 0.180378 0.390516
v 0.239120 0.219057 0.383067
v 0.239120 0.219057 0.383067
v 0.239120 0.219057 0.383067
v 0.211071 0.285981 0.299510
v 0.211071 0.285981 0.299510
v 0.211071 0.285981 0.299510
v 0.211071 0.285981 0.299510
v 0.211071 0.285981 0.299510
v 0.211071 0.285981 0.299510
v 0.216075 0.323783 0.291051
v 0.216075 0.323783 0.291051
v 0.216075 0.323783 0.291051
v 0.199384 0.318954 0.260239
v 0.199384 0.318954 0.260239
v 0.199384 0.318954 0.260239
v 0.202537 0.358088 0.249084
v 0.202537 0.358088 0.249084
v 0.202537 0.358088 0.249084
v 0.167969 0.347771 0.185414
v 0.167969 0.347771 0.185414
v 0.167969 0.347771 0.185414
v 0.164851 0.313399 0.194530
v 0.164851 0.313399 0.194530
v 0.164851 0.313399 0.194530
v 0.052264 0.280325 -0.013066
v 0.052264 0.280325 -0.013066
v 0.052264 0.280325 -0.013066
v 0.052264 0.280325 -0.013066
v 0.052264 0.280325 -0.013066
v 0.056422 0.320744 -0.022814
v 0.056422 0.320744 -0.022814
v 0.056422 0.320744 -0.022814
v 0.037948 0.315384 -0.056904
v 0.037948 0.315384 -0.056904
v 0.037948 0.315384 -0.056904
v -0.001202 0.267259 -0.112823
v -0.001202 0.267259 -0.112823
v -0.001202 0.267259 -0.112823
v -0.001202 0.267259 -0.112823
v -0.001202 0.267259 -0.112823
v -0.057372 0.250967 -0.216490
v -0.057372 0.250967 -0.216490
v -0.057372 0.250967 -0.216490
v -0.057372 0.250967 -0.216490
v -0.057372 0.250967 -0.216490
v -0.052878 0.289056 -0.224536
v -0.052878 0.289056 -0.224536
v -0.052878 0.289056 -0.224536
v -0.088962 0.278162 -0.290939
v -0.088962 0.278162 -0.290939
v -0.088962 0.278162 -0.290939
v -0.093425 0.241806 -0.283602
v -0.093425 0.241806 -0.283602
v -0.093425 0.241806 -0.283602
v -0.111534 0.236423 -0.316963
v -0.111534 0.236423 -0.316963
v -0.111534 0.236423 -0.316963
v -0.116377 0.198126 -0.309515
v -0.116377 0.198126 -0.309515
v -0.116377 0.198126 -0.309515
v -0.116377 0.198126 -0.309515
v -0.116377 0.198126 -0.309515
v -0.133939 0.193240 -0.342017
v -0.133939 0.193240 -0.342017
v -0.133939 0.193240 -0.342017
v -0.138995 0.153439 -0.334317
v -0.138995 0.153439 -0.334317
v -0.138995 0.153439 -0.334317
v -0.190897 -0.123006 -0.313995
v -0.190897 -0.123006 -0.313995
v -0.195252 -0.165810 -0.303575
v -0.195252 -0.165810 -0.303575
v -0.175929 -0.158818 -0.268534
v -0.175929 -0.158818 -0.268534
v -0.171689 -0.117313 -0.278601
v -0.171689 -0.117313 -0.278601
v -0.153108 -0.110341 -0.245007
v -0.153108 -0.110341 -0.245007
v -0.153108 -0.110341 -0.245007
v -0.145302 -0.032662 -0.264101
v -0.145302 -0.032662 -0.264101
v -0.145302 -0.032662 -0.264101
v -0.145302 -0.032662 -0.264101
v -0.145302 -0.032662 -0.264101
v -0.106208 -0.018217 -0.193335
v -0.106208 -0.018217 -0.193335
v -0.106208 -0.018217 -0.193335
v -0.104069 0.011776 -0.202433
v -0.104069 0.011776 -0.202433
v -0.104069 0.011776 -0.202433
v 0.051083 -0.022152 0.118962
v 0.051083 -0.022152 0.118962
v 0.051083 -0.022152 0.118962
v 0.020063 0.007469 0.044574
v 0.020063 0.007469 0.044574
v 0.020063 0.007469 0.044574
v 0.020063 0.007469 0.044574
v 0.037404 0.012298 0.076680
v 0.037404 0.012298 0.076680
v 0.037404 0.012298 0.076680
v 0.041777 0.050114 0.068489
v 0.041777 0.050114 0.068489
v 0.041777 0.050114 0.068489
v 0.060009 0.055193 0.102227
v 0.060009 0.055193 0.102227
v 0.060009 0.055193 0.102227
v 0.060009 0.055193 0.102227
v 0.060009 0.055193 0.102227
v 0.060009 0.055193 0.102227
v 0.060009 0.055193 0.102227
v 0.060009 0.055193 0.102227
v 0.060009 0.055193 0.102227
v 0.015004 -0.029247 0.050945
v 0.015004 -0.029247 0.050945
v 0.015004 -0.029247 0.050945
v 0.051720 0.069379 0.151588
v 0.051720 0.069379 0.151588
v 0.051720 0.069379 0.151588
v -0.075884 -0.049350 -0.119629
v -0.075884 -0.049350 -0.119629
v -0.075884 -0.049350 -0.119629
v -0.101211 -0.051114 -0.105546
v -0.101211 -0.051114 -0.105546
v -0.101211 -0.051114 -0.105546
v 0.064921 0.093329 0.094990
v 0.064921 0.093329 0.094990
v 0.064921 0.093329 0.094990
v 0.064921 0.093329 0.094990
v 0.082648 0.098266 0.127794
v 0.082648 0.098266 0.127794
v 0.082648 0.098266 0.127794
v 0.082648 0.098266 0.127794
v 0.087981 0.138547 0.120428
v 0.087981 0.138547 0.120428
v 0.087981 0.138547 0.120428
v 0.087981 0.138547 0.120428
v 0.143353 0.153840 0.223429
v 0.143353 0.153840 0.223429
v 0.143353 0.153840 0.223429
v 0.143353 0.153840 0.223429
v 0.197350 0.170362 0.322233
v 0.197350 0.170362 0.322233
v 0.197350 0.170362 0.322233
v -0.061886 0.212530 -0.208329
v -0.061886 0.212530 -0.208329
v -0.061886 0.212530 -0.208329
v 0.161847 0.312565 0.188966
v 0.161847 0.312565 0.188966
v 0.161847 0.312565 0.188966
v 0.161847 0.312565 0.188966
v 0.161847 0.312565 0.188966
v 0.157802 0.272496 0.198780
v 0.157802 0.272496 0.198780
v 0.157802 0.272496 0.198780
v -0.040062 -0.234892 0.033889
v -0.040062 -0.234892 0.033889
v -0.040062 -0.234892 0.033889
v -0.027733 -0.232920 0.057405
v -0.027733 -0.232920 0.057405
v -0.027733 -0.232920 0.057405
v -0.078393 -0.243771 -0.038008
v -0.078393 -0.243771 -0.038008
v -0.078393 -0.243771 -0.038008
v -0.078393 -0.243771 -0.038008
v -0.078393 -0.243771 -0.038008
v -0.063707 -0.240467 -0.010416
v -0.063707 -0.240467 -0.010416
v -0.063707 -0.240467 -0.010416
v -0.058918 -0.203748 -0.017273
v -0.058918 -0.203748 -0.017273
v -0.058918 -0.203748 -0.017273
v -0.040632 -0.198205 0.016444
v -0.040632 -0.198205 0.016444
v -0.040632 -0.198205 0.016444
v -0.044894 -0.235585 0.024635
v -0.044894 -0.235585 0.024635
v -0.044894 -0.235585 0.024635
v -0.056584 -0.037876 -0.086618
v -0.056584 -0.037876 -0.086618
v -0.056584 -0.037876 -0.086618
v -0.056584 -0.037876 -0.086618
v -0.048533 0.028870 -0.100382
v -0.048533 0.028870 -0.100382
v -0.048533 0.028870 -0.100382
v -0.048533 0.028870 -0.100382
v -0.076698 -0.056628 -0.118009
v -0.076698 -0.056628 -0.118009
v -0.076698 -0.056628 -0.118009
v -0.076698 -0.056628 -0.118009
v -0.076698 -0.056628 -0.118009
v -0.076698 -0.056628 -0.118009
v -0.058235 -0.051354 -0.083884
v -0.058235 -0.051354 -0.083884
v -0.058235 -0.051354 -0.083884
v -0.058235 -0.051354 -0.083884
v -0.234223 0.155207 -0.374085
v -0.234223 0.155207 -0.374085
v -0.234223 0.155207 -0.374085
v -0.234223 0.155207 -0.374085
v -0.266650 -0.116932 -0.317220
v -0.266650 -0.116932 -0.317220
v -0.266650 -0.116932 -0.317220
v -0.161092 0.025022 -0.171869
v -0.161092 0.025022 -0.171869
v -0.142200 0.031471 -0.137433
v -0.142200 0.031471 -0.137433
v -0.142200 0.031471 -0.137433
v -0.150440 -0.046341 -0.119139
v -0.150440 -0.046341 -0.119139
v -0.150440 -0.046341 -0.119139
v 0.080930 0.131223 0.258794
v 0.080930 0.131223 0.258794
v 0.080930 0.131223 0.258794
v 0.135040 0.144484 0.359739
v 0.135040 0.144484 0.359739
v 0.135040 0.144484 0.359739
v 0.140009 0.183913 0.352036
v 0.140009 0.183913 0.352036
v 0.140009 0.183913 0.352036
v 0.104064 0.325568 0.218139
v 0.104064 0.325568 0.218139
v 0.104064 0.325568 0.218139
v -0.005513 0.293279 0.016140
v -0.005513 0.293279 0.016140
v -0.005513 0.293279 0.016140
v -0.058979 0.280212 -0.083618
v -0.058979 0.280212 -0.083618
v -0.058979 0.280212 -0.083618
v -0.115147 0.263926 -0.187280
v -0.115147 0.263926 -0.187280
v -0.115147 0.263926 -0.187280
v -0.174155 0.211081 -0.280309
v -0.174155 0.211081 -0.280309
v -0.174155 0.211081 -0.280309
v -0.191719 0.206192 -0.312816
v -0.191719 0.206192 -0.312816
v -0.191719 0.206192 -0.312816
v -0.196775 0.166389 -0.305116
v -0.196775 0.166389 -0.305116
v -0.196775 0.166389 -0.305116
v -0.248641 -0.110005 -0.284744
v -0.248641 -0.110005 -0.284744
v -0.248641 -0.110005 -0.284744
v -0.252997 -0.152809 -0.274325
v -0.252997 -0.152809 -0.274325
v -0.252997 -0.152809 -0.274325
v -0.233673 -0.145817 -0.239284
v -0.233673 -0.145817 -0.239284
v -0.233673 -0.145817 -0.239284
v -0.229434 -0.104312 -0.249350
v -0.229434 -0.104312 -0.249350
v -0.229434 -0.104312 -0.249350
v -0.210852 -0.097340 -0.215756
v -0.210852 -0.097340 -0.215756
v -0.210852 -0.097340 -0.215756
v -0.203046 -0.019661 -0.234850
v -0.203046 -0.019661 -0.234850
v -0.203046 -0.019661 -0.234850
v -0.161813 0.024776 -0.173183
v -0.161813 0.024776 -0.173183
v -0.161813 0.024776 -0.173183
v -0.133631 -0.036351 -0.090386
v -0.133631 -0.036351 -0.090386
v -0.133631 -0.036351 -0.090386
v -0.133631 -0.036351 -0.090386
v -0.133631 -0.036351 -0.090386
v -0.114328 -0.024880 -0.057367
v -0.114328 -0.024880 -0.057367
v -0.114328 -0.024880 -0.057367
v -0.114328 -0.024880 -0.057367
v -0.125141 0.037295 -0.106339
v -0.125141 0.037295 -0.106339
v -0.106280 0.041868 -0.071133
v -0.106280 0.041868 -0.071133
v -0.106280 0.041868 -0.071133
v -0.106280 0.041868 -0.071133
v 0.002260 0.068187 0.131476
v 0.002260 0.068187 0.131476
v 0.002260 0.068187 0.131476
v 0.007175 0.106317 0.124238
v 0.007175 0.106317 0.124238
v 0.007175 0.106317 0.124238
v 0.024901 0.111254 0.157042
v 0.024901 0.111254 0.157042
v 0.024901 0.111254 0.157042
v 0.030232 0.151537 0.149676
v 0.030232 0.151537 0.149676
v 0.030232 0.151537 0.149676
v 0.085606 0.166828 0.252676
v 0.085606 0.166828 0.252676
v 0.085606 0.166828 0.252676
v -0.134137 -0.040701 -0.089451
v -0.134137 -0.040701 -0.089451
v -0.134137 -0.040701 -0.089451
v 0.153306 0.298953 0.328731
v 0.153306 0.298953 0.328731
v 0.153306 0.298953 0.328731
v 0.139601 0.183336 0.351485
v 0.139601 0.183336 0.351485
v 0.139601 0.183336 0.351485
v 0.139601 0.183336 0.351485
v -0.119664 0.225487 -0.179122
v -0.119664 0.225487 -0.179122
v -0.119664 0.225487 -0.179122
v 0.100019 0.285498 0.227953
v 0.100019 0.285498 0.227953
v 0.100019 0.285498 0.227953
v -0.134442 -0.043629 -0.088757
v -0.134442 -0.043629 -0.088757
v -0.134442 -0.043629 -0.088757
v -0.115979 -0.038354 -0.054631
v -0.115979 -0.038354 -0.054631
v -0.115979 -0.038354 -0.054631
v -0.133690 0.132582 -0.425000
v -0.133690 0.132582 -0.425000
v -0.133690 0.132582 -0.425000
v -0.133690 0.132582 -0.425000
v -0.166122 -0.139565 -0.368142
v -0.166122 -0.139565 -0.368142
v -0.166122 -0.139565 -0.368142
v -0.060566 0.002389 -0.222792
v -0.060566 0.002389 -0.222792
v -0.060566 0.002389 -0.222792
v -0.041672 0.008836 -0.188355
v -0.041672 0.008836 -0.188355
v -0.041672 0.008836 -0.188355
v -0.049915 -0.068975 -0.170061
v -0.049915 -0.068975 -0.170061
v -0.049915 -0.068975 -0.170061
v 0.181463 0.108605 0.207876
v 0.181463 0.108605 0.207876
v 0.181463 0.108605 0.207876
v 0.235568 0.121850 0.308817
v 0.235568 0.121850 0.308817
v 0.235568 0.121850 0.308817
v 0.240506 0.161315 0.301037
v 0.240506 0.161315 0.301037
v 0.240506 0.161315 0.301037
v 0.204656 0.302970 0.167331
v 0.204656 0.302970 0.167331
v 0.204656 0.302970 0.167331
v 0.095074 0.270730 -0.034701
v 0.095074 0.270730 -0.034701
v 0.095074 0.270730 -0.034701
v 0.041608 0.257662 -0.134459
v 0.041608 0.257662 -0.134459
v 0.041608 0.257662 -0.134459
v -0.014563 0.241372 -0.238125
v -0.014563 0.241372 -0.238125
v -0.014563 0.241372 -0.238125
v -0.073568 0.188531 -0.331150
v -0.073568 0.188531 -0.331150
v -0.073568 0.188531 -0.331150
v -0.091129 0.183646 -0.363652
v -0.091129 0.183646 -0.363652
v -0.091129 0.183646 -0.363652
v -0.096186 0.143844 -0.355952
v -0.096186 0.143844 -0.355952
v -0.096186 0.143844 -0.355952
v -0.148116 -0.132638 -0.335666
v -0.148116 -0.132638 -0.335666
v -0.148116 -0.132638 -0.335666
v -0.152469 -0.175442 -0.325247
v -0.152469 -0.175442 -0.325247
v -0.152469 -0.175442 -0.325247
v -0.133148 -0.168451 -0.290206
v -0.133148 -0.168451 -0.290206
v -0.133148 -0.168451 -0.290206
v -0.128908 -0.126945 -0.300273
v -0.128908 -0.126945 -0.300273
v -0.128908 -0.126945 -0.300273
v -0.110324 -0.119975 -0.266678
v -0.110324 -0.119975 -0.266678
v -0.110324 -0.119975 -0.266678
v -0.102518 -0.042294 -0.285773
v -0.102518 -0.042294 -0.285773
v -0.102518 -0.042294 -0.285773
v -0.061285 0.002143 -0.224105
v -0.061285 0.002143 -0.224105
v -0.061285 0.002143 -0.224105
v -0.033098 -0.058982 -0.141295
v -0.033098 -0.058982 -0.141295
v -0.033098 -0.058982 -0.141295
v -0.033098 -0.058982 -0.141295
v -0.033098 -0.058982 -0.141295
v -0.013795 -0.047507 -0.108282
v -0.013795 -0.047507 -0.108282
v -0.013795 -0.047507 -0.108282
v -0.013795 -0.047507 -0.108282
v -0.024611 0.014668 -0.157258
v -0.024611 0.014668 -0.157258
v -0.005752 0.019239 -0.122053
v -0.005752 0.019239 -0.122053
v -0.005752 0.019239 -0.122053
v -0.005752 0.019239 -0.122053
v 0.102790 0.045561 0.080555
v 0.102790 0.045561 0.080555
v 0.102790 0.045561 0.080555
v 0.107705 0.083697 0.073318
v 0.107705 0.083697 0.073318
v 0.107705 0.083697 0.073318
v 0.125431 0.088633 0.106122
v 0.125431 0.088633 0.106122
v 0.125431 0.088633 0.106122
v 0.130762 0.128915 0.098756
v 0.130762 0.128915 0.098756
v 0.130762 0.128915 0.098756
v 0.186136 0.144208 0.201757
v 0.186136 0.144208 0.201757
v 0.186136 0.144208 0.201757
v -0.033593 -0.063337 -0.140344
v -0.033593 -0.063337 -0.140344
v -0.033593 -0.063337 -0.140344
v 0.253880 0.276386 0.277874
v 0.253880 0.276386 0.277874
v 0.253880 0.276386 0.277874
v 0.240144 0.160745 0.300576
v 0.240144 0.160745 0.300576
v 0.240144 0.160745 0.300576
v 0.240144 0.160745 0.300576
v -0.019077 0.202936 -0.229965
v -0.019077 0.202936 -0.229965
v -0.019077 0.202936 -0.229965
v 0.200612 0.262901 0.177145
v 0.200612 0.262901 0.177145
v 0.200612 0.262901 0.177145
v -0.033909 -0.066262 -0.139667
v -0.033909 -0.066262 -0.139667
v -0.033909 -0.066262 -0.139667
v -0.015446 -0.060987 -0.105542
v -0.015446 -0.060987 -0.105542
v -0.015446 -0.060987 -0.105542
v -0.097914 -0.199537 -0.032890
v -0.097914 -0.199537 -0.032890
v -0.097914 -0.199537 -0.032890
v -0.064588 -0.229381 0.046331
v -0.064588 -0.229381 0.046331
v -0.064588 -0.229381 0.046331
v -0.047226 -0.188304 0.062409
v -0.047226 -0.188304 0.062409
v -0.047226 -0.188304 0.062409
v -0.029639 -0.181340 0.093399
v -0.029639 -0.181340 0.093399
v -0.029639 -0.181340 0.093399
v -0.013225 -0.060134 0.070908
v -0.013225 -0.060134 0.070908
v -0.013225 -0.060134 0.070908
v 0.022081 -0.052013 0.137217
v 0.022081 -0.052013 0.137217
v 0.022081 -0.052013 0.137217
v 0.026306 -0.016687 0.130926
v 0.026306 -0.016687 0.130926
v 0.026306 -0.016687 0.130926
v -0.004460 0.012986 0.057017
v -0.004460 0.012986 0.057017
v -0.004460 0.012986 0.057017
v -0.004460 0.012986 0.057017
v 0.012873 0.017820 0.089103
v 0.012873 0.017820 0.089103
v 0.012873 0.017820 0.089103
v 0.017246 0.055636 0.080912
v 0.017246 0.055636 0.080912
v 0.017246 0.055636 0.080912
v 0.035475 0.060708 0.114650
v 0.035475 0.060708 0.114650
v 0.035475 0.060708 0.114650
v -0.009501 -0.023739 0.063427
v -0.009501 -0.023739 0.063427
v -0.009501 -0.023739 0.063427
v -0.005102 0.012806 0.055830
v -0.005102 0.012806 0.055830
v -0.073067 0.034392 -0.087958
v -0.073067 0.034392 -0.087958
v -0.073067 0.034392 -0.087958
v -0.102913 -0.238261 -0.025555
v -0.102913 -0.238261 -0.025555
v -0.102913 -0.238261 -0.025555
v -0.088225 -0.234955 0.002037
v -0.088225 -0.234955 0.002037
v -0.088225 -0.234955 0.002037
v -0.083436 -0.198238 -0.004821
v -0.083436 -0.198238 -0.004821
v -0.083436 -0.198238 -0.004821
v -0.065150 -0.192695 0.028896
v -0.065150 -0.192695 0.028896
v -0.065150 -0.192695 0.028896
v -0.069415 -0.230074 0.037087
v -0.069415 -0.230074 0.037087
v -0.069415 -0.230074 0.037087
v -0.081104 -0.032359 -0.074172
v -0.081104 -0.032359 -0.074172
v -0.081104 -0.032359 -0.074172
v -0.081104 -0.032359 -0.074172
v -0.082750 -0.045839 -0.071421
v -0.082750 -0.045839 -0.071421
v -0.082750 -0.045839 -0.071421
v -0.067140 -0.058778 -0.122877
v -0.067140 -0.058778 -0.122877
v -0.067140 -0.058778 -0.122877
v -0.083256 -0.212462 -0.086426
v -0.083256 -0.212462 -0.086426
v -0.083256 -0.212462 -0.086426
v -0.063851 -0.207196 -0.050241
v -0.063851 -0.207196 -0.050241
v -0.063851 -0.207196 -0.050241
v -0.030504 -0.237041 0.029020
v -0.030504 -0.237041 0.029020
v -0.030504 -0.237041 0.029020
v -0.013158 -0.195962 0.045070
v -0.013158 -0.195962 0.045070
v -0.013158 -0.195962 0.045070
v 0.004424 -0.188998 0.076049
v 0.004424 -0.188998 0.076049
v 0.004424 -0.188998 0.076049
v 0.020841 -0.067792 0.053557
v 0.020841 -0.067792 0.053557
v 0.020841 -0.067792 0.053557
v 0.056144 -0.059670 0.119866
v 0.056144 -0.059670 0.119866
v 0.056144 -0.059670 0.119866
v 0.060369 -0.024345 0.113576
v 0.060369 -0.024345 0.113576
v 0.060369 -0.024345 0.113576
v 0.029628 0.005316 0.039721
v 0.029628 0.005316 0.039721
v 0.029628 0.005316 0.039721
v 0.029628 0.005316 0.039721
v 0.046972 0.010144 0.071834
v 0.046972 0.010144 0.071834
v 0.046972 0.010144 0.071834
v 0.051348 0.047959 0.063643
v 0.051348 0.047959 0.063643
v 0.051348 0.047959 0.063643
v 0.069577 0.053040 0.097381
v 0.069577 0.053040 0.097381
v 0.069577 0.053040 0.097381
v 0.024564 -0.031396 0.046076
v 0.024564 -0.031396 0.046076
v 0.024564 -0.031396 0.046076
v 0.028981 0.005138 0.038520
v 0.028981 0.005138 0.038520
v -0.038965 0.026715 -0.105228
v -0.038965 0.026715 -0.105228
v -0.038965 0.026715 -0.105228
v -0.068835 -0.245921 -0.042876
v -0.068835 -0.245921 -0.042876
v -0.068835 -0.245921 -0.042876
v -0.054147 -0.242615 -0.015284
v -0.054147 -0.242615 -0.015284
v -0.054147 -0.242615 -0.015284
v -0.049360 -0.205898 -0.022142
v -0.049360 -0.205898 -0.022142
v -0.049360 -0.205898 -0.022142
v -0.031074 -0.200355 0.011575
v -0.031074 -0.200355 0.011575
v -0.031074 -0.200355 0.011575
v -0.035337 -0.237734 0.019766
v -0.035337 -0.237734 0.019766
v -0.035337 -0.237734 0.019766
v -0.047021 -0.040028 -0.091477
v -0.047021 -0.040028 -0.091477
v -0.047021 -0.040028 -0.091477
v -0.047021 -0.040028 -0.091477
v -0.048677 -0.053502 -0.088752
v -0.048677 -0.053502 -0.088752
v -0.048677 -0.053502 -0.088752
v 0.110761 0.124484 0.243675
v 0.110761 0.124484 0.243675
v 0.110761 0.124484 0.243675
v 0.032091 0.061446 0.116356
v 0.032091 0.061446 0.116356
v 0.032091 0.061446 0.116356
v 0.037003 0.099578 0.109118
v 0.037003 0.099578 0.109118
v 0.037003 0.099578 0.109118
v 0.054730 0.104515 0.141922
v 0.054730 0.104515 0.141922
v 0.054730 0.104515 0.141922
v 0.060063 0.144797 0.134556
v 0.060063 0.144797 0.134556
v 0.060063 0.144797 0.134556
v 0.115435 0.160089 0.237557
v 0.115435 0.160089 0.237557
v 0.115435 0.160089 0.237557
v 0.092593 0.060243 0.130909
v 0.092593 0.060243 0.130909
v 0.092593 0.060243 0.130909
v 0.146581 0.075705 0.230630
v 0.146581 0.075705 0.230630
v 0.146581 0.075705 0.230630
v 0.151632 0.115345 0.222995
v 0.151632 0.115345 0.222995
v 0.151632 0.115345 0.222995
v 0.072959 0.052300 0.095675
v 0.072959 0.052300 0.095675
v 0.072959 0.052300 0.095675
v 0.077874 0.090436 0.088438
v 0.077874 0.090436 0.088438
v 0.077874 0.090436 0.088438
v 0.095600 0.095373 0.121242
v 0.095600 0.095373 0.121242
v 0.095600 0.095373 0.121242
v 0.100934 0.135654 0.113876
v 0.100934 0.135654 0.113876
v 0.100934 0.135654 0.113876
v 0.156305 0.150947 0.216876
v 0.156305 0.150947 0.216876
v 0.156305 0.150947 0.216876
vn -0.0880 -0.9631 0.2543
vn -0.0881 -0.9631 0.2542
vn -0.8751 0.1967 0.4422
vn -0.8750 0.1967 0.4423
vn -0.8747 0.1968 0.4430
vn -0.8751 0.1966 0.4422
vn -0.1257 -0.9749 0.1837
vn -0.1255 -0.9749 0.1836
vn -0.0821 -0.9615 0.2622
vn -0.4738 -0.1366 -0.8700
vn -0.8746 0.1970 0.4429
vn -0.8746 0.1969 0.4430
vn -0.4717 -0.1353 -0.8713
vn -0.4717 -0.1356 -0.8713
vn -0.4717 -0.1361 -0.8712
vn -0.8748 0.1951 0.4434
vn -0.8752 0.2019 0.4397
vn -0.8752 0.2019 0.4396
vn -0.8749 0.2007 0.4408
vn -0.8742 0.2012 0.4418
vn -0.8745 0.2022 0.4409
vn -0.8752 0.2018 0.4397
vn -0.8751 0.2019 0.4397
vn 0.1080 0.9703 -0.2165
vn 0.1083 0.9702 -0.2168
vn 0.1103 0.9709 -0.2123
vn 0.1103 0.9710 -0.2123
vn -0.8739 0.1940 0.4458
vn -0.8733 0.1942 0.4467
vn -0.8732 0.1940 0.4470
vn -0.8729 0.1939 0.4477
vn -0.8729 0.1939 0.4476
vn -0.8729 0.1940 0.4476
vn -0.8736 0.1943 0.4461
vn -0.4661 -0.0901 -0.8801
vn 0.8751 -0.1967 -0.4422
vn 0.8751 -0.1967 -0.4423
vn 0.8744 -0.1969 -0.4435
vn 0.8747 -0.1968 -0.4430
vn -0.1136 -0.9716 0.2077
vn -0.1135 -0.9716 0.2076
vn 0.4680 0.1093 0.8769
vn 0.4671 0.0892 0.8797
vn 0.4678 0.0893 0.8793
vn 0.8747 -0.1962 -0.4432
vn 0.8746 -0.1968 -0.4430
vn -0.0356 -0.9374 0.3464
vn -0.0355 -0.9374 0.3465
vn 0.8742 -0.2021 -0.4416
vn 0.8752 -0.2019 -0.4396
vn 0.8750 -0.2016 -0.4401
vn 0.8751 -0.2019 -0.4397
vn 0.8752 -0.2019 -0.4397
vn 0.8752 -0.2012 -0.4399
vn 0.8752 -0.2010 -0.4400
vn 0.8747 -0.2022 -0.4405
vn 0.8750 -0.1967 -0.4423
vn -0.1976 0.6896 -0.6967
vn -0.1972 0.6902 -0.6962
vn -0.4679 -0.1102 -0.8769
vn 0.8734 -0.1940 -0.4467
vn 0.8734 -0.1945 -0.4465
vn 0.8737 -0.1935 -0.4463
vn 0.8739 -0.1937 -0.4458
vn 0.8732 -0.1947 -0.4468
vn 0.8731 -0.1942 -0.4471
vn 0.8729 -0.1940 -0.4476
vn 0.4668 0.1064 0.8779
vn 0.4668 0.1064 0.8780
vn -0.1201 -0.9734 0.1953
vn 0.1151 0.9721 -0.2046
vn -0.4707 -0.1264 -0.8732
vn -0.4708 -0.1263 -0.8732
vn 0.4760 0.1252 0.8705
vn -0.0985 -0.9670 0.2351
vn -0.0986 -0.9670 0.2351
vn -0.4739 -0.1537 -0.8671
vn -0.4738 -0.1537 -0.8671
vn -0.0975 -0.9666 0.2370
vn -0.0974 -0.9666 0.2370
vn -0.4751 -0.1557 -0.8660
vn -0.4755 -0.1556 -0.8658
vn -0.1151 -0.9723 0.2032
vn -0.4672 -0.1062 -0.8778
vn -0.4678 -0.1059 -0.8774
vn -0.4673 -0.1061 -0.8777
vn -0.0824 -0.9613 0.2628
vn -0.0823 -0.9613 0.2628
vn 0.4692 0.0993 0.8775
vn 0.4693 0.0993 0.8775
vn -0.1246 -0.9747 0.1857
vn -0.1245 -0.9747 0.1857
vn 0.4693 0.1001 0.8773
vn -0.1328 -0.9762 0.1713
vn -0.1329 -0.9762 0.1713
vn 0.4678 0.1034 0.8777
vn 0.4677 0.1035 0.8778
vn -0.1109 -0.9713 0.2106
vn -0.1108 -0.9713 0.2106
vn 0.4680 0.1092 0.8770
vn 0.4682 0.1092 0.8768
vn -0.1210 -0.9738 0.1927
vn -0.1211 -0.9737 0.1928
vn 0.4714 0.1126 0.8747
vn 0.4705 0.1124 0.8752
vn 0.4707 0.1124 0.8751
vn 0.4716 0.1126 0.8746
vn -0.1151 -0.9736 0.1972
vn -0.1153 -0.9735 0.1973
vn -0.1154 -0.9735 0.1973
vn -0.1155 -0.9735 0.1973
vn 0.4740 0.1079 0.8739
vn 0.4739 0.1079 0.8739
vn -0.1077 -0.9717 0.2104
vn 0.1184 0.9735 -0.1955
vn 0.1180 0.9736 -0.1954
vn 0.1184 0.9735 -0.1954
vn 0.4701 0.1337 0.8725
vn 0.4710 0.1338 0.8719
vn 0.4710 0.1339 0.8719
vn 0.4699 0.1337 0.8725
vn 0.1161 0.9697 -0.2149
vn 0.4761 0.2053 0.8551
vn 0.4761 0.2054 0.8551
vn 0.1140 0.9690 -0.2190
vn 0.1140 0.9691 -0.2189
vn -0.4743 -0.1853 -0.8607
vn -0.4743 -0.1852 -0.8606
vn 0.1106 0.9703 -0.2150
vn 0.1108 0.9703 -0.2150
vn 0.1109 0.9703 -0.2151
vn 0.4741 0.1599 0.8658
vn 0.4740 0.1598 0.8659
vn 0.1107 0.9708 -0.2127
vn 0.1107 0.9708 -0.2126
vn 0.4722 0.1391 0.8704
vn 0.4722 0.1391 0.8705
vn -0.4725 -0.1445 -0.8694
vn -0.4722 -0.1447 -0.8695
vn 0.1104 0.9709 -0.2124
vn 0.1106 0.9709 -0.2125
vn 0.4707 0.1287 0.8729
vn 0.4710 0.1288 0.8727
vn 0.1079 0.9700 -0.2178
vn -0.4698 -0.1189 -0.8747
vn 0.1090 0.9703 -0.2157
vn 0.1091 0.9703 -0.2158
vn -0.4686 -0.1110 -0.8764
vn -0.4683 -0.1112 -0.8765
vn 0.1132 0.9717 -0.2073
vn 0.1131 0.9718 -0.2072
vn 0.1081 0.9703 -0.2164
vn 0.1086 0.9702 -0.2168
vn -0.0881 -0.9631 0.2543
vn -0.4747 -0.1623 -0.8651
vn -0.4748 -0.1623 -0.8650
vn -0.0936 -0.9652 0.2442
vn 0.4746 0.1614 0.8653
vn -0.0904 -0.9640 0.2500
vn -0.0903 -0.9640 0.2500
vn 0.4750 0.1648 0.8644
vn -0.0918 -0.9645 0.2476
vn -0.0916 -0.9645 0.2475
vn 0.4761 0.1767 0.8615
vn -0.1133 -0.9716 0.2075
vn -0.1137 -0.9716 0.2075
vn 0.4716 0.1342 0.8716
vn -0.1136 -0.9716 0.2075
vn -0.1131 -0.9717 0.2074
vn -0.4714 -0.1342 -0.8716
vn -0.4716 -0.1341 -0.8716
vn 0.1319 0.9762 -0.1720
vn 0.1319 0.9762 -0.1719
vn 0.4674 0.0887 0.8796
vn 0.4670 0.0886 0.8798
vn 0.1160 0.9704 -0.2116
vn 0.1162 0.9704 -0.2118
vn 0.1150 0.9700 -0.2140
vn 0.1148 0.9701 -0.2138
vn 0.4685 0.1067 0.8770
vn 0.4679 0.1066 0.8773
vn 0.4686 0.1067 0.8769
vn -0.4692 -0.1060 -0.8767
vn -0.4695 -0.1058 -0.8766
vn -0.4697 -0.1056 -0.8765
vn -0.4689 -0.1062 -0.8768
vn -0.4740 -0.1536 -0.8670
vn -0.4740 -0.1538 -0.8670
vn -0.4741 -0.1523 -0.8672
vn -0.4741 -0.1520 -0.8673
vn -0.8746 0.1968 0.4430
vn -0.8748 0.1972 0.4425
vn -0.8760 0.1968 0.4403
vn -0.8756 0.1965 0.4412
vn -0.8758 0.1895 0.4439
vn -0.8746 0.1972 0.4430
vn -0.8757 0.1851 0.4460
vn 0.5749 0.6889 -0.4415
vn 0.5771 0.6898 -0.4371
vn 0.5794 0.6907 -0.4327
vn -0.8750 0.1962 0.4425
vn -0.8750 0.1961 0.4425
vn -0.8748 0.1960 0.4430
vn -0.8740 0.1968 0.4443
vn -0.8748 0.1965 0.4429
vn -0.8751 0.1960 0.4425
vn -0.8750 0.1969 0.4423
vn -0.8750 0.1963 0.4425
vn -0.8748 0.1964 0.4429
vn -0.8747 0.1971 0.4429
vn -0.8747 0.1968 0.4429
vn 0.8757 -0.1968 -0.4410
vn 0.8757 -0.1967 -0.4410
vn 0.8748 -0.1944 -0.4438
vn 0.8749 -0.1968 -0.4424
vn 0.8747 -0.1973 -0.4426
vn 0.8749 -0.1967 -0.4425
vn 0.8746 -0.1969 -0.4430
vn 0.8744 -0.1977 -0.4431
vn -0.3324 -0.8774 0.3460
vn 0.7843 -0.5098 -0.3536
vn 0.8747 -0.1967 -0.4430
vn 0.8749 -0.1965 -0.4426
vn 0.8751 -0.1960 -0.4425
vn 0.8750 -0.1961 -0.4426
vn 0.8750 -0.1962 -0.4425
vn 0.8750 -0.1953 -0.4430
vn 0.8750 -0.1962 -0.4426
vn 0.8745 -0.1942 -0.4444
vn 0.8747 -0.1970 -0.4428
vn 0.8747 -0.1966 -0.4430
vn 0.8747 -0.1971 -0.4428
vn 0.1210 0.9738 -0.1924
vn -0.4747 -0.1623 -0.8650
vn -0.1215 -0.9737 0.1929
vn -0.4738 -0.1562 -0.8666
vn -0.1221 -0.9738 0.1919
vn -0.1220 -0.9738 0.1919
vn 0.4688 0.1163 0.8756
vn 0.4686 0.1162 0.8757
vn 0.4692 0.1139 0.8757
vn 0.4704 0.1236 0.8738
vn 0.4703 0.1235 0.8738
vn 0.4683 0.1062 0.8772
vn 0.4682 0.1062 0.8772
vn 0.4747 0.1614 0.8653
vn -0.1120 -0.9711 0.2107
vn -0.1136 -0.9716 0.2076
vn 0.1164 0.9726 -0.2011
vn 0.4699 0.1204 0.8745
vn 0.4697 0.1200 0.8746
vn 0.4673 0.0988 0.8786
vn -0.4703 -0.1301 -0.8729
vn 0.1131 0.9717 -0.2073
vn -0.1145 -0.9719 0.2059
vn -0.1634 0.7406 -0.6518
vn -0.1639 0.7399 -0.6525
vn -0.4661 -0.0900 -0.8801
vn 0.4740 0.1641 0.8651
vn 0.1086 0.9702 -0.2167
vn 0.1083 0.9703 -0.2161
vn -0.4714 -0.1335 -0.8718
vn -0.4714 -0.1331 -0.8718
vn -0.4714 -0.1330 -0.8718
vn 0.1202 0.9736 -0.1939
vn -0.0988 -0.9670 0.2348
vn -0.0985 -0.9669 0.2354
vn 0.0873 -0.8350 0.5433
vn 0.0872 -0.8350 0.5433
vn -0.1214 -0.9737 0.1930
vn -0.1215 -0.9736 0.1930
vn 0.4687 0.1165 0.8757
vn 0.4690 0.1166 0.8755
vn 0.4690 0.1121 0.8761
vn -0.4707 -0.1263 -0.8732
vn 0.1163 0.9726 -0.2011
vn 0.1093 0.9707 -0.2142
vn -0.0986 -0.9669 0.2351
vn -0.4703 -0.1300 -0.8729
vn 0.4740 0.1640 0.8651
vn 0.1204 0.9737 -0.1937
vn 0.1204 0.9737 -0.1936
vn -0.0356 -0.9374 0.3465
vn 0.1103 0.9709 -0.2124
vn -0.4732 -0.1499 -0.8681
vn -0.4732 -0.1500 -0.8681
vn 0.1092 0.9706 -0.2144
vn -0.0986 -0.9669 0.2352
vn 0.4702 0.1235 0.8739
vn 0.4704 0.1236 0.8737
vn 0.4683 0.1061 0.8772
vn 0.4682 0.1061 0.8772
vn 0.4697 0.1199 0.8746
vn 0.4698 0.1199 0.8746
vn 0.1131 0.9717 -0.2072
vn -0.8737 0.1974 0.4447
vn -0.8739 0.1971 0.4444
vn -0.8740 0.1965 0.4445
vn -0.8737 0.1965 0.4450
vn -0.8738 0.1964 0.4448
vn -0.8740 0.1964 0.4445
vn -0.8739 0.1964 0.4446
vn -0.8736 0.1965 0.4453
vn -0.8737 0.1964 0.4450
vn -0.8738 0.1965 0.4448
vn -0.8813 0.1955 0.4302
vn -0.8744 0.1964 0.4437
vn -0.8753 0.1960 0.4421
vn -0.8738 0.1963 0.4448
vn -0.8746 0.1972 0.4429
vn -0.8747 0.1971 0.4428
vn -0.8741 0.1990 0.4431
vn 0.8740 -0.1964 -0.4444
vn 0.8738 -0.1971 -0.4444
vn 0.8737 -0.1974 -0.4446
vn 0.8812 -0.1952 -0.4306
vn 0.8753 -0.1959 -0.4421
vn 0.8744 -0.1963 -0.4438
vn 0.8741 -0.1963 -0.4444
vn 0.8741 -0.1963 -0.4443
vn 0.8739 -0.1964 -0.4446
vn 0.8740 -0.1963 -0.4446
vn 0.8736 -0.1965 -0.4453
vn 0.8740 -0.1964 -0.4445
vn 0.8738 -0.1965 -0.4448
vn 0.8738 -0.1964 -0.4448
vn 0.8737 -0.1964 -0.4451
vn 0.8749 -0.1950 -0.4434
vn 0.8748 -0.1973 -0.4425
vn -0.1442 -0.9783 0.1487
vn 0.4696 0.1025 0.8769
vn 0.4697 0.1025 0.8768
vn -0.4758 -0.1556 -0.8657
vn -0.4759 -0.1555 -0.8656
vn 0.1318 0.9763 -0.1719
vn -0.1073 -0.9701 0.2177
vn -0.1151 -0.9723 0.2033
vn 0.4673 0.0881 0.8797
vn 0.4667 0.0880 0.8800
vn -0.4739 -0.1366 -0.8699
vn -0.1443 -0.9783 0.1486
vn 0.3190 -0.4593 0.8290
vn -0.4759 -0.1554 -0.8657
vn 0.1221 0.9738 -0.1919
vn -0.4710 -0.1235 -0.8734
vn -0.4706 -0.1237 -0.8736
vn 0.1113 0.9713 -0.2103
vn 0.4693 0.0993 0.8774
vn -0.4715 -0.1203 -0.8736
vn -0.4713 -0.1205 -0.8737
vn 0.3192 -0.4588 0.8292
vn 0.3192 -0.4588 0.8293
vn 0.1220 0.9738 -0.1919
vn -0.4708 -0.1232 -0.8736
vn -0.4711 -0.1231 -0.8734
vn -0.1133 -0.9716 0.2076
vn -0.4700 -0.1054 -0.8764
vn -0.4701 -0.1053 -0.8763
vn 0.4694 0.1001 0.8773
vn 0.1112 0.9713 -0.2103
vn 0.1113 0.9713 -0.2104
vn 0.4716 0.1342 0.8715
vn -0.4713 -0.1192 -0.8739
vn -0.4715 -0.1190 -0.8738
vn -0.1256 -0.9749 0.1837
vn -0.1138 -0.9716 0.2076
vn -0.1133 -0.9717 0.2075
vn -0.4701 -0.1062 -0.8762
vn -0.4702 -0.1061 -0.8762
vn 0.4715 0.1342 0.8716
vn -0.1072 -0.9701 0.2176
vn -0.8749 0.1956 0.4430
vn -0.8747 0.1959 0.4433
vn -0.8748 0.1961 0.4430
vn -0.8750 0.1956 0.4428
vn -0.8750 0.1955 0.4428
vn 0.8752 -0.1958 -0.4423
vn 0.8750 -0.1956 -0.4428
vn 0.8750 -0.1957 -0.4428
vn 0.8749 -0.1957 -0.4431
vn 0.8747 -0.1957 -0.4433
vn 0.8750 -0.1953 -0.4431
vn -0.4676 -0.1063 -0.8775
vn -0.0820 -0.9615 0.2624
vn -0.4677 -0.1062 -0.8775
vn 0.1124 0.9719 -0.2070
vn -0.4667 -0.0989 -0.8789
vn 0.1134 0.9721 -0.2053
vn 0.1133 0.9721 -0.2052
vn -0.1105 -0.9714 0.2104
vn 0.4655 0.0901 0.8804
vn 0.4656 0.0902 0.8804
vn -0.1105 -0.9713 0.2104
vn 0.4655 0.0902 0.8804
vn 0.4681 0.1092 0.8769
vt 0.040485 0.391505
vt 0.000000 0.388430
vt 0.453522 0.001405
vt 0.456178 0.165641
vt 0.427656 0.167615
vt 0.336948 0.002761
vt 0.207234 0.555207
vt 0.122558 0.506203
vt 0.210613 0.512003
vt 0.208863 0.555284
vt 0.373429 0.168775
vt 0.339692 0.169728
vt 0.581648 0.554274
vt 0.625674 0.558186
vt 0.416003 0.221720
vt 0.416457 0.168504
vt 0.290850 0.448133
vt 0.290811 0.454327
vt 0.253999 0.446283
vt 0.376280 1.000000
vt 0.377872 0.889835
vt 0.500184 0.887946
vt 0.498641 0.945674
vt 0.456620 0.945083
vt 0.456057 1.000169
vt 0.126569 0.888058
vt 0.125896 0.833716
vt 0.250248 0.833390
vt 0.250097 0.888059
vt 0.249998 0.942228
vt 0.168033 0.940454
vt 0.167724 0.888822
vt 0.756135 0.892280
vt 0.749308 0.892165
vt 0.751029 0.834915
vt 0.874259 0.833232
vt 0.873915 0.887336
vt 0.835939 0.886824
vt 0.832385 0.943052
vt 0.753826 0.941529
vt 0.457074 0.221080
vt 0.374401 0.220810
vt 0.000000 0.775304
vt 0.085147 0.777003
vt 0.582336 0.444214
vt 0.623554 0.442286
vt 0.872948 0.669251
vt 0.873730 0.669919
vt 0.957032 0.669367
vt 0.957787 0.724226
vt 1.000000 0.724781
vt 1.000000 0.831895
vt 0.749313 0.615833
vt 0.750771 0.666148
vt 0.540120 0.554012
vt 0.748536 0.559600
vt 0.499418 0.447985
vt 0.500955 0.499935
vt 0.085882 0.833460
vt 0.251569 0.557306
vt 0.296151 0.224601
vt 0.290950 0.443954
vt 0.340594 0.224627
vt 0.495960 0.224554
vt 0.499613 0.396379
vt 0.580718 0.394327
vt 0.581748 0.444241
vt 0.873091 0.613976
vt 0.042247 0.330360
vt 0.085809 0.333011
vt 0.084145 0.392293
vt 0.125976 0.395204
vt 0.540458 0.500194
vt 0.582519 0.608335
vt 0.622899 0.608597
vt 0.624153 0.665651
vt 0.333288 0.558417
vt 0.290132 0.559138
vt 0.333079 0.463563
vt 0.332987 0.444417
vt 0.499490 0.499926
s 0
usemtl Material.008
f 443/1/1 297/2/1 693/2/1
f 443/1/2 693/2/2 735/1/2
f 2/3/3 249/4/3 245/5/3
f 2/3/4 245/5/4 21/6/4
f 177/7/5 169/8/5 174/9/5
f 177/7/6 174/9/6 24/10/6
f 542/11/7 536/12/7 920/12/7
f 542/11/8 920/12/8 924/11/8
f 197/13/9 66/14/9 491/14/9
f 197/13/9 491/14/9 944/13/9
f 263/15/10 266/16/10 863/16/10
f 263/15/10 863/16/10 860/15/10
f 35/17/11 208/18/11 30/19/11
f 7/20/5 125/21/5 114/22/5
f 114/22/5 119/23/5 122/24/5
f 122/24/5 4/25/5 7/20/5
f 114/22/12 122/24/12 7/20/12
s 1
f 324/17/13 495/18/14 759/18/15
f 324/17/13 759/18/15 787/17/15
s 0
f 144/26/5 147/27/5 233/28/5
f 130/29/5 135/30/5 138/31/5
f 144/26/5 233/28/5 130/29/5
f 130/29/5 138/31/5 141/32/5
f 130/29/16 141/32/16 144/26/16
s 1
f 111/33/17 237/34/18 243/35/19
f 243/35/19 98/36/20 100/37/21
f 103/38/22 106/39/23 108/40/23
f 243/35/19 100/37/21 103/38/22
f 103/38/22 108/40/23 111/33/17
f 243/35/19 103/38/22 111/33/17
s 0
f 245/5/3 249/4/3 50/41/3
f 21/6/4 245/5/4 264/16/4
f 264/16/3 262/15/3 260/42/3
f 256/11/3 250/12/3 21/6/3
f 264/16/4 260/42/4 256/11/4
f 264/16/4 256/11/4 21/6/4
f 295/43/24 441/44/24 732/44/24
f 295/43/25 732/44/25 690/43/25
f 127/21/26 132/29/26 604/29/26
f 127/21/27 604/29/27 602/21/27
f 63/14/5 193/13/5 180/45/5
f 63/14/5 180/45/5 60/46/5
s 1
f 93/36/28 230/47/29 82/48/30
f 82/48/30 87/49/31 90/50/32
f 90/50/32 15/51/33 18/52/34
f 18/52/34 93/36/28 82/48/30
f 82/48/30 90/50/32 18/52/34
s 0
f 362/53/35 514/54/35 784/54/35
f 362/53/35 784/54/35 706/53/35
f 285/3/36 305/6/36 529/5/36
f 285/3/37 529/5/37 532/4/37
f 462/7/38 308/10/38 459/9/38
f 462/7/39 459/9/39 454/8/39
f 480/13/40 476/55/40 906/55/40
f 480/13/41 906/55/41 909/13/41
f 359/53/42 356/56/42 964/56/42
f 359/53/42 964/56/42 967/53/42
s 1
f 204/57/43 186/58/43 831/58/43
s 0
f 204/57/44 831/58/44 843/57/44
f 320/17/45 315/19/45 493/18/45
f 399/22/39 410/21/39 291/20/39
f 291/20/46 288/25/46 407/24/46
f 407/24/46 404/23/46 399/22/46
f 291/20/39 407/24/39 399/22/39
f 32/19/47 209/18/47 638/18/47
f 32/19/48 638/18/48 583/19/48
f 518/28/39 432/27/39 429/26/39
f 426/32/39 423/31/39 420/30/39
f 518/28/46 429/26/46 426/32/46
f 426/32/39 420/30/39 415/29/39
f 426/32/39 415/29/39 518/28/39
s 1
f 526/35/49 521/34/50 396/33/51
f 396/33/51 393/40/52 390/39/53
f 387/38/54 384/37/55 378/36/56
f 396/33/51 390/39/53 387/38/54
f 378/36/56 526/35/49 396/33/51
f 396/33/51 387/38/54 378/36/56
s 0
f 529/5/37 331/41/37 532/4/37
f 549/16/37 529/5/37 305/6/37
f 305/6/36 535/12/36 540/11/36
f 540/11/36 543/42/36 546/15/36
f 546/15/36 549/16/36 305/6/36
f 305/6/57 540/11/57 546/15/57
s 1
f 517/47/58 371/48/58 712/48/59
f 517/47/58 712/48/59 794/47/59
s 0
f 442/44/60 439/59/60 730/59/60
f 442/44/60 730/59/60 733/44/60
f 348/14/39 345/46/39 465/45/39
f 348/14/39 465/45/39 478/13/39
s 1
f 369/48/61 516/47/62 383/36/63
f 383/36/63 304/52/64 301/51/65
f 377/50/66 373/49/67 369/48/61
f 383/36/63 301/51/65 377/50/66
f 383/36/63 377/50/66 369/48/61
s 0
f 247/4/68 1/3/68 286/3/68
f 247/4/69 286/3/69 533/4/69
f 3/3/70 22/6/70 306/6/70
f 3/3/70 306/6/70 287/3/70
f 8/20/71 6/25/71 290/25/71
f 8/20/71 290/25/71 292/20/71
f 14/2/72 12/43/72 296/43/72
f 14/2/73 296/43/73 298/2/73
f 20/52/74 17/51/74 300/51/74
f 20/52/74 300/51/74 303/52/74
f 27/60/75 25/10/75 310/10/75
f 27/60/76 310/10/76 312/60/76
f 33/19/77 28/60/77 313/60/77
f 33/19/78 313/60/78 318/19/78
f 36/17/79 31/19/79 316/19/79
f 36/17/80 316/19/80 321/17/80
f 42/61/81 278/62/81 562/62/81
f 42/61/82 562/62/82 326/61/82
f 43/63/83 40/61/83 325/61/83
f 43/63/83 325/61/83 328/63/83
s 1
f 23/6/84 253/12/85 537/12/85
f 23/6/84 537/12/85 307/6/86
s 0
f 52/64/87 47/41/87 332/41/87
f 52/64/88 332/41/88 336/64/88
f 54/65/89 53/64/89 338/64/89
f 54/65/90 338/64/90 339/65/90
f 57/66/91 55/65/91 340/65/91
f 57/66/92 340/65/92 342/66/92
f 59/67/93 56/66/93 341/66/93
f 59/67/93 341/66/93 344/67/93
f 62/46/94 181/45/94 466/45/94
f 62/46/95 466/45/95 347/46/95
f 67/14/96 61/46/96 346/46/96
f 67/14/97 346/46/97 352/14/97
f 69/56/98 65/14/98 350/14/98
f 69/56/99 350/14/99 354/56/99
f 73/53/100 70/56/100 355/56/100
f 73/53/101 355/56/101 358/53/101
f 81/68/102 76/53/102 360/53/102
f 81/68/103 360/53/103 365/68/103
s 1
f 84/48/104 79/68/105 363/68/106
f 84/48/104 363/68/106 367/48/107
f 89/49/108 85/48/109 370/48/110
f 89/49/108 370/48/110 374/49/111
s 0
f 92/50/112 88/49/112 372/49/112
f 92/50/113 372/49/113 376/50/113
f 16/51/114 91/50/114 375/50/114
f 16/51/114 375/50/114 299/51/114
s 1
f 94/36/115 19/52/116 302/52/116
f 94/36/115 302/52/116 379/36/117
f 99/37/118 97/36/119 382/36/120
f 99/37/118 382/36/120 385/37/121
s 0
f 104/38/122 101/37/122 386/37/122
f 104/38/122 386/37/122 389/38/122
f 105/39/123 102/38/123 388/38/123
f 105/39/124 388/38/124 391/39/124
f 109/40/125 107/39/125 392/39/125
f 109/40/126 392/39/126 394/40/126
f 113/33/127 110/40/127 395/40/127
f 113/33/128 395/40/128 398/33/128
s 1
f 117/22/129 239/34/130 525/34/131
f 117/22/129 525/34/131 403/22/129
s 0
f 120/23/132 116/22/132 401/22/132
s 1
f 120/23/133 401/22/133 405/23/133
s 0
f 124/24/134 121/23/134 406/23/134
f 124/24/135 406/23/135 409/24/135
f 5/25/136 123/24/136 408/24/136
f 5/25/137 408/24/137 289/25/137
f 129/21/138 9/20/138 293/20/138
f 129/21/139 293/20/139 414/21/139
f 133/29/140 128/21/140 413/21/140
f 133/29/141 413/21/141 418/29/141
f 136/30/142 131/29/142 416/29/142
f 136/30/143 416/29/143 421/30/143
f 139/31/144 137/30/144 422/30/144
f 139/31/144 422/30/144 424/31/144
f 143/32/145 140/31/145 425/31/145
f 143/32/145 425/31/145 428/32/145
f 145/26/146 142/32/146 427/32/146
f 145/26/147 427/32/147 430/26/147
f 151/27/148 146/26/148 431/26/148
f 151/27/149 431/26/149 436/27/149
f 152/59/150 149/27/150 434/27/150
f 152/59/151 434/27/151 437/59/151
f 157/44/60 154/59/60 439/59/60
f 157/44/60 439/59/60 442/44/60
f 11/43/152 156/44/152 440/44/152
f 11/43/153 440/44/153 294/43/153
f 158/1/154 13/2/154 297/2/154
f 158/1/154 297/2/154 443/1/154
f 161/69/155 159/1/155 444/1/155
f 161/69/156 444/1/156 446/69/156
f 162/70/157 160/69/157 445/69/157
f 162/70/157 445/69/157 447/70/157
f 165/71/158 163/70/158 448/70/158
f 165/71/158 448/70/158 450/71/158
f 166/72/159 164/71/159 449/71/159
f 166/72/160 449/71/160 451/72/160
f 172/8/161 167/72/161 452/72/161
f 172/8/161 452/72/161 457/8/161
f 175/9/162 170/8/162 455/8/162
f 175/9/163 455/8/163 460/9/163
f 26/10/164 176/9/164 461/9/164
f 26/10/164 461/9/164 311/10/164
f 187/73/165 183/58/165 469/58/165
f 187/73/166 469/58/166 473/73/166
f 192/55/167 189/73/167 474/73/167
f 192/55/167 474/73/167 477/55/167
f 195/13/168 191/55/168 475/55/168
f 195/13/169 475/55/169 479/13/169
f 182/45/170 201/13/170 486/13/170
f 182/45/171 486/13/171 467/45/171
f 202/57/172 58/67/172 343/67/172
f 202/57/173 343/67/173 487/57/173
f 185/58/174 203/57/174 489/57/174
s 1
f 185/58/175 489/57/175 471/58/175
f 238/34/176 112/33/177 397/33/178
f 238/34/176 397/33/178 523/34/179
f 49/41/180 248/4/181 534/4/181
f 49/41/180 534/4/181 335/41/182
f 254/12/183 45/63/184 329/63/185
f 254/12/183 329/63/185 538/12/186
f 280/62/187 38/17/188 322/17/189
f 280/62/187 322/17/189 564/62/190
s 0
f 570/43/191 574/2/191 615/1/191
f 615/1/191 618/69/191 621/70/191
f 624/71/5 627/72/5 630/8/5
f 615/1/5 621/70/5 624/71/5
s 1
f 588/68/192 591/48/193 672/47/194
f 663/54/195 585/53/196 588/68/192
s 0
f 654/74/5 657/75/5 660/76/5
s 1
f 663/54/195 588/68/192 672/47/194
f 660/76/197 663/54/195 672/47/194
s 0
f 570/43/5 615/1/5 624/71/5
f 570/43/5 624/71/5 630/8/5
f 660/76/5 672/47/5 570/43/5
f 648/77/5 651/13/5 654/74/5
f 654/74/5 660/76/5 570/43/5
f 570/43/5 630/8/5 633/7/5
s 1
f 633/7/198 577/10/199 579/60/200
s 0
f 579/60/5 582/19/5 637/18/5
f 646/78/5 648/77/5 654/74/5
f 579/60/5 637/18/5 646/78/5
f 570/43/5 633/7/5 579/60/5
f 646/78/5 654/74/5 570/43/5
f 579/60/5 646/78/5 570/43/5
s 1
f 612/44/201 571/43/202 674/47/203
f 674/47/203 671/36/204 681/35/205
f 681/35/205 595/34/201 598/22/201
f 598/22/201 601/21/206 603/29/201
f 677/28/201 607/27/207 609/59/208
f 598/22/201 603/29/201 677/28/201
f 674/47/203 681/35/205 598/22/201
f 609/59/208 612/44/201 674/47/203
f 674/47/203 598/22/201 677/28/201
f 674/47/203 677/28/201 609/59/208
s 0
f 641/79/191 647/77/191 645/78/191
f 641/79/5 645/78/5 636/18/5
f 666/17/209 683/62/209 687/80/209
f 687/80/210 644/79/210 639/18/210
f 687/80/211 639/18/211 666/17/211
f 734/1/39 692/2/39 688/43/39
s 1
f 791/47/212 710/48/213 707/68/214
s 0
f 740/70/39 737/69/39 734/1/39
f 749/8/39 746/72/39 743/71/39
f 743/71/39 740/70/39 734/1/39
f 791/47/39 707/68/39 704/53/39
s 1
f 791/47/215 704/53/216 782/54/217
s 0
f 743/71/39 734/1/39 688/43/39
f 749/8/39 743/71/39 688/43/39
s 1
f 688/43/218 791/47/215 782/54/217
s 0
f 779/76/39 776/75/39 773/74/39
s 1
f 688/43/218 782/54/217 779/76/219
s 0
f 752/7/39 749/8/39 688/43/39
s 1
f 698/60/220 695/10/220 752/7/220
s 0
f 756/18/39 701/19/39 698/60/39
s 1
f 770/13/221 767/77/221 765/78/221
s 0
f 765/78/39 756/18/39 698/60/39
f 698/60/46 752/7/46 688/43/46
f 688/43/39 779/76/39 773/74/39
f 773/74/39 770/13/39 765/78/39
f 765/78/222 698/60/222 688/43/222
f 688/43/39 773/74/39 765/78/39
s 1
f 792/47/223 689/43/224 731/44/225
f 731/44/225 728/59/226 725/27/226
f 795/28/226 722/29/226 719/21/226
f 731/44/225 725/27/226 795/28/226
f 788/36/227 792/47/223 731/44/225
f 716/22/228 713/34/226 798/35/229
f 798/35/229 788/36/227 731/44/225
f 795/28/226 719/21/226 716/22/228
f 798/35/229 731/44/225 795/28/226
f 795/28/226 716/22/228 798/35/229
s 0
f 760/79/39 755/18/39 764/78/39
f 760/79/39 764/78/39 766/77/39
f 804/80/230 801/62/230 785/17/230
f 785/17/231 757/18/231 761/79/231
f 785/17/232 761/79/232 804/80/232
f 411/21/233 400/22/233 717/22/233
f 411/21/233 717/22/233 720/21/233
f 446/69/234 444/1/234 736/1/234
f 446/69/234 736/1/234 739/69/234
f 366/68/235 361/53/235 705/53/235
f 366/68/235 705/53/235 709/68/235
f 37/17/236 279/62/236 684/62/236
f 37/17/236 684/62/236 667/17/236
f 273/77/237 199/13/237 653/13/237
f 273/77/238 653/13/238 650/77/238
s 1
f 381/36/239 515/47/239 793/47/239
s 0
f 381/36/240 793/47/240 790/36/240
f 447/70/157 445/69/157 738/69/157
f 447/70/157 738/69/157 741/70/157
f 368/48/241 364/68/241 708/68/241
f 368/48/241 708/68/241 711/48/241
f 268/79/242 272/77/242 649/77/242
f 268/79/243 649/77/243 643/79/243
f 198/13/244 215/74/244 656/74/244
f 198/13/245 656/74/245 652/13/245
f 450/71/246 448/70/246 742/70/246
f 450/71/158 742/70/158 745/71/158
f 275/62/247 281/80/247 685/80/247
f 275/62/247 685/80/247 682/62/247
f 214/74/248 218/75/248 658/75/248
f 214/74/248 658/75/248 655/74/248
f 433/27/249 519/28/249 796/28/249
f 433/27/249 796/28/249 726/27/249
f 451/72/159 449/71/159 744/71/159
f 451/72/159 744/71/159 747/72/159
f 282/80/250 267/79/250 642/79/250
f 282/80/251 642/79/251 686/80/251
f 219/75/252 223/76/252 662/76/252
f 219/75/252 662/76/252 659/75/252
s 1
f 520/28/253 419/29/253 724/29/253
f 520/28/253 724/29/253 797/28/253
s 0
f 150/27/254 153/59/254 610/59/254
f 150/27/254 610/59/254 608/27/254
f 458/8/161 453/72/161 748/72/161
f 458/8/161 748/72/161 751/8/161
f 222/76/255 226/54/255 664/54/255
f 222/76/255 664/54/255 661/76/255
f 154/59/60 157/44/60 614/44/60
f 154/59/60 614/44/60 611/59/60
f 86/48/256 232/47/256 675/47/256
f 86/48/257 675/47/257 593/48/257
f 229/54/258 77/53/258 587/53/258
f 229/54/258 587/53/258 665/54/258
f 522/34/259 528/35/259 800/35/259
f 522/34/259 800/35/259 714/34/259
f 155/44/260 10/43/260 572/43/260
f 155/44/261 572/43/261 613/44/261
s 1
f 210/18/262 39/17/262 668/17/263
f 210/18/262 668/17/263 640/18/264
s 0
f 527/35/265 380/36/265 789/36/265
f 527/35/265 789/36/265 799/35/265
f 13/2/2 158/1/2 616/1/2
f 13/2/1 616/1/1 575/2/1
f 309/10/266 463/7/266 753/7/266
f 309/10/267 753/7/267 696/10/267
f 115/22/233 126/21/233 600/21/233
f 115/22/233 600/21/233 597/22/233
f 159/1/234 161/69/234 620/69/234
f 159/1/234 620/69/234 617/1/234
f 464/7/268 456/8/268 750/8/268
f 464/7/269 750/8/269 754/7/269
f 75/53/270 80/68/270 590/68/270
f 75/53/271 590/68/271 586/53/271
f 231/47/272 96/36/272 670/36/272
f 231/47/273 670/36/273 673/47/273
f 160/69/157 162/70/157 622/70/157
f 160/69/157 622/70/157 619/69/157
f 78/68/274 83/48/274 592/48/274
f 78/68/274 592/48/274 589/68/274
f 298/2/72 296/43/72 691/43/72
f 298/2/275 691/43/275 694/2/275
f 163/70/246 165/71/246 626/71/246
f 163/70/246 626/71/246 623/70/246
f 234/28/249 148/27/249 606/27/249
f 234/28/276 606/27/276 676/28/276
f 164/71/159 166/72/159 628/72/159
f 164/71/159 628/72/159 625/71/159
f 402/22/277 524/34/277 715/34/277
f 402/22/277 715/34/277 718/22/277
f 312/60/278 310/10/278 697/10/278
f 312/60/278 697/10/278 699/60/278
f 134/29/279 235/28/279 678/28/279
f 134/29/279 678/28/279 605/29/279
f 168/72/161 173/8/161 632/8/161
f 168/72/161 632/8/161 629/72/161
f 319/19/78 314/60/78 700/60/78
f 319/19/77 700/60/77 703/19/77
f 242/35/280 236/34/280 594/34/280
f 242/35/280 594/34/280 680/35/280
f 95/36/281 241/35/281 679/35/281
f 95/36/282 679/35/282 669/36/282
f 178/7/267 25/10/267 578/10/267
f 178/7/266 578/10/266 634/7/266
f 171/8/269 179/7/269 635/7/269
f 171/8/269 635/7/269 631/8/269
s 1
f 494/18/283 317/19/283 702/19/283
s 0
f 494/18/47 702/19/47 758/18/47
f 417/29/284 412/21/284 721/21/284
f 417/29/26 721/21/26 723/29/26
f 12/43/275 14/2/275 576/2/275
f 12/43/72 576/2/72 573/43/72
f 565/62/285 323/17/285 786/17/285
f 565/62/286 786/17/286 803/62/286
f 484/13/238 558/77/238 769/77/238
f 484/13/238 769/77/238 772/13/238
f 240/34/287 118/22/287 599/22/287
f 240/34/287 599/22/287 596/34/287
f 25/10/288 27/60/288 580/60/288
f 25/10/288 580/60/288 578/10/288
f 557/77/289 553/79/289 763/79/289
f 557/77/290 763/79/290 768/77/290
f 500/74/291 483/13/291 771/13/291
f 500/74/292 771/13/292 775/74/292
f 29/60/78 34/19/78 584/19/78
f 29/60/78 584/19/78 581/60/78
f 566/80/247 560/62/247 802/62/247
f 566/80/247 802/62/247 805/80/247
f 503/75/248 499/74/248 774/74/248
f 503/75/248 774/74/248 777/75/248
f 552/79/293 567/80/293 806/80/293
f 552/79/294 806/80/294 762/79/294
f 508/76/252 504/75/252 778/75/252
f 508/76/252 778/75/252 781/76/252
f 438/59/295 435/27/295 727/27/295
f 438/59/295 727/27/295 729/59/295
f 511/54/255 507/76/255 780/76/255
f 511/54/255 780/76/255 783/54/255
s 1
f 822/66/296 825/67/297 841/57/298
f 841/57/298 829/58/299 845/81/300
f 845/81/300 865/79/301 868/80/301
f 868/80/301 496/62/302 212/61/303
f 808/63/304 849/12/305 852/11/305
f 868/80/301 212/61/303 808/63/304
f 841/57/298 845/81/300 868/80/301
f 819/65/306 822/66/296 841/57/298
f 813/41/307 816/64/308 819/65/306
f 861/16/305 810/5/309 813/41/307
f 858/15/300 861/16/305 813/41/307
f 813/41/307 819/65/306 841/57/298
f 841/57/298 868/80/301 808/63/304
f 808/63/304 852/11/305 855/42/300
f 858/15/300 813/41/307 841/57/298
f 808/63/304 855/42/300 858/15/300
f 841/57/298 808/63/304 858/15/300
s 0
f 835/55/310 838/13/310 846/77/310
f 846/77/5 864/79/5 844/81/5
f 828/58/311 832/73/311 835/55/311
s 1
f 846/77/312 844/81/312 828/58/312
s 0
f 846/77/12 828/58/12 835/55/12
s 1
f 913/57/313 897/67/314 893/66/315
f 890/65/316 888/64/317 885/41/318
f 913/57/313 893/66/315 890/65/316
f 915/81/319 901/58/320 913/57/313
f 938/80/321 935/79/322 915/81/319
f 875/61/323 871/62/324 938/80/321
f 923/11/325 919/12/325 878/63/326
f 878/63/326 875/61/323 938/80/321
f 938/80/321 915/81/319 913/57/313
f 913/57/313 890/65/316 885/41/318
f 885/41/318 881/5/325 931/16/325
f 885/41/318 931/16/325 929/15/326
f 938/80/321 913/57/313 885/41/318
f 923/11/325 878/63/326 938/80/321
f 927/42/327 923/11/325 938/80/321
f 938/80/321 885/41/318 929/15/326
f 929/15/326 927/42/327 938/80/321
s 0
f 916/77/328 908/13/328 905/55/328
f 905/55/232 902/73/232 898/58/232
f 914/81/39 934/79/39 916/77/39
f 905/55/329 898/58/329 914/81/329
f 905/55/218 914/81/218 916/77/218
f 265/16/330 246/5/330 812/5/330
f 265/16/330 812/5/330 862/16/330
f 545/42/331 541/11/331 922/11/331
f 545/42/332 922/11/332 926/42/332
f 277/62/333 41/61/333 213/61/333
f 277/62/334 213/61/334 498/62/334
f 487/57/335 343/67/335 895/67/335
f 487/57/172 895/67/172 911/57/172
f 547/15/336 544/42/336 925/42/336
f 547/15/336 925/42/336 928/15/336
f 40/61/337 43/63/337 807/63/337
f 40/61/83 807/63/83 211/61/83
s 1
f 470/58/338 488/57/338 912/57/338
s 0
f 470/58/339 912/57/339 900/58/339
f 551/16/340 548/15/340 930/15/340
f 551/16/340 930/15/340 933/16/340
f 531/5/341 550/16/341 932/16/341
f 531/5/341 932/16/341 882/5/341
f 244/5/342 48/41/342 815/41/342
f 244/5/342 815/41/342 811/5/342
f 327/61/343 563/62/343 873/62/343
f 327/61/343 873/62/343 876/61/343
f 196/13/344 271/77/344 847/77/344
f 196/13/344 847/77/344 840/13/344
s 1
f 274/77/345 270/79/345 867/79/345
s 0
f 274/77/346 867/79/346 848/77/346
f 46/41/88 51/64/88 817/64/88
f 46/41/88 817/64/88 814/41/88
f 328/63/337 325/61/337 874/61/337
f 328/63/83 874/61/83 877/63/83
f 283/80/347 276/62/347 497/62/347
f 283/80/347 497/62/347 869/80/347
f 53/64/89 54/65/89 820/65/89
f 53/64/348 820/65/348 818/64/348
s 1
f 269/79/349 284/80/349 870/80/349
s 0
f 269/79/350 870/80/350 866/79/350
f 55/65/91 57/66/91 824/66/91
f 55/65/91 824/66/91 821/65/91
f 334/41/351 530/5/351 880/5/351
f 334/41/352 880/5/352 884/41/352
f 556/77/353 481/13/353 910/13/353
f 556/77/344 910/13/344 917/77/344
s 1
f 555/79/354 559/77/354 918/77/354
s 0
f 555/79/355 918/77/355 937/79/355
f 184/58/41 188/73/41 833/73/41
f 184/58/356 833/73/356 830/58/356
f 44/63/357 252/12/357 851/12/357
f 44/63/358 851/12/358 809/63/358
f 56/66/359 59/67/359 827/67/359
f 56/66/359 827/67/359 823/66/359
f 337/64/88 333/41/88 883/41/88
f 337/64/88 883/41/88 886/64/88
s 1
f 561/62/360 568/80/360 939/80/360
f 561/62/360 939/80/360 872/62/361
s 0
f 189/73/362 192/55/362 837/55/362
f 189/73/362 837/55/362 834/73/362
f 339/65/348 338/64/348 887/64/348
f 339/65/89 887/64/89 889/65/89
f 569/80/363 554/79/363 936/79/363
f 569/80/364 936/79/364 940/80/364
f 190/55/166 194/13/166 839/13/166
f 190/55/166 839/13/166 836/55/166
f 251/12/7 257/11/7 854/11/7
f 251/12/365 854/11/365 850/12/365
f 342/66/91 340/65/91 891/65/91
f 342/66/92 891/65/92 894/66/92
f 472/73/366 468/58/366 899/58/366
f 472/73/367 899/58/367 903/73/165
f 255/11/332 259/42/332 857/42/332
f 255/11/332 857/42/332 853/11/332
f 539/12/368 330/63/368 879/63/368
f 539/12/369 879/63/369 921/12/369
f 344/67/359 341/66/359 892/66/359
f 344/67/359 892/66/359 896/67/359
f 58/67/335 202/57/335 842/57/335
f 58/67/335 842/57/335 826/67/335
f 477/55/362 474/73/362 904/73/362
f 477/55/370 904/73/370 907/55/370
f 258/42/371 261/15/371 859/15/371
f 258/42/336 859/15/336 856/42/336
s 1
f 943/53/372 957/54/373 953/76/374
f 950/75/375 947/74/376 945/13/375
f 943/53/372 953/76/374 950/75/375
f 492/14/375 207/56/375 943/53/372
f 950/75/375 945/13/375 492/14/375
f 943/53/372 950/75/375 492/14/375
f 965/53/377 962/56/378 959/14/379
f 959/14/379 968/13/378 971/74/378
f 974/75/380 977/76/381 980/54/382
f 959/14/379 971/74/378 974/75/380
f 980/54/382 965/53/377 959/14/379
f 959/14/379 974/75/380 980/54/382
s 0
f 217/74/383 200/13/383 946/13/383
f 217/74/383 946/13/383 949/74/383
f 351/14/384 482/13/384 969/13/384
f 351/14/384 969/13/384 961/14/384
f 485/13/383 502/74/383 973/74/383
f 485/13/385 973/74/385 970/13/385
f 220/75/386 216/74/386 948/74/386
f 220/75/386 948/74/386 951/75/386
f 501/74/386 505/75/386 975/75/386
f 501/74/386 975/75/386 972/74/386
f 225/76/387 221/75/387 952/75/387
f 225/76/387 952/75/387 955/76/387
f 506/75/387 510/76/387 979/76/387
f 506/75/387 979/76/387 976/75/387
f 228/54/388 224/76/388 954/76/388
f 228/54/389 954/76/389 958/54/389
f 509/76/389 513/54/389 982/54/389
f 509/76/389 982/54/389 978/76/389
f 64/14/390 68/56/390 205/56/390
f 64/14/390 205/56/390 490/14/390
f 72/53/391 227/54/391 956/54/391
f 72/53/392 956/54/392 941/53/392
f 353/56/393 349/14/393 960/14/393
f 353/56/393 960/14/393 963/56/393
f 512/54/394 357/53/394 966/53/394
f 512/54/394 966/53/394 981/54/394
f 71/56/395 74/53/395 942/53/395
f 71/56/100 942/53/100 206/56/100
